%TF.GenerationSoftware,KiCad,Pcbnew,(5.1.6)-1*%
%TF.CreationDate,2020-09-21T21:17:43+08:00*%
%TF.ProjectId,f1c200s_core,66316332-3030-4735-9f63-6f72652e6b69,rev?*%
%TF.SameCoordinates,Original*%
%TF.FileFunction,Soldermask,Bot*%
%TF.FilePolarity,Negative*%
%FSLAX46Y46*%
G04 Gerber Fmt 4.6, Leading zero omitted, Abs format (unit mm)*
G04 Created by KiCad (PCBNEW (5.1.6)-1) date 2020-09-21 21:17:43*
%MOMM*%
%LPD*%
G01*
G04 APERTURE LIST*
%ADD10R,0.450000X1.700000*%
%ADD11C,0.900000*%
%ADD12R,0.900000X1.000000*%
%ADD13C,2.600000*%
%ADD14C,1.300000*%
%ADD15R,2.100000X3.100000*%
%ADD16R,3.100000X5.100000*%
%ADD17R,1.900000X0.800000*%
G04 APERTURE END LIST*
D10*
%TO.C,NGFF*%
X102170000Y-48470000D03*
X101670000Y-48470000D03*
X102670000Y-48470000D03*
X103170000Y-48470000D03*
X103670000Y-48470000D03*
X104170000Y-48470000D03*
X104670000Y-48470000D03*
X105170000Y-48470000D03*
X105670000Y-48470000D03*
X106170000Y-48470000D03*
X110170000Y-48470000D03*
X109670000Y-48470000D03*
X108670000Y-48470000D03*
X109170000Y-48470000D03*
X101170000Y-48470000D03*
X100670000Y-48470000D03*
X100170000Y-48470000D03*
X99670000Y-48470000D03*
X99170000Y-48470000D03*
X98670000Y-48470000D03*
X98170000Y-48470000D03*
X97670000Y-48470000D03*
X97170000Y-48470000D03*
X96670000Y-48470000D03*
X96170000Y-48470000D03*
X95670000Y-48470000D03*
X95170000Y-48470000D03*
X94670000Y-48470000D03*
X94170000Y-48470000D03*
X93670000Y-48470000D03*
X93170000Y-48470000D03*
X92670000Y-48470000D03*
X92170000Y-48470000D03*
%TD*%
D11*
%TO.C,SW1*%
X93423000Y-74621000D03*
X93423000Y-76421000D03*
%TD*%
%TO.C,R17*%
G36*
G01*
X102762000Y-61988500D02*
X102762000Y-62383500D01*
G75*
G02*
X102589500Y-62556000I-172500J0D01*
G01*
X102244500Y-62556000D01*
G75*
G02*
X102072000Y-62383500I0J172500D01*
G01*
X102072000Y-61988500D01*
G75*
G02*
X102244500Y-61816000I172500J0D01*
G01*
X102589500Y-61816000D01*
G75*
G02*
X102762000Y-61988500I0J-172500D01*
G01*
G37*
G36*
G01*
X101792000Y-61988500D02*
X101792000Y-62383500D01*
G75*
G02*
X101619500Y-62556000I-172500J0D01*
G01*
X101274500Y-62556000D01*
G75*
G02*
X101102000Y-62383500I0J172500D01*
G01*
X101102000Y-61988500D01*
G75*
G02*
X101274500Y-61816000I172500J0D01*
G01*
X101619500Y-61816000D01*
G75*
G02*
X101792000Y-61988500I0J-172500D01*
G01*
G37*
%TD*%
%TO.C,R16*%
G36*
G01*
X100222000Y-61988500D02*
X100222000Y-62383500D01*
G75*
G02*
X100049500Y-62556000I-172500J0D01*
G01*
X99704500Y-62556000D01*
G75*
G02*
X99532000Y-62383500I0J172500D01*
G01*
X99532000Y-61988500D01*
G75*
G02*
X99704500Y-61816000I172500J0D01*
G01*
X100049500Y-61816000D01*
G75*
G02*
X100222000Y-61988500I0J-172500D01*
G01*
G37*
G36*
G01*
X99252000Y-61988500D02*
X99252000Y-62383500D01*
G75*
G02*
X99079500Y-62556000I-172500J0D01*
G01*
X98734500Y-62556000D01*
G75*
G02*
X98562000Y-62383500I0J172500D01*
G01*
X98562000Y-61988500D01*
G75*
G02*
X98734500Y-61816000I172500J0D01*
G01*
X99079500Y-61816000D01*
G75*
G02*
X99252000Y-61988500I0J-172500D01*
G01*
G37*
%TD*%
D12*
%TO.C,U4*%
X106819000Y-66615000D03*
X104919000Y-66615000D03*
X105869000Y-64615000D03*
%TD*%
D13*
%TO.C,U3*%
X99900000Y-58630000D03*
%TD*%
D14*
%TO.C,U2*%
X107012000Y-71330000D03*
%TD*%
D15*
%TO.C,U1*%
X96852000Y-67393000D03*
D16*
X96852000Y-69298000D03*
D17*
X100952000Y-71203000D03*
X92752000Y-71203000D03*
X100952000Y-69933000D03*
X92752000Y-69933000D03*
X100952000Y-68663000D03*
X92752000Y-68663000D03*
X100952000Y-67393000D03*
X92752000Y-67393000D03*
%TD*%
%TO.C,R9*%
G36*
G01*
X101494500Y-57047000D02*
X101099500Y-57047000D01*
G75*
G02*
X100927000Y-56874500I0J172500D01*
G01*
X100927000Y-56529500D01*
G75*
G02*
X101099500Y-56357000I172500J0D01*
G01*
X101494500Y-56357000D01*
G75*
G02*
X101667000Y-56529500I0J-172500D01*
G01*
X101667000Y-56874500D01*
G75*
G02*
X101494500Y-57047000I-172500J0D01*
G01*
G37*
G36*
G01*
X101494500Y-56077000D02*
X101099500Y-56077000D01*
G75*
G02*
X100927000Y-55904500I0J172500D01*
G01*
X100927000Y-55559500D01*
G75*
G02*
X101099500Y-55387000I172500J0D01*
G01*
X101494500Y-55387000D01*
G75*
G02*
X101667000Y-55559500I0J-172500D01*
G01*
X101667000Y-55904500D01*
G75*
G02*
X101494500Y-56077000I-172500J0D01*
G01*
G37*
%TD*%
%TO.C,R8*%
G36*
G01*
X99959000Y-54890500D02*
X99959000Y-54495500D01*
G75*
G02*
X100131500Y-54323000I172500J0D01*
G01*
X100476500Y-54323000D01*
G75*
G02*
X100649000Y-54495500I0J-172500D01*
G01*
X100649000Y-54890500D01*
G75*
G02*
X100476500Y-55063000I-172500J0D01*
G01*
X100131500Y-55063000D01*
G75*
G02*
X99959000Y-54890500I0J172500D01*
G01*
G37*
G36*
G01*
X100929000Y-54890500D02*
X100929000Y-54495500D01*
G75*
G02*
X101101500Y-54323000I172500J0D01*
G01*
X101446500Y-54323000D01*
G75*
G02*
X101619000Y-54495500I0J-172500D01*
G01*
X101619000Y-54890500D01*
G75*
G02*
X101446500Y-55063000I-172500J0D01*
G01*
X101101500Y-55063000D01*
G75*
G02*
X100929000Y-54890500I0J172500D01*
G01*
G37*
%TD*%
%TO.C,R4*%
G36*
G01*
X103258500Y-68595000D02*
X103653500Y-68595000D01*
G75*
G02*
X103826000Y-68767500I0J-172500D01*
G01*
X103826000Y-69112500D01*
G75*
G02*
X103653500Y-69285000I-172500J0D01*
G01*
X103258500Y-69285000D01*
G75*
G02*
X103086000Y-69112500I0J172500D01*
G01*
X103086000Y-68767500D01*
G75*
G02*
X103258500Y-68595000I172500J0D01*
G01*
G37*
G36*
G01*
X103258500Y-69565000D02*
X103653500Y-69565000D01*
G75*
G02*
X103826000Y-69737500I0J-172500D01*
G01*
X103826000Y-70082500D01*
G75*
G02*
X103653500Y-70255000I-172500J0D01*
G01*
X103258500Y-70255000D01*
G75*
G02*
X103086000Y-70082500I0J172500D01*
G01*
X103086000Y-69737500D01*
G75*
G02*
X103258500Y-69565000I172500J0D01*
G01*
G37*
%TD*%
%TO.C,C34*%
G36*
G01*
X103778000Y-64909500D02*
X103778000Y-65304500D01*
G75*
G02*
X103605500Y-65477000I-172500J0D01*
G01*
X103260500Y-65477000D01*
G75*
G02*
X103088000Y-65304500I0J172500D01*
G01*
X103088000Y-64909500D01*
G75*
G02*
X103260500Y-64737000I172500J0D01*
G01*
X103605500Y-64737000D01*
G75*
G02*
X103778000Y-64909500I0J-172500D01*
G01*
G37*
G36*
G01*
X102808000Y-64909500D02*
X102808000Y-65304500D01*
G75*
G02*
X102635500Y-65477000I-172500J0D01*
G01*
X102290500Y-65477000D01*
G75*
G02*
X102118000Y-65304500I0J172500D01*
G01*
X102118000Y-64909500D01*
G75*
G02*
X102290500Y-64737000I172500J0D01*
G01*
X102635500Y-64737000D01*
G75*
G02*
X102808000Y-64909500I0J-172500D01*
G01*
G37*
%TD*%
%TO.C,C22*%
G36*
G01*
X111017000Y-67322500D02*
X111017000Y-67717500D01*
G75*
G02*
X110844500Y-67890000I-172500J0D01*
G01*
X110499500Y-67890000D01*
G75*
G02*
X110327000Y-67717500I0J172500D01*
G01*
X110327000Y-67322500D01*
G75*
G02*
X110499500Y-67150000I172500J0D01*
G01*
X110844500Y-67150000D01*
G75*
G02*
X111017000Y-67322500I0J-172500D01*
G01*
G37*
G36*
G01*
X110047000Y-67322500D02*
X110047000Y-67717500D01*
G75*
G02*
X109874500Y-67890000I-172500J0D01*
G01*
X109529500Y-67890000D01*
G75*
G02*
X109357000Y-67717500I0J172500D01*
G01*
X109357000Y-67322500D01*
G75*
G02*
X109529500Y-67150000I172500J0D01*
G01*
X109874500Y-67150000D01*
G75*
G02*
X110047000Y-67322500I0J-172500D01*
G01*
G37*
%TD*%
%TO.C,C20*%
G36*
G01*
X111017000Y-66306500D02*
X111017000Y-66701500D01*
G75*
G02*
X110844500Y-66874000I-172500J0D01*
G01*
X110499500Y-66874000D01*
G75*
G02*
X110327000Y-66701500I0J172500D01*
G01*
X110327000Y-66306500D01*
G75*
G02*
X110499500Y-66134000I172500J0D01*
G01*
X110844500Y-66134000D01*
G75*
G02*
X111017000Y-66306500I0J-172500D01*
G01*
G37*
G36*
G01*
X110047000Y-66306500D02*
X110047000Y-66701500D01*
G75*
G02*
X109874500Y-66874000I-172500J0D01*
G01*
X109529500Y-66874000D01*
G75*
G02*
X109357000Y-66701500I0J172500D01*
G01*
X109357000Y-66306500D01*
G75*
G02*
X109529500Y-66134000I172500J0D01*
G01*
X109874500Y-66134000D01*
G75*
G02*
X110047000Y-66306500I0J-172500D01*
G01*
G37*
%TD*%
%TO.C,C19*%
G36*
G01*
X100083500Y-55387000D02*
X100478500Y-55387000D01*
G75*
G02*
X100651000Y-55559500I0J-172500D01*
G01*
X100651000Y-55904500D01*
G75*
G02*
X100478500Y-56077000I-172500J0D01*
G01*
X100083500Y-56077000D01*
G75*
G02*
X99911000Y-55904500I0J172500D01*
G01*
X99911000Y-55559500D01*
G75*
G02*
X100083500Y-55387000I172500J0D01*
G01*
G37*
G36*
G01*
X100083500Y-56357000D02*
X100478500Y-56357000D01*
G75*
G02*
X100651000Y-56529500I0J-172500D01*
G01*
X100651000Y-56874500D01*
G75*
G02*
X100478500Y-57047000I-172500J0D01*
G01*
X100083500Y-57047000D01*
G75*
G02*
X99911000Y-56874500I0J172500D01*
G01*
X99911000Y-56529500D01*
G75*
G02*
X100083500Y-56357000I172500J0D01*
G01*
G37*
%TD*%
%TO.C,C18*%
G36*
G01*
X101619000Y-53479500D02*
X101619000Y-53874500D01*
G75*
G02*
X101446500Y-54047000I-172500J0D01*
G01*
X101101500Y-54047000D01*
G75*
G02*
X100929000Y-53874500I0J172500D01*
G01*
X100929000Y-53479500D01*
G75*
G02*
X101101500Y-53307000I172500J0D01*
G01*
X101446500Y-53307000D01*
G75*
G02*
X101619000Y-53479500I0J-172500D01*
G01*
G37*
G36*
G01*
X100649000Y-53479500D02*
X100649000Y-53874500D01*
G75*
G02*
X100476500Y-54047000I-172500J0D01*
G01*
X100131500Y-54047000D01*
G75*
G02*
X99959000Y-53874500I0J172500D01*
G01*
X99959000Y-53479500D01*
G75*
G02*
X100131500Y-53307000I172500J0D01*
G01*
X100476500Y-53307000D01*
G75*
G02*
X100649000Y-53479500I0J-172500D01*
G01*
G37*
%TD*%
%TO.C,C17*%
G36*
G01*
X103131500Y-54371000D02*
X103526500Y-54371000D01*
G75*
G02*
X103699000Y-54543500I0J-172500D01*
G01*
X103699000Y-54888500D01*
G75*
G02*
X103526500Y-55061000I-172500J0D01*
G01*
X103131500Y-55061000D01*
G75*
G02*
X102959000Y-54888500I0J172500D01*
G01*
X102959000Y-54543500D01*
G75*
G02*
X103131500Y-54371000I172500J0D01*
G01*
G37*
G36*
G01*
X103131500Y-55341000D02*
X103526500Y-55341000D01*
G75*
G02*
X103699000Y-55513500I0J-172500D01*
G01*
X103699000Y-55858500D01*
G75*
G02*
X103526500Y-56031000I-172500J0D01*
G01*
X103131500Y-56031000D01*
G75*
G02*
X102959000Y-55858500I0J172500D01*
G01*
X102959000Y-55513500D01*
G75*
G02*
X103131500Y-55341000I172500J0D01*
G01*
G37*
%TD*%
%TO.C,C16*%
G36*
G01*
X102115500Y-54371000D02*
X102510500Y-54371000D01*
G75*
G02*
X102683000Y-54543500I0J-172500D01*
G01*
X102683000Y-54888500D01*
G75*
G02*
X102510500Y-55061000I-172500J0D01*
G01*
X102115500Y-55061000D01*
G75*
G02*
X101943000Y-54888500I0J172500D01*
G01*
X101943000Y-54543500D01*
G75*
G02*
X102115500Y-54371000I172500J0D01*
G01*
G37*
G36*
G01*
X102115500Y-55341000D02*
X102510500Y-55341000D01*
G75*
G02*
X102683000Y-55513500I0J-172500D01*
G01*
X102683000Y-55858500D01*
G75*
G02*
X102510500Y-56031000I-172500J0D01*
G01*
X102115500Y-56031000D01*
G75*
G02*
X101943000Y-55858500I0J172500D01*
G01*
X101943000Y-55513500D01*
G75*
G02*
X102115500Y-55341000I172500J0D01*
G01*
G37*
%TD*%
%TO.C,C14*%
G36*
G01*
X95384500Y-54117000D02*
X95779500Y-54117000D01*
G75*
G02*
X95952000Y-54289500I0J-172500D01*
G01*
X95952000Y-54634500D01*
G75*
G02*
X95779500Y-54807000I-172500J0D01*
G01*
X95384500Y-54807000D01*
G75*
G02*
X95212000Y-54634500I0J172500D01*
G01*
X95212000Y-54289500D01*
G75*
G02*
X95384500Y-54117000I172500J0D01*
G01*
G37*
G36*
G01*
X95384500Y-55087000D02*
X95779500Y-55087000D01*
G75*
G02*
X95952000Y-55259500I0J-172500D01*
G01*
X95952000Y-55604500D01*
G75*
G02*
X95779500Y-55777000I-172500J0D01*
G01*
X95384500Y-55777000D01*
G75*
G02*
X95212000Y-55604500I0J172500D01*
G01*
X95212000Y-55259500D01*
G75*
G02*
X95384500Y-55087000I172500J0D01*
G01*
G37*
%TD*%
%TO.C,C11*%
G36*
G01*
X106320500Y-76986000D02*
X105925500Y-76986000D01*
G75*
G02*
X105753000Y-76813500I0J172500D01*
G01*
X105753000Y-76468500D01*
G75*
G02*
X105925500Y-76296000I172500J0D01*
G01*
X106320500Y-76296000D01*
G75*
G02*
X106493000Y-76468500I0J-172500D01*
G01*
X106493000Y-76813500D01*
G75*
G02*
X106320500Y-76986000I-172500J0D01*
G01*
G37*
G36*
G01*
X106320500Y-76016000D02*
X105925500Y-76016000D01*
G75*
G02*
X105753000Y-75843500I0J172500D01*
G01*
X105753000Y-75498500D01*
G75*
G02*
X105925500Y-75326000I172500J0D01*
G01*
X106320500Y-75326000D01*
G75*
G02*
X106493000Y-75498500I0J-172500D01*
G01*
X106493000Y-75843500D01*
G75*
G02*
X106320500Y-76016000I-172500J0D01*
G01*
G37*
%TD*%
%TO.C,C9*%
G36*
G01*
X103651000Y-56527500D02*
X103651000Y-56922500D01*
G75*
G02*
X103478500Y-57095000I-172500J0D01*
G01*
X103133500Y-57095000D01*
G75*
G02*
X102961000Y-56922500I0J172500D01*
G01*
X102961000Y-56527500D01*
G75*
G02*
X103133500Y-56355000I172500J0D01*
G01*
X103478500Y-56355000D01*
G75*
G02*
X103651000Y-56527500I0J-172500D01*
G01*
G37*
G36*
G01*
X102681000Y-56527500D02*
X102681000Y-56922500D01*
G75*
G02*
X102508500Y-57095000I-172500J0D01*
G01*
X102163500Y-57095000D01*
G75*
G02*
X101991000Y-56922500I0J172500D01*
G01*
X101991000Y-56527500D01*
G75*
G02*
X102163500Y-56355000I172500J0D01*
G01*
X102508500Y-56355000D01*
G75*
G02*
X102681000Y-56527500I0J-172500D01*
G01*
G37*
%TD*%
%TO.C,C5*%
G36*
G01*
X99067500Y-54371000D02*
X99462500Y-54371000D01*
G75*
G02*
X99635000Y-54543500I0J-172500D01*
G01*
X99635000Y-54888500D01*
G75*
G02*
X99462500Y-55061000I-172500J0D01*
G01*
X99067500Y-55061000D01*
G75*
G02*
X98895000Y-54888500I0J172500D01*
G01*
X98895000Y-54543500D01*
G75*
G02*
X99067500Y-54371000I172500J0D01*
G01*
G37*
G36*
G01*
X99067500Y-55341000D02*
X99462500Y-55341000D01*
G75*
G02*
X99635000Y-55513500I0J-172500D01*
G01*
X99635000Y-55858500D01*
G75*
G02*
X99462500Y-56031000I-172500J0D01*
G01*
X99067500Y-56031000D01*
G75*
G02*
X98895000Y-55858500I0J172500D01*
G01*
X98895000Y-55513500D01*
G75*
G02*
X99067500Y-55341000I172500J0D01*
G01*
G37*
%TD*%
%TO.C,C3*%
G36*
G01*
X110913000Y-75450500D02*
X110913000Y-75845500D01*
G75*
G02*
X110740500Y-76018000I-172500J0D01*
G01*
X110395500Y-76018000D01*
G75*
G02*
X110223000Y-75845500I0J172500D01*
G01*
X110223000Y-75450500D01*
G75*
G02*
X110395500Y-75278000I172500J0D01*
G01*
X110740500Y-75278000D01*
G75*
G02*
X110913000Y-75450500I0J-172500D01*
G01*
G37*
G36*
G01*
X109943000Y-75450500D02*
X109943000Y-75845500D01*
G75*
G02*
X109770500Y-76018000I-172500J0D01*
G01*
X109425500Y-76018000D01*
G75*
G02*
X109253000Y-75845500I0J172500D01*
G01*
X109253000Y-75450500D01*
G75*
G02*
X109425500Y-75278000I172500J0D01*
G01*
X109770500Y-75278000D01*
G75*
G02*
X109943000Y-75450500I0J-172500D01*
G01*
G37*
%TD*%
%TO.C,C1*%
G36*
G01*
X96795500Y-55777000D02*
X96400500Y-55777000D01*
G75*
G02*
X96228000Y-55604500I0J172500D01*
G01*
X96228000Y-55259500D01*
G75*
G02*
X96400500Y-55087000I172500J0D01*
G01*
X96795500Y-55087000D01*
G75*
G02*
X96968000Y-55259500I0J-172500D01*
G01*
X96968000Y-55604500D01*
G75*
G02*
X96795500Y-55777000I-172500J0D01*
G01*
G37*
G36*
G01*
X96795500Y-54807000D02*
X96400500Y-54807000D01*
G75*
G02*
X96228000Y-54634500I0J172500D01*
G01*
X96228000Y-54289500D01*
G75*
G02*
X96400500Y-54117000I172500J0D01*
G01*
X96795500Y-54117000D01*
G75*
G02*
X96968000Y-54289500I0J-172500D01*
G01*
X96968000Y-54634500D01*
G75*
G02*
X96795500Y-54807000I-172500J0D01*
G01*
G37*
%TD*%
M02*
