%TF.GenerationSoftware,KiCad,Pcbnew,(5.1.6)-1*%
%TF.CreationDate,2020-09-21T21:17:43+08:00*%
%TF.ProjectId,f1c200s_core,66316332-3030-4735-9f63-6f72652e6b69,rev?*%
%TF.SameCoordinates,Original*%
%TF.FileFunction,Legend,Top*%
%TF.FilePolarity,Positive*%
%FSLAX46Y46*%
G04 Gerber Fmt 4.6, Leading zero omitted, Abs format (unit mm)*
G04 Created by KiCad (PCBNEW (5.1.6)-1) date 2020-09-21 21:17:43*
%MOMM*%
%LPD*%
G01*
G04 APERTURE LIST*
%ADD10C,0.120000*%
%ADD11C,0.150000*%
%ADD12C,0.100000*%
G04 APERTURE END LIST*
D10*
X110665000Y-49924285D02*
X110665000Y-50724285D01*
X109571095Y-50571904D02*
X109952047Y-50305238D01*
X109571095Y-50114761D02*
X110371095Y-50114761D01*
X110371095Y-50419523D01*
X110333000Y-50495714D01*
X110294904Y-50533809D01*
X110218714Y-50571904D01*
X110104428Y-50571904D01*
X110028238Y-50533809D01*
X109990142Y-50495714D01*
X109952047Y-50419523D01*
X109952047Y-50114761D01*
X110665000Y-50724285D02*
X110665000Y-51486190D01*
X109609190Y-50876666D02*
X109571095Y-50990952D01*
X109571095Y-51181428D01*
X109609190Y-51257619D01*
X109647285Y-51295714D01*
X109723476Y-51333809D01*
X109799666Y-51333809D01*
X109875857Y-51295714D01*
X109913952Y-51257619D01*
X109952047Y-51181428D01*
X109990142Y-51029047D01*
X110028238Y-50952857D01*
X110066333Y-50914761D01*
X110142523Y-50876666D01*
X110218714Y-50876666D01*
X110294904Y-50914761D01*
X110333000Y-50952857D01*
X110371095Y-51029047D01*
X110371095Y-51219523D01*
X110333000Y-51333809D01*
X110665000Y-51486190D02*
X110665000Y-52095714D01*
X110371095Y-51562380D02*
X110371095Y-52019523D01*
X109571095Y-51790952D02*
X110371095Y-51790952D01*
X109126500Y-50463976D02*
X109164595Y-50387785D01*
X109164595Y-50273500D01*
X109126500Y-50159214D01*
X109050309Y-50083023D01*
X108974119Y-50044928D01*
X108821738Y-50006833D01*
X108707452Y-50006833D01*
X108555071Y-50044928D01*
X108478880Y-50083023D01*
X108402690Y-50159214D01*
X108364595Y-50273500D01*
X108364595Y-50349690D01*
X108402690Y-50463976D01*
X108440785Y-50502071D01*
X108707452Y-50502071D01*
X108707452Y-50349690D01*
X108364595Y-50844928D02*
X109164595Y-50844928D01*
X108364595Y-51302071D01*
X109164595Y-51302071D01*
X108364595Y-51683023D02*
X109164595Y-51683023D01*
X109164595Y-51873500D01*
X109126500Y-51987785D01*
X109050309Y-52063976D01*
X108974119Y-52102071D01*
X108821738Y-52140166D01*
X108707452Y-52140166D01*
X108555071Y-52102071D01*
X108478880Y-52063976D01*
X108402690Y-51987785D01*
X108364595Y-51873500D01*
X108364595Y-51683023D01*
D11*
X103908095Y-52097428D02*
X104241428Y-52097428D01*
X104241428Y-51573619D02*
X104241428Y-52573619D01*
X103765238Y-52573619D01*
X102860476Y-51573619D02*
X103431904Y-51573619D01*
X103146190Y-51573619D02*
X103146190Y-52573619D01*
X103241428Y-52430761D01*
X103336666Y-52335523D01*
X103431904Y-52287904D01*
X101860476Y-51668857D02*
X101908095Y-51621238D01*
X102050952Y-51573619D01*
X102146190Y-51573619D01*
X102289047Y-51621238D01*
X102384285Y-51716476D01*
X102431904Y-51811714D01*
X102479523Y-52002190D01*
X102479523Y-52145047D01*
X102431904Y-52335523D01*
X102384285Y-52430761D01*
X102289047Y-52526000D01*
X102146190Y-52573619D01*
X102050952Y-52573619D01*
X101908095Y-52526000D01*
X101860476Y-52478380D01*
X101479523Y-52478380D02*
X101431904Y-52526000D01*
X101336666Y-52573619D01*
X101098571Y-52573619D01*
X101003333Y-52526000D01*
X100955714Y-52478380D01*
X100908095Y-52383142D01*
X100908095Y-52287904D01*
X100955714Y-52145047D01*
X101527142Y-51573619D01*
X100908095Y-51573619D01*
X100289047Y-52573619D02*
X100193809Y-52573619D01*
X100098571Y-52526000D01*
X100050952Y-52478380D01*
X100003333Y-52383142D01*
X99955714Y-52192666D01*
X99955714Y-51954571D01*
X100003333Y-51764095D01*
X100050952Y-51668857D01*
X100098571Y-51621238D01*
X100193809Y-51573619D01*
X100289047Y-51573619D01*
X100384285Y-51621238D01*
X100431904Y-51668857D01*
X100479523Y-51764095D01*
X100527142Y-51954571D01*
X100527142Y-52192666D01*
X100479523Y-52383142D01*
X100431904Y-52478380D01*
X100384285Y-52526000D01*
X100289047Y-52573619D01*
X99336666Y-52573619D02*
X99241428Y-52573619D01*
X99146190Y-52526000D01*
X99098571Y-52478380D01*
X99050952Y-52383142D01*
X99003333Y-52192666D01*
X99003333Y-51954571D01*
X99050952Y-51764095D01*
X99098571Y-51668857D01*
X99146190Y-51621238D01*
X99241428Y-51573619D01*
X99336666Y-51573619D01*
X99431904Y-51621238D01*
X99479523Y-51668857D01*
X99527142Y-51764095D01*
X99574761Y-51954571D01*
X99574761Y-52192666D01*
X99527142Y-52383142D01*
X99479523Y-52478380D01*
X99431904Y-52526000D01*
X99336666Y-52573619D01*
X98622380Y-51621238D02*
X98479523Y-51573619D01*
X98241428Y-51573619D01*
X98146190Y-51621238D01*
X98098571Y-51668857D01*
X98050952Y-51764095D01*
X98050952Y-51859333D01*
X98098571Y-51954571D01*
X98146190Y-52002190D01*
X98241428Y-52049809D01*
X98431904Y-52097428D01*
X98527142Y-52145047D01*
X98574761Y-52192666D01*
X98622380Y-52287904D01*
X98622380Y-52383142D01*
X98574761Y-52478380D01*
X98527142Y-52526000D01*
X98431904Y-52573619D01*
X98193809Y-52573619D01*
X98050952Y-52526000D01*
D10*
X106123000Y-65107000D02*
X106123000Y-60789000D01*
X105615000Y-65107000D02*
X106123000Y-65107000D01*
X108409000Y-60789000D02*
X108409000Y-60662000D01*
X106123000Y-60789000D02*
X108409000Y-60789000D01*
X106123000Y-55582000D02*
X106123000Y-60789000D01*
X108409000Y-55582000D02*
X106123000Y-55582000D01*
X108409000Y-55709000D02*
X108409000Y-55582000D01*
X110060000Y-53550000D02*
X111584000Y-53550000D01*
X110060000Y-57741000D02*
X110060000Y-53550000D01*
X111584000Y-57741000D02*
X110060000Y-57741000D01*
X111584000Y-57741000D02*
X111584000Y-53550000D01*
X111838000Y-58503000D02*
X111584000Y-57741000D01*
X111838000Y-73616000D02*
X111838000Y-58503000D01*
X108409000Y-60662000D02*
X108409000Y-55709000D01*
X100154000Y-65107000D02*
X105615000Y-65107000D01*
X100027000Y-70187000D02*
X97868000Y-70187000D01*
X97868000Y-72346000D02*
X100027000Y-72346000D01*
X95709000Y-72346000D02*
X97868000Y-72346000D01*
X94693000Y-70314000D02*
X96852000Y-70314000D01*
X94693000Y-69171000D02*
X96852000Y-69171000D01*
X94693000Y-71330000D02*
X94693000Y-69171000D01*
X95709000Y-71330000D02*
X94693000Y-71330000D01*
X96852000Y-69171000D02*
X96852000Y-71330000D01*
X97868000Y-69171000D02*
X96852000Y-69171000D01*
X97868000Y-71330000D02*
X100027000Y-71330000D01*
X95709000Y-71330000D02*
X97868000Y-71330000D01*
X95709000Y-73362000D02*
X95709000Y-71330000D01*
X97868000Y-73362000D02*
X95709000Y-73362000D01*
X97868000Y-73362000D02*
X100027000Y-73362000D01*
X97868000Y-69171000D02*
X97868000Y-73362000D01*
X100027000Y-69171000D02*
X97868000Y-69171000D01*
X100027000Y-73362000D02*
X100027000Y-69171000D01*
%TO.C,TP2*%
X106061000Y-64218000D02*
G75*
G03*
X106061000Y-64218000I-700000J0D01*
G01*
D12*
%TO.C,R18*%
X102018000Y-73654000D02*
X103878000Y-73654000D01*
X102018000Y-74594000D02*
X102018000Y-73654000D01*
X103878000Y-74594000D02*
X102018000Y-74594000D01*
X103878000Y-73654000D02*
X103878000Y-74594000D01*
%TO.C,D2*%
X104770000Y-75553000D02*
X107730000Y-75553000D01*
X104770000Y-77013000D02*
X104770000Y-75553000D01*
X107730000Y-77013000D02*
X104770000Y-77013000D01*
X107730000Y-75553000D02*
X107730000Y-77013000D01*
D10*
X107735000Y-75548000D02*
X105450000Y-75548000D01*
X107735000Y-77018000D02*
X107735000Y-75548000D01*
X105450000Y-77018000D02*
X107735000Y-77018000D01*
D12*
%TO.C,D1*%
X90788000Y-65698000D02*
X90788000Y-62738000D01*
X92248000Y-65698000D02*
X90788000Y-65698000D01*
X92248000Y-62738000D02*
X92248000Y-65698000D01*
X90788000Y-62738000D02*
X92248000Y-62738000D01*
D10*
X90783000Y-62733000D02*
X90783000Y-65018000D01*
X92253000Y-62733000D02*
X90783000Y-62733000D01*
X92253000Y-65018000D02*
X92253000Y-62733000D01*
%TO.C,SW1*%
X91899000Y-73997000D02*
X94947000Y-73997000D01*
X95455000Y-75267000D02*
X95455000Y-75775000D01*
X91391000Y-75775000D02*
X91391000Y-75267000D01*
D12*
X96273000Y-73489000D02*
X96273000Y-77553000D01*
X96273000Y-77553000D02*
X90573000Y-77553000D01*
X90573000Y-77553000D02*
X90573000Y-73489000D01*
X90573000Y-73489000D02*
X96273000Y-73489000D01*
D10*
X92407000Y-77299000D02*
X92661000Y-78061000D01*
X92661000Y-78061000D02*
X94185000Y-78061000D01*
X94185000Y-78061000D02*
X94439000Y-77299000D01*
X94439000Y-77299000D02*
X95455000Y-77299000D01*
X92407000Y-77299000D02*
X91391000Y-77299000D01*
X91391000Y-77299000D02*
X91391000Y-76791000D01*
X91899000Y-77045000D02*
X94947000Y-77045000D01*
X95455000Y-76791000D02*
X95455000Y-77299000D01*
X91391000Y-74251000D02*
X91899000Y-73997000D01*
X95455000Y-74251000D02*
X94947000Y-73997000D01*
X92153000Y-74251000D02*
X94693000Y-74251000D01*
X92407000Y-77299000D02*
X94439000Y-77299000D01*
%TO.C,Y1*%
X90376000Y-59741000D02*
X93676000Y-59741000D01*
X93676000Y-59741000D02*
X93676000Y-55741000D01*
D12*
X90326000Y-59841000D02*
X93726000Y-59841000D01*
X93726000Y-59841000D02*
X93726000Y-55641000D01*
X93726000Y-55641000D02*
X90326000Y-55641000D01*
X90326000Y-55641000D02*
X90326000Y-59841000D01*
D10*
%TO.C,U3*%
X95300000Y-63780000D02*
X94750000Y-63780000D01*
X94750000Y-63780000D02*
X94750000Y-63230000D01*
X95300000Y-53480000D02*
X94750000Y-53480000D01*
X94750000Y-53480000D02*
X94750000Y-54030000D01*
X104500000Y-53480000D02*
X105050000Y-53480000D01*
X105050000Y-53480000D02*
X105050000Y-54030000D01*
X104500000Y-63780000D02*
X105400000Y-63780000D01*
D12*
X105650000Y-64380000D02*
X94150000Y-64380000D01*
X94150000Y-64380000D02*
X94150000Y-52880000D01*
X94150000Y-52880000D02*
X105650000Y-52880000D01*
X105650000Y-52880000D02*
X105650000Y-64380000D01*
%TO.C,U2*%
X109212000Y-69130000D02*
X109212000Y-73530000D01*
X104812000Y-69130000D02*
X109212000Y-69130000D01*
X104812000Y-73530000D02*
X104812000Y-69130000D01*
X109212000Y-73530000D02*
X104812000Y-73530000D01*
D10*
X108212000Y-72980000D02*
X109012000Y-72980000D01*
X108662000Y-69680000D02*
X108662000Y-70130000D01*
X108212000Y-69680000D02*
X108662000Y-69680000D01*
X105362000Y-69680000D02*
X105362000Y-70130000D01*
X105812000Y-69680000D02*
X105362000Y-69680000D01*
X105362000Y-72980000D02*
X105362000Y-72530000D01*
X105812000Y-72980000D02*
X105362000Y-72980000D01*
D12*
%TO.C,R15*%
X98208000Y-68117000D02*
X98208000Y-67177000D01*
X98208000Y-67177000D02*
X100068000Y-67177000D01*
X100068000Y-67177000D02*
X100068000Y-68117000D01*
X100068000Y-68117000D02*
X98208000Y-68117000D01*
%TO.C,R14*%
X103494000Y-65193000D02*
X104434000Y-65193000D01*
X104434000Y-65193000D02*
X104434000Y-67053000D01*
X104434000Y-67053000D02*
X103494000Y-67053000D01*
X103494000Y-67053000D02*
X103494000Y-65193000D01*
%TO.C,R13*%
X91048000Y-66082000D02*
X91988000Y-66082000D01*
X91988000Y-66082000D02*
X91988000Y-67942000D01*
X91988000Y-67942000D02*
X91048000Y-67942000D01*
X91048000Y-67942000D02*
X91048000Y-66082000D01*
%TO.C,R12*%
X95160000Y-66085000D02*
X95160000Y-65145000D01*
X95160000Y-65145000D02*
X97020000Y-65145000D01*
X97020000Y-65145000D02*
X97020000Y-66085000D01*
X97020000Y-66085000D02*
X95160000Y-66085000D01*
%TO.C,R11*%
X97020000Y-66161000D02*
X97020000Y-67101000D01*
X97020000Y-67101000D02*
X95160000Y-67101000D01*
X95160000Y-67101000D02*
X95160000Y-66161000D01*
X95160000Y-66161000D02*
X97020000Y-66161000D01*
%TO.C,R10*%
X98208000Y-69133000D02*
X98208000Y-68193000D01*
X98208000Y-68193000D02*
X100068000Y-68193000D01*
X100068000Y-68193000D02*
X100068000Y-69133000D01*
X100068000Y-69133000D02*
X98208000Y-69133000D01*
%TO.C,R7*%
X109892000Y-73578000D02*
X109892000Y-72638000D01*
X109892000Y-72638000D02*
X111752000Y-72638000D01*
X111752000Y-72638000D02*
X111752000Y-73578000D01*
X111752000Y-73578000D02*
X109892000Y-73578000D01*
%TO.C,R6*%
X109892000Y-70022000D02*
X109892000Y-69082000D01*
X109892000Y-69082000D02*
X111752000Y-69082000D01*
X111752000Y-69082000D02*
X111752000Y-70022000D01*
X111752000Y-70022000D02*
X109892000Y-70022000D01*
%TO.C,R5*%
X101970000Y-71670000D02*
X102910000Y-71670000D01*
X102910000Y-71670000D02*
X102910000Y-73530000D01*
X102910000Y-73530000D02*
X101970000Y-73530000D01*
X101970000Y-73530000D02*
X101970000Y-71670000D01*
%TO.C,R3*%
X111752000Y-71622000D02*
X111752000Y-72562000D01*
X111752000Y-72562000D02*
X109892000Y-72562000D01*
X109892000Y-72562000D02*
X109892000Y-71622000D01*
X109892000Y-71622000D02*
X111752000Y-71622000D01*
%TO.C,R2*%
X111752000Y-70098000D02*
X111752000Y-71038000D01*
X111752000Y-71038000D02*
X109892000Y-71038000D01*
X109892000Y-71038000D02*
X109892000Y-70098000D01*
X109892000Y-70098000D02*
X111752000Y-70098000D01*
%TO.C,R1*%
X103926000Y-73530000D02*
X102986000Y-73530000D01*
X102986000Y-73530000D02*
X102986000Y-71670000D01*
X102986000Y-71670000D02*
X103926000Y-71670000D01*
X103926000Y-71670000D02*
X103926000Y-73530000D01*
D10*
%TO.C,L3*%
X110067252Y-76758000D02*
X109544748Y-76758000D01*
X110067252Y-74538000D02*
X109544748Y-74538000D01*
D12*
X111756000Y-74298000D02*
X111756000Y-76998000D01*
X111756000Y-76998000D02*
X107856000Y-76998000D01*
X107856000Y-76998000D02*
X107856000Y-74298000D01*
X107856000Y-74298000D02*
X111756000Y-74298000D01*
D10*
%TO.C,L2*%
X110067252Y-68122000D02*
X109544748Y-68122000D01*
X110067252Y-65902000D02*
X109544748Y-65902000D01*
D12*
X111756000Y-65662000D02*
X111756000Y-68362000D01*
X111756000Y-68362000D02*
X107856000Y-68362000D01*
X107856000Y-68362000D02*
X107856000Y-65662000D01*
X107856000Y-65662000D02*
X111756000Y-65662000D01*
D10*
%TO.C,L1*%
X101584000Y-69305252D02*
X101584000Y-68782748D01*
X103804000Y-69305252D02*
X103804000Y-68782748D01*
D12*
X104044000Y-70994000D02*
X101344000Y-70994000D01*
X101344000Y-70994000D02*
X101344000Y-67094000D01*
X101344000Y-67094000D02*
X104044000Y-67094000D01*
X104044000Y-67094000D02*
X104044000Y-70994000D01*
%TO.C,C33*%
X106415000Y-64050000D02*
X107355000Y-64050000D01*
X107355000Y-64050000D02*
X107355000Y-65910000D01*
X107355000Y-65910000D02*
X106415000Y-65910000D01*
X106415000Y-65910000D02*
X106415000Y-64050000D01*
%TO.C,C32*%
X104510000Y-65193000D02*
X105450000Y-65193000D01*
X105450000Y-65193000D02*
X105450000Y-67053000D01*
X105450000Y-67053000D02*
X104510000Y-67053000D01*
X104510000Y-67053000D02*
X104510000Y-65193000D01*
%TO.C,C31*%
X100068000Y-65145000D02*
X100068000Y-66085000D01*
X100068000Y-66085000D02*
X98208000Y-66085000D01*
X98208000Y-66085000D02*
X98208000Y-65145000D01*
X98208000Y-65145000D02*
X100068000Y-65145000D01*
%TO.C,C30*%
X100192000Y-65193000D02*
X101132000Y-65193000D01*
X101132000Y-65193000D02*
X101132000Y-67053000D01*
X101132000Y-67053000D02*
X100192000Y-67053000D01*
X100192000Y-67053000D02*
X100192000Y-65193000D01*
%TO.C,C29*%
X100068000Y-66161000D02*
X100068000Y-67101000D01*
X100068000Y-67101000D02*
X98208000Y-67101000D01*
X98208000Y-67101000D02*
X98208000Y-66161000D01*
X98208000Y-66161000D02*
X100068000Y-66161000D01*
%TO.C,C28*%
X102478000Y-65193000D02*
X103418000Y-65193000D01*
X103418000Y-65193000D02*
X103418000Y-67053000D01*
X103418000Y-67053000D02*
X102478000Y-67053000D01*
X102478000Y-67053000D02*
X102478000Y-65193000D01*
%TO.C,C27*%
X91607000Y-61846000D02*
X90667000Y-61846000D01*
X90667000Y-61846000D02*
X90667000Y-59986000D01*
X90667000Y-59986000D02*
X91607000Y-59986000D01*
X91607000Y-59986000D02*
X91607000Y-61846000D01*
%TO.C,C26*%
X101335000Y-65193000D02*
X102275000Y-65193000D01*
X102275000Y-65193000D02*
X102275000Y-67053000D01*
X102275000Y-67053000D02*
X101335000Y-67053000D01*
X101335000Y-67053000D02*
X101335000Y-65193000D01*
%TO.C,C25*%
X109003000Y-59862000D02*
X109003000Y-58922000D01*
X109003000Y-58922000D02*
X110863000Y-58922000D01*
X110863000Y-58922000D02*
X110863000Y-59862000D01*
X110863000Y-59862000D02*
X109003000Y-59862000D01*
%TO.C,C24*%
X91607000Y-55496000D02*
X90667000Y-55496000D01*
X90667000Y-55496000D02*
X90667000Y-53636000D01*
X90667000Y-53636000D02*
X91607000Y-53636000D01*
X91607000Y-53636000D02*
X91607000Y-55496000D01*
%TO.C,C23*%
X107479000Y-64434000D02*
X107479000Y-63494000D01*
X107479000Y-63494000D02*
X109339000Y-63494000D01*
X109339000Y-63494000D02*
X109339000Y-64434000D01*
X109339000Y-64434000D02*
X107479000Y-64434000D01*
%TO.C,C21*%
X107479000Y-65450000D02*
X107479000Y-64510000D01*
X107479000Y-64510000D02*
X109339000Y-64510000D01*
X109339000Y-64510000D02*
X109339000Y-65450000D01*
X109339000Y-65450000D02*
X107479000Y-65450000D01*
%TO.C,C15*%
X96176000Y-68117000D02*
X96176000Y-67177000D01*
X96176000Y-67177000D02*
X98036000Y-67177000D01*
X98036000Y-67177000D02*
X98036000Y-68117000D01*
X98036000Y-68117000D02*
X96176000Y-68117000D01*
%TO.C,C13*%
X97144000Y-65193000D02*
X98084000Y-65193000D01*
X98084000Y-65193000D02*
X98084000Y-67053000D01*
X98084000Y-67053000D02*
X97144000Y-67053000D01*
X97144000Y-67053000D02*
X97144000Y-65193000D01*
%TO.C,C12*%
X93080000Y-65193000D02*
X94020000Y-65193000D01*
X94020000Y-65193000D02*
X94020000Y-67053000D01*
X94020000Y-67053000D02*
X93080000Y-67053000D01*
X93080000Y-67053000D02*
X93080000Y-65193000D01*
%TO.C,C10*%
X96176000Y-69133000D02*
X96176000Y-68193000D01*
X96176000Y-68193000D02*
X98036000Y-68193000D01*
X98036000Y-68193000D02*
X98036000Y-69133000D01*
X98036000Y-69133000D02*
X96176000Y-69133000D01*
%TO.C,C8*%
X94096000Y-65193000D02*
X95036000Y-65193000D01*
X95036000Y-65193000D02*
X95036000Y-67053000D01*
X95036000Y-67053000D02*
X94096000Y-67053000D01*
X94096000Y-67053000D02*
X94096000Y-65193000D01*
%TO.C,C7*%
X111244000Y-64510000D02*
X111244000Y-65450000D01*
X111244000Y-65450000D02*
X109384000Y-65450000D01*
X109384000Y-65450000D02*
X109384000Y-64510000D01*
X109384000Y-64510000D02*
X111244000Y-64510000D01*
%TO.C,C6*%
X100192000Y-69638000D02*
X101132000Y-69638000D01*
X101132000Y-69638000D02*
X101132000Y-71498000D01*
X101132000Y-71498000D02*
X100192000Y-71498000D01*
X100192000Y-71498000D02*
X100192000Y-69638000D01*
%TO.C,C4*%
X93004000Y-67942000D02*
X92064000Y-67942000D01*
X92064000Y-67942000D02*
X92064000Y-66082000D01*
X92064000Y-66082000D02*
X93004000Y-66082000D01*
X93004000Y-66082000D02*
X93004000Y-67942000D01*
%TO.C,C2*%
X109384000Y-64434000D02*
X109384000Y-63494000D01*
X109384000Y-63494000D02*
X111244000Y-63494000D01*
X111244000Y-63494000D02*
X111244000Y-64434000D01*
X111244000Y-64434000D02*
X109384000Y-64434000D01*
%TO.C,NGFF*%
D11*
X99527142Y-50890880D02*
X99527142Y-49890880D01*
X100098571Y-50890880D01*
X100098571Y-49890880D01*
X101098571Y-49938500D02*
X101003333Y-49890880D01*
X100860476Y-49890880D01*
X100717619Y-49938500D01*
X100622380Y-50033738D01*
X100574761Y-50128976D01*
X100527142Y-50319452D01*
X100527142Y-50462309D01*
X100574761Y-50652785D01*
X100622380Y-50748023D01*
X100717619Y-50843261D01*
X100860476Y-50890880D01*
X100955714Y-50890880D01*
X101098571Y-50843261D01*
X101146190Y-50795642D01*
X101146190Y-50462309D01*
X100955714Y-50462309D01*
X101908095Y-50367071D02*
X101574761Y-50367071D01*
X101574761Y-50890880D02*
X101574761Y-49890880D01*
X102050952Y-49890880D01*
X102765238Y-50367071D02*
X102431904Y-50367071D01*
X102431904Y-50890880D02*
X102431904Y-49890880D01*
X102908095Y-49890880D01*
%TO.C,R18*%
D10*
X100255714Y-74431904D02*
X99989047Y-74050952D01*
X99798571Y-74431904D02*
X99798571Y-73631904D01*
X100103333Y-73631904D01*
X100179523Y-73670000D01*
X100217619Y-73708095D01*
X100255714Y-73784285D01*
X100255714Y-73898571D01*
X100217619Y-73974761D01*
X100179523Y-74012857D01*
X100103333Y-74050952D01*
X99798571Y-74050952D01*
X101017619Y-74431904D02*
X100560476Y-74431904D01*
X100789047Y-74431904D02*
X100789047Y-73631904D01*
X100712857Y-73746190D01*
X100636666Y-73822380D01*
X100560476Y-73860476D01*
X101474761Y-73974761D02*
X101398571Y-73936666D01*
X101360476Y-73898571D01*
X101322380Y-73822380D01*
X101322380Y-73784285D01*
X101360476Y-73708095D01*
X101398571Y-73670000D01*
X101474761Y-73631904D01*
X101627142Y-73631904D01*
X101703333Y-73670000D01*
X101741428Y-73708095D01*
X101779523Y-73784285D01*
X101779523Y-73822380D01*
X101741428Y-73898571D01*
X101703333Y-73936666D01*
X101627142Y-73974761D01*
X101474761Y-73974761D01*
X101398571Y-74012857D01*
X101360476Y-74050952D01*
X101322380Y-74127142D01*
X101322380Y-74279523D01*
X101360476Y-74355714D01*
X101398571Y-74393809D01*
X101474761Y-74431904D01*
X101627142Y-74431904D01*
X101703333Y-74393809D01*
X101741428Y-74355714D01*
X101779523Y-74279523D01*
X101779523Y-74127142D01*
X101741428Y-74050952D01*
X101703333Y-74012857D01*
X101627142Y-73974761D01*
%TO.C,D2*%
X103379523Y-76631904D02*
X103379523Y-75831904D01*
X103570000Y-75831904D01*
X103684285Y-75870000D01*
X103760476Y-75946190D01*
X103798571Y-76022380D01*
X103836666Y-76174761D01*
X103836666Y-76289047D01*
X103798571Y-76441428D01*
X103760476Y-76517619D01*
X103684285Y-76593809D01*
X103570000Y-76631904D01*
X103379523Y-76631904D01*
X104141428Y-75908095D02*
X104179523Y-75870000D01*
X104255714Y-75831904D01*
X104446190Y-75831904D01*
X104522380Y-75870000D01*
X104560476Y-75908095D01*
X104598571Y-75984285D01*
X104598571Y-76060476D01*
X104560476Y-76174761D01*
X104103333Y-76631904D01*
X104598571Y-76631904D01*
%TO.C,D1*%
X93309904Y-64808476D02*
X92509904Y-64808476D01*
X92509904Y-64618000D01*
X92548000Y-64503714D01*
X92624190Y-64427523D01*
X92700380Y-64389428D01*
X92852761Y-64351333D01*
X92967047Y-64351333D01*
X93119428Y-64389428D01*
X93195619Y-64427523D01*
X93271809Y-64503714D01*
X93309904Y-64618000D01*
X93309904Y-64808476D01*
X93309904Y-63589428D02*
X93309904Y-64046571D01*
X93309904Y-63818000D02*
X92509904Y-63818000D01*
X92624190Y-63894190D01*
X92700380Y-63970380D01*
X92738476Y-64046571D01*
%TO.C,SW1*%
D11*
X92708714Y-73163571D02*
X92375380Y-73163571D01*
X92375380Y-73687380D02*
X92375380Y-72687380D01*
X92851571Y-72687380D01*
X93232523Y-73163571D02*
X93565857Y-73163571D01*
X93708714Y-73687380D02*
X93232523Y-73687380D01*
X93232523Y-72687380D01*
X93708714Y-72687380D01*
X94613476Y-73687380D02*
X94137285Y-73687380D01*
X94137285Y-72687380D01*
%TO.C,Y1*%
D10*
X93350952Y-61250952D02*
X93731904Y-61250952D01*
X92931904Y-61517619D02*
X93350952Y-61250952D01*
X92931904Y-60984285D01*
X93731904Y-60298571D02*
X93731904Y-60755714D01*
X93731904Y-60527142D02*
X92931904Y-60527142D01*
X93046190Y-60603333D01*
X93122380Y-60679523D01*
X93160476Y-60755714D01*
%TO.C,U3*%
X92931904Y-54079523D02*
X93579523Y-54079523D01*
X93655714Y-54041428D01*
X93693809Y-54003333D01*
X93731904Y-53927142D01*
X93731904Y-53774761D01*
X93693809Y-53698571D01*
X93655714Y-53660476D01*
X93579523Y-53622380D01*
X92931904Y-53622380D01*
X92931904Y-53317619D02*
X92931904Y-52822380D01*
X93236666Y-53089047D01*
X93236666Y-52974761D01*
X93274761Y-52898571D01*
X93312857Y-52860476D01*
X93389047Y-52822380D01*
X93579523Y-52822380D01*
X93655714Y-52860476D01*
X93693809Y-52898571D01*
X93731904Y-52974761D01*
X93731904Y-53203333D01*
X93693809Y-53279523D01*
X93655714Y-53317619D01*
%TO.C,U2*%
X104760476Y-73631904D02*
X104760476Y-74279523D01*
X104798571Y-74355714D01*
X104836666Y-74393809D01*
X104912857Y-74431904D01*
X105065238Y-74431904D01*
X105141428Y-74393809D01*
X105179523Y-74355714D01*
X105217619Y-74279523D01*
X105217619Y-73631904D01*
X105560476Y-73708095D02*
X105598571Y-73670000D01*
X105674761Y-73631904D01*
X105865238Y-73631904D01*
X105941428Y-73670000D01*
X105979523Y-73708095D01*
X106017619Y-73784285D01*
X106017619Y-73860476D01*
X105979523Y-73974761D01*
X105522380Y-74431904D01*
X106017619Y-74431904D01*
%TO.C,R15*%
X98496714Y-72072904D02*
X98230047Y-71691952D01*
X98039571Y-72072904D02*
X98039571Y-71272904D01*
X98344333Y-71272904D01*
X98420523Y-71311000D01*
X98458619Y-71349095D01*
X98496714Y-71425285D01*
X98496714Y-71539571D01*
X98458619Y-71615761D01*
X98420523Y-71653857D01*
X98344333Y-71691952D01*
X98039571Y-71691952D01*
X99258619Y-72072904D02*
X98801476Y-72072904D01*
X99030047Y-72072904D02*
X99030047Y-71272904D01*
X98953857Y-71387190D01*
X98877666Y-71463380D01*
X98801476Y-71501476D01*
X99982428Y-71272904D02*
X99601476Y-71272904D01*
X99563380Y-71653857D01*
X99601476Y-71615761D01*
X99677666Y-71577666D01*
X99868142Y-71577666D01*
X99944333Y-71615761D01*
X99982428Y-71653857D01*
X100020523Y-71730047D01*
X100020523Y-71920523D01*
X99982428Y-71996714D01*
X99944333Y-72034809D01*
X99868142Y-72072904D01*
X99677666Y-72072904D01*
X99601476Y-72034809D01*
X99563380Y-71996714D01*
%TO.C,R14*%
X106751714Y-59499904D02*
X106485047Y-59118952D01*
X106294571Y-59499904D02*
X106294571Y-58699904D01*
X106599333Y-58699904D01*
X106675523Y-58738000D01*
X106713619Y-58776095D01*
X106751714Y-58852285D01*
X106751714Y-58966571D01*
X106713619Y-59042761D01*
X106675523Y-59080857D01*
X106599333Y-59118952D01*
X106294571Y-59118952D01*
X107513619Y-59499904D02*
X107056476Y-59499904D01*
X107285047Y-59499904D02*
X107285047Y-58699904D01*
X107208857Y-58814190D01*
X107132666Y-58890380D01*
X107056476Y-58928476D01*
X108199333Y-58966571D02*
X108199333Y-59499904D01*
X108008857Y-58661809D02*
X107818380Y-59233238D01*
X108313619Y-59233238D01*
%TO.C,R13*%
X91879904Y-69685285D02*
X91498952Y-69951952D01*
X91879904Y-70142428D02*
X91079904Y-70142428D01*
X91079904Y-69837666D01*
X91118000Y-69761476D01*
X91156095Y-69723380D01*
X91232285Y-69685285D01*
X91346571Y-69685285D01*
X91422761Y-69723380D01*
X91460857Y-69761476D01*
X91498952Y-69837666D01*
X91498952Y-70142428D01*
X91879904Y-68923380D02*
X91879904Y-69380523D01*
X91879904Y-69151952D02*
X91079904Y-69151952D01*
X91194190Y-69228142D01*
X91270380Y-69304333D01*
X91308476Y-69380523D01*
X91079904Y-68656714D02*
X91079904Y-68161476D01*
X91384666Y-68428142D01*
X91384666Y-68313857D01*
X91422761Y-68237666D01*
X91460857Y-68199571D01*
X91537047Y-68161476D01*
X91727523Y-68161476D01*
X91803714Y-68199571D01*
X91841809Y-68237666D01*
X91879904Y-68313857D01*
X91879904Y-68542428D01*
X91841809Y-68618619D01*
X91803714Y-68656714D01*
%TO.C,R12*%
X95321714Y-70040904D02*
X95055047Y-69659952D01*
X94864571Y-70040904D02*
X94864571Y-69240904D01*
X95169333Y-69240904D01*
X95245523Y-69279000D01*
X95283619Y-69317095D01*
X95321714Y-69393285D01*
X95321714Y-69507571D01*
X95283619Y-69583761D01*
X95245523Y-69621857D01*
X95169333Y-69659952D01*
X94864571Y-69659952D01*
X96083619Y-70040904D02*
X95626476Y-70040904D01*
X95855047Y-70040904D02*
X95855047Y-69240904D01*
X95778857Y-69355190D01*
X95702666Y-69431380D01*
X95626476Y-69469476D01*
X96388380Y-69317095D02*
X96426476Y-69279000D01*
X96502666Y-69240904D01*
X96693142Y-69240904D01*
X96769333Y-69279000D01*
X96807428Y-69317095D01*
X96845523Y-69393285D01*
X96845523Y-69469476D01*
X96807428Y-69583761D01*
X96350285Y-70040904D01*
X96845523Y-70040904D01*
%TO.C,R11*%
X95321714Y-71056904D02*
X95055047Y-70675952D01*
X94864571Y-71056904D02*
X94864571Y-70256904D01*
X95169333Y-70256904D01*
X95245523Y-70295000D01*
X95283619Y-70333095D01*
X95321714Y-70409285D01*
X95321714Y-70523571D01*
X95283619Y-70599761D01*
X95245523Y-70637857D01*
X95169333Y-70675952D01*
X94864571Y-70675952D01*
X96083619Y-71056904D02*
X95626476Y-71056904D01*
X95855047Y-71056904D02*
X95855047Y-70256904D01*
X95778857Y-70371190D01*
X95702666Y-70447380D01*
X95626476Y-70485476D01*
X96845523Y-71056904D02*
X96388380Y-71056904D01*
X96616952Y-71056904D02*
X96616952Y-70256904D01*
X96540761Y-70371190D01*
X96464571Y-70447380D01*
X96388380Y-70485476D01*
%TO.C,R10*%
X98496714Y-73088904D02*
X98230047Y-72707952D01*
X98039571Y-73088904D02*
X98039571Y-72288904D01*
X98344333Y-72288904D01*
X98420523Y-72327000D01*
X98458619Y-72365095D01*
X98496714Y-72441285D01*
X98496714Y-72555571D01*
X98458619Y-72631761D01*
X98420523Y-72669857D01*
X98344333Y-72707952D01*
X98039571Y-72707952D01*
X99258619Y-73088904D02*
X98801476Y-73088904D01*
X99030047Y-73088904D02*
X99030047Y-72288904D01*
X98953857Y-72403190D01*
X98877666Y-72479380D01*
X98801476Y-72517476D01*
X99753857Y-72288904D02*
X99830047Y-72288904D01*
X99906238Y-72327000D01*
X99944333Y-72365095D01*
X99982428Y-72441285D01*
X100020523Y-72593666D01*
X100020523Y-72784142D01*
X99982428Y-72936523D01*
X99944333Y-73012714D01*
X99906238Y-73050809D01*
X99830047Y-73088904D01*
X99753857Y-73088904D01*
X99677666Y-73050809D01*
X99639571Y-73012714D01*
X99601476Y-72936523D01*
X99563380Y-72784142D01*
X99563380Y-72593666D01*
X99601476Y-72441285D01*
X99639571Y-72365095D01*
X99677666Y-72327000D01*
X99753857Y-72288904D01*
%TO.C,R7*%
X110688666Y-57467904D02*
X110422000Y-57086952D01*
X110231523Y-57467904D02*
X110231523Y-56667904D01*
X110536285Y-56667904D01*
X110612476Y-56706000D01*
X110650571Y-56744095D01*
X110688666Y-56820285D01*
X110688666Y-56934571D01*
X110650571Y-57010761D01*
X110612476Y-57048857D01*
X110536285Y-57086952D01*
X110231523Y-57086952D01*
X110955333Y-56667904D02*
X111488666Y-56667904D01*
X111145809Y-57467904D01*
%TO.C,R6*%
X110688666Y-54419904D02*
X110422000Y-54038952D01*
X110231523Y-54419904D02*
X110231523Y-53619904D01*
X110536285Y-53619904D01*
X110612476Y-53658000D01*
X110650571Y-53696095D01*
X110688666Y-53772285D01*
X110688666Y-53886571D01*
X110650571Y-53962761D01*
X110612476Y-54000857D01*
X110536285Y-54038952D01*
X110231523Y-54038952D01*
X111374380Y-53619904D02*
X111222000Y-53619904D01*
X111145809Y-53658000D01*
X111107714Y-53696095D01*
X111031523Y-53810380D01*
X110993428Y-53962761D01*
X110993428Y-54267523D01*
X111031523Y-54343714D01*
X111069619Y-54381809D01*
X111145809Y-54419904D01*
X111298190Y-54419904D01*
X111374380Y-54381809D01*
X111412476Y-54343714D01*
X111450571Y-54267523D01*
X111450571Y-54077047D01*
X111412476Y-54000857D01*
X111374380Y-53962761D01*
X111298190Y-53924666D01*
X111145809Y-53924666D01*
X111069619Y-53962761D01*
X111031523Y-54000857D01*
X110993428Y-54077047D01*
%TO.C,R5*%
X100896904Y-72733333D02*
X100515952Y-73000000D01*
X100896904Y-73190476D02*
X100096904Y-73190476D01*
X100096904Y-72885714D01*
X100135000Y-72809523D01*
X100173095Y-72771428D01*
X100249285Y-72733333D01*
X100363571Y-72733333D01*
X100439761Y-72771428D01*
X100477857Y-72809523D01*
X100515952Y-72885714D01*
X100515952Y-73190476D01*
X100096904Y-72009523D02*
X100096904Y-72390476D01*
X100477857Y-72428571D01*
X100439761Y-72390476D01*
X100401666Y-72314285D01*
X100401666Y-72123809D01*
X100439761Y-72047619D01*
X100477857Y-72009523D01*
X100554047Y-71971428D01*
X100744523Y-71971428D01*
X100820714Y-72009523D01*
X100858809Y-72047619D01*
X100896904Y-72123809D01*
X100896904Y-72314285D01*
X100858809Y-72390476D01*
X100820714Y-72428571D01*
%TO.C,R3*%
X110688666Y-56451904D02*
X110422000Y-56070952D01*
X110231523Y-56451904D02*
X110231523Y-55651904D01*
X110536285Y-55651904D01*
X110612476Y-55690000D01*
X110650571Y-55728095D01*
X110688666Y-55804285D01*
X110688666Y-55918571D01*
X110650571Y-55994761D01*
X110612476Y-56032857D01*
X110536285Y-56070952D01*
X110231523Y-56070952D01*
X110955333Y-55651904D02*
X111450571Y-55651904D01*
X111183904Y-55956666D01*
X111298190Y-55956666D01*
X111374380Y-55994761D01*
X111412476Y-56032857D01*
X111450571Y-56109047D01*
X111450571Y-56299523D01*
X111412476Y-56375714D01*
X111374380Y-56413809D01*
X111298190Y-56451904D01*
X111069619Y-56451904D01*
X110993428Y-56413809D01*
X110955333Y-56375714D01*
%TO.C,R2*%
X110688666Y-55435904D02*
X110422000Y-55054952D01*
X110231523Y-55435904D02*
X110231523Y-54635904D01*
X110536285Y-54635904D01*
X110612476Y-54674000D01*
X110650571Y-54712095D01*
X110688666Y-54788285D01*
X110688666Y-54902571D01*
X110650571Y-54978761D01*
X110612476Y-55016857D01*
X110536285Y-55054952D01*
X110231523Y-55054952D01*
X110993428Y-54712095D02*
X111031523Y-54674000D01*
X111107714Y-54635904D01*
X111298190Y-54635904D01*
X111374380Y-54674000D01*
X111412476Y-54712095D01*
X111450571Y-54788285D01*
X111450571Y-54864476D01*
X111412476Y-54978761D01*
X110955333Y-55435904D01*
X111450571Y-55435904D01*
%TO.C,R1*%
X101785904Y-72733333D02*
X101404952Y-73000000D01*
X101785904Y-73190476D02*
X100985904Y-73190476D01*
X100985904Y-72885714D01*
X101024000Y-72809523D01*
X101062095Y-72771428D01*
X101138285Y-72733333D01*
X101252571Y-72733333D01*
X101328761Y-72771428D01*
X101366857Y-72809523D01*
X101404952Y-72885714D01*
X101404952Y-73190476D01*
X101785904Y-71971428D02*
X101785904Y-72428571D01*
X101785904Y-72200000D02*
X100985904Y-72200000D01*
X101100190Y-72276190D01*
X101176380Y-72352380D01*
X101214476Y-72428571D01*
%TO.C,L3*%
X107036666Y-75031904D02*
X106655714Y-75031904D01*
X106655714Y-74231904D01*
X107227142Y-74231904D02*
X107722380Y-74231904D01*
X107455714Y-74536666D01*
X107570000Y-74536666D01*
X107646190Y-74574761D01*
X107684285Y-74612857D01*
X107722380Y-74689047D01*
X107722380Y-74879523D01*
X107684285Y-74955714D01*
X107646190Y-74993809D01*
X107570000Y-75031904D01*
X107341428Y-75031904D01*
X107265238Y-74993809D01*
X107227142Y-74955714D01*
%TO.C,L2*%
X107627904Y-68034333D02*
X107627904Y-68415285D01*
X106827904Y-68415285D01*
X106904095Y-67805761D02*
X106866000Y-67767666D01*
X106827904Y-67691476D01*
X106827904Y-67501000D01*
X106866000Y-67424809D01*
X106904095Y-67386714D01*
X106980285Y-67348619D01*
X107056476Y-67348619D01*
X107170761Y-67386714D01*
X107627904Y-67843857D01*
X107627904Y-67348619D01*
%TO.C,L1*%
X104960904Y-68034333D02*
X104960904Y-68415285D01*
X104160904Y-68415285D01*
X104960904Y-67348619D02*
X104960904Y-67805761D01*
X104960904Y-67577190D02*
X104160904Y-67577190D01*
X104275190Y-67653380D01*
X104351380Y-67729571D01*
X104389476Y-67805761D01*
%TO.C,C33*%
X107170714Y-63335285D02*
X107208809Y-63373380D01*
X107246904Y-63487666D01*
X107246904Y-63563857D01*
X107208809Y-63678142D01*
X107132619Y-63754333D01*
X107056428Y-63792428D01*
X106904047Y-63830523D01*
X106789761Y-63830523D01*
X106637380Y-63792428D01*
X106561190Y-63754333D01*
X106485000Y-63678142D01*
X106446904Y-63563857D01*
X106446904Y-63487666D01*
X106485000Y-63373380D01*
X106523095Y-63335285D01*
X106446904Y-63068619D02*
X106446904Y-62573380D01*
X106751666Y-62840047D01*
X106751666Y-62725761D01*
X106789761Y-62649571D01*
X106827857Y-62611476D01*
X106904047Y-62573380D01*
X107094523Y-62573380D01*
X107170714Y-62611476D01*
X107208809Y-62649571D01*
X107246904Y-62725761D01*
X107246904Y-62954333D01*
X107208809Y-63030523D01*
X107170714Y-63068619D01*
X106446904Y-62306714D02*
X106446904Y-61811476D01*
X106751666Y-62078142D01*
X106751666Y-61963857D01*
X106789761Y-61887666D01*
X106827857Y-61849571D01*
X106904047Y-61811476D01*
X107094523Y-61811476D01*
X107170714Y-61849571D01*
X107208809Y-61887666D01*
X107246904Y-61963857D01*
X107246904Y-62192428D01*
X107208809Y-62268619D01*
X107170714Y-62306714D01*
%TO.C,C32*%
X106751714Y-60439714D02*
X106713619Y-60477809D01*
X106599333Y-60515904D01*
X106523142Y-60515904D01*
X106408857Y-60477809D01*
X106332666Y-60401619D01*
X106294571Y-60325428D01*
X106256476Y-60173047D01*
X106256476Y-60058761D01*
X106294571Y-59906380D01*
X106332666Y-59830190D01*
X106408857Y-59754000D01*
X106523142Y-59715904D01*
X106599333Y-59715904D01*
X106713619Y-59754000D01*
X106751714Y-59792095D01*
X107018380Y-59715904D02*
X107513619Y-59715904D01*
X107246952Y-60020666D01*
X107361238Y-60020666D01*
X107437428Y-60058761D01*
X107475523Y-60096857D01*
X107513619Y-60173047D01*
X107513619Y-60363523D01*
X107475523Y-60439714D01*
X107437428Y-60477809D01*
X107361238Y-60515904D01*
X107132666Y-60515904D01*
X107056476Y-60477809D01*
X107018380Y-60439714D01*
X107818380Y-59792095D02*
X107856476Y-59754000D01*
X107932666Y-59715904D01*
X108123142Y-59715904D01*
X108199333Y-59754000D01*
X108237428Y-59792095D01*
X108275523Y-59868285D01*
X108275523Y-59944476D01*
X108237428Y-60058761D01*
X107780285Y-60515904D01*
X108275523Y-60515904D01*
%TO.C,C31*%
X98496714Y-69964714D02*
X98458619Y-70002809D01*
X98344333Y-70040904D01*
X98268142Y-70040904D01*
X98153857Y-70002809D01*
X98077666Y-69926619D01*
X98039571Y-69850428D01*
X98001476Y-69698047D01*
X98001476Y-69583761D01*
X98039571Y-69431380D01*
X98077666Y-69355190D01*
X98153857Y-69279000D01*
X98268142Y-69240904D01*
X98344333Y-69240904D01*
X98458619Y-69279000D01*
X98496714Y-69317095D01*
X98763380Y-69240904D02*
X99258619Y-69240904D01*
X98991952Y-69545666D01*
X99106238Y-69545666D01*
X99182428Y-69583761D01*
X99220523Y-69621857D01*
X99258619Y-69698047D01*
X99258619Y-69888523D01*
X99220523Y-69964714D01*
X99182428Y-70002809D01*
X99106238Y-70040904D01*
X98877666Y-70040904D01*
X98801476Y-70002809D01*
X98763380Y-69964714D01*
X100020523Y-70040904D02*
X99563380Y-70040904D01*
X99791952Y-70040904D02*
X99791952Y-69240904D01*
X99715761Y-69355190D01*
X99639571Y-69431380D01*
X99563380Y-69469476D01*
%TO.C,C30*%
X106751714Y-56375714D02*
X106713619Y-56413809D01*
X106599333Y-56451904D01*
X106523142Y-56451904D01*
X106408857Y-56413809D01*
X106332666Y-56337619D01*
X106294571Y-56261428D01*
X106256476Y-56109047D01*
X106256476Y-55994761D01*
X106294571Y-55842380D01*
X106332666Y-55766190D01*
X106408857Y-55690000D01*
X106523142Y-55651904D01*
X106599333Y-55651904D01*
X106713619Y-55690000D01*
X106751714Y-55728095D01*
X107018380Y-55651904D02*
X107513619Y-55651904D01*
X107246952Y-55956666D01*
X107361238Y-55956666D01*
X107437428Y-55994761D01*
X107475523Y-56032857D01*
X107513619Y-56109047D01*
X107513619Y-56299523D01*
X107475523Y-56375714D01*
X107437428Y-56413809D01*
X107361238Y-56451904D01*
X107132666Y-56451904D01*
X107056476Y-56413809D01*
X107018380Y-56375714D01*
X108008857Y-55651904D02*
X108085047Y-55651904D01*
X108161238Y-55690000D01*
X108199333Y-55728095D01*
X108237428Y-55804285D01*
X108275523Y-55956666D01*
X108275523Y-56147142D01*
X108237428Y-56299523D01*
X108199333Y-56375714D01*
X108161238Y-56413809D01*
X108085047Y-56451904D01*
X108008857Y-56451904D01*
X107932666Y-56413809D01*
X107894571Y-56375714D01*
X107856476Y-56299523D01*
X107818380Y-56147142D01*
X107818380Y-55956666D01*
X107856476Y-55804285D01*
X107894571Y-55728095D01*
X107932666Y-55690000D01*
X108008857Y-55651904D01*
%TO.C,C29*%
X98496714Y-70980714D02*
X98458619Y-71018809D01*
X98344333Y-71056904D01*
X98268142Y-71056904D01*
X98153857Y-71018809D01*
X98077666Y-70942619D01*
X98039571Y-70866428D01*
X98001476Y-70714047D01*
X98001476Y-70599761D01*
X98039571Y-70447380D01*
X98077666Y-70371190D01*
X98153857Y-70295000D01*
X98268142Y-70256904D01*
X98344333Y-70256904D01*
X98458619Y-70295000D01*
X98496714Y-70333095D01*
X98801476Y-70333095D02*
X98839571Y-70295000D01*
X98915761Y-70256904D01*
X99106238Y-70256904D01*
X99182428Y-70295000D01*
X99220523Y-70333095D01*
X99258619Y-70409285D01*
X99258619Y-70485476D01*
X99220523Y-70599761D01*
X98763380Y-71056904D01*
X99258619Y-71056904D01*
X99639571Y-71056904D02*
X99791952Y-71056904D01*
X99868142Y-71018809D01*
X99906238Y-70980714D01*
X99982428Y-70866428D01*
X100020523Y-70714047D01*
X100020523Y-70409285D01*
X99982428Y-70333095D01*
X99944333Y-70295000D01*
X99868142Y-70256904D01*
X99715761Y-70256904D01*
X99639571Y-70295000D01*
X99601476Y-70333095D01*
X99563380Y-70409285D01*
X99563380Y-70599761D01*
X99601476Y-70675952D01*
X99639571Y-70714047D01*
X99715761Y-70752142D01*
X99868142Y-70752142D01*
X99944333Y-70714047D01*
X99982428Y-70675952D01*
X100020523Y-70599761D01*
%TO.C,C28*%
X106751714Y-58407714D02*
X106713619Y-58445809D01*
X106599333Y-58483904D01*
X106523142Y-58483904D01*
X106408857Y-58445809D01*
X106332666Y-58369619D01*
X106294571Y-58293428D01*
X106256476Y-58141047D01*
X106256476Y-58026761D01*
X106294571Y-57874380D01*
X106332666Y-57798190D01*
X106408857Y-57722000D01*
X106523142Y-57683904D01*
X106599333Y-57683904D01*
X106713619Y-57722000D01*
X106751714Y-57760095D01*
X107056476Y-57760095D02*
X107094571Y-57722000D01*
X107170761Y-57683904D01*
X107361238Y-57683904D01*
X107437428Y-57722000D01*
X107475523Y-57760095D01*
X107513619Y-57836285D01*
X107513619Y-57912476D01*
X107475523Y-58026761D01*
X107018380Y-58483904D01*
X107513619Y-58483904D01*
X107970761Y-58026761D02*
X107894571Y-57988666D01*
X107856476Y-57950571D01*
X107818380Y-57874380D01*
X107818380Y-57836285D01*
X107856476Y-57760095D01*
X107894571Y-57722000D01*
X107970761Y-57683904D01*
X108123142Y-57683904D01*
X108199333Y-57722000D01*
X108237428Y-57760095D01*
X108275523Y-57836285D01*
X108275523Y-57874380D01*
X108237428Y-57950571D01*
X108199333Y-57988666D01*
X108123142Y-58026761D01*
X107970761Y-58026761D01*
X107894571Y-58064857D01*
X107856476Y-58102952D01*
X107818380Y-58179142D01*
X107818380Y-58331523D01*
X107856476Y-58407714D01*
X107894571Y-58445809D01*
X107970761Y-58483904D01*
X108123142Y-58483904D01*
X108199333Y-58445809D01*
X108237428Y-58407714D01*
X108275523Y-58331523D01*
X108275523Y-58179142D01*
X108237428Y-58102952D01*
X108199333Y-58064857D01*
X108123142Y-58026761D01*
%TO.C,C27*%
X92455714Y-61584285D02*
X92493809Y-61622380D01*
X92531904Y-61736666D01*
X92531904Y-61812857D01*
X92493809Y-61927142D01*
X92417619Y-62003333D01*
X92341428Y-62041428D01*
X92189047Y-62079523D01*
X92074761Y-62079523D01*
X91922380Y-62041428D01*
X91846190Y-62003333D01*
X91770000Y-61927142D01*
X91731904Y-61812857D01*
X91731904Y-61736666D01*
X91770000Y-61622380D01*
X91808095Y-61584285D01*
X91808095Y-61279523D02*
X91770000Y-61241428D01*
X91731904Y-61165238D01*
X91731904Y-60974761D01*
X91770000Y-60898571D01*
X91808095Y-60860476D01*
X91884285Y-60822380D01*
X91960476Y-60822380D01*
X92074761Y-60860476D01*
X92531904Y-61317619D01*
X92531904Y-60822380D01*
X91731904Y-60555714D02*
X91731904Y-60022380D01*
X92531904Y-60365238D01*
%TO.C,C26*%
X106751714Y-57391714D02*
X106713619Y-57429809D01*
X106599333Y-57467904D01*
X106523142Y-57467904D01*
X106408857Y-57429809D01*
X106332666Y-57353619D01*
X106294571Y-57277428D01*
X106256476Y-57125047D01*
X106256476Y-57010761D01*
X106294571Y-56858380D01*
X106332666Y-56782190D01*
X106408857Y-56706000D01*
X106523142Y-56667904D01*
X106599333Y-56667904D01*
X106713619Y-56706000D01*
X106751714Y-56744095D01*
X107056476Y-56744095D02*
X107094571Y-56706000D01*
X107170761Y-56667904D01*
X107361238Y-56667904D01*
X107437428Y-56706000D01*
X107475523Y-56744095D01*
X107513619Y-56820285D01*
X107513619Y-56896476D01*
X107475523Y-57010761D01*
X107018380Y-57467904D01*
X107513619Y-57467904D01*
X108199333Y-56667904D02*
X108046952Y-56667904D01*
X107970761Y-56706000D01*
X107932666Y-56744095D01*
X107856476Y-56858380D01*
X107818380Y-57010761D01*
X107818380Y-57315523D01*
X107856476Y-57391714D01*
X107894571Y-57429809D01*
X107970761Y-57467904D01*
X108123142Y-57467904D01*
X108199333Y-57429809D01*
X108237428Y-57391714D01*
X108275523Y-57315523D01*
X108275523Y-57125047D01*
X108237428Y-57048857D01*
X108199333Y-57010761D01*
X108123142Y-56972666D01*
X107970761Y-56972666D01*
X107894571Y-57010761D01*
X107856476Y-57048857D01*
X107818380Y-57125047D01*
%TO.C,C25*%
X109418714Y-58507714D02*
X109380619Y-58545809D01*
X109266333Y-58583904D01*
X109190142Y-58583904D01*
X109075857Y-58545809D01*
X108999666Y-58469619D01*
X108961571Y-58393428D01*
X108923476Y-58241047D01*
X108923476Y-58126761D01*
X108961571Y-57974380D01*
X108999666Y-57898190D01*
X109075857Y-57822000D01*
X109190142Y-57783904D01*
X109266333Y-57783904D01*
X109380619Y-57822000D01*
X109418714Y-57860095D01*
X109723476Y-57860095D02*
X109761571Y-57822000D01*
X109837761Y-57783904D01*
X110028238Y-57783904D01*
X110104428Y-57822000D01*
X110142523Y-57860095D01*
X110180619Y-57936285D01*
X110180619Y-58012476D01*
X110142523Y-58126761D01*
X109685380Y-58583904D01*
X110180619Y-58583904D01*
X110904428Y-57783904D02*
X110523476Y-57783904D01*
X110485380Y-58164857D01*
X110523476Y-58126761D01*
X110599666Y-58088666D01*
X110790142Y-58088666D01*
X110866333Y-58126761D01*
X110904428Y-58164857D01*
X110942523Y-58241047D01*
X110942523Y-58431523D01*
X110904428Y-58507714D01*
X110866333Y-58545809D01*
X110790142Y-58583904D01*
X110599666Y-58583904D01*
X110523476Y-58545809D01*
X110485380Y-58507714D01*
%TO.C,C24*%
X92455714Y-54984285D02*
X92493809Y-55022380D01*
X92531904Y-55136666D01*
X92531904Y-55212857D01*
X92493809Y-55327142D01*
X92417619Y-55403333D01*
X92341428Y-55441428D01*
X92189047Y-55479523D01*
X92074761Y-55479523D01*
X91922380Y-55441428D01*
X91846190Y-55403333D01*
X91770000Y-55327142D01*
X91731904Y-55212857D01*
X91731904Y-55136666D01*
X91770000Y-55022380D01*
X91808095Y-54984285D01*
X91808095Y-54679523D02*
X91770000Y-54641428D01*
X91731904Y-54565238D01*
X91731904Y-54374761D01*
X91770000Y-54298571D01*
X91808095Y-54260476D01*
X91884285Y-54222380D01*
X91960476Y-54222380D01*
X92074761Y-54260476D01*
X92531904Y-54717619D01*
X92531904Y-54222380D01*
X91998571Y-53536666D02*
X92531904Y-53536666D01*
X91693809Y-53727142D02*
X92265238Y-53917619D01*
X92265238Y-53422380D01*
%TO.C,C23*%
X107894714Y-62090714D02*
X107856619Y-62128809D01*
X107742333Y-62166904D01*
X107666142Y-62166904D01*
X107551857Y-62128809D01*
X107475666Y-62052619D01*
X107437571Y-61976428D01*
X107399476Y-61824047D01*
X107399476Y-61709761D01*
X107437571Y-61557380D01*
X107475666Y-61481190D01*
X107551857Y-61405000D01*
X107666142Y-61366904D01*
X107742333Y-61366904D01*
X107856619Y-61405000D01*
X107894714Y-61443095D01*
X108199476Y-61443095D02*
X108237571Y-61405000D01*
X108313761Y-61366904D01*
X108504238Y-61366904D01*
X108580428Y-61405000D01*
X108618523Y-61443095D01*
X108656619Y-61519285D01*
X108656619Y-61595476D01*
X108618523Y-61709761D01*
X108161380Y-62166904D01*
X108656619Y-62166904D01*
X108923285Y-61366904D02*
X109418523Y-61366904D01*
X109151857Y-61671666D01*
X109266142Y-61671666D01*
X109342333Y-61709761D01*
X109380428Y-61747857D01*
X109418523Y-61824047D01*
X109418523Y-62014523D01*
X109380428Y-62090714D01*
X109342333Y-62128809D01*
X109266142Y-62166904D01*
X109037571Y-62166904D01*
X108961380Y-62128809D01*
X108923285Y-62090714D01*
%TO.C,C21*%
X107894714Y-63106714D02*
X107856619Y-63144809D01*
X107742333Y-63182904D01*
X107666142Y-63182904D01*
X107551857Y-63144809D01*
X107475666Y-63068619D01*
X107437571Y-62992428D01*
X107399476Y-62840047D01*
X107399476Y-62725761D01*
X107437571Y-62573380D01*
X107475666Y-62497190D01*
X107551857Y-62421000D01*
X107666142Y-62382904D01*
X107742333Y-62382904D01*
X107856619Y-62421000D01*
X107894714Y-62459095D01*
X108199476Y-62459095D02*
X108237571Y-62421000D01*
X108313761Y-62382904D01*
X108504238Y-62382904D01*
X108580428Y-62421000D01*
X108618523Y-62459095D01*
X108656619Y-62535285D01*
X108656619Y-62611476D01*
X108618523Y-62725761D01*
X108161380Y-63182904D01*
X108656619Y-63182904D01*
X109418523Y-63182904D02*
X108961380Y-63182904D01*
X109189952Y-63182904D02*
X109189952Y-62382904D01*
X109113761Y-62497190D01*
X109037571Y-62573380D01*
X108961380Y-62611476D01*
%TO.C,C15*%
X96337714Y-71996714D02*
X96299619Y-72034809D01*
X96185333Y-72072904D01*
X96109142Y-72072904D01*
X95994857Y-72034809D01*
X95918666Y-71958619D01*
X95880571Y-71882428D01*
X95842476Y-71730047D01*
X95842476Y-71615761D01*
X95880571Y-71463380D01*
X95918666Y-71387190D01*
X95994857Y-71311000D01*
X96109142Y-71272904D01*
X96185333Y-71272904D01*
X96299619Y-71311000D01*
X96337714Y-71349095D01*
X97099619Y-72072904D02*
X96642476Y-72072904D01*
X96871047Y-72072904D02*
X96871047Y-71272904D01*
X96794857Y-71387190D01*
X96718666Y-71463380D01*
X96642476Y-71501476D01*
X97823428Y-71272904D02*
X97442476Y-71272904D01*
X97404380Y-71653857D01*
X97442476Y-71615761D01*
X97518666Y-71577666D01*
X97709142Y-71577666D01*
X97785333Y-71615761D01*
X97823428Y-71653857D01*
X97861523Y-71730047D01*
X97861523Y-71920523D01*
X97823428Y-71996714D01*
X97785333Y-72034809D01*
X97709142Y-72072904D01*
X97518666Y-72072904D01*
X97442476Y-72034809D01*
X97404380Y-71996714D01*
%TO.C,C13*%
X97645714Y-70701285D02*
X97683809Y-70739380D01*
X97721904Y-70853666D01*
X97721904Y-70929857D01*
X97683809Y-71044142D01*
X97607619Y-71120333D01*
X97531428Y-71158428D01*
X97379047Y-71196523D01*
X97264761Y-71196523D01*
X97112380Y-71158428D01*
X97036190Y-71120333D01*
X96960000Y-71044142D01*
X96921904Y-70929857D01*
X96921904Y-70853666D01*
X96960000Y-70739380D01*
X96998095Y-70701285D01*
X97721904Y-69939380D02*
X97721904Y-70396523D01*
X97721904Y-70167952D02*
X96921904Y-70167952D01*
X97036190Y-70244142D01*
X97112380Y-70320333D01*
X97150476Y-70396523D01*
X96921904Y-69672714D02*
X96921904Y-69177476D01*
X97226666Y-69444142D01*
X97226666Y-69329857D01*
X97264761Y-69253666D01*
X97302857Y-69215571D01*
X97379047Y-69177476D01*
X97569523Y-69177476D01*
X97645714Y-69215571D01*
X97683809Y-69253666D01*
X97721904Y-69329857D01*
X97721904Y-69558428D01*
X97683809Y-69634619D01*
X97645714Y-69672714D01*
%TO.C,C12*%
X93835714Y-68796285D02*
X93873809Y-68834380D01*
X93911904Y-68948666D01*
X93911904Y-69024857D01*
X93873809Y-69139142D01*
X93797619Y-69215333D01*
X93721428Y-69253428D01*
X93569047Y-69291523D01*
X93454761Y-69291523D01*
X93302380Y-69253428D01*
X93226190Y-69215333D01*
X93150000Y-69139142D01*
X93111904Y-69024857D01*
X93111904Y-68948666D01*
X93150000Y-68834380D01*
X93188095Y-68796285D01*
X93911904Y-68034380D02*
X93911904Y-68491523D01*
X93911904Y-68262952D02*
X93111904Y-68262952D01*
X93226190Y-68339142D01*
X93302380Y-68415333D01*
X93340476Y-68491523D01*
X93188095Y-67729619D02*
X93150000Y-67691523D01*
X93111904Y-67615333D01*
X93111904Y-67424857D01*
X93150000Y-67348666D01*
X93188095Y-67310571D01*
X93264285Y-67272476D01*
X93340476Y-67272476D01*
X93454761Y-67310571D01*
X93911904Y-67767714D01*
X93911904Y-67272476D01*
%TO.C,C10*%
X96337714Y-73012714D02*
X96299619Y-73050809D01*
X96185333Y-73088904D01*
X96109142Y-73088904D01*
X95994857Y-73050809D01*
X95918666Y-72974619D01*
X95880571Y-72898428D01*
X95842476Y-72746047D01*
X95842476Y-72631761D01*
X95880571Y-72479380D01*
X95918666Y-72403190D01*
X95994857Y-72327000D01*
X96109142Y-72288904D01*
X96185333Y-72288904D01*
X96299619Y-72327000D01*
X96337714Y-72365095D01*
X97099619Y-73088904D02*
X96642476Y-73088904D01*
X96871047Y-73088904D02*
X96871047Y-72288904D01*
X96794857Y-72403190D01*
X96718666Y-72479380D01*
X96642476Y-72517476D01*
X97594857Y-72288904D02*
X97671047Y-72288904D01*
X97747238Y-72327000D01*
X97785333Y-72365095D01*
X97823428Y-72441285D01*
X97861523Y-72593666D01*
X97861523Y-72784142D01*
X97823428Y-72936523D01*
X97785333Y-73012714D01*
X97747238Y-73050809D01*
X97671047Y-73088904D01*
X97594857Y-73088904D01*
X97518666Y-73050809D01*
X97480571Y-73012714D01*
X97442476Y-72936523D01*
X97404380Y-72784142D01*
X97404380Y-72593666D01*
X97442476Y-72441285D01*
X97480571Y-72365095D01*
X97518666Y-72327000D01*
X97594857Y-72288904D01*
%TO.C,C8*%
X94851714Y-68034333D02*
X94889809Y-68072428D01*
X94927904Y-68186714D01*
X94927904Y-68262904D01*
X94889809Y-68377190D01*
X94813619Y-68453380D01*
X94737428Y-68491476D01*
X94585047Y-68529571D01*
X94470761Y-68529571D01*
X94318380Y-68491476D01*
X94242190Y-68453380D01*
X94166000Y-68377190D01*
X94127904Y-68262904D01*
X94127904Y-68186714D01*
X94166000Y-68072428D01*
X94204095Y-68034333D01*
X94470761Y-67577190D02*
X94432666Y-67653380D01*
X94394571Y-67691476D01*
X94318380Y-67729571D01*
X94280285Y-67729571D01*
X94204095Y-67691476D01*
X94166000Y-67653380D01*
X94127904Y-67577190D01*
X94127904Y-67424809D01*
X94166000Y-67348619D01*
X94204095Y-67310523D01*
X94280285Y-67272428D01*
X94318380Y-67272428D01*
X94394571Y-67310523D01*
X94432666Y-67348619D01*
X94470761Y-67424809D01*
X94470761Y-67577190D01*
X94508857Y-67653380D01*
X94546952Y-67691476D01*
X94623142Y-67729571D01*
X94775523Y-67729571D01*
X94851714Y-67691476D01*
X94889809Y-67653380D01*
X94927904Y-67577190D01*
X94927904Y-67424809D01*
X94889809Y-67348619D01*
X94851714Y-67310523D01*
X94775523Y-67272428D01*
X94623142Y-67272428D01*
X94546952Y-67310523D01*
X94508857Y-67348619D01*
X94470761Y-67424809D01*
%TO.C,C7*%
X110180666Y-63106714D02*
X110142571Y-63144809D01*
X110028285Y-63182904D01*
X109952095Y-63182904D01*
X109837809Y-63144809D01*
X109761619Y-63068619D01*
X109723523Y-62992428D01*
X109685428Y-62840047D01*
X109685428Y-62725761D01*
X109723523Y-62573380D01*
X109761619Y-62497190D01*
X109837809Y-62421000D01*
X109952095Y-62382904D01*
X110028285Y-62382904D01*
X110142571Y-62421000D01*
X110180666Y-62459095D01*
X110447333Y-62382904D02*
X110980666Y-62382904D01*
X110637809Y-63182904D01*
%TO.C,C6*%
X100947714Y-68923333D02*
X100985809Y-68961428D01*
X101023904Y-69075714D01*
X101023904Y-69151904D01*
X100985809Y-69266190D01*
X100909619Y-69342380D01*
X100833428Y-69380476D01*
X100681047Y-69418571D01*
X100566761Y-69418571D01*
X100414380Y-69380476D01*
X100338190Y-69342380D01*
X100262000Y-69266190D01*
X100223904Y-69151904D01*
X100223904Y-69075714D01*
X100262000Y-68961428D01*
X100300095Y-68923333D01*
X100223904Y-68237619D02*
X100223904Y-68390000D01*
X100262000Y-68466190D01*
X100300095Y-68504285D01*
X100414380Y-68580476D01*
X100566761Y-68618571D01*
X100871523Y-68618571D01*
X100947714Y-68580476D01*
X100985809Y-68542380D01*
X101023904Y-68466190D01*
X101023904Y-68313809D01*
X100985809Y-68237619D01*
X100947714Y-68199523D01*
X100871523Y-68161428D01*
X100681047Y-68161428D01*
X100604857Y-68199523D01*
X100566761Y-68237619D01*
X100528666Y-68313809D01*
X100528666Y-68466190D01*
X100566761Y-68542380D01*
X100604857Y-68580476D01*
X100681047Y-68618571D01*
%TO.C,C4*%
X92819714Y-68923333D02*
X92857809Y-68961428D01*
X92895904Y-69075714D01*
X92895904Y-69151904D01*
X92857809Y-69266190D01*
X92781619Y-69342380D01*
X92705428Y-69380476D01*
X92553047Y-69418571D01*
X92438761Y-69418571D01*
X92286380Y-69380476D01*
X92210190Y-69342380D01*
X92134000Y-69266190D01*
X92095904Y-69151904D01*
X92095904Y-69075714D01*
X92134000Y-68961428D01*
X92172095Y-68923333D01*
X92362571Y-68237619D02*
X92895904Y-68237619D01*
X92057809Y-68428095D02*
X92629238Y-68618571D01*
X92629238Y-68123333D01*
%TO.C,C2*%
X110180666Y-62090714D02*
X110142571Y-62128809D01*
X110028285Y-62166904D01*
X109952095Y-62166904D01*
X109837809Y-62128809D01*
X109761619Y-62052619D01*
X109723523Y-61976428D01*
X109685428Y-61824047D01*
X109685428Y-61709761D01*
X109723523Y-61557380D01*
X109761619Y-61481190D01*
X109837809Y-61405000D01*
X109952095Y-61366904D01*
X110028285Y-61366904D01*
X110142571Y-61405000D01*
X110180666Y-61443095D01*
X110485428Y-61443095D02*
X110523523Y-61405000D01*
X110599714Y-61366904D01*
X110790190Y-61366904D01*
X110866380Y-61405000D01*
X110904476Y-61443095D01*
X110942571Y-61519285D01*
X110942571Y-61595476D01*
X110904476Y-61709761D01*
X110447333Y-62166904D01*
X110942571Y-62166904D01*
%TD*%
M02*
