%TF.GenerationSoftware,KiCad,Pcbnew,(5.1.6)-1*%
%TF.CreationDate,2020-09-21T21:17:43+08:00*%
%TF.ProjectId,f1c200s_core,66316332-3030-4735-9f63-6f72652e6b69,rev?*%
%TF.SameCoordinates,Original*%
%TF.FileFunction,Paste,Top*%
%TF.FilePolarity,Positive*%
%FSLAX46Y46*%
G04 Gerber Fmt 4.6, Leading zero omitted, Abs format (unit mm)*
G04 Created by KiCad (PCBNEW (5.1.6)-1) date 2020-09-21 21:17:43*
%MOMM*%
%LPD*%
G01*
G04 APERTURE LIST*
%ADD10R,0.350000X1.600000*%
%ADD11R,1.200000X0.800000*%
%ADD12R,1.200000X1.400000*%
%ADD13R,1.500000X1.500000*%
%ADD14O,0.260000X1.000000*%
%ADD15O,1.000000X0.260000*%
%ADD16O,1.000000X0.300000*%
%ADD17O,0.300000X1.000000*%
G04 APERTURE END LIST*
D10*
%TO.C,NGFF*%
X102420000Y-48470000D03*
X103420000Y-48470000D03*
X102920000Y-48470000D03*
X103920000Y-48470000D03*
X104420000Y-48470000D03*
X104920000Y-48470000D03*
X105420000Y-48470000D03*
X105920000Y-48470000D03*
X101920000Y-48470000D03*
X110420000Y-48470000D03*
X109920000Y-48470000D03*
X109420000Y-48470000D03*
X108920000Y-48470000D03*
X108420000Y-48470000D03*
X101420000Y-48470000D03*
X100920000Y-48470000D03*
X100420000Y-48470000D03*
X99920000Y-48470000D03*
X99420000Y-48470000D03*
X98920000Y-48470000D03*
X98420000Y-48470000D03*
X97920000Y-48470000D03*
X97420000Y-48470000D03*
X96920000Y-48470000D03*
X96420000Y-48470000D03*
X95920000Y-48470000D03*
X95420000Y-48470000D03*
X94920000Y-48470000D03*
X94420000Y-48470000D03*
X93920000Y-48470000D03*
X93420000Y-48470000D03*
X92920000Y-48470000D03*
X92420000Y-48470000D03*
X91920000Y-48470000D03*
%TD*%
%TO.C,R18*%
G36*
G01*
X103728000Y-73951500D02*
X103728000Y-74296500D01*
G75*
G02*
X103580500Y-74444000I-147500J0D01*
G01*
X103285500Y-74444000D01*
G75*
G02*
X103138000Y-74296500I0J147500D01*
G01*
X103138000Y-73951500D01*
G75*
G02*
X103285500Y-73804000I147500J0D01*
G01*
X103580500Y-73804000D01*
G75*
G02*
X103728000Y-73951500I0J-147500D01*
G01*
G37*
G36*
G01*
X102758000Y-73951500D02*
X102758000Y-74296500D01*
G75*
G02*
X102610500Y-74444000I-147500J0D01*
G01*
X102315500Y-74444000D01*
G75*
G02*
X102168000Y-74296500I0J147500D01*
G01*
X102168000Y-73951500D01*
G75*
G02*
X102315500Y-73804000I147500J0D01*
G01*
X102610500Y-73804000D01*
G75*
G02*
X102758000Y-73951500I0J-147500D01*
G01*
G37*
%TD*%
%TO.C,D2*%
G36*
G01*
X107475000Y-76026750D02*
X107475000Y-76539250D01*
G75*
G02*
X107256250Y-76758000I-218750J0D01*
G01*
X106818750Y-76758000D01*
G75*
G02*
X106600000Y-76539250I0J218750D01*
G01*
X106600000Y-76026750D01*
G75*
G02*
X106818750Y-75808000I218750J0D01*
G01*
X107256250Y-75808000D01*
G75*
G02*
X107475000Y-76026750I0J-218750D01*
G01*
G37*
G36*
G01*
X105900000Y-76026750D02*
X105900000Y-76539250D01*
G75*
G02*
X105681250Y-76758000I-218750J0D01*
G01*
X105243750Y-76758000D01*
G75*
G02*
X105025000Y-76539250I0J218750D01*
G01*
X105025000Y-76026750D01*
G75*
G02*
X105243750Y-75808000I218750J0D01*
G01*
X105681250Y-75808000D01*
G75*
G02*
X105900000Y-76026750I0J-218750D01*
G01*
G37*
%TD*%
%TO.C,D1*%
G36*
G01*
X91261750Y-62993000D02*
X91774250Y-62993000D01*
G75*
G02*
X91993000Y-63211750I0J-218750D01*
G01*
X91993000Y-63649250D01*
G75*
G02*
X91774250Y-63868000I-218750J0D01*
G01*
X91261750Y-63868000D01*
G75*
G02*
X91043000Y-63649250I0J218750D01*
G01*
X91043000Y-63211750D01*
G75*
G02*
X91261750Y-62993000I218750J0D01*
G01*
G37*
G36*
G01*
X91261750Y-64568000D02*
X91774250Y-64568000D01*
G75*
G02*
X91993000Y-64786750I0J-218750D01*
G01*
X91993000Y-65224250D01*
G75*
G02*
X91774250Y-65443000I-218750J0D01*
G01*
X91261750Y-65443000D01*
G75*
G02*
X91043000Y-65224250I0J218750D01*
G01*
X91043000Y-64786750D01*
G75*
G02*
X91261750Y-64568000I218750J0D01*
G01*
G37*
%TD*%
D11*
%TO.C,SW1*%
X91423000Y-76321000D03*
X95423000Y-76321000D03*
X91423000Y-74721000D03*
X95423000Y-74721000D03*
%TD*%
D12*
%TO.C,Y1*%
X92876000Y-58841000D03*
X92876000Y-56641000D03*
X91176000Y-56641000D03*
X91176000Y-58841000D03*
%TD*%
D13*
%TO.C,U3*%
X98400000Y-57130000D03*
X98400000Y-60130000D03*
X101400000Y-57130000D03*
X101400000Y-60130000D03*
D14*
X104100000Y-63730000D03*
X103700000Y-63730000D03*
X103300000Y-63730000D03*
X102900000Y-63730000D03*
X102500000Y-63730000D03*
X102100000Y-63730000D03*
X101700000Y-63730000D03*
X101300000Y-63730000D03*
X100900000Y-63730000D03*
X100500000Y-63730000D03*
X100100000Y-63730000D03*
X99700000Y-63730000D03*
X99300000Y-63730000D03*
X98900000Y-63730000D03*
X98500000Y-63730000D03*
X98100000Y-63730000D03*
X97700000Y-63730000D03*
X97300000Y-63730000D03*
X96900000Y-63730000D03*
X96500000Y-63730000D03*
X96100000Y-63730000D03*
X95700000Y-63730000D03*
D15*
X94800000Y-62830000D03*
X94800000Y-62430000D03*
X94800000Y-62030000D03*
X94800000Y-61630000D03*
X94800000Y-61230000D03*
X94800000Y-60830000D03*
X94800000Y-60430000D03*
X94800000Y-60030000D03*
X94800000Y-59630000D03*
X94800000Y-59230000D03*
X94800000Y-58830000D03*
X94800000Y-58430000D03*
X94800000Y-58030000D03*
X94800000Y-57630000D03*
X94800000Y-57230000D03*
X94800000Y-56830000D03*
X94800000Y-56430000D03*
X94800000Y-56030000D03*
X94800000Y-55630000D03*
X94800000Y-55230000D03*
X94800000Y-54830000D03*
X94800000Y-54430000D03*
D14*
X95700000Y-53530000D03*
X96100000Y-53530000D03*
X96500000Y-53530000D03*
X96900000Y-53530000D03*
X97300000Y-53530000D03*
X97700000Y-53530000D03*
X98100000Y-53530000D03*
X98500000Y-53530000D03*
X98900000Y-53530000D03*
X99300000Y-53530000D03*
X99700000Y-53530000D03*
X100100000Y-53530000D03*
X100500000Y-53530000D03*
X100900000Y-53530000D03*
X101300000Y-53530000D03*
X101700000Y-53530000D03*
X102100000Y-53530000D03*
X102500000Y-53530000D03*
X102900000Y-53530000D03*
X103300000Y-53530000D03*
X103700000Y-53530000D03*
X104100000Y-53530000D03*
D15*
X105000000Y-54430000D03*
X105000000Y-54830000D03*
X105000000Y-55230000D03*
X105000000Y-55630000D03*
X105000000Y-56030000D03*
X105000000Y-56430000D03*
X105000000Y-56830000D03*
X105000000Y-57230000D03*
X105000000Y-57630000D03*
X105000000Y-58030000D03*
X105000000Y-58430000D03*
X105000000Y-58830000D03*
X105000000Y-59230000D03*
X105000000Y-59630000D03*
X105000000Y-60030000D03*
X105000000Y-60430000D03*
X105000000Y-60830000D03*
X105000000Y-61230000D03*
X105000000Y-61630000D03*
X105000000Y-62030000D03*
X105000000Y-62430000D03*
X105000000Y-62830000D03*
%TD*%
D16*
%TO.C,U2*%
X108612000Y-72130000D03*
X108612000Y-71730000D03*
X108612000Y-71330000D03*
X108612000Y-70930000D03*
X108612000Y-70530000D03*
D17*
X107812000Y-69730000D03*
X107412000Y-69730000D03*
X107012000Y-69730000D03*
X106612000Y-69730000D03*
X106212000Y-69730000D03*
D16*
X105412000Y-70530000D03*
X105412000Y-70930000D03*
X105412000Y-71330000D03*
X105412000Y-71730000D03*
X105412000Y-72130000D03*
D17*
X106212000Y-72930000D03*
X106612000Y-72930000D03*
X107012000Y-72930000D03*
X107412000Y-72930000D03*
X107812000Y-72930000D03*
%TD*%
%TO.C,R15*%
G36*
G01*
X98358000Y-67819500D02*
X98358000Y-67474500D01*
G75*
G02*
X98505500Y-67327000I147500J0D01*
G01*
X98800500Y-67327000D01*
G75*
G02*
X98948000Y-67474500I0J-147500D01*
G01*
X98948000Y-67819500D01*
G75*
G02*
X98800500Y-67967000I-147500J0D01*
G01*
X98505500Y-67967000D01*
G75*
G02*
X98358000Y-67819500I0J147500D01*
G01*
G37*
G36*
G01*
X99328000Y-67819500D02*
X99328000Y-67474500D01*
G75*
G02*
X99475500Y-67327000I147500J0D01*
G01*
X99770500Y-67327000D01*
G75*
G02*
X99918000Y-67474500I0J-147500D01*
G01*
X99918000Y-67819500D01*
G75*
G02*
X99770500Y-67967000I-147500J0D01*
G01*
X99475500Y-67967000D01*
G75*
G02*
X99328000Y-67819500I0J147500D01*
G01*
G37*
%TD*%
%TO.C,R14*%
G36*
G01*
X103791500Y-65343000D02*
X104136500Y-65343000D01*
G75*
G02*
X104284000Y-65490500I0J-147500D01*
G01*
X104284000Y-65785500D01*
G75*
G02*
X104136500Y-65933000I-147500J0D01*
G01*
X103791500Y-65933000D01*
G75*
G02*
X103644000Y-65785500I0J147500D01*
G01*
X103644000Y-65490500D01*
G75*
G02*
X103791500Y-65343000I147500J0D01*
G01*
G37*
G36*
G01*
X103791500Y-66313000D02*
X104136500Y-66313000D01*
G75*
G02*
X104284000Y-66460500I0J-147500D01*
G01*
X104284000Y-66755500D01*
G75*
G02*
X104136500Y-66903000I-147500J0D01*
G01*
X103791500Y-66903000D01*
G75*
G02*
X103644000Y-66755500I0J147500D01*
G01*
X103644000Y-66460500D01*
G75*
G02*
X103791500Y-66313000I147500J0D01*
G01*
G37*
%TD*%
%TO.C,R13*%
G36*
G01*
X91345500Y-66232000D02*
X91690500Y-66232000D01*
G75*
G02*
X91838000Y-66379500I0J-147500D01*
G01*
X91838000Y-66674500D01*
G75*
G02*
X91690500Y-66822000I-147500J0D01*
G01*
X91345500Y-66822000D01*
G75*
G02*
X91198000Y-66674500I0J147500D01*
G01*
X91198000Y-66379500D01*
G75*
G02*
X91345500Y-66232000I147500J0D01*
G01*
G37*
G36*
G01*
X91345500Y-67202000D02*
X91690500Y-67202000D01*
G75*
G02*
X91838000Y-67349500I0J-147500D01*
G01*
X91838000Y-67644500D01*
G75*
G02*
X91690500Y-67792000I-147500J0D01*
G01*
X91345500Y-67792000D01*
G75*
G02*
X91198000Y-67644500I0J147500D01*
G01*
X91198000Y-67349500D01*
G75*
G02*
X91345500Y-67202000I147500J0D01*
G01*
G37*
%TD*%
%TO.C,R12*%
G36*
G01*
X95310000Y-65787500D02*
X95310000Y-65442500D01*
G75*
G02*
X95457500Y-65295000I147500J0D01*
G01*
X95752500Y-65295000D01*
G75*
G02*
X95900000Y-65442500I0J-147500D01*
G01*
X95900000Y-65787500D01*
G75*
G02*
X95752500Y-65935000I-147500J0D01*
G01*
X95457500Y-65935000D01*
G75*
G02*
X95310000Y-65787500I0J147500D01*
G01*
G37*
G36*
G01*
X96280000Y-65787500D02*
X96280000Y-65442500D01*
G75*
G02*
X96427500Y-65295000I147500J0D01*
G01*
X96722500Y-65295000D01*
G75*
G02*
X96870000Y-65442500I0J-147500D01*
G01*
X96870000Y-65787500D01*
G75*
G02*
X96722500Y-65935000I-147500J0D01*
G01*
X96427500Y-65935000D01*
G75*
G02*
X96280000Y-65787500I0J147500D01*
G01*
G37*
%TD*%
%TO.C,R11*%
G36*
G01*
X96870000Y-66458500D02*
X96870000Y-66803500D01*
G75*
G02*
X96722500Y-66951000I-147500J0D01*
G01*
X96427500Y-66951000D01*
G75*
G02*
X96280000Y-66803500I0J147500D01*
G01*
X96280000Y-66458500D01*
G75*
G02*
X96427500Y-66311000I147500J0D01*
G01*
X96722500Y-66311000D01*
G75*
G02*
X96870000Y-66458500I0J-147500D01*
G01*
G37*
G36*
G01*
X95900000Y-66458500D02*
X95900000Y-66803500D01*
G75*
G02*
X95752500Y-66951000I-147500J0D01*
G01*
X95457500Y-66951000D01*
G75*
G02*
X95310000Y-66803500I0J147500D01*
G01*
X95310000Y-66458500D01*
G75*
G02*
X95457500Y-66311000I147500J0D01*
G01*
X95752500Y-66311000D01*
G75*
G02*
X95900000Y-66458500I0J-147500D01*
G01*
G37*
%TD*%
%TO.C,R10*%
G36*
G01*
X98358000Y-68835500D02*
X98358000Y-68490500D01*
G75*
G02*
X98505500Y-68343000I147500J0D01*
G01*
X98800500Y-68343000D01*
G75*
G02*
X98948000Y-68490500I0J-147500D01*
G01*
X98948000Y-68835500D01*
G75*
G02*
X98800500Y-68983000I-147500J0D01*
G01*
X98505500Y-68983000D01*
G75*
G02*
X98358000Y-68835500I0J147500D01*
G01*
G37*
G36*
G01*
X99328000Y-68835500D02*
X99328000Y-68490500D01*
G75*
G02*
X99475500Y-68343000I147500J0D01*
G01*
X99770500Y-68343000D01*
G75*
G02*
X99918000Y-68490500I0J-147500D01*
G01*
X99918000Y-68835500D01*
G75*
G02*
X99770500Y-68983000I-147500J0D01*
G01*
X99475500Y-68983000D01*
G75*
G02*
X99328000Y-68835500I0J147500D01*
G01*
G37*
%TD*%
%TO.C,R7*%
G36*
G01*
X110042000Y-73280500D02*
X110042000Y-72935500D01*
G75*
G02*
X110189500Y-72788000I147500J0D01*
G01*
X110484500Y-72788000D01*
G75*
G02*
X110632000Y-72935500I0J-147500D01*
G01*
X110632000Y-73280500D01*
G75*
G02*
X110484500Y-73428000I-147500J0D01*
G01*
X110189500Y-73428000D01*
G75*
G02*
X110042000Y-73280500I0J147500D01*
G01*
G37*
G36*
G01*
X111012000Y-73280500D02*
X111012000Y-72935500D01*
G75*
G02*
X111159500Y-72788000I147500J0D01*
G01*
X111454500Y-72788000D01*
G75*
G02*
X111602000Y-72935500I0J-147500D01*
G01*
X111602000Y-73280500D01*
G75*
G02*
X111454500Y-73428000I-147500J0D01*
G01*
X111159500Y-73428000D01*
G75*
G02*
X111012000Y-73280500I0J147500D01*
G01*
G37*
%TD*%
%TO.C,R6*%
G36*
G01*
X110042000Y-69724500D02*
X110042000Y-69379500D01*
G75*
G02*
X110189500Y-69232000I147500J0D01*
G01*
X110484500Y-69232000D01*
G75*
G02*
X110632000Y-69379500I0J-147500D01*
G01*
X110632000Y-69724500D01*
G75*
G02*
X110484500Y-69872000I-147500J0D01*
G01*
X110189500Y-69872000D01*
G75*
G02*
X110042000Y-69724500I0J147500D01*
G01*
G37*
G36*
G01*
X111012000Y-69724500D02*
X111012000Y-69379500D01*
G75*
G02*
X111159500Y-69232000I147500J0D01*
G01*
X111454500Y-69232000D01*
G75*
G02*
X111602000Y-69379500I0J-147500D01*
G01*
X111602000Y-69724500D01*
G75*
G02*
X111454500Y-69872000I-147500J0D01*
G01*
X111159500Y-69872000D01*
G75*
G02*
X111012000Y-69724500I0J147500D01*
G01*
G37*
%TD*%
%TO.C,R5*%
G36*
G01*
X102267500Y-71820000D02*
X102612500Y-71820000D01*
G75*
G02*
X102760000Y-71967500I0J-147500D01*
G01*
X102760000Y-72262500D01*
G75*
G02*
X102612500Y-72410000I-147500J0D01*
G01*
X102267500Y-72410000D01*
G75*
G02*
X102120000Y-72262500I0J147500D01*
G01*
X102120000Y-71967500D01*
G75*
G02*
X102267500Y-71820000I147500J0D01*
G01*
G37*
G36*
G01*
X102267500Y-72790000D02*
X102612500Y-72790000D01*
G75*
G02*
X102760000Y-72937500I0J-147500D01*
G01*
X102760000Y-73232500D01*
G75*
G02*
X102612500Y-73380000I-147500J0D01*
G01*
X102267500Y-73380000D01*
G75*
G02*
X102120000Y-73232500I0J147500D01*
G01*
X102120000Y-72937500D01*
G75*
G02*
X102267500Y-72790000I147500J0D01*
G01*
G37*
%TD*%
%TO.C,R3*%
G36*
G01*
X111602000Y-71919500D02*
X111602000Y-72264500D01*
G75*
G02*
X111454500Y-72412000I-147500J0D01*
G01*
X111159500Y-72412000D01*
G75*
G02*
X111012000Y-72264500I0J147500D01*
G01*
X111012000Y-71919500D01*
G75*
G02*
X111159500Y-71772000I147500J0D01*
G01*
X111454500Y-71772000D01*
G75*
G02*
X111602000Y-71919500I0J-147500D01*
G01*
G37*
G36*
G01*
X110632000Y-71919500D02*
X110632000Y-72264500D01*
G75*
G02*
X110484500Y-72412000I-147500J0D01*
G01*
X110189500Y-72412000D01*
G75*
G02*
X110042000Y-72264500I0J147500D01*
G01*
X110042000Y-71919500D01*
G75*
G02*
X110189500Y-71772000I147500J0D01*
G01*
X110484500Y-71772000D01*
G75*
G02*
X110632000Y-71919500I0J-147500D01*
G01*
G37*
%TD*%
%TO.C,R2*%
G36*
G01*
X111602000Y-70395500D02*
X111602000Y-70740500D01*
G75*
G02*
X111454500Y-70888000I-147500J0D01*
G01*
X111159500Y-70888000D01*
G75*
G02*
X111012000Y-70740500I0J147500D01*
G01*
X111012000Y-70395500D01*
G75*
G02*
X111159500Y-70248000I147500J0D01*
G01*
X111454500Y-70248000D01*
G75*
G02*
X111602000Y-70395500I0J-147500D01*
G01*
G37*
G36*
G01*
X110632000Y-70395500D02*
X110632000Y-70740500D01*
G75*
G02*
X110484500Y-70888000I-147500J0D01*
G01*
X110189500Y-70888000D01*
G75*
G02*
X110042000Y-70740500I0J147500D01*
G01*
X110042000Y-70395500D01*
G75*
G02*
X110189500Y-70248000I147500J0D01*
G01*
X110484500Y-70248000D01*
G75*
G02*
X110632000Y-70395500I0J-147500D01*
G01*
G37*
%TD*%
%TO.C,R1*%
G36*
G01*
X103628500Y-73380000D02*
X103283500Y-73380000D01*
G75*
G02*
X103136000Y-73232500I0J147500D01*
G01*
X103136000Y-72937500D01*
G75*
G02*
X103283500Y-72790000I147500J0D01*
G01*
X103628500Y-72790000D01*
G75*
G02*
X103776000Y-72937500I0J-147500D01*
G01*
X103776000Y-73232500D01*
G75*
G02*
X103628500Y-73380000I-147500J0D01*
G01*
G37*
G36*
G01*
X103628500Y-72410000D02*
X103283500Y-72410000D01*
G75*
G02*
X103136000Y-72262500I0J147500D01*
G01*
X103136000Y-71967500D01*
G75*
G02*
X103283500Y-71820000I147500J0D01*
G01*
X103628500Y-71820000D01*
G75*
G02*
X103776000Y-71967500I0J-147500D01*
G01*
X103776000Y-72262500D01*
G75*
G02*
X103628500Y-72410000I-147500J0D01*
G01*
G37*
%TD*%
%TO.C,L3*%
G36*
G01*
X111506000Y-74798000D02*
X111506000Y-76498000D01*
G75*
G02*
X111256000Y-76748000I-250000J0D01*
G01*
X110506000Y-76748000D01*
G75*
G02*
X110256000Y-76498000I0J250000D01*
G01*
X110256000Y-74798000D01*
G75*
G02*
X110506000Y-74548000I250000J0D01*
G01*
X111256000Y-74548000D01*
G75*
G02*
X111506000Y-74798000I0J-250000D01*
G01*
G37*
G36*
G01*
X109356000Y-74798000D02*
X109356000Y-76498000D01*
G75*
G02*
X109106000Y-76748000I-250000J0D01*
G01*
X108356000Y-76748000D01*
G75*
G02*
X108106000Y-76498000I0J250000D01*
G01*
X108106000Y-74798000D01*
G75*
G02*
X108356000Y-74548000I250000J0D01*
G01*
X109106000Y-74548000D01*
G75*
G02*
X109356000Y-74798000I0J-250000D01*
G01*
G37*
%TD*%
%TO.C,L2*%
G36*
G01*
X111506000Y-66162000D02*
X111506000Y-67862000D01*
G75*
G02*
X111256000Y-68112000I-250000J0D01*
G01*
X110506000Y-68112000D01*
G75*
G02*
X110256000Y-67862000I0J250000D01*
G01*
X110256000Y-66162000D01*
G75*
G02*
X110506000Y-65912000I250000J0D01*
G01*
X111256000Y-65912000D01*
G75*
G02*
X111506000Y-66162000I0J-250000D01*
G01*
G37*
G36*
G01*
X109356000Y-66162000D02*
X109356000Y-67862000D01*
G75*
G02*
X109106000Y-68112000I-250000J0D01*
G01*
X108356000Y-68112000D01*
G75*
G02*
X108106000Y-67862000I0J250000D01*
G01*
X108106000Y-66162000D01*
G75*
G02*
X108356000Y-65912000I250000J0D01*
G01*
X109106000Y-65912000D01*
G75*
G02*
X109356000Y-66162000I0J-250000D01*
G01*
G37*
%TD*%
%TO.C,L1*%
G36*
G01*
X103544000Y-70744000D02*
X101844000Y-70744000D01*
G75*
G02*
X101594000Y-70494000I0J250000D01*
G01*
X101594000Y-69744000D01*
G75*
G02*
X101844000Y-69494000I250000J0D01*
G01*
X103544000Y-69494000D01*
G75*
G02*
X103794000Y-69744000I0J-250000D01*
G01*
X103794000Y-70494000D01*
G75*
G02*
X103544000Y-70744000I-250000J0D01*
G01*
G37*
G36*
G01*
X103544000Y-68594000D02*
X101844000Y-68594000D01*
G75*
G02*
X101594000Y-68344000I0J250000D01*
G01*
X101594000Y-67594000D01*
G75*
G02*
X101844000Y-67344000I250000J0D01*
G01*
X103544000Y-67344000D01*
G75*
G02*
X103794000Y-67594000I0J-250000D01*
G01*
X103794000Y-68344000D01*
G75*
G02*
X103544000Y-68594000I-250000J0D01*
G01*
G37*
%TD*%
%TO.C,C33*%
G36*
G01*
X106712500Y-64200000D02*
X107057500Y-64200000D01*
G75*
G02*
X107205000Y-64347500I0J-147500D01*
G01*
X107205000Y-64642500D01*
G75*
G02*
X107057500Y-64790000I-147500J0D01*
G01*
X106712500Y-64790000D01*
G75*
G02*
X106565000Y-64642500I0J147500D01*
G01*
X106565000Y-64347500D01*
G75*
G02*
X106712500Y-64200000I147500J0D01*
G01*
G37*
G36*
G01*
X106712500Y-65170000D02*
X107057500Y-65170000D01*
G75*
G02*
X107205000Y-65317500I0J-147500D01*
G01*
X107205000Y-65612500D01*
G75*
G02*
X107057500Y-65760000I-147500J0D01*
G01*
X106712500Y-65760000D01*
G75*
G02*
X106565000Y-65612500I0J147500D01*
G01*
X106565000Y-65317500D01*
G75*
G02*
X106712500Y-65170000I147500J0D01*
G01*
G37*
%TD*%
%TO.C,C32*%
G36*
G01*
X104807500Y-65343000D02*
X105152500Y-65343000D01*
G75*
G02*
X105300000Y-65490500I0J-147500D01*
G01*
X105300000Y-65785500D01*
G75*
G02*
X105152500Y-65933000I-147500J0D01*
G01*
X104807500Y-65933000D01*
G75*
G02*
X104660000Y-65785500I0J147500D01*
G01*
X104660000Y-65490500D01*
G75*
G02*
X104807500Y-65343000I147500J0D01*
G01*
G37*
G36*
G01*
X104807500Y-66313000D02*
X105152500Y-66313000D01*
G75*
G02*
X105300000Y-66460500I0J-147500D01*
G01*
X105300000Y-66755500D01*
G75*
G02*
X105152500Y-66903000I-147500J0D01*
G01*
X104807500Y-66903000D01*
G75*
G02*
X104660000Y-66755500I0J147500D01*
G01*
X104660000Y-66460500D01*
G75*
G02*
X104807500Y-66313000I147500J0D01*
G01*
G37*
%TD*%
%TO.C,C31*%
G36*
G01*
X99918000Y-65442500D02*
X99918000Y-65787500D01*
G75*
G02*
X99770500Y-65935000I-147500J0D01*
G01*
X99475500Y-65935000D01*
G75*
G02*
X99328000Y-65787500I0J147500D01*
G01*
X99328000Y-65442500D01*
G75*
G02*
X99475500Y-65295000I147500J0D01*
G01*
X99770500Y-65295000D01*
G75*
G02*
X99918000Y-65442500I0J-147500D01*
G01*
G37*
G36*
G01*
X98948000Y-65442500D02*
X98948000Y-65787500D01*
G75*
G02*
X98800500Y-65935000I-147500J0D01*
G01*
X98505500Y-65935000D01*
G75*
G02*
X98358000Y-65787500I0J147500D01*
G01*
X98358000Y-65442500D01*
G75*
G02*
X98505500Y-65295000I147500J0D01*
G01*
X98800500Y-65295000D01*
G75*
G02*
X98948000Y-65442500I0J-147500D01*
G01*
G37*
%TD*%
%TO.C,C30*%
G36*
G01*
X100489500Y-65343000D02*
X100834500Y-65343000D01*
G75*
G02*
X100982000Y-65490500I0J-147500D01*
G01*
X100982000Y-65785500D01*
G75*
G02*
X100834500Y-65933000I-147500J0D01*
G01*
X100489500Y-65933000D01*
G75*
G02*
X100342000Y-65785500I0J147500D01*
G01*
X100342000Y-65490500D01*
G75*
G02*
X100489500Y-65343000I147500J0D01*
G01*
G37*
G36*
G01*
X100489500Y-66313000D02*
X100834500Y-66313000D01*
G75*
G02*
X100982000Y-66460500I0J-147500D01*
G01*
X100982000Y-66755500D01*
G75*
G02*
X100834500Y-66903000I-147500J0D01*
G01*
X100489500Y-66903000D01*
G75*
G02*
X100342000Y-66755500I0J147500D01*
G01*
X100342000Y-66460500D01*
G75*
G02*
X100489500Y-66313000I147500J0D01*
G01*
G37*
%TD*%
%TO.C,C29*%
G36*
G01*
X99918000Y-66458500D02*
X99918000Y-66803500D01*
G75*
G02*
X99770500Y-66951000I-147500J0D01*
G01*
X99475500Y-66951000D01*
G75*
G02*
X99328000Y-66803500I0J147500D01*
G01*
X99328000Y-66458500D01*
G75*
G02*
X99475500Y-66311000I147500J0D01*
G01*
X99770500Y-66311000D01*
G75*
G02*
X99918000Y-66458500I0J-147500D01*
G01*
G37*
G36*
G01*
X98948000Y-66458500D02*
X98948000Y-66803500D01*
G75*
G02*
X98800500Y-66951000I-147500J0D01*
G01*
X98505500Y-66951000D01*
G75*
G02*
X98358000Y-66803500I0J147500D01*
G01*
X98358000Y-66458500D01*
G75*
G02*
X98505500Y-66311000I147500J0D01*
G01*
X98800500Y-66311000D01*
G75*
G02*
X98948000Y-66458500I0J-147500D01*
G01*
G37*
%TD*%
%TO.C,C28*%
G36*
G01*
X102775500Y-65343000D02*
X103120500Y-65343000D01*
G75*
G02*
X103268000Y-65490500I0J-147500D01*
G01*
X103268000Y-65785500D01*
G75*
G02*
X103120500Y-65933000I-147500J0D01*
G01*
X102775500Y-65933000D01*
G75*
G02*
X102628000Y-65785500I0J147500D01*
G01*
X102628000Y-65490500D01*
G75*
G02*
X102775500Y-65343000I147500J0D01*
G01*
G37*
G36*
G01*
X102775500Y-66313000D02*
X103120500Y-66313000D01*
G75*
G02*
X103268000Y-66460500I0J-147500D01*
G01*
X103268000Y-66755500D01*
G75*
G02*
X103120500Y-66903000I-147500J0D01*
G01*
X102775500Y-66903000D01*
G75*
G02*
X102628000Y-66755500I0J147500D01*
G01*
X102628000Y-66460500D01*
G75*
G02*
X102775500Y-66313000I147500J0D01*
G01*
G37*
%TD*%
%TO.C,C27*%
G36*
G01*
X91309500Y-61696000D02*
X90964500Y-61696000D01*
G75*
G02*
X90817000Y-61548500I0J147500D01*
G01*
X90817000Y-61253500D01*
G75*
G02*
X90964500Y-61106000I147500J0D01*
G01*
X91309500Y-61106000D01*
G75*
G02*
X91457000Y-61253500I0J-147500D01*
G01*
X91457000Y-61548500D01*
G75*
G02*
X91309500Y-61696000I-147500J0D01*
G01*
G37*
G36*
G01*
X91309500Y-60726000D02*
X90964500Y-60726000D01*
G75*
G02*
X90817000Y-60578500I0J147500D01*
G01*
X90817000Y-60283500D01*
G75*
G02*
X90964500Y-60136000I147500J0D01*
G01*
X91309500Y-60136000D01*
G75*
G02*
X91457000Y-60283500I0J-147500D01*
G01*
X91457000Y-60578500D01*
G75*
G02*
X91309500Y-60726000I-147500J0D01*
G01*
G37*
%TD*%
%TO.C,C26*%
G36*
G01*
X101632500Y-65343000D02*
X101977500Y-65343000D01*
G75*
G02*
X102125000Y-65490500I0J-147500D01*
G01*
X102125000Y-65785500D01*
G75*
G02*
X101977500Y-65933000I-147500J0D01*
G01*
X101632500Y-65933000D01*
G75*
G02*
X101485000Y-65785500I0J147500D01*
G01*
X101485000Y-65490500D01*
G75*
G02*
X101632500Y-65343000I147500J0D01*
G01*
G37*
G36*
G01*
X101632500Y-66313000D02*
X101977500Y-66313000D01*
G75*
G02*
X102125000Y-66460500I0J-147500D01*
G01*
X102125000Y-66755500D01*
G75*
G02*
X101977500Y-66903000I-147500J0D01*
G01*
X101632500Y-66903000D01*
G75*
G02*
X101485000Y-66755500I0J147500D01*
G01*
X101485000Y-66460500D01*
G75*
G02*
X101632500Y-66313000I147500J0D01*
G01*
G37*
%TD*%
%TO.C,C25*%
G36*
G01*
X109153000Y-59564500D02*
X109153000Y-59219500D01*
G75*
G02*
X109300500Y-59072000I147500J0D01*
G01*
X109595500Y-59072000D01*
G75*
G02*
X109743000Y-59219500I0J-147500D01*
G01*
X109743000Y-59564500D01*
G75*
G02*
X109595500Y-59712000I-147500J0D01*
G01*
X109300500Y-59712000D01*
G75*
G02*
X109153000Y-59564500I0J147500D01*
G01*
G37*
G36*
G01*
X110123000Y-59564500D02*
X110123000Y-59219500D01*
G75*
G02*
X110270500Y-59072000I147500J0D01*
G01*
X110565500Y-59072000D01*
G75*
G02*
X110713000Y-59219500I0J-147500D01*
G01*
X110713000Y-59564500D01*
G75*
G02*
X110565500Y-59712000I-147500J0D01*
G01*
X110270500Y-59712000D01*
G75*
G02*
X110123000Y-59564500I0J147500D01*
G01*
G37*
%TD*%
%TO.C,C24*%
G36*
G01*
X91309500Y-55346000D02*
X90964500Y-55346000D01*
G75*
G02*
X90817000Y-55198500I0J147500D01*
G01*
X90817000Y-54903500D01*
G75*
G02*
X90964500Y-54756000I147500J0D01*
G01*
X91309500Y-54756000D01*
G75*
G02*
X91457000Y-54903500I0J-147500D01*
G01*
X91457000Y-55198500D01*
G75*
G02*
X91309500Y-55346000I-147500J0D01*
G01*
G37*
G36*
G01*
X91309500Y-54376000D02*
X90964500Y-54376000D01*
G75*
G02*
X90817000Y-54228500I0J147500D01*
G01*
X90817000Y-53933500D01*
G75*
G02*
X90964500Y-53786000I147500J0D01*
G01*
X91309500Y-53786000D01*
G75*
G02*
X91457000Y-53933500I0J-147500D01*
G01*
X91457000Y-54228500D01*
G75*
G02*
X91309500Y-54376000I-147500J0D01*
G01*
G37*
%TD*%
%TO.C,C23*%
G36*
G01*
X107629000Y-64136500D02*
X107629000Y-63791500D01*
G75*
G02*
X107776500Y-63644000I147500J0D01*
G01*
X108071500Y-63644000D01*
G75*
G02*
X108219000Y-63791500I0J-147500D01*
G01*
X108219000Y-64136500D01*
G75*
G02*
X108071500Y-64284000I-147500J0D01*
G01*
X107776500Y-64284000D01*
G75*
G02*
X107629000Y-64136500I0J147500D01*
G01*
G37*
G36*
G01*
X108599000Y-64136500D02*
X108599000Y-63791500D01*
G75*
G02*
X108746500Y-63644000I147500J0D01*
G01*
X109041500Y-63644000D01*
G75*
G02*
X109189000Y-63791500I0J-147500D01*
G01*
X109189000Y-64136500D01*
G75*
G02*
X109041500Y-64284000I-147500J0D01*
G01*
X108746500Y-64284000D01*
G75*
G02*
X108599000Y-64136500I0J147500D01*
G01*
G37*
%TD*%
%TO.C,C21*%
G36*
G01*
X107629000Y-65152500D02*
X107629000Y-64807500D01*
G75*
G02*
X107776500Y-64660000I147500J0D01*
G01*
X108071500Y-64660000D01*
G75*
G02*
X108219000Y-64807500I0J-147500D01*
G01*
X108219000Y-65152500D01*
G75*
G02*
X108071500Y-65300000I-147500J0D01*
G01*
X107776500Y-65300000D01*
G75*
G02*
X107629000Y-65152500I0J147500D01*
G01*
G37*
G36*
G01*
X108599000Y-65152500D02*
X108599000Y-64807500D01*
G75*
G02*
X108746500Y-64660000I147500J0D01*
G01*
X109041500Y-64660000D01*
G75*
G02*
X109189000Y-64807500I0J-147500D01*
G01*
X109189000Y-65152500D01*
G75*
G02*
X109041500Y-65300000I-147500J0D01*
G01*
X108746500Y-65300000D01*
G75*
G02*
X108599000Y-65152500I0J147500D01*
G01*
G37*
%TD*%
%TO.C,C15*%
G36*
G01*
X96326000Y-67819500D02*
X96326000Y-67474500D01*
G75*
G02*
X96473500Y-67327000I147500J0D01*
G01*
X96768500Y-67327000D01*
G75*
G02*
X96916000Y-67474500I0J-147500D01*
G01*
X96916000Y-67819500D01*
G75*
G02*
X96768500Y-67967000I-147500J0D01*
G01*
X96473500Y-67967000D01*
G75*
G02*
X96326000Y-67819500I0J147500D01*
G01*
G37*
G36*
G01*
X97296000Y-67819500D02*
X97296000Y-67474500D01*
G75*
G02*
X97443500Y-67327000I147500J0D01*
G01*
X97738500Y-67327000D01*
G75*
G02*
X97886000Y-67474500I0J-147500D01*
G01*
X97886000Y-67819500D01*
G75*
G02*
X97738500Y-67967000I-147500J0D01*
G01*
X97443500Y-67967000D01*
G75*
G02*
X97296000Y-67819500I0J147500D01*
G01*
G37*
%TD*%
%TO.C,C13*%
G36*
G01*
X97441500Y-65343000D02*
X97786500Y-65343000D01*
G75*
G02*
X97934000Y-65490500I0J-147500D01*
G01*
X97934000Y-65785500D01*
G75*
G02*
X97786500Y-65933000I-147500J0D01*
G01*
X97441500Y-65933000D01*
G75*
G02*
X97294000Y-65785500I0J147500D01*
G01*
X97294000Y-65490500D01*
G75*
G02*
X97441500Y-65343000I147500J0D01*
G01*
G37*
G36*
G01*
X97441500Y-66313000D02*
X97786500Y-66313000D01*
G75*
G02*
X97934000Y-66460500I0J-147500D01*
G01*
X97934000Y-66755500D01*
G75*
G02*
X97786500Y-66903000I-147500J0D01*
G01*
X97441500Y-66903000D01*
G75*
G02*
X97294000Y-66755500I0J147500D01*
G01*
X97294000Y-66460500D01*
G75*
G02*
X97441500Y-66313000I147500J0D01*
G01*
G37*
%TD*%
%TO.C,C12*%
G36*
G01*
X93377500Y-65343000D02*
X93722500Y-65343000D01*
G75*
G02*
X93870000Y-65490500I0J-147500D01*
G01*
X93870000Y-65785500D01*
G75*
G02*
X93722500Y-65933000I-147500J0D01*
G01*
X93377500Y-65933000D01*
G75*
G02*
X93230000Y-65785500I0J147500D01*
G01*
X93230000Y-65490500D01*
G75*
G02*
X93377500Y-65343000I147500J0D01*
G01*
G37*
G36*
G01*
X93377500Y-66313000D02*
X93722500Y-66313000D01*
G75*
G02*
X93870000Y-66460500I0J-147500D01*
G01*
X93870000Y-66755500D01*
G75*
G02*
X93722500Y-66903000I-147500J0D01*
G01*
X93377500Y-66903000D01*
G75*
G02*
X93230000Y-66755500I0J147500D01*
G01*
X93230000Y-66460500D01*
G75*
G02*
X93377500Y-66313000I147500J0D01*
G01*
G37*
%TD*%
%TO.C,C10*%
G36*
G01*
X96326000Y-68835500D02*
X96326000Y-68490500D01*
G75*
G02*
X96473500Y-68343000I147500J0D01*
G01*
X96768500Y-68343000D01*
G75*
G02*
X96916000Y-68490500I0J-147500D01*
G01*
X96916000Y-68835500D01*
G75*
G02*
X96768500Y-68983000I-147500J0D01*
G01*
X96473500Y-68983000D01*
G75*
G02*
X96326000Y-68835500I0J147500D01*
G01*
G37*
G36*
G01*
X97296000Y-68835500D02*
X97296000Y-68490500D01*
G75*
G02*
X97443500Y-68343000I147500J0D01*
G01*
X97738500Y-68343000D01*
G75*
G02*
X97886000Y-68490500I0J-147500D01*
G01*
X97886000Y-68835500D01*
G75*
G02*
X97738500Y-68983000I-147500J0D01*
G01*
X97443500Y-68983000D01*
G75*
G02*
X97296000Y-68835500I0J147500D01*
G01*
G37*
%TD*%
%TO.C,C8*%
G36*
G01*
X94393500Y-65343000D02*
X94738500Y-65343000D01*
G75*
G02*
X94886000Y-65490500I0J-147500D01*
G01*
X94886000Y-65785500D01*
G75*
G02*
X94738500Y-65933000I-147500J0D01*
G01*
X94393500Y-65933000D01*
G75*
G02*
X94246000Y-65785500I0J147500D01*
G01*
X94246000Y-65490500D01*
G75*
G02*
X94393500Y-65343000I147500J0D01*
G01*
G37*
G36*
G01*
X94393500Y-66313000D02*
X94738500Y-66313000D01*
G75*
G02*
X94886000Y-66460500I0J-147500D01*
G01*
X94886000Y-66755500D01*
G75*
G02*
X94738500Y-66903000I-147500J0D01*
G01*
X94393500Y-66903000D01*
G75*
G02*
X94246000Y-66755500I0J147500D01*
G01*
X94246000Y-66460500D01*
G75*
G02*
X94393500Y-66313000I147500J0D01*
G01*
G37*
%TD*%
%TO.C,C7*%
G36*
G01*
X111094000Y-64807500D02*
X111094000Y-65152500D01*
G75*
G02*
X110946500Y-65300000I-147500J0D01*
G01*
X110651500Y-65300000D01*
G75*
G02*
X110504000Y-65152500I0J147500D01*
G01*
X110504000Y-64807500D01*
G75*
G02*
X110651500Y-64660000I147500J0D01*
G01*
X110946500Y-64660000D01*
G75*
G02*
X111094000Y-64807500I0J-147500D01*
G01*
G37*
G36*
G01*
X110124000Y-64807500D02*
X110124000Y-65152500D01*
G75*
G02*
X109976500Y-65300000I-147500J0D01*
G01*
X109681500Y-65300000D01*
G75*
G02*
X109534000Y-65152500I0J147500D01*
G01*
X109534000Y-64807500D01*
G75*
G02*
X109681500Y-64660000I147500J0D01*
G01*
X109976500Y-64660000D01*
G75*
G02*
X110124000Y-64807500I0J-147500D01*
G01*
G37*
%TD*%
%TO.C,C6*%
G36*
G01*
X100489500Y-69788000D02*
X100834500Y-69788000D01*
G75*
G02*
X100982000Y-69935500I0J-147500D01*
G01*
X100982000Y-70230500D01*
G75*
G02*
X100834500Y-70378000I-147500J0D01*
G01*
X100489500Y-70378000D01*
G75*
G02*
X100342000Y-70230500I0J147500D01*
G01*
X100342000Y-69935500D01*
G75*
G02*
X100489500Y-69788000I147500J0D01*
G01*
G37*
G36*
G01*
X100489500Y-70758000D02*
X100834500Y-70758000D01*
G75*
G02*
X100982000Y-70905500I0J-147500D01*
G01*
X100982000Y-71200500D01*
G75*
G02*
X100834500Y-71348000I-147500J0D01*
G01*
X100489500Y-71348000D01*
G75*
G02*
X100342000Y-71200500I0J147500D01*
G01*
X100342000Y-70905500D01*
G75*
G02*
X100489500Y-70758000I147500J0D01*
G01*
G37*
%TD*%
%TO.C,C4*%
G36*
G01*
X92706500Y-67792000D02*
X92361500Y-67792000D01*
G75*
G02*
X92214000Y-67644500I0J147500D01*
G01*
X92214000Y-67349500D01*
G75*
G02*
X92361500Y-67202000I147500J0D01*
G01*
X92706500Y-67202000D01*
G75*
G02*
X92854000Y-67349500I0J-147500D01*
G01*
X92854000Y-67644500D01*
G75*
G02*
X92706500Y-67792000I-147500J0D01*
G01*
G37*
G36*
G01*
X92706500Y-66822000D02*
X92361500Y-66822000D01*
G75*
G02*
X92214000Y-66674500I0J147500D01*
G01*
X92214000Y-66379500D01*
G75*
G02*
X92361500Y-66232000I147500J0D01*
G01*
X92706500Y-66232000D01*
G75*
G02*
X92854000Y-66379500I0J-147500D01*
G01*
X92854000Y-66674500D01*
G75*
G02*
X92706500Y-66822000I-147500J0D01*
G01*
G37*
%TD*%
%TO.C,C2*%
G36*
G01*
X109534000Y-64136500D02*
X109534000Y-63791500D01*
G75*
G02*
X109681500Y-63644000I147500J0D01*
G01*
X109976500Y-63644000D01*
G75*
G02*
X110124000Y-63791500I0J-147500D01*
G01*
X110124000Y-64136500D01*
G75*
G02*
X109976500Y-64284000I-147500J0D01*
G01*
X109681500Y-64284000D01*
G75*
G02*
X109534000Y-64136500I0J147500D01*
G01*
G37*
G36*
G01*
X110504000Y-64136500D02*
X110504000Y-63791500D01*
G75*
G02*
X110651500Y-63644000I147500J0D01*
G01*
X110946500Y-63644000D01*
G75*
G02*
X111094000Y-63791500I0J-147500D01*
G01*
X111094000Y-64136500D01*
G75*
G02*
X110946500Y-64284000I-147500J0D01*
G01*
X110651500Y-64284000D01*
G75*
G02*
X110504000Y-64136500I0J147500D01*
G01*
G37*
%TD*%
M02*
