%TF.GenerationSoftware,KiCad,Pcbnew,(5.1.6)-1*%
%TF.CreationDate,2020-09-21T21:17:43+08:00*%
%TF.ProjectId,f1c200s_core,66316332-3030-4735-9f63-6f72652e6b69,rev?*%
%TF.SameCoordinates,Original*%
%TF.FileFunction,Soldermask,Top*%
%TF.FilePolarity,Negative*%
%FSLAX46Y46*%
G04 Gerber Fmt 4.6, Leading zero omitted, Abs format (unit mm)*
G04 Created by KiCad (PCBNEW (5.1.6)-1) date 2020-09-21 21:17:43*
%MOMM*%
%LPD*%
G01*
G04 APERTURE LIST*
%ADD10C,1.100000*%
%ADD11R,0.450000X1.700000*%
%ADD12C,0.900000*%
%ADD13R,1.300000X0.900000*%
%ADD14R,1.300000X1.500000*%
%ADD15C,2.600000*%
%ADD16R,3.100000X3.100000*%
%ADD17O,0.360000X1.100000*%
%ADD18O,1.100000X0.360000*%
%ADD19O,1.100000X0.400000*%
%ADD20O,0.400000X1.100000*%
%ADD21R,0.850000X0.850000*%
%ADD22C,1.300000*%
G04 APERTURE END LIST*
D10*
%TO.C,TP2*%
X105361000Y-64218000D03*
%TD*%
D11*
%TO.C,NGFF*%
X102420000Y-48470000D03*
X103420000Y-48470000D03*
X102920000Y-48470000D03*
X103920000Y-48470000D03*
X104420000Y-48470000D03*
X104920000Y-48470000D03*
X105420000Y-48470000D03*
X105920000Y-48470000D03*
X101920000Y-48470000D03*
X110420000Y-48470000D03*
X109920000Y-48470000D03*
X109420000Y-48470000D03*
X108920000Y-48470000D03*
X108420000Y-48470000D03*
X101420000Y-48470000D03*
X100920000Y-48470000D03*
X100420000Y-48470000D03*
X99920000Y-48470000D03*
X99420000Y-48470000D03*
X98920000Y-48470000D03*
X98420000Y-48470000D03*
X97920000Y-48470000D03*
X97420000Y-48470000D03*
X96920000Y-48470000D03*
X96420000Y-48470000D03*
X95920000Y-48470000D03*
X95420000Y-48470000D03*
X94920000Y-48470000D03*
X94420000Y-48470000D03*
X93920000Y-48470000D03*
X93420000Y-48470000D03*
X92920000Y-48470000D03*
X92420000Y-48470000D03*
X91920000Y-48470000D03*
%TD*%
%TO.C,R18*%
G36*
G01*
X103778000Y-73926500D02*
X103778000Y-74321500D01*
G75*
G02*
X103605500Y-74494000I-172500J0D01*
G01*
X103260500Y-74494000D01*
G75*
G02*
X103088000Y-74321500I0J172500D01*
G01*
X103088000Y-73926500D01*
G75*
G02*
X103260500Y-73754000I172500J0D01*
G01*
X103605500Y-73754000D01*
G75*
G02*
X103778000Y-73926500I0J-172500D01*
G01*
G37*
G36*
G01*
X102808000Y-73926500D02*
X102808000Y-74321500D01*
G75*
G02*
X102635500Y-74494000I-172500J0D01*
G01*
X102290500Y-74494000D01*
G75*
G02*
X102118000Y-74321500I0J172500D01*
G01*
X102118000Y-73926500D01*
G75*
G02*
X102290500Y-73754000I172500J0D01*
G01*
X102635500Y-73754000D01*
G75*
G02*
X102808000Y-73926500I0J-172500D01*
G01*
G37*
%TD*%
%TO.C,D2*%
G36*
G01*
X107525000Y-76001750D02*
X107525000Y-76564250D01*
G75*
G02*
X107281250Y-76808000I-243750J0D01*
G01*
X106793750Y-76808000D01*
G75*
G02*
X106550000Y-76564250I0J243750D01*
G01*
X106550000Y-76001750D01*
G75*
G02*
X106793750Y-75758000I243750J0D01*
G01*
X107281250Y-75758000D01*
G75*
G02*
X107525000Y-76001750I0J-243750D01*
G01*
G37*
G36*
G01*
X105950000Y-76001750D02*
X105950000Y-76564250D01*
G75*
G02*
X105706250Y-76808000I-243750J0D01*
G01*
X105218750Y-76808000D01*
G75*
G02*
X104975000Y-76564250I0J243750D01*
G01*
X104975000Y-76001750D01*
G75*
G02*
X105218750Y-75758000I243750J0D01*
G01*
X105706250Y-75758000D01*
G75*
G02*
X105950000Y-76001750I0J-243750D01*
G01*
G37*
%TD*%
%TO.C,D1*%
G36*
G01*
X91236750Y-62943000D02*
X91799250Y-62943000D01*
G75*
G02*
X92043000Y-63186750I0J-243750D01*
G01*
X92043000Y-63674250D01*
G75*
G02*
X91799250Y-63918000I-243750J0D01*
G01*
X91236750Y-63918000D01*
G75*
G02*
X90993000Y-63674250I0J243750D01*
G01*
X90993000Y-63186750D01*
G75*
G02*
X91236750Y-62943000I243750J0D01*
G01*
G37*
G36*
G01*
X91236750Y-64518000D02*
X91799250Y-64518000D01*
G75*
G02*
X92043000Y-64761750I0J-243750D01*
G01*
X92043000Y-65249250D01*
G75*
G02*
X91799250Y-65493000I-243750J0D01*
G01*
X91236750Y-65493000D01*
G75*
G02*
X90993000Y-65249250I0J243750D01*
G01*
X90993000Y-64761750D01*
G75*
G02*
X91236750Y-64518000I243750J0D01*
G01*
G37*
%TD*%
D12*
%TO.C,SW1*%
X93423000Y-74621000D03*
X93423000Y-76421000D03*
D13*
X91423000Y-76321000D03*
X95423000Y-76321000D03*
X91423000Y-74721000D03*
X95423000Y-74721000D03*
%TD*%
D14*
%TO.C,Y1*%
X92876000Y-58841000D03*
X92876000Y-56641000D03*
X91176000Y-56641000D03*
X91176000Y-58841000D03*
%TD*%
D15*
%TO.C,U3*%
X99900000Y-58630000D03*
D16*
X98400000Y-57130000D03*
X98400000Y-60130000D03*
X101400000Y-57130000D03*
X101400000Y-60130000D03*
D17*
X104100000Y-63730000D03*
X103700000Y-63730000D03*
X103300000Y-63730000D03*
X102900000Y-63730000D03*
X102500000Y-63730000D03*
X102100000Y-63730000D03*
X101700000Y-63730000D03*
X101300000Y-63730000D03*
X100900000Y-63730000D03*
X100500000Y-63730000D03*
X100100000Y-63730000D03*
X99700000Y-63730000D03*
X99300000Y-63730000D03*
X98900000Y-63730000D03*
X98500000Y-63730000D03*
X98100000Y-63730000D03*
X97700000Y-63730000D03*
X97300000Y-63730000D03*
X96900000Y-63730000D03*
X96500000Y-63730000D03*
X96100000Y-63730000D03*
X95700000Y-63730000D03*
D18*
X94800000Y-62830000D03*
X94800000Y-62430000D03*
X94800000Y-62030000D03*
X94800000Y-61630000D03*
X94800000Y-61230000D03*
X94800000Y-60830000D03*
X94800000Y-60430000D03*
X94800000Y-60030000D03*
X94800000Y-59630000D03*
X94800000Y-59230000D03*
X94800000Y-58830000D03*
X94800000Y-58430000D03*
X94800000Y-58030000D03*
X94800000Y-57630000D03*
X94800000Y-57230000D03*
X94800000Y-56830000D03*
X94800000Y-56430000D03*
X94800000Y-56030000D03*
X94800000Y-55630000D03*
X94800000Y-55230000D03*
X94800000Y-54830000D03*
X94800000Y-54430000D03*
D17*
X95700000Y-53530000D03*
X96100000Y-53530000D03*
X96500000Y-53530000D03*
X96900000Y-53530000D03*
X97300000Y-53530000D03*
X97700000Y-53530000D03*
X98100000Y-53530000D03*
X98500000Y-53530000D03*
X98900000Y-53530000D03*
X99300000Y-53530000D03*
X99700000Y-53530000D03*
X100100000Y-53530000D03*
X100500000Y-53530000D03*
X100900000Y-53530000D03*
X101300000Y-53530000D03*
X101700000Y-53530000D03*
X102100000Y-53530000D03*
X102500000Y-53530000D03*
X102900000Y-53530000D03*
X103300000Y-53530000D03*
X103700000Y-53530000D03*
X104100000Y-53530000D03*
D18*
X105000000Y-54430000D03*
X105000000Y-54830000D03*
X105000000Y-55230000D03*
X105000000Y-55630000D03*
X105000000Y-56030000D03*
X105000000Y-56430000D03*
X105000000Y-56830000D03*
X105000000Y-57230000D03*
X105000000Y-57630000D03*
X105000000Y-58030000D03*
X105000000Y-58430000D03*
X105000000Y-58830000D03*
X105000000Y-59230000D03*
X105000000Y-59630000D03*
X105000000Y-60030000D03*
X105000000Y-60430000D03*
X105000000Y-60830000D03*
X105000000Y-61230000D03*
X105000000Y-61630000D03*
X105000000Y-62030000D03*
X105000000Y-62430000D03*
X105000000Y-62830000D03*
%TD*%
D19*
%TO.C,U2*%
X108612000Y-72130000D03*
X108612000Y-71730000D03*
X108612000Y-71330000D03*
X108612000Y-70930000D03*
X108612000Y-70530000D03*
D20*
X107812000Y-69730000D03*
X107412000Y-69730000D03*
X107012000Y-69730000D03*
X106612000Y-69730000D03*
X106212000Y-69730000D03*
D19*
X105412000Y-70530000D03*
X105412000Y-70930000D03*
X105412000Y-71330000D03*
X105412000Y-71730000D03*
X105412000Y-72130000D03*
D20*
X106212000Y-72930000D03*
X106612000Y-72930000D03*
X107012000Y-72930000D03*
X107412000Y-72930000D03*
X107812000Y-72930000D03*
D21*
X107387000Y-71705000D03*
X107387000Y-70955000D03*
X106637000Y-71705000D03*
X106637000Y-70955000D03*
D22*
X107012000Y-71330000D03*
%TD*%
%TO.C,R15*%
G36*
G01*
X98308000Y-67844500D02*
X98308000Y-67449500D01*
G75*
G02*
X98480500Y-67277000I172500J0D01*
G01*
X98825500Y-67277000D01*
G75*
G02*
X98998000Y-67449500I0J-172500D01*
G01*
X98998000Y-67844500D01*
G75*
G02*
X98825500Y-68017000I-172500J0D01*
G01*
X98480500Y-68017000D01*
G75*
G02*
X98308000Y-67844500I0J172500D01*
G01*
G37*
G36*
G01*
X99278000Y-67844500D02*
X99278000Y-67449500D01*
G75*
G02*
X99450500Y-67277000I172500J0D01*
G01*
X99795500Y-67277000D01*
G75*
G02*
X99968000Y-67449500I0J-172500D01*
G01*
X99968000Y-67844500D01*
G75*
G02*
X99795500Y-68017000I-172500J0D01*
G01*
X99450500Y-68017000D01*
G75*
G02*
X99278000Y-67844500I0J172500D01*
G01*
G37*
%TD*%
%TO.C,R14*%
G36*
G01*
X103766500Y-65293000D02*
X104161500Y-65293000D01*
G75*
G02*
X104334000Y-65465500I0J-172500D01*
G01*
X104334000Y-65810500D01*
G75*
G02*
X104161500Y-65983000I-172500J0D01*
G01*
X103766500Y-65983000D01*
G75*
G02*
X103594000Y-65810500I0J172500D01*
G01*
X103594000Y-65465500D01*
G75*
G02*
X103766500Y-65293000I172500J0D01*
G01*
G37*
G36*
G01*
X103766500Y-66263000D02*
X104161500Y-66263000D01*
G75*
G02*
X104334000Y-66435500I0J-172500D01*
G01*
X104334000Y-66780500D01*
G75*
G02*
X104161500Y-66953000I-172500J0D01*
G01*
X103766500Y-66953000D01*
G75*
G02*
X103594000Y-66780500I0J172500D01*
G01*
X103594000Y-66435500D01*
G75*
G02*
X103766500Y-66263000I172500J0D01*
G01*
G37*
%TD*%
%TO.C,R13*%
G36*
G01*
X91320500Y-66182000D02*
X91715500Y-66182000D01*
G75*
G02*
X91888000Y-66354500I0J-172500D01*
G01*
X91888000Y-66699500D01*
G75*
G02*
X91715500Y-66872000I-172500J0D01*
G01*
X91320500Y-66872000D01*
G75*
G02*
X91148000Y-66699500I0J172500D01*
G01*
X91148000Y-66354500D01*
G75*
G02*
X91320500Y-66182000I172500J0D01*
G01*
G37*
G36*
G01*
X91320500Y-67152000D02*
X91715500Y-67152000D01*
G75*
G02*
X91888000Y-67324500I0J-172500D01*
G01*
X91888000Y-67669500D01*
G75*
G02*
X91715500Y-67842000I-172500J0D01*
G01*
X91320500Y-67842000D01*
G75*
G02*
X91148000Y-67669500I0J172500D01*
G01*
X91148000Y-67324500D01*
G75*
G02*
X91320500Y-67152000I172500J0D01*
G01*
G37*
%TD*%
%TO.C,R12*%
G36*
G01*
X95260000Y-65812500D02*
X95260000Y-65417500D01*
G75*
G02*
X95432500Y-65245000I172500J0D01*
G01*
X95777500Y-65245000D01*
G75*
G02*
X95950000Y-65417500I0J-172500D01*
G01*
X95950000Y-65812500D01*
G75*
G02*
X95777500Y-65985000I-172500J0D01*
G01*
X95432500Y-65985000D01*
G75*
G02*
X95260000Y-65812500I0J172500D01*
G01*
G37*
G36*
G01*
X96230000Y-65812500D02*
X96230000Y-65417500D01*
G75*
G02*
X96402500Y-65245000I172500J0D01*
G01*
X96747500Y-65245000D01*
G75*
G02*
X96920000Y-65417500I0J-172500D01*
G01*
X96920000Y-65812500D01*
G75*
G02*
X96747500Y-65985000I-172500J0D01*
G01*
X96402500Y-65985000D01*
G75*
G02*
X96230000Y-65812500I0J172500D01*
G01*
G37*
%TD*%
%TO.C,R11*%
G36*
G01*
X96920000Y-66433500D02*
X96920000Y-66828500D01*
G75*
G02*
X96747500Y-67001000I-172500J0D01*
G01*
X96402500Y-67001000D01*
G75*
G02*
X96230000Y-66828500I0J172500D01*
G01*
X96230000Y-66433500D01*
G75*
G02*
X96402500Y-66261000I172500J0D01*
G01*
X96747500Y-66261000D01*
G75*
G02*
X96920000Y-66433500I0J-172500D01*
G01*
G37*
G36*
G01*
X95950000Y-66433500D02*
X95950000Y-66828500D01*
G75*
G02*
X95777500Y-67001000I-172500J0D01*
G01*
X95432500Y-67001000D01*
G75*
G02*
X95260000Y-66828500I0J172500D01*
G01*
X95260000Y-66433500D01*
G75*
G02*
X95432500Y-66261000I172500J0D01*
G01*
X95777500Y-66261000D01*
G75*
G02*
X95950000Y-66433500I0J-172500D01*
G01*
G37*
%TD*%
%TO.C,R10*%
G36*
G01*
X98308000Y-68860500D02*
X98308000Y-68465500D01*
G75*
G02*
X98480500Y-68293000I172500J0D01*
G01*
X98825500Y-68293000D01*
G75*
G02*
X98998000Y-68465500I0J-172500D01*
G01*
X98998000Y-68860500D01*
G75*
G02*
X98825500Y-69033000I-172500J0D01*
G01*
X98480500Y-69033000D01*
G75*
G02*
X98308000Y-68860500I0J172500D01*
G01*
G37*
G36*
G01*
X99278000Y-68860500D02*
X99278000Y-68465500D01*
G75*
G02*
X99450500Y-68293000I172500J0D01*
G01*
X99795500Y-68293000D01*
G75*
G02*
X99968000Y-68465500I0J-172500D01*
G01*
X99968000Y-68860500D01*
G75*
G02*
X99795500Y-69033000I-172500J0D01*
G01*
X99450500Y-69033000D01*
G75*
G02*
X99278000Y-68860500I0J172500D01*
G01*
G37*
%TD*%
%TO.C,R7*%
G36*
G01*
X109992000Y-73305500D02*
X109992000Y-72910500D01*
G75*
G02*
X110164500Y-72738000I172500J0D01*
G01*
X110509500Y-72738000D01*
G75*
G02*
X110682000Y-72910500I0J-172500D01*
G01*
X110682000Y-73305500D01*
G75*
G02*
X110509500Y-73478000I-172500J0D01*
G01*
X110164500Y-73478000D01*
G75*
G02*
X109992000Y-73305500I0J172500D01*
G01*
G37*
G36*
G01*
X110962000Y-73305500D02*
X110962000Y-72910500D01*
G75*
G02*
X111134500Y-72738000I172500J0D01*
G01*
X111479500Y-72738000D01*
G75*
G02*
X111652000Y-72910500I0J-172500D01*
G01*
X111652000Y-73305500D01*
G75*
G02*
X111479500Y-73478000I-172500J0D01*
G01*
X111134500Y-73478000D01*
G75*
G02*
X110962000Y-73305500I0J172500D01*
G01*
G37*
%TD*%
%TO.C,R6*%
G36*
G01*
X109992000Y-69749500D02*
X109992000Y-69354500D01*
G75*
G02*
X110164500Y-69182000I172500J0D01*
G01*
X110509500Y-69182000D01*
G75*
G02*
X110682000Y-69354500I0J-172500D01*
G01*
X110682000Y-69749500D01*
G75*
G02*
X110509500Y-69922000I-172500J0D01*
G01*
X110164500Y-69922000D01*
G75*
G02*
X109992000Y-69749500I0J172500D01*
G01*
G37*
G36*
G01*
X110962000Y-69749500D02*
X110962000Y-69354500D01*
G75*
G02*
X111134500Y-69182000I172500J0D01*
G01*
X111479500Y-69182000D01*
G75*
G02*
X111652000Y-69354500I0J-172500D01*
G01*
X111652000Y-69749500D01*
G75*
G02*
X111479500Y-69922000I-172500J0D01*
G01*
X111134500Y-69922000D01*
G75*
G02*
X110962000Y-69749500I0J172500D01*
G01*
G37*
%TD*%
%TO.C,R5*%
G36*
G01*
X102242500Y-71770000D02*
X102637500Y-71770000D01*
G75*
G02*
X102810000Y-71942500I0J-172500D01*
G01*
X102810000Y-72287500D01*
G75*
G02*
X102637500Y-72460000I-172500J0D01*
G01*
X102242500Y-72460000D01*
G75*
G02*
X102070000Y-72287500I0J172500D01*
G01*
X102070000Y-71942500D01*
G75*
G02*
X102242500Y-71770000I172500J0D01*
G01*
G37*
G36*
G01*
X102242500Y-72740000D02*
X102637500Y-72740000D01*
G75*
G02*
X102810000Y-72912500I0J-172500D01*
G01*
X102810000Y-73257500D01*
G75*
G02*
X102637500Y-73430000I-172500J0D01*
G01*
X102242500Y-73430000D01*
G75*
G02*
X102070000Y-73257500I0J172500D01*
G01*
X102070000Y-72912500D01*
G75*
G02*
X102242500Y-72740000I172500J0D01*
G01*
G37*
%TD*%
%TO.C,R3*%
G36*
G01*
X111652000Y-71894500D02*
X111652000Y-72289500D01*
G75*
G02*
X111479500Y-72462000I-172500J0D01*
G01*
X111134500Y-72462000D01*
G75*
G02*
X110962000Y-72289500I0J172500D01*
G01*
X110962000Y-71894500D01*
G75*
G02*
X111134500Y-71722000I172500J0D01*
G01*
X111479500Y-71722000D01*
G75*
G02*
X111652000Y-71894500I0J-172500D01*
G01*
G37*
G36*
G01*
X110682000Y-71894500D02*
X110682000Y-72289500D01*
G75*
G02*
X110509500Y-72462000I-172500J0D01*
G01*
X110164500Y-72462000D01*
G75*
G02*
X109992000Y-72289500I0J172500D01*
G01*
X109992000Y-71894500D01*
G75*
G02*
X110164500Y-71722000I172500J0D01*
G01*
X110509500Y-71722000D01*
G75*
G02*
X110682000Y-71894500I0J-172500D01*
G01*
G37*
%TD*%
%TO.C,R2*%
G36*
G01*
X111652000Y-70370500D02*
X111652000Y-70765500D01*
G75*
G02*
X111479500Y-70938000I-172500J0D01*
G01*
X111134500Y-70938000D01*
G75*
G02*
X110962000Y-70765500I0J172500D01*
G01*
X110962000Y-70370500D01*
G75*
G02*
X111134500Y-70198000I172500J0D01*
G01*
X111479500Y-70198000D01*
G75*
G02*
X111652000Y-70370500I0J-172500D01*
G01*
G37*
G36*
G01*
X110682000Y-70370500D02*
X110682000Y-70765500D01*
G75*
G02*
X110509500Y-70938000I-172500J0D01*
G01*
X110164500Y-70938000D01*
G75*
G02*
X109992000Y-70765500I0J172500D01*
G01*
X109992000Y-70370500D01*
G75*
G02*
X110164500Y-70198000I172500J0D01*
G01*
X110509500Y-70198000D01*
G75*
G02*
X110682000Y-70370500I0J-172500D01*
G01*
G37*
%TD*%
%TO.C,R1*%
G36*
G01*
X103653500Y-73430000D02*
X103258500Y-73430000D01*
G75*
G02*
X103086000Y-73257500I0J172500D01*
G01*
X103086000Y-72912500D01*
G75*
G02*
X103258500Y-72740000I172500J0D01*
G01*
X103653500Y-72740000D01*
G75*
G02*
X103826000Y-72912500I0J-172500D01*
G01*
X103826000Y-73257500D01*
G75*
G02*
X103653500Y-73430000I-172500J0D01*
G01*
G37*
G36*
G01*
X103653500Y-72460000D02*
X103258500Y-72460000D01*
G75*
G02*
X103086000Y-72287500I0J172500D01*
G01*
X103086000Y-71942500D01*
G75*
G02*
X103258500Y-71770000I172500J0D01*
G01*
X103653500Y-71770000D01*
G75*
G02*
X103826000Y-71942500I0J-172500D01*
G01*
X103826000Y-72287500D01*
G75*
G02*
X103653500Y-72460000I-172500J0D01*
G01*
G37*
%TD*%
%TO.C,L3*%
G36*
G01*
X111556000Y-74768000D02*
X111556000Y-76528000D01*
G75*
G02*
X111286000Y-76798000I-270000J0D01*
G01*
X110476000Y-76798000D01*
G75*
G02*
X110206000Y-76528000I0J270000D01*
G01*
X110206000Y-74768000D01*
G75*
G02*
X110476000Y-74498000I270000J0D01*
G01*
X111286000Y-74498000D01*
G75*
G02*
X111556000Y-74768000I0J-270000D01*
G01*
G37*
G36*
G01*
X109406000Y-74768000D02*
X109406000Y-76528000D01*
G75*
G02*
X109136000Y-76798000I-270000J0D01*
G01*
X108326000Y-76798000D01*
G75*
G02*
X108056000Y-76528000I0J270000D01*
G01*
X108056000Y-74768000D01*
G75*
G02*
X108326000Y-74498000I270000J0D01*
G01*
X109136000Y-74498000D01*
G75*
G02*
X109406000Y-74768000I0J-270000D01*
G01*
G37*
%TD*%
%TO.C,L2*%
G36*
G01*
X111556000Y-66132000D02*
X111556000Y-67892000D01*
G75*
G02*
X111286000Y-68162000I-270000J0D01*
G01*
X110476000Y-68162000D01*
G75*
G02*
X110206000Y-67892000I0J270000D01*
G01*
X110206000Y-66132000D01*
G75*
G02*
X110476000Y-65862000I270000J0D01*
G01*
X111286000Y-65862000D01*
G75*
G02*
X111556000Y-66132000I0J-270000D01*
G01*
G37*
G36*
G01*
X109406000Y-66132000D02*
X109406000Y-67892000D01*
G75*
G02*
X109136000Y-68162000I-270000J0D01*
G01*
X108326000Y-68162000D01*
G75*
G02*
X108056000Y-67892000I0J270000D01*
G01*
X108056000Y-66132000D01*
G75*
G02*
X108326000Y-65862000I270000J0D01*
G01*
X109136000Y-65862000D01*
G75*
G02*
X109406000Y-66132000I0J-270000D01*
G01*
G37*
%TD*%
%TO.C,L1*%
G36*
G01*
X103574000Y-70794000D02*
X101814000Y-70794000D01*
G75*
G02*
X101544000Y-70524000I0J270000D01*
G01*
X101544000Y-69714000D01*
G75*
G02*
X101814000Y-69444000I270000J0D01*
G01*
X103574000Y-69444000D01*
G75*
G02*
X103844000Y-69714000I0J-270000D01*
G01*
X103844000Y-70524000D01*
G75*
G02*
X103574000Y-70794000I-270000J0D01*
G01*
G37*
G36*
G01*
X103574000Y-68644000D02*
X101814000Y-68644000D01*
G75*
G02*
X101544000Y-68374000I0J270000D01*
G01*
X101544000Y-67564000D01*
G75*
G02*
X101814000Y-67294000I270000J0D01*
G01*
X103574000Y-67294000D01*
G75*
G02*
X103844000Y-67564000I0J-270000D01*
G01*
X103844000Y-68374000D01*
G75*
G02*
X103574000Y-68644000I-270000J0D01*
G01*
G37*
%TD*%
%TO.C,C33*%
G36*
G01*
X106687500Y-64150000D02*
X107082500Y-64150000D01*
G75*
G02*
X107255000Y-64322500I0J-172500D01*
G01*
X107255000Y-64667500D01*
G75*
G02*
X107082500Y-64840000I-172500J0D01*
G01*
X106687500Y-64840000D01*
G75*
G02*
X106515000Y-64667500I0J172500D01*
G01*
X106515000Y-64322500D01*
G75*
G02*
X106687500Y-64150000I172500J0D01*
G01*
G37*
G36*
G01*
X106687500Y-65120000D02*
X107082500Y-65120000D01*
G75*
G02*
X107255000Y-65292500I0J-172500D01*
G01*
X107255000Y-65637500D01*
G75*
G02*
X107082500Y-65810000I-172500J0D01*
G01*
X106687500Y-65810000D01*
G75*
G02*
X106515000Y-65637500I0J172500D01*
G01*
X106515000Y-65292500D01*
G75*
G02*
X106687500Y-65120000I172500J0D01*
G01*
G37*
%TD*%
%TO.C,C32*%
G36*
G01*
X104782500Y-65293000D02*
X105177500Y-65293000D01*
G75*
G02*
X105350000Y-65465500I0J-172500D01*
G01*
X105350000Y-65810500D01*
G75*
G02*
X105177500Y-65983000I-172500J0D01*
G01*
X104782500Y-65983000D01*
G75*
G02*
X104610000Y-65810500I0J172500D01*
G01*
X104610000Y-65465500D01*
G75*
G02*
X104782500Y-65293000I172500J0D01*
G01*
G37*
G36*
G01*
X104782500Y-66263000D02*
X105177500Y-66263000D01*
G75*
G02*
X105350000Y-66435500I0J-172500D01*
G01*
X105350000Y-66780500D01*
G75*
G02*
X105177500Y-66953000I-172500J0D01*
G01*
X104782500Y-66953000D01*
G75*
G02*
X104610000Y-66780500I0J172500D01*
G01*
X104610000Y-66435500D01*
G75*
G02*
X104782500Y-66263000I172500J0D01*
G01*
G37*
%TD*%
%TO.C,C31*%
G36*
G01*
X99968000Y-65417500D02*
X99968000Y-65812500D01*
G75*
G02*
X99795500Y-65985000I-172500J0D01*
G01*
X99450500Y-65985000D01*
G75*
G02*
X99278000Y-65812500I0J172500D01*
G01*
X99278000Y-65417500D01*
G75*
G02*
X99450500Y-65245000I172500J0D01*
G01*
X99795500Y-65245000D01*
G75*
G02*
X99968000Y-65417500I0J-172500D01*
G01*
G37*
G36*
G01*
X98998000Y-65417500D02*
X98998000Y-65812500D01*
G75*
G02*
X98825500Y-65985000I-172500J0D01*
G01*
X98480500Y-65985000D01*
G75*
G02*
X98308000Y-65812500I0J172500D01*
G01*
X98308000Y-65417500D01*
G75*
G02*
X98480500Y-65245000I172500J0D01*
G01*
X98825500Y-65245000D01*
G75*
G02*
X98998000Y-65417500I0J-172500D01*
G01*
G37*
%TD*%
%TO.C,C30*%
G36*
G01*
X100464500Y-65293000D02*
X100859500Y-65293000D01*
G75*
G02*
X101032000Y-65465500I0J-172500D01*
G01*
X101032000Y-65810500D01*
G75*
G02*
X100859500Y-65983000I-172500J0D01*
G01*
X100464500Y-65983000D01*
G75*
G02*
X100292000Y-65810500I0J172500D01*
G01*
X100292000Y-65465500D01*
G75*
G02*
X100464500Y-65293000I172500J0D01*
G01*
G37*
G36*
G01*
X100464500Y-66263000D02*
X100859500Y-66263000D01*
G75*
G02*
X101032000Y-66435500I0J-172500D01*
G01*
X101032000Y-66780500D01*
G75*
G02*
X100859500Y-66953000I-172500J0D01*
G01*
X100464500Y-66953000D01*
G75*
G02*
X100292000Y-66780500I0J172500D01*
G01*
X100292000Y-66435500D01*
G75*
G02*
X100464500Y-66263000I172500J0D01*
G01*
G37*
%TD*%
%TO.C,C29*%
G36*
G01*
X99968000Y-66433500D02*
X99968000Y-66828500D01*
G75*
G02*
X99795500Y-67001000I-172500J0D01*
G01*
X99450500Y-67001000D01*
G75*
G02*
X99278000Y-66828500I0J172500D01*
G01*
X99278000Y-66433500D01*
G75*
G02*
X99450500Y-66261000I172500J0D01*
G01*
X99795500Y-66261000D01*
G75*
G02*
X99968000Y-66433500I0J-172500D01*
G01*
G37*
G36*
G01*
X98998000Y-66433500D02*
X98998000Y-66828500D01*
G75*
G02*
X98825500Y-67001000I-172500J0D01*
G01*
X98480500Y-67001000D01*
G75*
G02*
X98308000Y-66828500I0J172500D01*
G01*
X98308000Y-66433500D01*
G75*
G02*
X98480500Y-66261000I172500J0D01*
G01*
X98825500Y-66261000D01*
G75*
G02*
X98998000Y-66433500I0J-172500D01*
G01*
G37*
%TD*%
%TO.C,C28*%
G36*
G01*
X102750500Y-65293000D02*
X103145500Y-65293000D01*
G75*
G02*
X103318000Y-65465500I0J-172500D01*
G01*
X103318000Y-65810500D01*
G75*
G02*
X103145500Y-65983000I-172500J0D01*
G01*
X102750500Y-65983000D01*
G75*
G02*
X102578000Y-65810500I0J172500D01*
G01*
X102578000Y-65465500D01*
G75*
G02*
X102750500Y-65293000I172500J0D01*
G01*
G37*
G36*
G01*
X102750500Y-66263000D02*
X103145500Y-66263000D01*
G75*
G02*
X103318000Y-66435500I0J-172500D01*
G01*
X103318000Y-66780500D01*
G75*
G02*
X103145500Y-66953000I-172500J0D01*
G01*
X102750500Y-66953000D01*
G75*
G02*
X102578000Y-66780500I0J172500D01*
G01*
X102578000Y-66435500D01*
G75*
G02*
X102750500Y-66263000I172500J0D01*
G01*
G37*
%TD*%
%TO.C,C27*%
G36*
G01*
X91334500Y-61746000D02*
X90939500Y-61746000D01*
G75*
G02*
X90767000Y-61573500I0J172500D01*
G01*
X90767000Y-61228500D01*
G75*
G02*
X90939500Y-61056000I172500J0D01*
G01*
X91334500Y-61056000D01*
G75*
G02*
X91507000Y-61228500I0J-172500D01*
G01*
X91507000Y-61573500D01*
G75*
G02*
X91334500Y-61746000I-172500J0D01*
G01*
G37*
G36*
G01*
X91334500Y-60776000D02*
X90939500Y-60776000D01*
G75*
G02*
X90767000Y-60603500I0J172500D01*
G01*
X90767000Y-60258500D01*
G75*
G02*
X90939500Y-60086000I172500J0D01*
G01*
X91334500Y-60086000D01*
G75*
G02*
X91507000Y-60258500I0J-172500D01*
G01*
X91507000Y-60603500D01*
G75*
G02*
X91334500Y-60776000I-172500J0D01*
G01*
G37*
%TD*%
%TO.C,C26*%
G36*
G01*
X101607500Y-65293000D02*
X102002500Y-65293000D01*
G75*
G02*
X102175000Y-65465500I0J-172500D01*
G01*
X102175000Y-65810500D01*
G75*
G02*
X102002500Y-65983000I-172500J0D01*
G01*
X101607500Y-65983000D01*
G75*
G02*
X101435000Y-65810500I0J172500D01*
G01*
X101435000Y-65465500D01*
G75*
G02*
X101607500Y-65293000I172500J0D01*
G01*
G37*
G36*
G01*
X101607500Y-66263000D02*
X102002500Y-66263000D01*
G75*
G02*
X102175000Y-66435500I0J-172500D01*
G01*
X102175000Y-66780500D01*
G75*
G02*
X102002500Y-66953000I-172500J0D01*
G01*
X101607500Y-66953000D01*
G75*
G02*
X101435000Y-66780500I0J172500D01*
G01*
X101435000Y-66435500D01*
G75*
G02*
X101607500Y-66263000I172500J0D01*
G01*
G37*
%TD*%
%TO.C,C25*%
G36*
G01*
X109103000Y-59589500D02*
X109103000Y-59194500D01*
G75*
G02*
X109275500Y-59022000I172500J0D01*
G01*
X109620500Y-59022000D01*
G75*
G02*
X109793000Y-59194500I0J-172500D01*
G01*
X109793000Y-59589500D01*
G75*
G02*
X109620500Y-59762000I-172500J0D01*
G01*
X109275500Y-59762000D01*
G75*
G02*
X109103000Y-59589500I0J172500D01*
G01*
G37*
G36*
G01*
X110073000Y-59589500D02*
X110073000Y-59194500D01*
G75*
G02*
X110245500Y-59022000I172500J0D01*
G01*
X110590500Y-59022000D01*
G75*
G02*
X110763000Y-59194500I0J-172500D01*
G01*
X110763000Y-59589500D01*
G75*
G02*
X110590500Y-59762000I-172500J0D01*
G01*
X110245500Y-59762000D01*
G75*
G02*
X110073000Y-59589500I0J172500D01*
G01*
G37*
%TD*%
%TO.C,C24*%
G36*
G01*
X91334500Y-55396000D02*
X90939500Y-55396000D01*
G75*
G02*
X90767000Y-55223500I0J172500D01*
G01*
X90767000Y-54878500D01*
G75*
G02*
X90939500Y-54706000I172500J0D01*
G01*
X91334500Y-54706000D01*
G75*
G02*
X91507000Y-54878500I0J-172500D01*
G01*
X91507000Y-55223500D01*
G75*
G02*
X91334500Y-55396000I-172500J0D01*
G01*
G37*
G36*
G01*
X91334500Y-54426000D02*
X90939500Y-54426000D01*
G75*
G02*
X90767000Y-54253500I0J172500D01*
G01*
X90767000Y-53908500D01*
G75*
G02*
X90939500Y-53736000I172500J0D01*
G01*
X91334500Y-53736000D01*
G75*
G02*
X91507000Y-53908500I0J-172500D01*
G01*
X91507000Y-54253500D01*
G75*
G02*
X91334500Y-54426000I-172500J0D01*
G01*
G37*
%TD*%
%TO.C,C23*%
G36*
G01*
X107579000Y-64161500D02*
X107579000Y-63766500D01*
G75*
G02*
X107751500Y-63594000I172500J0D01*
G01*
X108096500Y-63594000D01*
G75*
G02*
X108269000Y-63766500I0J-172500D01*
G01*
X108269000Y-64161500D01*
G75*
G02*
X108096500Y-64334000I-172500J0D01*
G01*
X107751500Y-64334000D01*
G75*
G02*
X107579000Y-64161500I0J172500D01*
G01*
G37*
G36*
G01*
X108549000Y-64161500D02*
X108549000Y-63766500D01*
G75*
G02*
X108721500Y-63594000I172500J0D01*
G01*
X109066500Y-63594000D01*
G75*
G02*
X109239000Y-63766500I0J-172500D01*
G01*
X109239000Y-64161500D01*
G75*
G02*
X109066500Y-64334000I-172500J0D01*
G01*
X108721500Y-64334000D01*
G75*
G02*
X108549000Y-64161500I0J172500D01*
G01*
G37*
%TD*%
%TO.C,C21*%
G36*
G01*
X107579000Y-65177500D02*
X107579000Y-64782500D01*
G75*
G02*
X107751500Y-64610000I172500J0D01*
G01*
X108096500Y-64610000D01*
G75*
G02*
X108269000Y-64782500I0J-172500D01*
G01*
X108269000Y-65177500D01*
G75*
G02*
X108096500Y-65350000I-172500J0D01*
G01*
X107751500Y-65350000D01*
G75*
G02*
X107579000Y-65177500I0J172500D01*
G01*
G37*
G36*
G01*
X108549000Y-65177500D02*
X108549000Y-64782500D01*
G75*
G02*
X108721500Y-64610000I172500J0D01*
G01*
X109066500Y-64610000D01*
G75*
G02*
X109239000Y-64782500I0J-172500D01*
G01*
X109239000Y-65177500D01*
G75*
G02*
X109066500Y-65350000I-172500J0D01*
G01*
X108721500Y-65350000D01*
G75*
G02*
X108549000Y-65177500I0J172500D01*
G01*
G37*
%TD*%
%TO.C,C15*%
G36*
G01*
X96276000Y-67844500D02*
X96276000Y-67449500D01*
G75*
G02*
X96448500Y-67277000I172500J0D01*
G01*
X96793500Y-67277000D01*
G75*
G02*
X96966000Y-67449500I0J-172500D01*
G01*
X96966000Y-67844500D01*
G75*
G02*
X96793500Y-68017000I-172500J0D01*
G01*
X96448500Y-68017000D01*
G75*
G02*
X96276000Y-67844500I0J172500D01*
G01*
G37*
G36*
G01*
X97246000Y-67844500D02*
X97246000Y-67449500D01*
G75*
G02*
X97418500Y-67277000I172500J0D01*
G01*
X97763500Y-67277000D01*
G75*
G02*
X97936000Y-67449500I0J-172500D01*
G01*
X97936000Y-67844500D01*
G75*
G02*
X97763500Y-68017000I-172500J0D01*
G01*
X97418500Y-68017000D01*
G75*
G02*
X97246000Y-67844500I0J172500D01*
G01*
G37*
%TD*%
%TO.C,C13*%
G36*
G01*
X97416500Y-65293000D02*
X97811500Y-65293000D01*
G75*
G02*
X97984000Y-65465500I0J-172500D01*
G01*
X97984000Y-65810500D01*
G75*
G02*
X97811500Y-65983000I-172500J0D01*
G01*
X97416500Y-65983000D01*
G75*
G02*
X97244000Y-65810500I0J172500D01*
G01*
X97244000Y-65465500D01*
G75*
G02*
X97416500Y-65293000I172500J0D01*
G01*
G37*
G36*
G01*
X97416500Y-66263000D02*
X97811500Y-66263000D01*
G75*
G02*
X97984000Y-66435500I0J-172500D01*
G01*
X97984000Y-66780500D01*
G75*
G02*
X97811500Y-66953000I-172500J0D01*
G01*
X97416500Y-66953000D01*
G75*
G02*
X97244000Y-66780500I0J172500D01*
G01*
X97244000Y-66435500D01*
G75*
G02*
X97416500Y-66263000I172500J0D01*
G01*
G37*
%TD*%
%TO.C,C12*%
G36*
G01*
X93352500Y-65293000D02*
X93747500Y-65293000D01*
G75*
G02*
X93920000Y-65465500I0J-172500D01*
G01*
X93920000Y-65810500D01*
G75*
G02*
X93747500Y-65983000I-172500J0D01*
G01*
X93352500Y-65983000D01*
G75*
G02*
X93180000Y-65810500I0J172500D01*
G01*
X93180000Y-65465500D01*
G75*
G02*
X93352500Y-65293000I172500J0D01*
G01*
G37*
G36*
G01*
X93352500Y-66263000D02*
X93747500Y-66263000D01*
G75*
G02*
X93920000Y-66435500I0J-172500D01*
G01*
X93920000Y-66780500D01*
G75*
G02*
X93747500Y-66953000I-172500J0D01*
G01*
X93352500Y-66953000D01*
G75*
G02*
X93180000Y-66780500I0J172500D01*
G01*
X93180000Y-66435500D01*
G75*
G02*
X93352500Y-66263000I172500J0D01*
G01*
G37*
%TD*%
%TO.C,C10*%
G36*
G01*
X96276000Y-68860500D02*
X96276000Y-68465500D01*
G75*
G02*
X96448500Y-68293000I172500J0D01*
G01*
X96793500Y-68293000D01*
G75*
G02*
X96966000Y-68465500I0J-172500D01*
G01*
X96966000Y-68860500D01*
G75*
G02*
X96793500Y-69033000I-172500J0D01*
G01*
X96448500Y-69033000D01*
G75*
G02*
X96276000Y-68860500I0J172500D01*
G01*
G37*
G36*
G01*
X97246000Y-68860500D02*
X97246000Y-68465500D01*
G75*
G02*
X97418500Y-68293000I172500J0D01*
G01*
X97763500Y-68293000D01*
G75*
G02*
X97936000Y-68465500I0J-172500D01*
G01*
X97936000Y-68860500D01*
G75*
G02*
X97763500Y-69033000I-172500J0D01*
G01*
X97418500Y-69033000D01*
G75*
G02*
X97246000Y-68860500I0J172500D01*
G01*
G37*
%TD*%
%TO.C,C8*%
G36*
G01*
X94368500Y-65293000D02*
X94763500Y-65293000D01*
G75*
G02*
X94936000Y-65465500I0J-172500D01*
G01*
X94936000Y-65810500D01*
G75*
G02*
X94763500Y-65983000I-172500J0D01*
G01*
X94368500Y-65983000D01*
G75*
G02*
X94196000Y-65810500I0J172500D01*
G01*
X94196000Y-65465500D01*
G75*
G02*
X94368500Y-65293000I172500J0D01*
G01*
G37*
G36*
G01*
X94368500Y-66263000D02*
X94763500Y-66263000D01*
G75*
G02*
X94936000Y-66435500I0J-172500D01*
G01*
X94936000Y-66780500D01*
G75*
G02*
X94763500Y-66953000I-172500J0D01*
G01*
X94368500Y-66953000D01*
G75*
G02*
X94196000Y-66780500I0J172500D01*
G01*
X94196000Y-66435500D01*
G75*
G02*
X94368500Y-66263000I172500J0D01*
G01*
G37*
%TD*%
%TO.C,C7*%
G36*
G01*
X111144000Y-64782500D02*
X111144000Y-65177500D01*
G75*
G02*
X110971500Y-65350000I-172500J0D01*
G01*
X110626500Y-65350000D01*
G75*
G02*
X110454000Y-65177500I0J172500D01*
G01*
X110454000Y-64782500D01*
G75*
G02*
X110626500Y-64610000I172500J0D01*
G01*
X110971500Y-64610000D01*
G75*
G02*
X111144000Y-64782500I0J-172500D01*
G01*
G37*
G36*
G01*
X110174000Y-64782500D02*
X110174000Y-65177500D01*
G75*
G02*
X110001500Y-65350000I-172500J0D01*
G01*
X109656500Y-65350000D01*
G75*
G02*
X109484000Y-65177500I0J172500D01*
G01*
X109484000Y-64782500D01*
G75*
G02*
X109656500Y-64610000I172500J0D01*
G01*
X110001500Y-64610000D01*
G75*
G02*
X110174000Y-64782500I0J-172500D01*
G01*
G37*
%TD*%
%TO.C,C6*%
G36*
G01*
X100464500Y-69738000D02*
X100859500Y-69738000D01*
G75*
G02*
X101032000Y-69910500I0J-172500D01*
G01*
X101032000Y-70255500D01*
G75*
G02*
X100859500Y-70428000I-172500J0D01*
G01*
X100464500Y-70428000D01*
G75*
G02*
X100292000Y-70255500I0J172500D01*
G01*
X100292000Y-69910500D01*
G75*
G02*
X100464500Y-69738000I172500J0D01*
G01*
G37*
G36*
G01*
X100464500Y-70708000D02*
X100859500Y-70708000D01*
G75*
G02*
X101032000Y-70880500I0J-172500D01*
G01*
X101032000Y-71225500D01*
G75*
G02*
X100859500Y-71398000I-172500J0D01*
G01*
X100464500Y-71398000D01*
G75*
G02*
X100292000Y-71225500I0J172500D01*
G01*
X100292000Y-70880500D01*
G75*
G02*
X100464500Y-70708000I172500J0D01*
G01*
G37*
%TD*%
%TO.C,C4*%
G36*
G01*
X92731500Y-67842000D02*
X92336500Y-67842000D01*
G75*
G02*
X92164000Y-67669500I0J172500D01*
G01*
X92164000Y-67324500D01*
G75*
G02*
X92336500Y-67152000I172500J0D01*
G01*
X92731500Y-67152000D01*
G75*
G02*
X92904000Y-67324500I0J-172500D01*
G01*
X92904000Y-67669500D01*
G75*
G02*
X92731500Y-67842000I-172500J0D01*
G01*
G37*
G36*
G01*
X92731500Y-66872000D02*
X92336500Y-66872000D01*
G75*
G02*
X92164000Y-66699500I0J172500D01*
G01*
X92164000Y-66354500D01*
G75*
G02*
X92336500Y-66182000I172500J0D01*
G01*
X92731500Y-66182000D01*
G75*
G02*
X92904000Y-66354500I0J-172500D01*
G01*
X92904000Y-66699500D01*
G75*
G02*
X92731500Y-66872000I-172500J0D01*
G01*
G37*
%TD*%
%TO.C,C2*%
G36*
G01*
X109484000Y-64161500D02*
X109484000Y-63766500D01*
G75*
G02*
X109656500Y-63594000I172500J0D01*
G01*
X110001500Y-63594000D01*
G75*
G02*
X110174000Y-63766500I0J-172500D01*
G01*
X110174000Y-64161500D01*
G75*
G02*
X110001500Y-64334000I-172500J0D01*
G01*
X109656500Y-64334000D01*
G75*
G02*
X109484000Y-64161500I0J172500D01*
G01*
G37*
G36*
G01*
X110454000Y-64161500D02*
X110454000Y-63766500D01*
G75*
G02*
X110626500Y-63594000I172500J0D01*
G01*
X110971500Y-63594000D01*
G75*
G02*
X111144000Y-63766500I0J-172500D01*
G01*
X111144000Y-64161500D01*
G75*
G02*
X110971500Y-64334000I-172500J0D01*
G01*
X110626500Y-64334000D01*
G75*
G02*
X110454000Y-64161500I0J172500D01*
G01*
G37*
%TD*%
M02*
