%TF.GenerationSoftware,KiCad,Pcbnew,(5.1.6)-1*%
%TF.CreationDate,2020-09-21T21:17:43+08:00*%
%TF.ProjectId,f1c200s_core,66316332-3030-4735-9f63-6f72652e6b69,rev?*%
%TF.SameCoordinates,Original*%
%TF.FileFunction,Copper,L2,Bot*%
%TF.FilePolarity,Positive*%
%FSLAX46Y46*%
G04 Gerber Fmt 4.6, Leading zero omitted, Abs format (unit mm)*
G04 Created by KiCad (PCBNEW (5.1.6)-1) date 2020-09-21 21:17:43*
%MOMM*%
%LPD*%
G01*
G04 APERTURE LIST*
%TA.AperFunction,SMDPad,CuDef*%
%ADD10R,0.350000X1.600000*%
%TD*%
%TA.AperFunction,SMDPad,CuDef*%
%ADD11R,0.800000X0.900000*%
%TD*%
%TA.AperFunction,ComponentPad*%
%ADD12C,2.500000*%
%TD*%
%TA.AperFunction,ComponentPad*%
%ADD13C,1.200000*%
%TD*%
%TA.AperFunction,SMDPad,CuDef*%
%ADD14R,2.000000X3.000000*%
%TD*%
%TA.AperFunction,SMDPad,CuDef*%
%ADD15R,3.000000X5.000000*%
%TD*%
%TA.AperFunction,SMDPad,CuDef*%
%ADD16R,1.800000X0.700000*%
%TD*%
%TA.AperFunction,ViaPad*%
%ADD17C,0.400000*%
%TD*%
%TA.AperFunction,ViaPad*%
%ADD18C,0.500000*%
%TD*%
%TA.AperFunction,Conductor*%
%ADD19C,0.500000*%
%TD*%
%TA.AperFunction,Conductor*%
%ADD20C,0.300000*%
%TD*%
%TA.AperFunction,Conductor*%
%ADD21C,0.250000*%
%TD*%
%TA.AperFunction,Conductor*%
%ADD22C,1.500000*%
%TD*%
%TA.AperFunction,Conductor*%
%ADD23C,0.200000*%
%TD*%
%TA.AperFunction,Conductor*%
%ADD24C,0.152400*%
%TD*%
%TA.AperFunction,Conductor*%
%ADD25C,0.254000*%
%TD*%
%TA.AperFunction,Conductor*%
%ADD26C,0.025400*%
%TD*%
%ADD27C,0.200000*%
%ADD28C,0.300000*%
%ADD29C,0.350000*%
G04 APERTURE END LIST*
D10*
%TO.P,NGFF,42*%
%TO.N,/HPR*%
X102170000Y-48470000D03*
%TO.P,NGFF,40*%
%TO.N,/MICIN*%
X101670000Y-48470000D03*
%TO.P,NGFF,44*%
%TO.N,/LCD_D7*%
X102670000Y-48470000D03*
%TO.P,NGFF,46*%
%TO.N,/LCD_D6*%
X103170000Y-48470000D03*
%TO.P,NGFF,48*%
%TO.N,/LCD_D5*%
X103670000Y-48470000D03*
%TO.P,NGFF,50*%
%TO.N,/LCD_D4*%
X104170000Y-48470000D03*
%TO.P,NGFF,52*%
%TO.N,/LCD_D3*%
X104670000Y-48470000D03*
%TO.P,NGFF,54*%
%TO.N,/LCD_D2*%
X105170000Y-48470000D03*
%TO.P,NGFF,56*%
%TO.N,/HPCOM*%
X105670000Y-48470000D03*
%TO.P,NGFF,58*%
%TO.N,/HPL*%
X106170000Y-48470000D03*
%TO.P,NGFF,74*%
%TO.N,/VCC_IN*%
X110170000Y-48470000D03*
%TO.P,NGFF,72*%
X109670000Y-48470000D03*
%TO.P,NGFF,68*%
X108670000Y-48470000D03*
%TO.P,NGFF,70*%
X109170000Y-48470000D03*
%TO.P,NGFF,38*%
%TO.N,/LRADC*%
X101170000Y-48470000D03*
%TO.P,NGFF,36*%
%TO.N,/TV_IN*%
X100670000Y-48470000D03*
%TO.P,NGFF,34*%
%TO.N,/TV_OUT*%
X100170000Y-48470000D03*
%TO.P,NGFF,32*%
%TO.N,/USB_DP*%
X99670000Y-48470000D03*
%TO.P,NGFF,30*%
%TO.N,/USB_DM*%
X99170000Y-48470000D03*
%TO.P,NGFF,28*%
%TO.N,/PF0*%
X98670000Y-48470000D03*
%TO.P,NGFF,26*%
%TO.N,/PF1*%
X98170000Y-48470000D03*
%TO.P,NGFF,24*%
%TO.N,/PF2*%
X97670000Y-48470000D03*
%TO.P,NGFF,22*%
%TO.N,/PF3*%
X97170000Y-48470000D03*
%TO.P,NGFF,20*%
%TO.N,/PF4*%
X96670000Y-48470000D03*
%TO.P,NGFF,18*%
%TO.N,/PF5*%
X96170000Y-48470000D03*
%TO.P,NGFF,16*%
%TO.N,/FLASH_CLK*%
X95670000Y-48470000D03*
%TO.P,NGFF,14*%
%TO.N,/FLASH_~CS*%
X95170000Y-48470000D03*
%TO.P,NGFF,12*%
%TO.N,/FLASH_DO*%
X94670000Y-48470000D03*
%TO.P,NGFF,10*%
%TO.N,/FLASH_DI*%
X94170000Y-48470000D03*
%TO.P,NGFF,8*%
%TO.N,/PA3*%
X93670000Y-48470000D03*
%TO.P,NGFF,6*%
%TO.N,/PA2*%
X93170000Y-48470000D03*
%TO.P,NGFF,4*%
%TO.N,/PA1*%
X92670000Y-48470000D03*
%TO.P,NGFF,2*%
%TO.N,/LED*%
X92170000Y-48470000D03*
%TD*%
%TO.P,R17,1*%
%TO.N,/TV_IN*%
%TA.AperFunction,SMDPad,CuDef*%
G36*
G01*
X102712000Y-62013500D02*
X102712000Y-62358500D01*
G75*
G02*
X102564500Y-62506000I-147500J0D01*
G01*
X102269500Y-62506000D01*
G75*
G02*
X102122000Y-62358500I0J147500D01*
G01*
X102122000Y-62013500D01*
G75*
G02*
X102269500Y-61866000I147500J0D01*
G01*
X102564500Y-61866000D01*
G75*
G02*
X102712000Y-62013500I0J-147500D01*
G01*
G37*
%TD.AperFunction*%
%TO.P,R17,2*%
%TO.N,/TV_IN0*%
%TA.AperFunction,SMDPad,CuDef*%
G36*
G01*
X101742000Y-62013500D02*
X101742000Y-62358500D01*
G75*
G02*
X101594500Y-62506000I-147500J0D01*
G01*
X101299500Y-62506000D01*
G75*
G02*
X101152000Y-62358500I0J147500D01*
G01*
X101152000Y-62013500D01*
G75*
G02*
X101299500Y-61866000I147500J0D01*
G01*
X101594500Y-61866000D01*
G75*
G02*
X101742000Y-62013500I0J-147500D01*
G01*
G37*
%TD.AperFunction*%
%TD*%
%TO.P,R16,1*%
%TO.N,/TV_IN1*%
%TA.AperFunction,SMDPad,CuDef*%
G36*
G01*
X100172000Y-62013500D02*
X100172000Y-62358500D01*
G75*
G02*
X100024500Y-62506000I-147500J0D01*
G01*
X99729500Y-62506000D01*
G75*
G02*
X99582000Y-62358500I0J147500D01*
G01*
X99582000Y-62013500D01*
G75*
G02*
X99729500Y-61866000I147500J0D01*
G01*
X100024500Y-61866000D01*
G75*
G02*
X100172000Y-62013500I0J-147500D01*
G01*
G37*
%TD.AperFunction*%
%TO.P,R16,2*%
%TO.N,/TV_IN*%
%TA.AperFunction,SMDPad,CuDef*%
G36*
G01*
X99202000Y-62013500D02*
X99202000Y-62358500D01*
G75*
G02*
X99054500Y-62506000I-147500J0D01*
G01*
X98759500Y-62506000D01*
G75*
G02*
X98612000Y-62358500I0J147500D01*
G01*
X98612000Y-62013500D01*
G75*
G02*
X98759500Y-61866000I147500J0D01*
G01*
X99054500Y-61866000D01*
G75*
G02*
X99202000Y-62013500I0J-147500D01*
G01*
G37*
%TD.AperFunction*%
%TD*%
D11*
%TO.P,U4,1*%
%TO.N,GNDA*%
X106819000Y-66615000D03*
%TO.P,U4,2*%
%TO.N,/AVCC*%
X104919000Y-66615000D03*
%TO.P,U4,3*%
%TO.N,/HPVCC*%
X105869000Y-64615000D03*
%TD*%
D12*
%TO.P,U3,89*%
%TO.N,GND*%
X99900000Y-58630000D03*
%TD*%
D13*
%TO.P,U2,21*%
%TO.N,GND*%
X107012000Y-71330000D03*
%TD*%
D14*
%TO.P,U1,9*%
%TO.N,N/C*%
X96852000Y-67393000D03*
D15*
X96852000Y-69298000D03*
D16*
%TO.P,U1,4*%
%TO.N,GND*%
X100952000Y-71203000D03*
%TO.P,U1,5*%
%TO.N,/FLASH_DI*%
X92752000Y-71203000D03*
%TO.P,U1,3*%
%TO.N,/HPVCC*%
X100952000Y-69933000D03*
%TO.P,U1,6*%
%TO.N,/FLASH_CLK*%
X92752000Y-69933000D03*
%TO.P,U1,2*%
%TO.N,/FLASH_DO*%
X100952000Y-68663000D03*
%TO.P,U1,7*%
%TO.N,/HPVCC*%
X92752000Y-68663000D03*
%TO.P,U1,1*%
%TO.N,/FLASH_~CS*%
X100952000Y-67393000D03*
%TO.P,U1,8*%
%TO.N,/HPVCC*%
X92752000Y-67393000D03*
%TD*%
%TO.P,R9,1*%
%TO.N,GND*%
%TA.AperFunction,SMDPad,CuDef*%
G36*
G01*
X101469500Y-56997000D02*
X101124500Y-56997000D01*
G75*
G02*
X100977000Y-56849500I0J147500D01*
G01*
X100977000Y-56554500D01*
G75*
G02*
X101124500Y-56407000I147500J0D01*
G01*
X101469500Y-56407000D01*
G75*
G02*
X101617000Y-56554500I0J-147500D01*
G01*
X101617000Y-56849500D01*
G75*
G02*
X101469500Y-56997000I-147500J0D01*
G01*
G37*
%TD.AperFunction*%
%TO.P,R9,2*%
%TO.N,/SVREF*%
%TA.AperFunction,SMDPad,CuDef*%
G36*
G01*
X101469500Y-56027000D02*
X101124500Y-56027000D01*
G75*
G02*
X100977000Y-55879500I0J147500D01*
G01*
X100977000Y-55584500D01*
G75*
G02*
X101124500Y-55437000I147500J0D01*
G01*
X101469500Y-55437000D01*
G75*
G02*
X101617000Y-55584500I0J-147500D01*
G01*
X101617000Y-55879500D01*
G75*
G02*
X101469500Y-56027000I-147500J0D01*
G01*
G37*
%TD.AperFunction*%
%TD*%
%TO.P,R8,1*%
%TO.N,/SVREF*%
%TA.AperFunction,SMDPad,CuDef*%
G36*
G01*
X100009000Y-54865500D02*
X100009000Y-54520500D01*
G75*
G02*
X100156500Y-54373000I147500J0D01*
G01*
X100451500Y-54373000D01*
G75*
G02*
X100599000Y-54520500I0J-147500D01*
G01*
X100599000Y-54865500D01*
G75*
G02*
X100451500Y-55013000I-147500J0D01*
G01*
X100156500Y-55013000D01*
G75*
G02*
X100009000Y-54865500I0J147500D01*
G01*
G37*
%TD.AperFunction*%
%TO.P,R8,2*%
%TO.N,/VCC_DRAM*%
%TA.AperFunction,SMDPad,CuDef*%
G36*
G01*
X100979000Y-54865500D02*
X100979000Y-54520500D01*
G75*
G02*
X101126500Y-54373000I147500J0D01*
G01*
X101421500Y-54373000D01*
G75*
G02*
X101569000Y-54520500I0J-147500D01*
G01*
X101569000Y-54865500D01*
G75*
G02*
X101421500Y-55013000I-147500J0D01*
G01*
X101126500Y-55013000D01*
G75*
G02*
X100979000Y-54865500I0J147500D01*
G01*
G37*
%TD.AperFunction*%
%TD*%
%TO.P,R4,1*%
%TO.N,/FLASH_~CS*%
%TA.AperFunction,SMDPad,CuDef*%
G36*
G01*
X103283500Y-68645000D02*
X103628500Y-68645000D01*
G75*
G02*
X103776000Y-68792500I0J-147500D01*
G01*
X103776000Y-69087500D01*
G75*
G02*
X103628500Y-69235000I-147500J0D01*
G01*
X103283500Y-69235000D01*
G75*
G02*
X103136000Y-69087500I0J147500D01*
G01*
X103136000Y-68792500D01*
G75*
G02*
X103283500Y-68645000I147500J0D01*
G01*
G37*
%TD.AperFunction*%
%TO.P,R4,2*%
%TO.N,/HPVCC*%
%TA.AperFunction,SMDPad,CuDef*%
G36*
G01*
X103283500Y-69615000D02*
X103628500Y-69615000D01*
G75*
G02*
X103776000Y-69762500I0J-147500D01*
G01*
X103776000Y-70057500D01*
G75*
G02*
X103628500Y-70205000I-147500J0D01*
G01*
X103283500Y-70205000D01*
G75*
G02*
X103136000Y-70057500I0J147500D01*
G01*
X103136000Y-69762500D01*
G75*
G02*
X103283500Y-69615000I147500J0D01*
G01*
G37*
%TD.AperFunction*%
%TD*%
%TO.P,C34,1*%
%TO.N,GNDA*%
%TA.AperFunction,SMDPad,CuDef*%
G36*
G01*
X103728000Y-64934500D02*
X103728000Y-65279500D01*
G75*
G02*
X103580500Y-65427000I-147500J0D01*
G01*
X103285500Y-65427000D01*
G75*
G02*
X103138000Y-65279500I0J147500D01*
G01*
X103138000Y-64934500D01*
G75*
G02*
X103285500Y-64787000I147500J0D01*
G01*
X103580500Y-64787000D01*
G75*
G02*
X103728000Y-64934500I0J-147500D01*
G01*
G37*
%TD.AperFunction*%
%TO.P,C34,2*%
%TO.N,/AVCC*%
%TA.AperFunction,SMDPad,CuDef*%
G36*
G01*
X102758000Y-64934500D02*
X102758000Y-65279500D01*
G75*
G02*
X102610500Y-65427000I-147500J0D01*
G01*
X102315500Y-65427000D01*
G75*
G02*
X102168000Y-65279500I0J147500D01*
G01*
X102168000Y-64934500D01*
G75*
G02*
X102315500Y-64787000I147500J0D01*
G01*
X102610500Y-64787000D01*
G75*
G02*
X102758000Y-64934500I0J-147500D01*
G01*
G37*
%TD.AperFunction*%
%TD*%
%TO.P,C22,1*%
%TO.N,/VCC_IN*%
%TA.AperFunction,SMDPad,CuDef*%
G36*
G01*
X110967000Y-67347500D02*
X110967000Y-67692500D01*
G75*
G02*
X110819500Y-67840000I-147500J0D01*
G01*
X110524500Y-67840000D01*
G75*
G02*
X110377000Y-67692500I0J147500D01*
G01*
X110377000Y-67347500D01*
G75*
G02*
X110524500Y-67200000I147500J0D01*
G01*
X110819500Y-67200000D01*
G75*
G02*
X110967000Y-67347500I0J-147500D01*
G01*
G37*
%TD.AperFunction*%
%TO.P,C22,2*%
%TO.N,GND*%
%TA.AperFunction,SMDPad,CuDef*%
G36*
G01*
X109997000Y-67347500D02*
X109997000Y-67692500D01*
G75*
G02*
X109849500Y-67840000I-147500J0D01*
G01*
X109554500Y-67840000D01*
G75*
G02*
X109407000Y-67692500I0J147500D01*
G01*
X109407000Y-67347500D01*
G75*
G02*
X109554500Y-67200000I147500J0D01*
G01*
X109849500Y-67200000D01*
G75*
G02*
X109997000Y-67347500I0J-147500D01*
G01*
G37*
%TD.AperFunction*%
%TD*%
%TO.P,C20,1*%
%TO.N,/VCC_IN*%
%TA.AperFunction,SMDPad,CuDef*%
G36*
G01*
X110967000Y-66331500D02*
X110967000Y-66676500D01*
G75*
G02*
X110819500Y-66824000I-147500J0D01*
G01*
X110524500Y-66824000D01*
G75*
G02*
X110377000Y-66676500I0J147500D01*
G01*
X110377000Y-66331500D01*
G75*
G02*
X110524500Y-66184000I147500J0D01*
G01*
X110819500Y-66184000D01*
G75*
G02*
X110967000Y-66331500I0J-147500D01*
G01*
G37*
%TD.AperFunction*%
%TO.P,C20,2*%
%TO.N,GND*%
%TA.AperFunction,SMDPad,CuDef*%
G36*
G01*
X109997000Y-66331500D02*
X109997000Y-66676500D01*
G75*
G02*
X109849500Y-66824000I-147500J0D01*
G01*
X109554500Y-66824000D01*
G75*
G02*
X109407000Y-66676500I0J147500D01*
G01*
X109407000Y-66331500D01*
G75*
G02*
X109554500Y-66184000I147500J0D01*
G01*
X109849500Y-66184000D01*
G75*
G02*
X109997000Y-66331500I0J-147500D01*
G01*
G37*
%TD.AperFunction*%
%TD*%
%TO.P,C19,1*%
%TO.N,/SVREF*%
%TA.AperFunction,SMDPad,CuDef*%
G36*
G01*
X100108500Y-55437000D02*
X100453500Y-55437000D01*
G75*
G02*
X100601000Y-55584500I0J-147500D01*
G01*
X100601000Y-55879500D01*
G75*
G02*
X100453500Y-56027000I-147500J0D01*
G01*
X100108500Y-56027000D01*
G75*
G02*
X99961000Y-55879500I0J147500D01*
G01*
X99961000Y-55584500D01*
G75*
G02*
X100108500Y-55437000I147500J0D01*
G01*
G37*
%TD.AperFunction*%
%TO.P,C19,2*%
%TO.N,GND*%
%TA.AperFunction,SMDPad,CuDef*%
G36*
G01*
X100108500Y-56407000D02*
X100453500Y-56407000D01*
G75*
G02*
X100601000Y-56554500I0J-147500D01*
G01*
X100601000Y-56849500D01*
G75*
G02*
X100453500Y-56997000I-147500J0D01*
G01*
X100108500Y-56997000D01*
G75*
G02*
X99961000Y-56849500I0J147500D01*
G01*
X99961000Y-56554500D01*
G75*
G02*
X100108500Y-56407000I147500J0D01*
G01*
G37*
%TD.AperFunction*%
%TD*%
%TO.P,C18,1*%
%TO.N,/VCC_DRAM*%
%TA.AperFunction,SMDPad,CuDef*%
G36*
G01*
X101569000Y-53504500D02*
X101569000Y-53849500D01*
G75*
G02*
X101421500Y-53997000I-147500J0D01*
G01*
X101126500Y-53997000D01*
G75*
G02*
X100979000Y-53849500I0J147500D01*
G01*
X100979000Y-53504500D01*
G75*
G02*
X101126500Y-53357000I147500J0D01*
G01*
X101421500Y-53357000D01*
G75*
G02*
X101569000Y-53504500I0J-147500D01*
G01*
G37*
%TD.AperFunction*%
%TO.P,C18,2*%
%TO.N,/SVREF*%
%TA.AperFunction,SMDPad,CuDef*%
G36*
G01*
X100599000Y-53504500D02*
X100599000Y-53849500D01*
G75*
G02*
X100451500Y-53997000I-147500J0D01*
G01*
X100156500Y-53997000D01*
G75*
G02*
X100009000Y-53849500I0J147500D01*
G01*
X100009000Y-53504500D01*
G75*
G02*
X100156500Y-53357000I147500J0D01*
G01*
X100451500Y-53357000D01*
G75*
G02*
X100599000Y-53504500I0J-147500D01*
G01*
G37*
%TD.AperFunction*%
%TD*%
%TO.P,C17,1*%
%TO.N,/VCC_DRAM*%
%TA.AperFunction,SMDPad,CuDef*%
G36*
G01*
X103156500Y-54421000D02*
X103501500Y-54421000D01*
G75*
G02*
X103649000Y-54568500I0J-147500D01*
G01*
X103649000Y-54863500D01*
G75*
G02*
X103501500Y-55011000I-147500J0D01*
G01*
X103156500Y-55011000D01*
G75*
G02*
X103009000Y-54863500I0J147500D01*
G01*
X103009000Y-54568500D01*
G75*
G02*
X103156500Y-54421000I147500J0D01*
G01*
G37*
%TD.AperFunction*%
%TO.P,C17,2*%
%TO.N,GND*%
%TA.AperFunction,SMDPad,CuDef*%
G36*
G01*
X103156500Y-55391000D02*
X103501500Y-55391000D01*
G75*
G02*
X103649000Y-55538500I0J-147500D01*
G01*
X103649000Y-55833500D01*
G75*
G02*
X103501500Y-55981000I-147500J0D01*
G01*
X103156500Y-55981000D01*
G75*
G02*
X103009000Y-55833500I0J147500D01*
G01*
X103009000Y-55538500D01*
G75*
G02*
X103156500Y-55391000I147500J0D01*
G01*
G37*
%TD.AperFunction*%
%TD*%
%TO.P,C16,1*%
%TO.N,/VCC_DRAM*%
%TA.AperFunction,SMDPad,CuDef*%
G36*
G01*
X102140500Y-54421000D02*
X102485500Y-54421000D01*
G75*
G02*
X102633000Y-54568500I0J-147500D01*
G01*
X102633000Y-54863500D01*
G75*
G02*
X102485500Y-55011000I-147500J0D01*
G01*
X102140500Y-55011000D01*
G75*
G02*
X101993000Y-54863500I0J147500D01*
G01*
X101993000Y-54568500D01*
G75*
G02*
X102140500Y-54421000I147500J0D01*
G01*
G37*
%TD.AperFunction*%
%TO.P,C16,2*%
%TO.N,GND*%
%TA.AperFunction,SMDPad,CuDef*%
G36*
G01*
X102140500Y-55391000D02*
X102485500Y-55391000D01*
G75*
G02*
X102633000Y-55538500I0J-147500D01*
G01*
X102633000Y-55833500D01*
G75*
G02*
X102485500Y-55981000I-147500J0D01*
G01*
X102140500Y-55981000D01*
G75*
G02*
X101993000Y-55833500I0J147500D01*
G01*
X101993000Y-55538500D01*
G75*
G02*
X102140500Y-55391000I147500J0D01*
G01*
G37*
%TD.AperFunction*%
%TD*%
%TO.P,C14,1*%
%TO.N,/VDD_CORE*%
%TA.AperFunction,SMDPad,CuDef*%
G36*
G01*
X95409500Y-54167000D02*
X95754500Y-54167000D01*
G75*
G02*
X95902000Y-54314500I0J-147500D01*
G01*
X95902000Y-54609500D01*
G75*
G02*
X95754500Y-54757000I-147500J0D01*
G01*
X95409500Y-54757000D01*
G75*
G02*
X95262000Y-54609500I0J147500D01*
G01*
X95262000Y-54314500D01*
G75*
G02*
X95409500Y-54167000I147500J0D01*
G01*
G37*
%TD.AperFunction*%
%TO.P,C14,2*%
%TO.N,GND*%
%TA.AperFunction,SMDPad,CuDef*%
G36*
G01*
X95409500Y-55137000D02*
X95754500Y-55137000D01*
G75*
G02*
X95902000Y-55284500I0J-147500D01*
G01*
X95902000Y-55579500D01*
G75*
G02*
X95754500Y-55727000I-147500J0D01*
G01*
X95409500Y-55727000D01*
G75*
G02*
X95262000Y-55579500I0J147500D01*
G01*
X95262000Y-55284500D01*
G75*
G02*
X95409500Y-55137000I147500J0D01*
G01*
G37*
%TD.AperFunction*%
%TD*%
%TO.P,C11,1*%
%TO.N,/VDD_CORE*%
%TA.AperFunction,SMDPad,CuDef*%
G36*
G01*
X106295500Y-76936000D02*
X105950500Y-76936000D01*
G75*
G02*
X105803000Y-76788500I0J147500D01*
G01*
X105803000Y-76493500D01*
G75*
G02*
X105950500Y-76346000I147500J0D01*
G01*
X106295500Y-76346000D01*
G75*
G02*
X106443000Y-76493500I0J-147500D01*
G01*
X106443000Y-76788500D01*
G75*
G02*
X106295500Y-76936000I-147500J0D01*
G01*
G37*
%TD.AperFunction*%
%TO.P,C11,2*%
%TO.N,GND*%
%TA.AperFunction,SMDPad,CuDef*%
G36*
G01*
X106295500Y-75966000D02*
X105950500Y-75966000D01*
G75*
G02*
X105803000Y-75818500I0J147500D01*
G01*
X105803000Y-75523500D01*
G75*
G02*
X105950500Y-75376000I147500J0D01*
G01*
X106295500Y-75376000D01*
G75*
G02*
X106443000Y-75523500I0J-147500D01*
G01*
X106443000Y-75818500D01*
G75*
G02*
X106295500Y-75966000I-147500J0D01*
G01*
G37*
%TD.AperFunction*%
%TD*%
%TO.P,C9,1*%
%TO.N,/HPVCC*%
%TA.AperFunction,SMDPad,CuDef*%
G36*
G01*
X103601000Y-56552500D02*
X103601000Y-56897500D01*
G75*
G02*
X103453500Y-57045000I-147500J0D01*
G01*
X103158500Y-57045000D01*
G75*
G02*
X103011000Y-56897500I0J147500D01*
G01*
X103011000Y-56552500D01*
G75*
G02*
X103158500Y-56405000I147500J0D01*
G01*
X103453500Y-56405000D01*
G75*
G02*
X103601000Y-56552500I0J-147500D01*
G01*
G37*
%TD.AperFunction*%
%TO.P,C9,2*%
%TO.N,GND*%
%TA.AperFunction,SMDPad,CuDef*%
G36*
G01*
X102631000Y-56552500D02*
X102631000Y-56897500D01*
G75*
G02*
X102483500Y-57045000I-147500J0D01*
G01*
X102188500Y-57045000D01*
G75*
G02*
X102041000Y-56897500I0J147500D01*
G01*
X102041000Y-56552500D01*
G75*
G02*
X102188500Y-56405000I147500J0D01*
G01*
X102483500Y-56405000D01*
G75*
G02*
X102631000Y-56552500I0J-147500D01*
G01*
G37*
%TD.AperFunction*%
%TD*%
%TO.P,C5,1*%
%TO.N,/VDD_CORE*%
%TA.AperFunction,SMDPad,CuDef*%
G36*
G01*
X99092500Y-54421000D02*
X99437500Y-54421000D01*
G75*
G02*
X99585000Y-54568500I0J-147500D01*
G01*
X99585000Y-54863500D01*
G75*
G02*
X99437500Y-55011000I-147500J0D01*
G01*
X99092500Y-55011000D01*
G75*
G02*
X98945000Y-54863500I0J147500D01*
G01*
X98945000Y-54568500D01*
G75*
G02*
X99092500Y-54421000I147500J0D01*
G01*
G37*
%TD.AperFunction*%
%TO.P,C5,2*%
%TO.N,GND*%
%TA.AperFunction,SMDPad,CuDef*%
G36*
G01*
X99092500Y-55391000D02*
X99437500Y-55391000D01*
G75*
G02*
X99585000Y-55538500I0J-147500D01*
G01*
X99585000Y-55833500D01*
G75*
G02*
X99437500Y-55981000I-147500J0D01*
G01*
X99092500Y-55981000D01*
G75*
G02*
X98945000Y-55833500I0J147500D01*
G01*
X98945000Y-55538500D01*
G75*
G02*
X99092500Y-55391000I147500J0D01*
G01*
G37*
%TD.AperFunction*%
%TD*%
%TO.P,C3,1*%
%TO.N,/VDD_CORE*%
%TA.AperFunction,SMDPad,CuDef*%
G36*
G01*
X110863000Y-75475500D02*
X110863000Y-75820500D01*
G75*
G02*
X110715500Y-75968000I-147500J0D01*
G01*
X110420500Y-75968000D01*
G75*
G02*
X110273000Y-75820500I0J147500D01*
G01*
X110273000Y-75475500D01*
G75*
G02*
X110420500Y-75328000I147500J0D01*
G01*
X110715500Y-75328000D01*
G75*
G02*
X110863000Y-75475500I0J-147500D01*
G01*
G37*
%TD.AperFunction*%
%TO.P,C3,2*%
%TO.N,GND*%
%TA.AperFunction,SMDPad,CuDef*%
G36*
G01*
X109893000Y-75475500D02*
X109893000Y-75820500D01*
G75*
G02*
X109745500Y-75968000I-147500J0D01*
G01*
X109450500Y-75968000D01*
G75*
G02*
X109303000Y-75820500I0J147500D01*
G01*
X109303000Y-75475500D01*
G75*
G02*
X109450500Y-75328000I147500J0D01*
G01*
X109745500Y-75328000D01*
G75*
G02*
X109893000Y-75475500I0J-147500D01*
G01*
G37*
%TD.AperFunction*%
%TD*%
%TO.P,C1,1*%
%TO.N,/HPVCC*%
%TA.AperFunction,SMDPad,CuDef*%
G36*
G01*
X96770500Y-55727000D02*
X96425500Y-55727000D01*
G75*
G02*
X96278000Y-55579500I0J147500D01*
G01*
X96278000Y-55284500D01*
G75*
G02*
X96425500Y-55137000I147500J0D01*
G01*
X96770500Y-55137000D01*
G75*
G02*
X96918000Y-55284500I0J-147500D01*
G01*
X96918000Y-55579500D01*
G75*
G02*
X96770500Y-55727000I-147500J0D01*
G01*
G37*
%TD.AperFunction*%
%TO.P,C1,2*%
%TO.N,GND*%
%TA.AperFunction,SMDPad,CuDef*%
G36*
G01*
X96770500Y-54757000D02*
X96425500Y-54757000D01*
G75*
G02*
X96278000Y-54609500I0J147500D01*
G01*
X96278000Y-54314500D01*
G75*
G02*
X96425500Y-54167000I147500J0D01*
G01*
X96770500Y-54167000D01*
G75*
G02*
X96918000Y-54314500I0J-147500D01*
G01*
X96918000Y-54609500D01*
G75*
G02*
X96770500Y-54757000I-147500J0D01*
G01*
G37*
%TD.AperFunction*%
%TD*%
D17*
%TO.N,GND*%
X102186000Y-57360000D03*
X98122000Y-59392000D03*
X97106000Y-60154000D03*
X99138000Y-56852000D03*
X101932000Y-59138000D03*
X111307000Y-72092000D03*
X111307000Y-71480000D03*
X107037500Y-76029000D03*
X99138000Y-69298000D03*
X104218000Y-71076000D03*
X99138000Y-71076000D03*
X93550000Y-64472000D03*
X91327500Y-68282000D03*
X92534000Y-65488000D03*
X91327500Y-69107500D03*
X91010000Y-53105500D03*
X91010000Y-52153000D03*
X91010000Y-59836500D03*
X91010000Y-57931500D03*
X102948000Y-71266500D03*
X96344000Y-60662000D03*
X95836000Y-61932000D03*
X95836000Y-62694000D03*
X95836000Y-61170000D03*
X101170000Y-57360000D03*
X104472000Y-69044000D03*
X100408000Y-73362000D03*
X100408000Y-72346000D03*
X99392000Y-72346000D03*
X99392000Y-73362000D03*
X98376000Y-73362000D03*
X98376000Y-72346000D03*
X97360000Y-72346000D03*
X109679000Y-68409000D03*
X109679000Y-65742000D03*
X109806000Y-61424000D03*
X109044000Y-62186000D03*
X109806000Y-62948000D03*
X109806000Y-57868000D03*
X109806000Y-56344000D03*
X109806000Y-54820000D03*
X109298000Y-55582000D03*
X109298000Y-57106000D03*
X109298000Y-54058000D03*
X109298000Y-58630000D03*
X106250000Y-67520000D03*
X105488000Y-67520000D03*
X107774000Y-68282000D03*
X105234000Y-73108000D03*
X104218000Y-73108000D03*
X105234000Y-74124000D03*
X104218000Y-74124000D03*
X105234000Y-75140000D03*
X107012000Y-75140000D03*
X105742000Y-74632000D03*
X101424000Y-73362000D03*
X97360000Y-73362000D03*
X96344000Y-72346000D03*
X94058000Y-72346000D03*
X93042000Y-72346000D03*
X92026000Y-72346000D03*
X92026000Y-73362000D03*
X93042000Y-73362000D03*
X94058000Y-73362000D03*
X95074000Y-73362000D03*
X94058000Y-75648000D03*
X92534000Y-75648000D03*
X92534000Y-76918000D03*
X98376000Y-74886000D03*
X99392000Y-74886000D03*
X100408000Y-74886000D03*
X101424000Y-74886000D03*
X97360000Y-74886000D03*
X97360000Y-75902000D03*
X98376000Y-75902000D03*
X99392000Y-75902000D03*
X98376000Y-76918000D03*
X97360000Y-76918000D03*
X96344000Y-76410000D03*
X91327500Y-70568000D03*
X91327500Y-71584000D03*
X108790000Y-64472000D03*
%TO.N,/HPVCC*%
X100916000Y-69933000D03*
X92534000Y-67520000D03*
X103456000Y-56725000D03*
X106885000Y-64495044D03*
X101424000Y-69933000D03*
X100408000Y-69933000D03*
X103456000Y-69933000D03*
X107921320Y-64499940D03*
X96466497Y-55450523D03*
D18*
%TO.N,/VCC_DRAM*%
X101106491Y-54248509D03*
D17*
X108790000Y-63202000D03*
%TO.N,/VDD_CORE*%
X110881000Y-75648000D03*
X99447000Y-54511000D03*
X94565993Y-65107031D03*
X97106000Y-65129210D03*
X95105106Y-63932894D03*
X95709000Y-54510956D03*
%TO.N,/SVREF*%
X100152010Y-54318472D03*
%TO.N,/VCC_IN*%
X106758000Y-69298000D03*
X106377004Y-73997004D03*
X107139042Y-73996958D03*
X107190000Y-73311000D03*
X107284990Y-69730000D03*
X106326000Y-69730000D03*
%TO.N,/~RESET*%
X105768001Y-63302999D03*
X108536000Y-61424000D03*
%TO.N,GNDA*%
X106885000Y-66504000D03*
%TO.N,/AVCC*%
X100914735Y-64345807D03*
%TO.N,/LED*%
X93550000Y-63456000D03*
X92216500Y-63456000D03*
%TO.N,/LCD_D7*%
X106631000Y-57995000D03*
%TO.N,/LCD_D6*%
X106631001Y-58630001D03*
%TO.N,/LCD_D5*%
X106631004Y-59265004D03*
%TO.N,/LCD_D4*%
X106618295Y-59887295D03*
%TO.N,/LCD_D3*%
X106631149Y-60414141D03*
%TO.N,/LCD_D2*%
X107139000Y-60662000D03*
%TO.N,/HPCOM*%
X106631000Y-62059000D03*
%TO.N,/USB_DP*%
X97744059Y-62012990D03*
%TO.N,/FLASH_DO*%
X93417497Y-60667087D03*
%TO.N,/USB_DM*%
X97115137Y-62028542D03*
%TO.N,/PA1*%
X93581113Y-62916887D03*
%TO.N,/FLASH_~CS*%
X93725299Y-60239303D03*
%TO.N,/FLASH_DI*%
X93677000Y-61278584D03*
%TO.N,/PA2*%
X93579828Y-62389877D03*
%TO.N,/PA3*%
X93685120Y-61873491D03*
%TO.N,/HPL*%
X106114000Y-62830000D03*
%TO.N,/FLASH_CLK*%
X94208967Y-60030004D03*
X90756000Y-62757500D03*
%TO.N,/PF0*%
X96344000Y-59900000D03*
%TO.N,/TV_OUT*%
X98238160Y-62924374D03*
%TO.N,/PF1*%
X96344000Y-59265000D03*
%TO.N,/TV_IN1*%
X99836500Y-62630500D03*
%TO.N,/PF2*%
X96344000Y-58737987D03*
%TO.N,/TV_IN0*%
X100535000Y-62567000D03*
%TO.N,/PF3*%
X96344821Y-58125268D03*
%TO.N,/LRADC*%
X102821036Y-62821000D03*
%TO.N,/PF4*%
X96344000Y-57487000D03*
%TO.N,/PF5*%
X96090000Y-56852000D03*
%TO.N,/MICIN*%
X103710000Y-62948000D03*
%TO.N,/HPR*%
X104491104Y-63729991D03*
%TD*%
D19*
%TO.N,GND*%
X102313000Y-56702000D02*
X102336000Y-56725000D01*
X102313000Y-55686000D02*
X102313000Y-56702000D01*
D20*
X96552000Y-54462000D02*
X95582000Y-55432000D01*
X96598000Y-54462000D02*
X96552000Y-54462000D01*
D19*
X101297000Y-57233000D02*
X101297000Y-57233000D01*
X101297000Y-56702000D02*
X101297000Y-57233000D01*
X101297000Y-57233000D02*
X99900000Y-58630000D01*
D20*
%TO.N,/HPVCC*%
X92752000Y-68663000D02*
X92752000Y-67393000D01*
D19*
X100952000Y-69933000D02*
X103456000Y-69933000D01*
X105892044Y-64495044D02*
X105869000Y-64472000D01*
X105996760Y-64487240D02*
X105869000Y-64615000D01*
X105029602Y-69933000D02*
X107921320Y-67041282D01*
X103456000Y-69933000D02*
X105029602Y-69933000D01*
X107921320Y-67041282D02*
X107921320Y-64499940D01*
X107921320Y-64499940D02*
X107908620Y-64487240D01*
X107908620Y-64487240D02*
X105996760Y-64487240D01*
X107921320Y-64499940D02*
X107921320Y-64499940D01*
D20*
%TO.N,/VCC_DRAM*%
X101297000Y-54716000D02*
X101274000Y-54693000D01*
X102313000Y-54716000D02*
X101297000Y-54716000D01*
X101274000Y-53596000D02*
X101320000Y-53550000D01*
X101274000Y-54693000D02*
X101274000Y-53596000D01*
X102313000Y-54716000D02*
X103329000Y-54716000D01*
D21*
X101297000Y-54693000D02*
X101297000Y-54439018D01*
X101297000Y-54439018D02*
X101106491Y-54248509D01*
D20*
X107647000Y-63202000D02*
X108790000Y-63202000D01*
X107012000Y-63837000D02*
X107647000Y-63202000D01*
X105090962Y-63837000D02*
X107012000Y-63837000D01*
X97967211Y-60308789D02*
X96598000Y-61678000D01*
X101904211Y-60308789D02*
X97967211Y-60308789D01*
X104091000Y-58122000D02*
X101904211Y-60308789D01*
X97868000Y-63456000D02*
X101678000Y-63456000D01*
X103329000Y-54716000D02*
X104091000Y-55478000D01*
X104091000Y-55478000D02*
X104091000Y-58122000D01*
X96598000Y-61678000D02*
X96598000Y-62186000D01*
X101678000Y-63456000D02*
X102429001Y-64207001D01*
X96598000Y-62186000D02*
X97868000Y-63456000D01*
X102429001Y-64207001D02*
X104720961Y-64207001D01*
X104720961Y-64207001D02*
X105090962Y-63837000D01*
D19*
%TO.N,/VDD_CORE*%
X110881000Y-75648000D02*
X110568000Y-75648000D01*
D21*
X99265000Y-54716000D02*
X99265000Y-54693000D01*
X99265000Y-54693000D02*
X99447000Y-54511000D01*
D19*
X109718980Y-76810020D02*
X106523020Y-76810020D01*
X110881000Y-75648000D02*
X109718980Y-76810020D01*
X106292020Y-76810020D02*
X106123000Y-76641000D01*
X106523020Y-76810020D02*
X106292020Y-76810020D01*
D20*
X94565993Y-65107031D02*
X97083821Y-65107031D01*
X97083821Y-65107031D02*
X97106000Y-65129210D01*
X95339007Y-54510956D02*
X95709000Y-54510956D01*
X94566000Y-55283963D02*
X95339007Y-54510956D01*
X94566000Y-59646000D02*
X94566000Y-55283963D01*
X95105106Y-63932894D02*
X95105106Y-60185106D01*
X95105106Y-60185106D02*
X94566000Y-59646000D01*
D19*
X104810418Y-76810020D02*
X106292020Y-76810020D01*
X102124398Y-74124000D02*
X104810418Y-76810020D01*
X96999398Y-74124000D02*
X102124398Y-74124000D01*
X94565993Y-65107031D02*
X94565993Y-71690595D01*
X94565993Y-71690595D02*
X96999398Y-74124000D01*
D21*
%TO.N,/SVREF*%
X100304000Y-55732000D02*
X101043000Y-55732000D01*
X100281000Y-55709000D02*
X100304000Y-55732000D01*
X100281000Y-54566000D02*
X100281000Y-55709000D01*
X100152010Y-54318472D02*
X100152010Y-54437010D01*
X100152010Y-54437010D02*
X100281000Y-54566000D01*
D20*
X100304000Y-54470462D02*
X100152010Y-54318472D01*
X100304000Y-54693000D02*
X100304000Y-54470462D01*
X100152010Y-54318472D02*
X100152010Y-54186990D01*
X100304000Y-54035000D02*
X100304000Y-53677000D01*
X100152010Y-54186990D02*
X100304000Y-54035000D01*
D19*
%TO.N,/VCC_IN*%
X109670000Y-48470000D02*
X109170000Y-48470000D01*
D21*
X110170000Y-48470000D02*
X108670000Y-48470000D01*
D22*
X107266000Y-73616000D02*
X106631000Y-73616000D01*
X110695000Y-69679000D02*
X110695000Y-70187000D01*
X110695000Y-70187000D02*
X107266000Y-73616000D01*
X110695000Y-69679000D02*
X107063000Y-69679000D01*
D19*
X106326000Y-69730000D02*
X107284990Y-69730000D01*
D22*
X111076000Y-69298000D02*
X110695000Y-69679000D01*
X111076000Y-53677000D02*
X111076000Y-69298000D01*
X109298000Y-51899000D02*
X111076000Y-53677000D01*
X109425000Y-48470000D02*
X109298000Y-48597000D01*
X109298000Y-48597000D02*
X109298000Y-51899000D01*
D23*
%TO.N,/~RESET*%
X105768001Y-63302999D02*
X106657001Y-63302999D01*
X106657001Y-63302999D02*
X108536000Y-61424000D01*
D20*
%TO.N,GNDA*%
X106819000Y-66615000D02*
X105842000Y-65638000D01*
X103964000Y-65638000D02*
X103433000Y-65107000D01*
X105842000Y-65638000D02*
X103964000Y-65638000D01*
D19*
%TO.N,/AVCC*%
X101553072Y-64347072D02*
X100916000Y-64347072D01*
X103837000Y-66631000D02*
X101553072Y-64347072D01*
X100916000Y-64347072D02*
X100914735Y-64345807D01*
X104919000Y-66488000D02*
X104776000Y-66631000D01*
X104776000Y-66631000D02*
X103837000Y-66631000D01*
D24*
%TO.N,/LED*%
X91721131Y-61909973D02*
X93267158Y-63456000D01*
X91721131Y-50552869D02*
X91721131Y-61909973D01*
X92170000Y-48470000D02*
X92170000Y-50104000D01*
X93267158Y-63456000D02*
X93550000Y-63456000D01*
X92170000Y-50104000D02*
X91721131Y-50552869D01*
D23*
X93550000Y-63456000D02*
X92216500Y-63456000D01*
D24*
%TO.N,/LCD_D7*%
X106631000Y-53958978D02*
X106631000Y-57712158D01*
X102670000Y-48470000D02*
X102670000Y-49997978D01*
X106631000Y-57712158D02*
X106631000Y-57995000D01*
X102670000Y-49997978D02*
X106631000Y-53958978D01*
%TO.N,/LCD_D6*%
X103170000Y-48470000D02*
X103170000Y-50102832D01*
X107068504Y-58192498D02*
X106631001Y-58630001D01*
X107068504Y-54001336D02*
X107068504Y-58192498D01*
X103170000Y-50102832D02*
X107068504Y-54001336D01*
%TO.N,/LCD_D5*%
X107392945Y-53930631D02*
X103670000Y-50207686D01*
X107392945Y-58503063D02*
X107392945Y-53930631D01*
X106631004Y-59265004D02*
X107392945Y-58503063D01*
X103670000Y-50207686D02*
X103670000Y-48470000D01*
%TO.N,/LCD_D4*%
X104170000Y-48470000D02*
X104170000Y-50312540D01*
X104170000Y-50312540D02*
X107672356Y-53814896D01*
X107672356Y-53814896D02*
X107672356Y-58833234D01*
X107672356Y-58833234D02*
X106618295Y-59887295D01*
%TO.N,/LCD_D3*%
X107951767Y-59252495D02*
X106790121Y-60414141D01*
X107951767Y-53699161D02*
X107951767Y-59252495D01*
X106790121Y-60414141D02*
X106631149Y-60414141D01*
X104670000Y-48470000D02*
X104670000Y-50417394D01*
X104670000Y-50417394D02*
X107951767Y-53699161D01*
%TO.N,/LCD_D2*%
X108231178Y-53583426D02*
X108231178Y-59569822D01*
X105170000Y-50522248D02*
X108231178Y-53583426D01*
X105170000Y-48470000D02*
X105170000Y-50522248D01*
X108231178Y-59569822D02*
X107139000Y-60662000D01*
%TO.N,/HPCOM*%
X105670000Y-50627102D02*
X108510589Y-53467691D01*
X105670000Y-48470000D02*
X105670000Y-50627102D01*
X108510589Y-60179411D02*
X106631000Y-62059000D01*
X108510589Y-53467691D02*
X108510589Y-60179411D01*
%TO.N,/USB_DP*%
X99670000Y-48470000D02*
X99670000Y-49422400D01*
X103501005Y-60941411D02*
X98815638Y-60941411D01*
X104751408Y-59691008D02*
X103501005Y-60941411D01*
X99670000Y-49422400D02*
X104751408Y-54503808D01*
X98815638Y-60941411D02*
X97744059Y-62012990D01*
X104751408Y-54503808D02*
X104751408Y-59691008D01*
%TO.N,/FLASH_DO*%
X93217498Y-51596502D02*
X93217498Y-60467088D01*
X94670000Y-48470000D02*
X94670000Y-50144000D01*
X93217498Y-60467088D02*
X93417497Y-60667087D01*
X94670000Y-50144000D02*
X93217498Y-51596502D01*
X97345854Y-64726000D02*
X99646000Y-67026146D01*
X94932854Y-64726000D02*
X97345854Y-64726000D01*
X99646000Y-67026146D02*
X99646000Y-68409400D01*
X99899600Y-68663000D02*
X100952000Y-68663000D01*
X99646000Y-68409400D02*
X99899600Y-68663000D01*
X94413590Y-61380338D02*
X94413591Y-64206737D01*
X94413591Y-64206737D02*
X94932854Y-64726000D01*
X93700339Y-60667087D02*
X94413590Y-61380338D01*
X93417497Y-60667087D02*
X93700339Y-60667087D01*
%TO.N,/USB_DM*%
X99170000Y-48470000D02*
X99170000Y-49422400D01*
X104471997Y-54724397D02*
X104471997Y-59575273D01*
X98481679Y-60662000D02*
X97115137Y-62028542D01*
X103385270Y-60662000D02*
X98481679Y-60662000D01*
X104471997Y-59575273D02*
X103385270Y-60662000D01*
X99170000Y-49422400D02*
X104471997Y-54724397D01*
%TO.N,/PA1*%
X92000539Y-50767315D02*
X92670000Y-50097854D01*
X92000539Y-61619155D02*
X92000539Y-50767315D01*
X93581113Y-62916887D02*
X93298271Y-62916887D01*
X92670000Y-50097854D02*
X92670000Y-48470000D01*
X93298271Y-62916887D02*
X92000539Y-61619155D01*
%TO.N,/FLASH_~CS*%
X93725299Y-53741555D02*
X93725299Y-60239303D01*
X95170000Y-48470000D02*
X95170000Y-50152000D01*
X93725299Y-51596701D02*
X93725299Y-53741555D01*
X95170000Y-50152000D02*
X93725299Y-51596701D01*
X101909000Y-67393000D02*
X103456000Y-68940000D01*
X100952000Y-67393000D02*
X101909000Y-67393000D01*
X100408000Y-67393000D02*
X100952000Y-67393000D01*
X97360000Y-64345000D02*
X100408000Y-67393000D01*
X94693001Y-64091001D02*
X94947000Y-64345000D01*
X94947000Y-64345000D02*
X97360000Y-64345000D01*
X93725299Y-60239303D02*
X94693001Y-61207005D01*
X94693001Y-61207005D02*
X94693001Y-64091001D01*
%TO.N,/FLASH_DI*%
X93227920Y-61278584D02*
X93677000Y-61278584D01*
X92838771Y-60889435D02*
X93227920Y-61278584D01*
X92838771Y-51467229D02*
X92838771Y-60889435D01*
X94170000Y-48470000D02*
X94170000Y-50136000D01*
X94170000Y-50136000D02*
X92838771Y-51467229D01*
X92752000Y-71203000D02*
X93804400Y-71203000D01*
X93804400Y-71203000D02*
X94112789Y-70894611D01*
X94112789Y-61714373D02*
X93677000Y-61278584D01*
X94112789Y-70894611D02*
X94112789Y-61714373D01*
%TO.N,/PA2*%
X93296986Y-62389877D02*
X93579828Y-62389877D01*
X92279950Y-51010050D02*
X92279950Y-61372841D01*
X92279950Y-61372841D02*
X93296986Y-62389877D01*
X93170000Y-48470000D02*
X93170000Y-50120000D01*
X93170000Y-50120000D02*
X92279950Y-51010050D01*
%TO.N,/PA3*%
X93427681Y-61873491D02*
X93685120Y-61873491D01*
X92559361Y-61005171D02*
X93427681Y-61873491D01*
X93670000Y-50128000D02*
X92559361Y-51238639D01*
X93670000Y-48470000D02*
X93670000Y-50128000D01*
X92559361Y-51238639D02*
X92559361Y-61005171D01*
%TO.N,/HPL*%
X106170000Y-48470000D02*
X106170000Y-50676000D01*
X108790000Y-53296000D02*
X108790000Y-60563842D01*
X106170000Y-50676000D02*
X108790000Y-53296000D01*
X106523842Y-62830000D02*
X106114000Y-62830000D01*
X108790000Y-60563842D02*
X106523842Y-62830000D01*
%TO.N,/FLASH_CLK*%
X94208967Y-51621033D02*
X94208967Y-60030004D01*
X95670000Y-48470000D02*
X95670000Y-50160000D01*
X95670000Y-50160000D02*
X94208967Y-51621033D01*
X90756000Y-69298000D02*
X90756000Y-62757500D01*
X92752000Y-69933000D02*
X91391000Y-69933000D01*
X91391000Y-69933000D02*
X90756000Y-69298000D01*
%TO.N,/PF0*%
X98670000Y-57574000D02*
X98376000Y-57868000D01*
X98376000Y-57868000D02*
X96344000Y-59900000D01*
X98670000Y-48470000D02*
X98670000Y-57574000D01*
%TO.N,/TV_OUT*%
X98271201Y-62891333D02*
X98238160Y-62924374D01*
X105030818Y-59806744D02*
X103616740Y-61220822D01*
X98271201Y-62005819D02*
X98271201Y-62891333D01*
X100170000Y-49473708D02*
X105030819Y-54334527D01*
X105030819Y-54334527D02*
X105030818Y-59806744D01*
X100170000Y-48470000D02*
X100170000Y-49473708D01*
X103616740Y-61220822D02*
X99056198Y-61220822D01*
X99056198Y-61220822D02*
X98271201Y-62005819D01*
%TO.N,/PF1*%
X96471000Y-59265000D02*
X96344000Y-59265000D01*
X98170000Y-48470000D02*
X98185500Y-48485500D01*
X98185500Y-48485500D02*
X98185500Y-49867000D01*
X98185500Y-49867000D02*
X98390590Y-50072090D01*
X98390590Y-50072090D02*
X98390590Y-57345410D01*
X98390590Y-57345410D02*
X96471000Y-59265000D01*
D23*
%TO.N,/TV_IN1*%
X99836500Y-62226500D02*
X99877000Y-62186000D01*
X99836500Y-62630500D02*
X99836500Y-62226500D01*
D24*
%TO.N,/PF2*%
X98071230Y-57010757D02*
X98071230Y-50324230D01*
X98071230Y-50324230D02*
X97670000Y-49923000D01*
X97670000Y-49923000D02*
X97670000Y-48470000D01*
X96344000Y-58737987D02*
X98071230Y-57010757D01*
D23*
%TO.N,/TV_IN0*%
X100916000Y-62186000D02*
X101447000Y-62186000D01*
X100535000Y-62567000D02*
X100916000Y-62186000D01*
D24*
%TO.N,/PF3*%
X97170000Y-48470000D02*
X97170000Y-50474208D01*
X97791821Y-56678268D02*
X96344821Y-58125268D01*
X97791821Y-51096031D02*
X97791821Y-56678268D01*
X97170000Y-50474208D02*
X97791821Y-51096031D01*
%TO.N,/LRADC*%
X105589641Y-54103057D02*
X105589641Y-60038213D01*
X101170000Y-49683416D02*
X105589641Y-54103057D01*
X102821036Y-62806818D02*
X102821036Y-62821000D01*
X101170000Y-48470000D02*
X101170000Y-49683416D01*
X105589641Y-60038213D02*
X102821036Y-62806818D01*
%TO.N,/PF4*%
X97512411Y-56318589D02*
X96344000Y-57487000D01*
X97512411Y-51211765D02*
X97512411Y-56318589D01*
X96670000Y-50369354D02*
X97512411Y-51211765D01*
X96670000Y-48470000D02*
X96670000Y-50369354D01*
%TO.N,/PF5*%
X97233000Y-55709000D02*
X96090000Y-56852000D01*
X97233000Y-51327500D02*
X97233000Y-55709000D01*
X96217000Y-50311500D02*
X97233000Y-51327500D01*
X96217000Y-48517000D02*
X96217000Y-50311500D01*
X96170000Y-48470000D02*
X96217000Y-48517000D01*
%TO.N,/MICIN*%
X103710000Y-62948000D02*
X103710000Y-62313000D01*
X101670000Y-49788270D02*
X101670000Y-48470000D01*
X103710000Y-62313000D02*
X105869052Y-60153948D01*
X105869052Y-60153948D02*
X105869052Y-53987322D01*
X105869052Y-53987322D02*
X101670000Y-49788270D01*
%TO.N,/HPR*%
X106148463Y-62072632D02*
X104491104Y-63729991D01*
X106148463Y-53871587D02*
X106148463Y-62072632D01*
X102170000Y-48470000D02*
X102170000Y-49893124D01*
X102170000Y-49893124D02*
X106148463Y-53871587D01*
%TO.N,/TV_IN*%
X105310230Y-54218792D02*
X100670000Y-49578562D01*
X103681708Y-61551000D02*
X105310230Y-59922478D01*
X100670000Y-49578562D02*
X100670000Y-48470000D01*
X105310230Y-59922478D02*
X105310230Y-54218792D01*
X99519000Y-61551000D02*
X101678000Y-61551000D01*
X98884000Y-62186000D02*
X99519000Y-61551000D01*
X102417000Y-62186000D02*
X102417000Y-61574000D01*
X102417000Y-61574000D02*
X102440000Y-61551000D01*
X101678000Y-61551000D02*
X102440000Y-61551000D01*
X102440000Y-61551000D02*
X103681708Y-61551000D01*
%TD*%
D25*
%TO.N,GND*%
G36*
X99188800Y-67215525D02*
G01*
X99188801Y-68386941D01*
X99186589Y-68409400D01*
X99188801Y-68431860D01*
X99195416Y-68499027D01*
X99210272Y-68548000D01*
X99221560Y-68585209D01*
X99263140Y-68663000D01*
X99264014Y-68664636D01*
X99321148Y-68734253D01*
X99338592Y-68748569D01*
X99560430Y-68970408D01*
X99574747Y-68987853D01*
X99644364Y-69044987D01*
X99654733Y-69050529D01*
X99673860Y-69060753D01*
X99676513Y-69087689D01*
X99698299Y-69159508D01*
X99733678Y-69225696D01*
X99781289Y-69283711D01*
X99798700Y-69298000D01*
X99781289Y-69312289D01*
X99733678Y-69370304D01*
X99698299Y-69436492D01*
X99676513Y-69508311D01*
X99669157Y-69583000D01*
X99669157Y-70283000D01*
X99676513Y-70357689D01*
X99698299Y-70429508D01*
X99733678Y-70495696D01*
X99781289Y-70553711D01*
X99839304Y-70601322D01*
X99905492Y-70636701D01*
X99977311Y-70658487D01*
X100052000Y-70665843D01*
X101852000Y-70665843D01*
X101926689Y-70658487D01*
X101998508Y-70636701D01*
X102064696Y-70601322D01*
X102110174Y-70564000D01*
X103135028Y-70564000D01*
X103180035Y-70577653D01*
X103283500Y-70587843D01*
X103628500Y-70587843D01*
X103731965Y-70577653D01*
X103776972Y-70564000D01*
X104998612Y-70564000D01*
X105029602Y-70567052D01*
X105060592Y-70564000D01*
X105060600Y-70564000D01*
X105153300Y-70554870D01*
X105272244Y-70518789D01*
X105381863Y-70460196D01*
X105477945Y-70381343D01*
X105497707Y-70357263D01*
X105789714Y-70065256D01*
X105798804Y-70082261D01*
X105877657Y-70178343D01*
X105973739Y-70257196D01*
X106083358Y-70315789D01*
X106135459Y-70331594D01*
X106259393Y-70482607D01*
X106431610Y-70623942D01*
X106628091Y-70728963D01*
X106841285Y-70793635D01*
X107007442Y-70810000D01*
X108472525Y-70810000D01*
X106797525Y-72485000D01*
X106575442Y-72485000D01*
X106409285Y-72501365D01*
X106196091Y-72566037D01*
X105999610Y-72671058D01*
X105827393Y-72812393D01*
X105686058Y-72984610D01*
X105581037Y-73181091D01*
X105516365Y-73394285D01*
X105494528Y-73616000D01*
X105516365Y-73837715D01*
X105581037Y-74050909D01*
X105686058Y-74247390D01*
X105827393Y-74419607D01*
X105999610Y-74560942D01*
X106196091Y-74665963D01*
X106409285Y-74730635D01*
X106575442Y-74747000D01*
X107210450Y-74747000D01*
X107266000Y-74752471D01*
X107321550Y-74747000D01*
X107321558Y-74747000D01*
X107487715Y-74730635D01*
X107700909Y-74665963D01*
X107897390Y-74560942D01*
X108069607Y-74419607D01*
X108105025Y-74376450D01*
X111455450Y-71026025D01*
X111498607Y-70990607D01*
X111639942Y-70818390D01*
X111744963Y-70621908D01*
X111764001Y-70559149D01*
X111764001Y-77064000D01*
X110357368Y-77064000D01*
X111305263Y-76116105D01*
X111329343Y-76096343D01*
X111408196Y-76000261D01*
X111466789Y-75890642D01*
X111502870Y-75771698D01*
X111515053Y-75648000D01*
X111502870Y-75524302D01*
X111466789Y-75405358D01*
X111408196Y-75295739D01*
X111329343Y-75199657D01*
X111233261Y-75120804D01*
X111123642Y-75062211D01*
X111004698Y-75026130D01*
X110992094Y-75024889D01*
X110918453Y-74985527D01*
X110818965Y-74955347D01*
X110715500Y-74945157D01*
X110420500Y-74945157D01*
X110317035Y-74955347D01*
X110217547Y-74985527D01*
X110125857Y-75034536D01*
X110045491Y-75100491D01*
X109979536Y-75180857D01*
X109930527Y-75272547D01*
X109900347Y-75372035D01*
X109890157Y-75475500D01*
X109890157Y-75746475D01*
X109457612Y-76179020D01*
X106720184Y-76179020D01*
X106670509Y-76118491D01*
X106590143Y-76052536D01*
X106498453Y-76003527D01*
X106398965Y-75973347D01*
X106295500Y-75963157D01*
X105950500Y-75963157D01*
X105847035Y-75973347D01*
X105747547Y-76003527D01*
X105655857Y-76052536D01*
X105575491Y-76118491D01*
X105525816Y-76179020D01*
X105071787Y-76179020D01*
X102592503Y-73699737D01*
X102572741Y-73675657D01*
X102476659Y-73596804D01*
X102367040Y-73538211D01*
X102248096Y-73502130D01*
X102155396Y-73493000D01*
X102155388Y-73493000D01*
X102124398Y-73489948D01*
X102093408Y-73493000D01*
X97260767Y-73493000D01*
X95948609Y-72180843D01*
X98352000Y-72180843D01*
X98426689Y-72173487D01*
X98498508Y-72151701D01*
X98564696Y-72116322D01*
X98622711Y-72068711D01*
X98670322Y-72010696D01*
X98705701Y-71944508D01*
X98727487Y-71872689D01*
X98734843Y-71798000D01*
X98734843Y-66798000D01*
X98730863Y-66757587D01*
X99188800Y-67215525D01*
G37*
X99188800Y-67215525D02*
X99188801Y-68386941D01*
X99186589Y-68409400D01*
X99188801Y-68431860D01*
X99195416Y-68499027D01*
X99210272Y-68548000D01*
X99221560Y-68585209D01*
X99263140Y-68663000D01*
X99264014Y-68664636D01*
X99321148Y-68734253D01*
X99338592Y-68748569D01*
X99560430Y-68970408D01*
X99574747Y-68987853D01*
X99644364Y-69044987D01*
X99654733Y-69050529D01*
X99673860Y-69060753D01*
X99676513Y-69087689D01*
X99698299Y-69159508D01*
X99733678Y-69225696D01*
X99781289Y-69283711D01*
X99798700Y-69298000D01*
X99781289Y-69312289D01*
X99733678Y-69370304D01*
X99698299Y-69436492D01*
X99676513Y-69508311D01*
X99669157Y-69583000D01*
X99669157Y-70283000D01*
X99676513Y-70357689D01*
X99698299Y-70429508D01*
X99733678Y-70495696D01*
X99781289Y-70553711D01*
X99839304Y-70601322D01*
X99905492Y-70636701D01*
X99977311Y-70658487D01*
X100052000Y-70665843D01*
X101852000Y-70665843D01*
X101926689Y-70658487D01*
X101998508Y-70636701D01*
X102064696Y-70601322D01*
X102110174Y-70564000D01*
X103135028Y-70564000D01*
X103180035Y-70577653D01*
X103283500Y-70587843D01*
X103628500Y-70587843D01*
X103731965Y-70577653D01*
X103776972Y-70564000D01*
X104998612Y-70564000D01*
X105029602Y-70567052D01*
X105060592Y-70564000D01*
X105060600Y-70564000D01*
X105153300Y-70554870D01*
X105272244Y-70518789D01*
X105381863Y-70460196D01*
X105477945Y-70381343D01*
X105497707Y-70357263D01*
X105789714Y-70065256D01*
X105798804Y-70082261D01*
X105877657Y-70178343D01*
X105973739Y-70257196D01*
X106083358Y-70315789D01*
X106135459Y-70331594D01*
X106259393Y-70482607D01*
X106431610Y-70623942D01*
X106628091Y-70728963D01*
X106841285Y-70793635D01*
X107007442Y-70810000D01*
X108472525Y-70810000D01*
X106797525Y-72485000D01*
X106575442Y-72485000D01*
X106409285Y-72501365D01*
X106196091Y-72566037D01*
X105999610Y-72671058D01*
X105827393Y-72812393D01*
X105686058Y-72984610D01*
X105581037Y-73181091D01*
X105516365Y-73394285D01*
X105494528Y-73616000D01*
X105516365Y-73837715D01*
X105581037Y-74050909D01*
X105686058Y-74247390D01*
X105827393Y-74419607D01*
X105999610Y-74560942D01*
X106196091Y-74665963D01*
X106409285Y-74730635D01*
X106575442Y-74747000D01*
X107210450Y-74747000D01*
X107266000Y-74752471D01*
X107321550Y-74747000D01*
X107321558Y-74747000D01*
X107487715Y-74730635D01*
X107700909Y-74665963D01*
X107897390Y-74560942D01*
X108069607Y-74419607D01*
X108105025Y-74376450D01*
X111455450Y-71026025D01*
X111498607Y-70990607D01*
X111639942Y-70818390D01*
X111744963Y-70621908D01*
X111764001Y-70559149D01*
X111764001Y-77064000D01*
X110357368Y-77064000D01*
X111305263Y-76116105D01*
X111329343Y-76096343D01*
X111408196Y-76000261D01*
X111466789Y-75890642D01*
X111502870Y-75771698D01*
X111515053Y-75648000D01*
X111502870Y-75524302D01*
X111466789Y-75405358D01*
X111408196Y-75295739D01*
X111329343Y-75199657D01*
X111233261Y-75120804D01*
X111123642Y-75062211D01*
X111004698Y-75026130D01*
X110992094Y-75024889D01*
X110918453Y-74985527D01*
X110818965Y-74955347D01*
X110715500Y-74945157D01*
X110420500Y-74945157D01*
X110317035Y-74955347D01*
X110217547Y-74985527D01*
X110125857Y-75034536D01*
X110045491Y-75100491D01*
X109979536Y-75180857D01*
X109930527Y-75272547D01*
X109900347Y-75372035D01*
X109890157Y-75475500D01*
X109890157Y-75746475D01*
X109457612Y-76179020D01*
X106720184Y-76179020D01*
X106670509Y-76118491D01*
X106590143Y-76052536D01*
X106498453Y-76003527D01*
X106398965Y-75973347D01*
X106295500Y-75963157D01*
X105950500Y-75963157D01*
X105847035Y-75973347D01*
X105747547Y-76003527D01*
X105655857Y-76052536D01*
X105575491Y-76118491D01*
X105525816Y-76179020D01*
X105071787Y-76179020D01*
X102592503Y-73699737D01*
X102572741Y-73675657D01*
X102476659Y-73596804D01*
X102367040Y-73538211D01*
X102248096Y-73502130D01*
X102155396Y-73493000D01*
X102155388Y-73493000D01*
X102124398Y-73489948D01*
X102093408Y-73493000D01*
X97260767Y-73493000D01*
X95948609Y-72180843D01*
X98352000Y-72180843D01*
X98426689Y-72173487D01*
X98498508Y-72151701D01*
X98564696Y-72116322D01*
X98622711Y-72068711D01*
X98670322Y-72010696D01*
X98705701Y-71944508D01*
X98727487Y-71872689D01*
X98734843Y-71798000D01*
X98734843Y-66798000D01*
X98730863Y-66757587D01*
X99188800Y-67215525D01*
G36*
X91051834Y-70240413D02*
G01*
X91066147Y-70257853D01*
X91083586Y-70272165D01*
X91083592Y-70272171D01*
X91135764Y-70314987D01*
X91215190Y-70357441D01*
X91226923Y-70361000D01*
X91301373Y-70383585D01*
X91368540Y-70390200D01*
X91368550Y-70390200D01*
X91391000Y-70392411D01*
X91413450Y-70390200D01*
X91486375Y-70390200D01*
X91498299Y-70429508D01*
X91533678Y-70495696D01*
X91581289Y-70553711D01*
X91598700Y-70568000D01*
X91581289Y-70582289D01*
X91533678Y-70640304D01*
X91498299Y-70706492D01*
X91476513Y-70778311D01*
X91469157Y-70853000D01*
X91469157Y-71553000D01*
X91476513Y-71627689D01*
X91498299Y-71699508D01*
X91533678Y-71765696D01*
X91581289Y-71823711D01*
X91639304Y-71871322D01*
X91705492Y-71906701D01*
X91777311Y-71928487D01*
X91852000Y-71935843D01*
X93652000Y-71935843D01*
X93726689Y-71928487D01*
X93798508Y-71906701D01*
X93864696Y-71871322D01*
X93922711Y-71823711D01*
X93942657Y-71799406D01*
X93944123Y-71814292D01*
X93980204Y-71933236D01*
X94038797Y-72042855D01*
X94097890Y-72114860D01*
X94097893Y-72114863D01*
X94117651Y-72138938D01*
X94141726Y-72158696D01*
X96531297Y-74548268D01*
X96551055Y-74572343D01*
X96647137Y-74651196D01*
X96756756Y-74709789D01*
X96875700Y-74745870D01*
X96968400Y-74755000D01*
X96968409Y-74755000D01*
X96999397Y-74758052D01*
X97030385Y-74755000D01*
X101863030Y-74755000D01*
X104172029Y-77064000D01*
X103775461Y-77064000D01*
X102264398Y-75385041D01*
X102240557Y-75364403D01*
X102218601Y-75352667D01*
X102194776Y-75345440D01*
X102170000Y-75343000D01*
X100170000Y-75343000D01*
X100138711Y-75346915D01*
X100115300Y-75355384D01*
X100093990Y-75368258D01*
X100075602Y-75385041D01*
X98564539Y-77064000D01*
X93866445Y-77064000D01*
X93920859Y-77027642D01*
X94029642Y-76918859D01*
X94115113Y-76790942D01*
X94173987Y-76648809D01*
X94204000Y-76497922D01*
X94204000Y-76344078D01*
X94173987Y-76193191D01*
X94115113Y-76051058D01*
X94029642Y-75923141D01*
X93920859Y-75814358D01*
X93792942Y-75728887D01*
X93650809Y-75670013D01*
X93499922Y-75640000D01*
X93346078Y-75640000D01*
X93195191Y-75670013D01*
X93053058Y-75728887D01*
X92925141Y-75814358D01*
X92816358Y-75923141D01*
X92730887Y-76051058D01*
X92672013Y-76193191D01*
X92642000Y-76344078D01*
X92642000Y-76497922D01*
X92672013Y-76648809D01*
X92730887Y-76790942D01*
X92816358Y-76918859D01*
X92925141Y-77027642D01*
X92979555Y-77064000D01*
X90576000Y-77064000D01*
X90576000Y-74544078D01*
X92642000Y-74544078D01*
X92642000Y-74697922D01*
X92672013Y-74848809D01*
X92730887Y-74990942D01*
X92816358Y-75118859D01*
X92925141Y-75227642D01*
X93053058Y-75313113D01*
X93195191Y-75371987D01*
X93346078Y-75402000D01*
X93499922Y-75402000D01*
X93650809Y-75371987D01*
X93792942Y-75313113D01*
X93920859Y-75227642D01*
X94029642Y-75118859D01*
X94115113Y-74990942D01*
X94173987Y-74848809D01*
X94204000Y-74697922D01*
X94204000Y-74544078D01*
X94173987Y-74393191D01*
X94115113Y-74251058D01*
X94029642Y-74123141D01*
X93920859Y-74014358D01*
X93792942Y-73928887D01*
X93650809Y-73870013D01*
X93499922Y-73840000D01*
X93346078Y-73840000D01*
X93195191Y-73870013D01*
X93053058Y-73928887D01*
X92925141Y-74014358D01*
X92816358Y-74123141D01*
X92730887Y-74251058D01*
X92672013Y-74393191D01*
X92642000Y-74544078D01*
X90576000Y-74544078D01*
X90576000Y-69764577D01*
X91051834Y-70240413D01*
G37*
X91051834Y-70240413D02*
X91066147Y-70257853D01*
X91083586Y-70272165D01*
X91083592Y-70272171D01*
X91135764Y-70314987D01*
X91215190Y-70357441D01*
X91226923Y-70361000D01*
X91301373Y-70383585D01*
X91368540Y-70390200D01*
X91368550Y-70390200D01*
X91391000Y-70392411D01*
X91413450Y-70390200D01*
X91486375Y-70390200D01*
X91498299Y-70429508D01*
X91533678Y-70495696D01*
X91581289Y-70553711D01*
X91598700Y-70568000D01*
X91581289Y-70582289D01*
X91533678Y-70640304D01*
X91498299Y-70706492D01*
X91476513Y-70778311D01*
X91469157Y-70853000D01*
X91469157Y-71553000D01*
X91476513Y-71627689D01*
X91498299Y-71699508D01*
X91533678Y-71765696D01*
X91581289Y-71823711D01*
X91639304Y-71871322D01*
X91705492Y-71906701D01*
X91777311Y-71928487D01*
X91852000Y-71935843D01*
X93652000Y-71935843D01*
X93726689Y-71928487D01*
X93798508Y-71906701D01*
X93864696Y-71871322D01*
X93922711Y-71823711D01*
X93942657Y-71799406D01*
X93944123Y-71814292D01*
X93980204Y-71933236D01*
X94038797Y-72042855D01*
X94097890Y-72114860D01*
X94097893Y-72114863D01*
X94117651Y-72138938D01*
X94141726Y-72158696D01*
X96531297Y-74548268D01*
X96551055Y-74572343D01*
X96647137Y-74651196D01*
X96756756Y-74709789D01*
X96875700Y-74745870D01*
X96968400Y-74755000D01*
X96968409Y-74755000D01*
X96999397Y-74758052D01*
X97030385Y-74755000D01*
X101863030Y-74755000D01*
X104172029Y-77064000D01*
X103775461Y-77064000D01*
X102264398Y-75385041D01*
X102240557Y-75364403D01*
X102218601Y-75352667D01*
X102194776Y-75345440D01*
X102170000Y-75343000D01*
X100170000Y-75343000D01*
X100138711Y-75346915D01*
X100115300Y-75355384D01*
X100093990Y-75368258D01*
X100075602Y-75385041D01*
X98564539Y-77064000D01*
X93866445Y-77064000D01*
X93920859Y-77027642D01*
X94029642Y-76918859D01*
X94115113Y-76790942D01*
X94173987Y-76648809D01*
X94204000Y-76497922D01*
X94204000Y-76344078D01*
X94173987Y-76193191D01*
X94115113Y-76051058D01*
X94029642Y-75923141D01*
X93920859Y-75814358D01*
X93792942Y-75728887D01*
X93650809Y-75670013D01*
X93499922Y-75640000D01*
X93346078Y-75640000D01*
X93195191Y-75670013D01*
X93053058Y-75728887D01*
X92925141Y-75814358D01*
X92816358Y-75923141D01*
X92730887Y-76051058D01*
X92672013Y-76193191D01*
X92642000Y-76344078D01*
X92642000Y-76497922D01*
X92672013Y-76648809D01*
X92730887Y-76790942D01*
X92816358Y-76918859D01*
X92925141Y-77027642D01*
X92979555Y-77064000D01*
X90576000Y-77064000D01*
X90576000Y-74544078D01*
X92642000Y-74544078D01*
X92642000Y-74697922D01*
X92672013Y-74848809D01*
X92730887Y-74990942D01*
X92816358Y-75118859D01*
X92925141Y-75227642D01*
X93053058Y-75313113D01*
X93195191Y-75371987D01*
X93346078Y-75402000D01*
X93499922Y-75402000D01*
X93650809Y-75371987D01*
X93792942Y-75313113D01*
X93920859Y-75227642D01*
X94029642Y-75118859D01*
X94115113Y-74990942D01*
X94173987Y-74848809D01*
X94204000Y-74697922D01*
X94204000Y-74544078D01*
X94173987Y-74393191D01*
X94115113Y-74251058D01*
X94029642Y-74123141D01*
X93920859Y-74014358D01*
X93792942Y-73928887D01*
X93650809Y-73870013D01*
X93499922Y-73840000D01*
X93346078Y-73840000D01*
X93195191Y-73870013D01*
X93053058Y-73928887D01*
X92925141Y-74014358D01*
X92816358Y-74123141D01*
X92730887Y-74251058D01*
X92672013Y-74393191D01*
X92642000Y-74544078D01*
X90576000Y-74544078D01*
X90576000Y-69764577D01*
X91051834Y-70240413D01*
G36*
X91263932Y-61887513D02*
G01*
X91261720Y-61909973D01*
X91263932Y-61932433D01*
X91270547Y-61999600D01*
X91295686Y-62082469D01*
X91296691Y-62085782D01*
X91339144Y-62165208D01*
X91374641Y-62208460D01*
X91396279Y-62234826D01*
X91413724Y-62249143D01*
X92059440Y-62894859D01*
X92047029Y-62897328D01*
X91941293Y-62941125D01*
X91846134Y-63004708D01*
X91765208Y-63085634D01*
X91701625Y-63180793D01*
X91657828Y-63286529D01*
X91635500Y-63398777D01*
X91635500Y-63513223D01*
X91657828Y-63625471D01*
X91701625Y-63731207D01*
X91765208Y-63826366D01*
X91846134Y-63907292D01*
X91941293Y-63970875D01*
X92047029Y-64014672D01*
X92159277Y-64037000D01*
X92273723Y-64037000D01*
X92385971Y-64014672D01*
X92491707Y-63970875D01*
X92542405Y-63937000D01*
X93224095Y-63937000D01*
X93274793Y-63970875D01*
X93380529Y-64014672D01*
X93492777Y-64037000D01*
X93607223Y-64037000D01*
X93655590Y-64027379D01*
X93655589Y-66660511D01*
X93652000Y-66660157D01*
X91852000Y-66660157D01*
X91777311Y-66667513D01*
X91705492Y-66689299D01*
X91639304Y-66724678D01*
X91581289Y-66772289D01*
X91533678Y-66830304D01*
X91498299Y-66896492D01*
X91476513Y-66968311D01*
X91469157Y-67043000D01*
X91469157Y-67743000D01*
X91476513Y-67817689D01*
X91498299Y-67889508D01*
X91533678Y-67955696D01*
X91581289Y-68013711D01*
X91598700Y-68028000D01*
X91581289Y-68042289D01*
X91533678Y-68100304D01*
X91498299Y-68166492D01*
X91476513Y-68238311D01*
X91469157Y-68313000D01*
X91469157Y-69013000D01*
X91476513Y-69087689D01*
X91498299Y-69159508D01*
X91533678Y-69225696D01*
X91581289Y-69283711D01*
X91598700Y-69298000D01*
X91581289Y-69312289D01*
X91533678Y-69370304D01*
X91513198Y-69408619D01*
X91213200Y-69108623D01*
X91213200Y-63119024D01*
X91270875Y-63032707D01*
X91314672Y-62926971D01*
X91337000Y-62814723D01*
X91337000Y-62700277D01*
X91314672Y-62588029D01*
X91270875Y-62482293D01*
X91207292Y-62387134D01*
X91126366Y-62306208D01*
X91031207Y-62242625D01*
X90925471Y-62198828D01*
X90813223Y-62176500D01*
X90698777Y-62176500D01*
X90586529Y-62198828D01*
X90576000Y-62203189D01*
X90576000Y-51876000D01*
X90939941Y-51876000D01*
X90957244Y-51874296D01*
X90960287Y-51874317D01*
X90965929Y-51873764D01*
X91062977Y-51863564D01*
X91099043Y-51856161D01*
X91135169Y-51849269D01*
X91140596Y-51847631D01*
X91233815Y-51818775D01*
X91263931Y-51806116D01*
X91263932Y-61887513D01*
G37*
X91263932Y-61887513D02*
X91261720Y-61909973D01*
X91263932Y-61932433D01*
X91270547Y-61999600D01*
X91295686Y-62082469D01*
X91296691Y-62085782D01*
X91339144Y-62165208D01*
X91374641Y-62208460D01*
X91396279Y-62234826D01*
X91413724Y-62249143D01*
X92059440Y-62894859D01*
X92047029Y-62897328D01*
X91941293Y-62941125D01*
X91846134Y-63004708D01*
X91765208Y-63085634D01*
X91701625Y-63180793D01*
X91657828Y-63286529D01*
X91635500Y-63398777D01*
X91635500Y-63513223D01*
X91657828Y-63625471D01*
X91701625Y-63731207D01*
X91765208Y-63826366D01*
X91846134Y-63907292D01*
X91941293Y-63970875D01*
X92047029Y-64014672D01*
X92159277Y-64037000D01*
X92273723Y-64037000D01*
X92385971Y-64014672D01*
X92491707Y-63970875D01*
X92542405Y-63937000D01*
X93224095Y-63937000D01*
X93274793Y-63970875D01*
X93380529Y-64014672D01*
X93492777Y-64037000D01*
X93607223Y-64037000D01*
X93655590Y-64027379D01*
X93655589Y-66660511D01*
X93652000Y-66660157D01*
X91852000Y-66660157D01*
X91777311Y-66667513D01*
X91705492Y-66689299D01*
X91639304Y-66724678D01*
X91581289Y-66772289D01*
X91533678Y-66830304D01*
X91498299Y-66896492D01*
X91476513Y-66968311D01*
X91469157Y-67043000D01*
X91469157Y-67743000D01*
X91476513Y-67817689D01*
X91498299Y-67889508D01*
X91533678Y-67955696D01*
X91581289Y-68013711D01*
X91598700Y-68028000D01*
X91581289Y-68042289D01*
X91533678Y-68100304D01*
X91498299Y-68166492D01*
X91476513Y-68238311D01*
X91469157Y-68313000D01*
X91469157Y-69013000D01*
X91476513Y-69087689D01*
X91498299Y-69159508D01*
X91533678Y-69225696D01*
X91581289Y-69283711D01*
X91598700Y-69298000D01*
X91581289Y-69312289D01*
X91533678Y-69370304D01*
X91513198Y-69408619D01*
X91213200Y-69108623D01*
X91213200Y-63119024D01*
X91270875Y-63032707D01*
X91314672Y-62926971D01*
X91337000Y-62814723D01*
X91337000Y-62700277D01*
X91314672Y-62588029D01*
X91270875Y-62482293D01*
X91207292Y-62387134D01*
X91126366Y-62306208D01*
X91031207Y-62242625D01*
X90925471Y-62198828D01*
X90813223Y-62176500D01*
X90698777Y-62176500D01*
X90586529Y-62198828D01*
X90576000Y-62203189D01*
X90576000Y-51876000D01*
X90939941Y-51876000D01*
X90957244Y-51874296D01*
X90960287Y-51874317D01*
X90965929Y-51873764D01*
X91062977Y-51863564D01*
X91099043Y-51856161D01*
X91135169Y-51849269D01*
X91140596Y-51847631D01*
X91233815Y-51818775D01*
X91263931Y-51806116D01*
X91263932Y-61887513D01*
G36*
X95905347Y-55181035D02*
G01*
X95895157Y-55284500D01*
X95895157Y-55344737D01*
X95885497Y-55393300D01*
X95885497Y-55507746D01*
X95895157Y-55556309D01*
X95895157Y-55579500D01*
X95905347Y-55682965D01*
X95935527Y-55782453D01*
X95984536Y-55874143D01*
X96050491Y-55954509D01*
X96130857Y-56020464D01*
X96222547Y-56069473D01*
X96225158Y-56070265D01*
X96022348Y-56273074D01*
X95920529Y-56293328D01*
X95814793Y-56337125D01*
X95719634Y-56400708D01*
X95638708Y-56481634D01*
X95575125Y-56576793D01*
X95531328Y-56682529D01*
X95509000Y-56794777D01*
X95509000Y-56909223D01*
X95531328Y-57021471D01*
X95575125Y-57127207D01*
X95638708Y-57222366D01*
X95719634Y-57303292D01*
X95780121Y-57343708D01*
X95763000Y-57429777D01*
X95763000Y-57544223D01*
X95785328Y-57656471D01*
X95829125Y-57762207D01*
X95858886Y-57806748D01*
X95829946Y-57850061D01*
X95786149Y-57955797D01*
X95763821Y-58068045D01*
X95763821Y-58182491D01*
X95786149Y-58294739D01*
X95829946Y-58400475D01*
X95850351Y-58431013D01*
X95829125Y-58462780D01*
X95785328Y-58568516D01*
X95763000Y-58680764D01*
X95763000Y-58795210D01*
X95785328Y-58907458D01*
X95824279Y-59001493D01*
X95785328Y-59095529D01*
X95763000Y-59207777D01*
X95763000Y-59322223D01*
X95785328Y-59434471D01*
X95829125Y-59540207D01*
X95857384Y-59582500D01*
X95829125Y-59624793D01*
X95785328Y-59730529D01*
X95763000Y-59842777D01*
X95763000Y-59957223D01*
X95785328Y-60069471D01*
X95829125Y-60175207D01*
X95892708Y-60270366D01*
X95973634Y-60351292D01*
X96068793Y-60414875D01*
X96174529Y-60458672D01*
X96286777Y-60481000D01*
X96401223Y-60481000D01*
X96513471Y-60458672D01*
X96619207Y-60414875D01*
X96714366Y-60351292D01*
X96795292Y-60270366D01*
X96858875Y-60175207D01*
X96902672Y-60069471D01*
X96922926Y-59967652D01*
X97810254Y-59080324D01*
X99331336Y-59080324D01*
X99335406Y-59104886D01*
X99344190Y-59128181D01*
X99357350Y-59149315D01*
X99374380Y-59167476D01*
X99394626Y-59181965D01*
X99417309Y-59192226D01*
X99441559Y-59197865D01*
X99466442Y-59198664D01*
X99491004Y-59194594D01*
X101182882Y-58740153D01*
X101197384Y-58735304D01*
X101219455Y-58723784D01*
X101238854Y-58708179D01*
X101254836Y-58689090D01*
X101266787Y-58667250D01*
X101274248Y-58643497D01*
X101276931Y-58618746D01*
X101278568Y-58451918D01*
X101286741Y-58299077D01*
X101301357Y-58157941D01*
X101322263Y-58028557D01*
X101349230Y-57911084D01*
X101381987Y-57805536D01*
X101420169Y-57711929D01*
X101463396Y-57630070D01*
X101511306Y-57559586D01*
X101569253Y-57493522D01*
X101579373Y-57480334D01*
X101591109Y-57458378D01*
X101598336Y-57434553D01*
X101600776Y-57409777D01*
X101598336Y-57385001D01*
X101591109Y-57361176D01*
X101579373Y-57339220D01*
X101563579Y-57319974D01*
X101210026Y-56966421D01*
X101197526Y-56955460D01*
X101176382Y-56942316D01*
X101153081Y-56933548D01*
X101128517Y-56929495D01*
X101103634Y-56930312D01*
X101079388Y-56935968D01*
X101056712Y-56946245D01*
X101036477Y-56960749D01*
X100970420Y-57018691D01*
X100899931Y-57066605D01*
X100818072Y-57109832D01*
X100724465Y-57148014D01*
X100618917Y-57180771D01*
X100501444Y-57207738D01*
X100372060Y-57228644D01*
X100230924Y-57243260D01*
X100078083Y-57251433D01*
X99911255Y-57253069D01*
X99896000Y-57254139D01*
X99871750Y-57259778D01*
X99849067Y-57270039D01*
X99828821Y-57284528D01*
X99811791Y-57302689D01*
X99798631Y-57323823D01*
X99789847Y-57347118D01*
X99335406Y-59038996D01*
X99332135Y-59055441D01*
X99331336Y-59080324D01*
X97810254Y-59080324D01*
X98715170Y-58175408D01*
X98715175Y-58175402D01*
X98977403Y-57913174D01*
X98994853Y-57898853D01*
X99051987Y-57829236D01*
X99094441Y-57749809D01*
X99120585Y-57663627D01*
X99127200Y-57596460D01*
X99127200Y-57596450D01*
X99129411Y-57574000D01*
X99127200Y-57551550D01*
X99127200Y-55393843D01*
X99437500Y-55393843D01*
X99540965Y-55383653D01*
X99632194Y-55355979D01*
X99618527Y-55381547D01*
X99588347Y-55481035D01*
X99578157Y-55584500D01*
X99578157Y-55879500D01*
X99588347Y-55982965D01*
X99618527Y-56082453D01*
X99667536Y-56174143D01*
X99733491Y-56254509D01*
X99813857Y-56320464D01*
X99905547Y-56369473D01*
X100005035Y-56399653D01*
X100108500Y-56409843D01*
X100453500Y-56409843D01*
X100556965Y-56399653D01*
X100656453Y-56369473D01*
X100748143Y-56320464D01*
X100789000Y-56286933D01*
X100829857Y-56320464D01*
X100921547Y-56369473D01*
X101021035Y-56399653D01*
X101124500Y-56409843D01*
X101469500Y-56409843D01*
X101572965Y-56399653D01*
X101672453Y-56369473D01*
X101764143Y-56320464D01*
X101844509Y-56254509D01*
X101910464Y-56174143D01*
X101959473Y-56082453D01*
X101989653Y-55982965D01*
X101999843Y-55879500D01*
X101999843Y-55584500D01*
X101989653Y-55481035D01*
X101959473Y-55381547D01*
X101945806Y-55355979D01*
X102037035Y-55383653D01*
X102140500Y-55393843D01*
X102485500Y-55393843D01*
X102588965Y-55383653D01*
X102688453Y-55353473D01*
X102780143Y-55304464D01*
X102821000Y-55270933D01*
X102861857Y-55304464D01*
X102953547Y-55353473D01*
X103053035Y-55383653D01*
X103156500Y-55393843D01*
X103255896Y-55393843D01*
X103560000Y-55697948D01*
X103560000Y-56033268D01*
X103556965Y-56032347D01*
X103453500Y-56022157D01*
X103158500Y-56022157D01*
X103055035Y-56032347D01*
X102955547Y-56062527D01*
X102863857Y-56111536D01*
X102783491Y-56177491D01*
X102717536Y-56257857D01*
X102668527Y-56349547D01*
X102638347Y-56449035D01*
X102628157Y-56552500D01*
X102628157Y-56897500D01*
X102638347Y-57000965D01*
X102668527Y-57100453D01*
X102717536Y-57192143D01*
X102783491Y-57272509D01*
X102863857Y-57338464D01*
X102955547Y-57387473D01*
X103055035Y-57417653D01*
X103158500Y-57427843D01*
X103453500Y-57427843D01*
X103556965Y-57417653D01*
X103560001Y-57416732D01*
X103560001Y-57902051D01*
X101684265Y-59777789D01*
X97993285Y-59777789D01*
X97967211Y-59775221D01*
X97941137Y-59777789D01*
X97941127Y-59777789D01*
X97863117Y-59785472D01*
X97763956Y-59815553D01*
X97763023Y-59815836D01*
X97670775Y-59865143D01*
X97610181Y-59914871D01*
X97610175Y-59914877D01*
X97589921Y-59931499D01*
X97573299Y-59951753D01*
X96240975Y-61284079D01*
X96220710Y-61300710D01*
X96154354Y-61381565D01*
X96105047Y-61473813D01*
X96074683Y-61573907D01*
X96067000Y-61651917D01*
X96067000Y-61651926D01*
X96064432Y-61678000D01*
X96067000Y-61704074D01*
X96067000Y-62159926D01*
X96064432Y-62186000D01*
X96067000Y-62212074D01*
X96067000Y-62212084D01*
X96074684Y-62290094D01*
X96080237Y-62308398D01*
X96105047Y-62390187D01*
X96154354Y-62482435D01*
X96195068Y-62532044D01*
X96220711Y-62563290D01*
X96240971Y-62579917D01*
X97474082Y-63813029D01*
X97490710Y-63833290D01*
X97510970Y-63849917D01*
X97571564Y-63899646D01*
X97601059Y-63915411D01*
X97663812Y-63948953D01*
X97763906Y-63979317D01*
X97841916Y-63987000D01*
X97841925Y-63987000D01*
X97867999Y-63989568D01*
X97894073Y-63987000D01*
X100392912Y-63987000D01*
X100387539Y-63993547D01*
X100328946Y-64103166D01*
X100292865Y-64222110D01*
X100280683Y-64345807D01*
X100292865Y-64469504D01*
X100328946Y-64588448D01*
X100387539Y-64698067D01*
X100446632Y-64770072D01*
X100447895Y-64771335D01*
X100467657Y-64795415D01*
X100563739Y-64874268D01*
X100673358Y-64932861D01*
X100792302Y-64968942D01*
X100885002Y-64978072D01*
X100885010Y-64978072D01*
X100916000Y-64981124D01*
X100946990Y-64978072D01*
X101291704Y-64978072D01*
X101859335Y-65545703D01*
X101874536Y-65574143D01*
X101940491Y-65654509D01*
X102020857Y-65720464D01*
X102049297Y-65735665D01*
X103368899Y-67055268D01*
X103388657Y-67079343D01*
X103412732Y-67099101D01*
X103412734Y-67099103D01*
X103435107Y-67117464D01*
X103484739Y-67158196D01*
X103594358Y-67216789D01*
X103713302Y-67252870D01*
X103806002Y-67262000D01*
X103806009Y-67262000D01*
X103837000Y-67265052D01*
X103867990Y-67262000D01*
X104192288Y-67262000D01*
X104200678Y-67277696D01*
X104248289Y-67335711D01*
X104306304Y-67383322D01*
X104372492Y-67418701D01*
X104444311Y-67440487D01*
X104519000Y-67447843D01*
X105319000Y-67447843D01*
X105393689Y-67440487D01*
X105465508Y-67418701D01*
X105531696Y-67383322D01*
X105589711Y-67335711D01*
X105637322Y-67277696D01*
X105672701Y-67211508D01*
X105694487Y-67139689D01*
X105701843Y-67065000D01*
X105701843Y-66248790D01*
X106036157Y-66583104D01*
X106036157Y-67065000D01*
X106043513Y-67139689D01*
X106065299Y-67211508D01*
X106100678Y-67277696D01*
X106148289Y-67335711D01*
X106206304Y-67383322D01*
X106272492Y-67418701D01*
X106344311Y-67440487D01*
X106419000Y-67447843D01*
X106622390Y-67447843D01*
X104768234Y-69302000D01*
X104112301Y-69302000D01*
X104118473Y-69290453D01*
X104148653Y-69190965D01*
X104158843Y-69087500D01*
X104158843Y-68792500D01*
X104148653Y-68689035D01*
X104118473Y-68589547D01*
X104069464Y-68497857D01*
X104003509Y-68417491D01*
X103923143Y-68351536D01*
X103831453Y-68302527D01*
X103731965Y-68272347D01*
X103628500Y-68262157D01*
X103424735Y-68262157D01*
X102248174Y-67085597D01*
X102234843Y-67069353D01*
X102234843Y-67043000D01*
X102227487Y-66968311D01*
X102205701Y-66896492D01*
X102170322Y-66830304D01*
X102122711Y-66772289D01*
X102064696Y-66724678D01*
X101998508Y-66689299D01*
X101926689Y-66667513D01*
X101852000Y-66660157D01*
X100321735Y-66660157D01*
X97699174Y-64037597D01*
X97684853Y-64020147D01*
X97615236Y-63963013D01*
X97535809Y-63920559D01*
X97449627Y-63894415D01*
X97382460Y-63887800D01*
X97382450Y-63887800D01*
X97360000Y-63885589D01*
X97337550Y-63887800D01*
X95686106Y-63887800D01*
X95686106Y-63875671D01*
X95663778Y-63763423D01*
X95636106Y-63696616D01*
X95636106Y-60211179D01*
X95638674Y-60185105D01*
X95636106Y-60159031D01*
X95636106Y-60159022D01*
X95628423Y-60081012D01*
X95598059Y-59980918D01*
X95589367Y-59964657D01*
X95548752Y-59888670D01*
X95499023Y-59828076D01*
X95482396Y-59807816D01*
X95462136Y-59791189D01*
X95097000Y-59426054D01*
X95097000Y-55503909D01*
X95461067Y-55139843D01*
X95754500Y-55139843D01*
X95857965Y-55129653D01*
X95927316Y-55108615D01*
X95905347Y-55181035D01*
G37*
X95905347Y-55181035D02*
X95895157Y-55284500D01*
X95895157Y-55344737D01*
X95885497Y-55393300D01*
X95885497Y-55507746D01*
X95895157Y-55556309D01*
X95895157Y-55579500D01*
X95905347Y-55682965D01*
X95935527Y-55782453D01*
X95984536Y-55874143D01*
X96050491Y-55954509D01*
X96130857Y-56020464D01*
X96222547Y-56069473D01*
X96225158Y-56070265D01*
X96022348Y-56273074D01*
X95920529Y-56293328D01*
X95814793Y-56337125D01*
X95719634Y-56400708D01*
X95638708Y-56481634D01*
X95575125Y-56576793D01*
X95531328Y-56682529D01*
X95509000Y-56794777D01*
X95509000Y-56909223D01*
X95531328Y-57021471D01*
X95575125Y-57127207D01*
X95638708Y-57222366D01*
X95719634Y-57303292D01*
X95780121Y-57343708D01*
X95763000Y-57429777D01*
X95763000Y-57544223D01*
X95785328Y-57656471D01*
X95829125Y-57762207D01*
X95858886Y-57806748D01*
X95829946Y-57850061D01*
X95786149Y-57955797D01*
X95763821Y-58068045D01*
X95763821Y-58182491D01*
X95786149Y-58294739D01*
X95829946Y-58400475D01*
X95850351Y-58431013D01*
X95829125Y-58462780D01*
X95785328Y-58568516D01*
X95763000Y-58680764D01*
X95763000Y-58795210D01*
X95785328Y-58907458D01*
X95824279Y-59001493D01*
X95785328Y-59095529D01*
X95763000Y-59207777D01*
X95763000Y-59322223D01*
X95785328Y-59434471D01*
X95829125Y-59540207D01*
X95857384Y-59582500D01*
X95829125Y-59624793D01*
X95785328Y-59730529D01*
X95763000Y-59842777D01*
X95763000Y-59957223D01*
X95785328Y-60069471D01*
X95829125Y-60175207D01*
X95892708Y-60270366D01*
X95973634Y-60351292D01*
X96068793Y-60414875D01*
X96174529Y-60458672D01*
X96286777Y-60481000D01*
X96401223Y-60481000D01*
X96513471Y-60458672D01*
X96619207Y-60414875D01*
X96714366Y-60351292D01*
X96795292Y-60270366D01*
X96858875Y-60175207D01*
X96902672Y-60069471D01*
X96922926Y-59967652D01*
X97810254Y-59080324D01*
X99331336Y-59080324D01*
X99335406Y-59104886D01*
X99344190Y-59128181D01*
X99357350Y-59149315D01*
X99374380Y-59167476D01*
X99394626Y-59181965D01*
X99417309Y-59192226D01*
X99441559Y-59197865D01*
X99466442Y-59198664D01*
X99491004Y-59194594D01*
X101182882Y-58740153D01*
X101197384Y-58735304D01*
X101219455Y-58723784D01*
X101238854Y-58708179D01*
X101254836Y-58689090D01*
X101266787Y-58667250D01*
X101274248Y-58643497D01*
X101276931Y-58618746D01*
X101278568Y-58451918D01*
X101286741Y-58299077D01*
X101301357Y-58157941D01*
X101322263Y-58028557D01*
X101349230Y-57911084D01*
X101381987Y-57805536D01*
X101420169Y-57711929D01*
X101463396Y-57630070D01*
X101511306Y-57559586D01*
X101569253Y-57493522D01*
X101579373Y-57480334D01*
X101591109Y-57458378D01*
X101598336Y-57434553D01*
X101600776Y-57409777D01*
X101598336Y-57385001D01*
X101591109Y-57361176D01*
X101579373Y-57339220D01*
X101563579Y-57319974D01*
X101210026Y-56966421D01*
X101197526Y-56955460D01*
X101176382Y-56942316D01*
X101153081Y-56933548D01*
X101128517Y-56929495D01*
X101103634Y-56930312D01*
X101079388Y-56935968D01*
X101056712Y-56946245D01*
X101036477Y-56960749D01*
X100970420Y-57018691D01*
X100899931Y-57066605D01*
X100818072Y-57109832D01*
X100724465Y-57148014D01*
X100618917Y-57180771D01*
X100501444Y-57207738D01*
X100372060Y-57228644D01*
X100230924Y-57243260D01*
X100078083Y-57251433D01*
X99911255Y-57253069D01*
X99896000Y-57254139D01*
X99871750Y-57259778D01*
X99849067Y-57270039D01*
X99828821Y-57284528D01*
X99811791Y-57302689D01*
X99798631Y-57323823D01*
X99789847Y-57347118D01*
X99335406Y-59038996D01*
X99332135Y-59055441D01*
X99331336Y-59080324D01*
X97810254Y-59080324D01*
X98715170Y-58175408D01*
X98715175Y-58175402D01*
X98977403Y-57913174D01*
X98994853Y-57898853D01*
X99051987Y-57829236D01*
X99094441Y-57749809D01*
X99120585Y-57663627D01*
X99127200Y-57596460D01*
X99127200Y-57596450D01*
X99129411Y-57574000D01*
X99127200Y-57551550D01*
X99127200Y-55393843D01*
X99437500Y-55393843D01*
X99540965Y-55383653D01*
X99632194Y-55355979D01*
X99618527Y-55381547D01*
X99588347Y-55481035D01*
X99578157Y-55584500D01*
X99578157Y-55879500D01*
X99588347Y-55982965D01*
X99618527Y-56082453D01*
X99667536Y-56174143D01*
X99733491Y-56254509D01*
X99813857Y-56320464D01*
X99905547Y-56369473D01*
X100005035Y-56399653D01*
X100108500Y-56409843D01*
X100453500Y-56409843D01*
X100556965Y-56399653D01*
X100656453Y-56369473D01*
X100748143Y-56320464D01*
X100789000Y-56286933D01*
X100829857Y-56320464D01*
X100921547Y-56369473D01*
X101021035Y-56399653D01*
X101124500Y-56409843D01*
X101469500Y-56409843D01*
X101572965Y-56399653D01*
X101672453Y-56369473D01*
X101764143Y-56320464D01*
X101844509Y-56254509D01*
X101910464Y-56174143D01*
X101959473Y-56082453D01*
X101989653Y-55982965D01*
X101999843Y-55879500D01*
X101999843Y-55584500D01*
X101989653Y-55481035D01*
X101959473Y-55381547D01*
X101945806Y-55355979D01*
X102037035Y-55383653D01*
X102140500Y-55393843D01*
X102485500Y-55393843D01*
X102588965Y-55383653D01*
X102688453Y-55353473D01*
X102780143Y-55304464D01*
X102821000Y-55270933D01*
X102861857Y-55304464D01*
X102953547Y-55353473D01*
X103053035Y-55383653D01*
X103156500Y-55393843D01*
X103255896Y-55393843D01*
X103560000Y-55697948D01*
X103560000Y-56033268D01*
X103556965Y-56032347D01*
X103453500Y-56022157D01*
X103158500Y-56022157D01*
X103055035Y-56032347D01*
X102955547Y-56062527D01*
X102863857Y-56111536D01*
X102783491Y-56177491D01*
X102717536Y-56257857D01*
X102668527Y-56349547D01*
X102638347Y-56449035D01*
X102628157Y-56552500D01*
X102628157Y-56897500D01*
X102638347Y-57000965D01*
X102668527Y-57100453D01*
X102717536Y-57192143D01*
X102783491Y-57272509D01*
X102863857Y-57338464D01*
X102955547Y-57387473D01*
X103055035Y-57417653D01*
X103158500Y-57427843D01*
X103453500Y-57427843D01*
X103556965Y-57417653D01*
X103560001Y-57416732D01*
X103560001Y-57902051D01*
X101684265Y-59777789D01*
X97993285Y-59777789D01*
X97967211Y-59775221D01*
X97941137Y-59777789D01*
X97941127Y-59777789D01*
X97863117Y-59785472D01*
X97763956Y-59815553D01*
X97763023Y-59815836D01*
X97670775Y-59865143D01*
X97610181Y-59914871D01*
X97610175Y-59914877D01*
X97589921Y-59931499D01*
X97573299Y-59951753D01*
X96240975Y-61284079D01*
X96220710Y-61300710D01*
X96154354Y-61381565D01*
X96105047Y-61473813D01*
X96074683Y-61573907D01*
X96067000Y-61651917D01*
X96067000Y-61651926D01*
X96064432Y-61678000D01*
X96067000Y-61704074D01*
X96067000Y-62159926D01*
X96064432Y-62186000D01*
X96067000Y-62212074D01*
X96067000Y-62212084D01*
X96074684Y-62290094D01*
X96080237Y-62308398D01*
X96105047Y-62390187D01*
X96154354Y-62482435D01*
X96195068Y-62532044D01*
X96220711Y-62563290D01*
X96240971Y-62579917D01*
X97474082Y-63813029D01*
X97490710Y-63833290D01*
X97510970Y-63849917D01*
X97571564Y-63899646D01*
X97601059Y-63915411D01*
X97663812Y-63948953D01*
X97763906Y-63979317D01*
X97841916Y-63987000D01*
X97841925Y-63987000D01*
X97867999Y-63989568D01*
X97894073Y-63987000D01*
X100392912Y-63987000D01*
X100387539Y-63993547D01*
X100328946Y-64103166D01*
X100292865Y-64222110D01*
X100280683Y-64345807D01*
X100292865Y-64469504D01*
X100328946Y-64588448D01*
X100387539Y-64698067D01*
X100446632Y-64770072D01*
X100447895Y-64771335D01*
X100467657Y-64795415D01*
X100563739Y-64874268D01*
X100673358Y-64932861D01*
X100792302Y-64968942D01*
X100885002Y-64978072D01*
X100885010Y-64978072D01*
X100916000Y-64981124D01*
X100946990Y-64978072D01*
X101291704Y-64978072D01*
X101859335Y-65545703D01*
X101874536Y-65574143D01*
X101940491Y-65654509D01*
X102020857Y-65720464D01*
X102049297Y-65735665D01*
X103368899Y-67055268D01*
X103388657Y-67079343D01*
X103412732Y-67099101D01*
X103412734Y-67099103D01*
X103435107Y-67117464D01*
X103484739Y-67158196D01*
X103594358Y-67216789D01*
X103713302Y-67252870D01*
X103806002Y-67262000D01*
X103806009Y-67262000D01*
X103837000Y-67265052D01*
X103867990Y-67262000D01*
X104192288Y-67262000D01*
X104200678Y-67277696D01*
X104248289Y-67335711D01*
X104306304Y-67383322D01*
X104372492Y-67418701D01*
X104444311Y-67440487D01*
X104519000Y-67447843D01*
X105319000Y-67447843D01*
X105393689Y-67440487D01*
X105465508Y-67418701D01*
X105531696Y-67383322D01*
X105589711Y-67335711D01*
X105637322Y-67277696D01*
X105672701Y-67211508D01*
X105694487Y-67139689D01*
X105701843Y-67065000D01*
X105701843Y-66248790D01*
X106036157Y-66583104D01*
X106036157Y-67065000D01*
X106043513Y-67139689D01*
X106065299Y-67211508D01*
X106100678Y-67277696D01*
X106148289Y-67335711D01*
X106206304Y-67383322D01*
X106272492Y-67418701D01*
X106344311Y-67440487D01*
X106419000Y-67447843D01*
X106622390Y-67447843D01*
X104768234Y-69302000D01*
X104112301Y-69302000D01*
X104118473Y-69290453D01*
X104148653Y-69190965D01*
X104158843Y-69087500D01*
X104158843Y-68792500D01*
X104148653Y-68689035D01*
X104118473Y-68589547D01*
X104069464Y-68497857D01*
X104003509Y-68417491D01*
X103923143Y-68351536D01*
X103831453Y-68302527D01*
X103731965Y-68272347D01*
X103628500Y-68262157D01*
X103424735Y-68262157D01*
X102248174Y-67085597D01*
X102234843Y-67069353D01*
X102234843Y-67043000D01*
X102227487Y-66968311D01*
X102205701Y-66896492D01*
X102170322Y-66830304D01*
X102122711Y-66772289D01*
X102064696Y-66724678D01*
X101998508Y-66689299D01*
X101926689Y-66667513D01*
X101852000Y-66660157D01*
X100321735Y-66660157D01*
X97699174Y-64037597D01*
X97684853Y-64020147D01*
X97615236Y-63963013D01*
X97535809Y-63920559D01*
X97449627Y-63894415D01*
X97382460Y-63887800D01*
X97382450Y-63887800D01*
X97360000Y-63885589D01*
X97337550Y-63887800D01*
X95686106Y-63887800D01*
X95686106Y-63875671D01*
X95663778Y-63763423D01*
X95636106Y-63696616D01*
X95636106Y-60211179D01*
X95638674Y-60185105D01*
X95636106Y-60159031D01*
X95636106Y-60159022D01*
X95628423Y-60081012D01*
X95598059Y-59980918D01*
X95589367Y-59964657D01*
X95548752Y-59888670D01*
X95499023Y-59828076D01*
X95482396Y-59807816D01*
X95462136Y-59791189D01*
X95097000Y-59426054D01*
X95097000Y-55503909D01*
X95461067Y-55139843D01*
X95754500Y-55139843D01*
X95857965Y-55129653D01*
X95927316Y-55108615D01*
X95905347Y-55181035D01*
G36*
X109945000Y-54145476D02*
G01*
X109945001Y-68548000D01*
X107306971Y-68548000D01*
X108345589Y-67509382D01*
X108369663Y-67489625D01*
X108448516Y-67393543D01*
X108507109Y-67283924D01*
X108543190Y-67164980D01*
X108552320Y-67072280D01*
X108552320Y-67072273D01*
X108555372Y-67041282D01*
X108552320Y-67010292D01*
X108552320Y-64530938D01*
X108555373Y-64499940D01*
X108543190Y-64376242D01*
X108507109Y-64257298D01*
X108448516Y-64147679D01*
X108369663Y-64051597D01*
X108362688Y-64045872D01*
X108356963Y-64038897D01*
X108260881Y-63960044D01*
X108151262Y-63901451D01*
X108032318Y-63865370D01*
X107939618Y-63856240D01*
X107939610Y-63856240D01*
X107908620Y-63853188D01*
X107877630Y-63856240D01*
X107743707Y-63856240D01*
X107866947Y-63733000D01*
X108553722Y-63733000D01*
X108620529Y-63760672D01*
X108732777Y-63783000D01*
X108847223Y-63783000D01*
X108959471Y-63760672D01*
X109065207Y-63716875D01*
X109160366Y-63653292D01*
X109241292Y-63572366D01*
X109304875Y-63477207D01*
X109348672Y-63371471D01*
X109371000Y-63259223D01*
X109371000Y-63144777D01*
X109348672Y-63032529D01*
X109304875Y-62926793D01*
X109241292Y-62831634D01*
X109160366Y-62750708D01*
X109065207Y-62687125D01*
X108959471Y-62643328D01*
X108847223Y-62621000D01*
X108732777Y-62621000D01*
X108620529Y-62643328D01*
X108553722Y-62671000D01*
X107969237Y-62671000D01*
X108645669Y-61994568D01*
X108705471Y-61982672D01*
X108811207Y-61938875D01*
X108906366Y-61875292D01*
X108987292Y-61794366D01*
X109050875Y-61699207D01*
X109094672Y-61593471D01*
X109117000Y-61481223D01*
X109117000Y-61366777D01*
X109094672Y-61254529D01*
X109050875Y-61148793D01*
X108987292Y-61053634D01*
X108967039Y-61033381D01*
X109097408Y-60903012D01*
X109114853Y-60888695D01*
X109141258Y-60856521D01*
X109171987Y-60819079D01*
X109199759Y-60767120D01*
X109214441Y-60739651D01*
X109240585Y-60653469D01*
X109247200Y-60586302D01*
X109247200Y-60586293D01*
X109249411Y-60563843D01*
X109247200Y-60541393D01*
X109247200Y-53447675D01*
X109945000Y-54145476D01*
G37*
X109945000Y-54145476D02*
X109945001Y-68548000D01*
X107306971Y-68548000D01*
X108345589Y-67509382D01*
X108369663Y-67489625D01*
X108448516Y-67393543D01*
X108507109Y-67283924D01*
X108543190Y-67164980D01*
X108552320Y-67072280D01*
X108552320Y-67072273D01*
X108555372Y-67041282D01*
X108552320Y-67010292D01*
X108552320Y-64530938D01*
X108555373Y-64499940D01*
X108543190Y-64376242D01*
X108507109Y-64257298D01*
X108448516Y-64147679D01*
X108369663Y-64051597D01*
X108362688Y-64045872D01*
X108356963Y-64038897D01*
X108260881Y-63960044D01*
X108151262Y-63901451D01*
X108032318Y-63865370D01*
X107939618Y-63856240D01*
X107939610Y-63856240D01*
X107908620Y-63853188D01*
X107877630Y-63856240D01*
X107743707Y-63856240D01*
X107866947Y-63733000D01*
X108553722Y-63733000D01*
X108620529Y-63760672D01*
X108732777Y-63783000D01*
X108847223Y-63783000D01*
X108959471Y-63760672D01*
X109065207Y-63716875D01*
X109160366Y-63653292D01*
X109241292Y-63572366D01*
X109304875Y-63477207D01*
X109348672Y-63371471D01*
X109371000Y-63259223D01*
X109371000Y-63144777D01*
X109348672Y-63032529D01*
X109304875Y-62926793D01*
X109241292Y-62831634D01*
X109160366Y-62750708D01*
X109065207Y-62687125D01*
X108959471Y-62643328D01*
X108847223Y-62621000D01*
X108732777Y-62621000D01*
X108620529Y-62643328D01*
X108553722Y-62671000D01*
X107969237Y-62671000D01*
X108645669Y-61994568D01*
X108705471Y-61982672D01*
X108811207Y-61938875D01*
X108906366Y-61875292D01*
X108987292Y-61794366D01*
X109050875Y-61699207D01*
X109094672Y-61593471D01*
X109117000Y-61481223D01*
X109117000Y-61366777D01*
X109094672Y-61254529D01*
X109050875Y-61148793D01*
X108987292Y-61053634D01*
X108967039Y-61033381D01*
X109097408Y-60903012D01*
X109114853Y-60888695D01*
X109141258Y-60856521D01*
X109171987Y-60819079D01*
X109199759Y-60767120D01*
X109214441Y-60739651D01*
X109240585Y-60653469D01*
X109247200Y-60586302D01*
X109247200Y-60586293D01*
X109249411Y-60563843D01*
X109247200Y-60541393D01*
X109247200Y-53447675D01*
X109945000Y-54145476D01*
G36*
X95871471Y-50611158D02*
G01*
X95892148Y-50636353D01*
X95909593Y-50650670D01*
X96775800Y-51516878D01*
X96775801Y-54754679D01*
X96770500Y-54754157D01*
X96425500Y-54754157D01*
X96322035Y-54764347D01*
X96252684Y-54785385D01*
X96274653Y-54712965D01*
X96284843Y-54609500D01*
X96284843Y-54594104D01*
X96290000Y-54568179D01*
X96290000Y-54453733D01*
X96284843Y-54427808D01*
X96284843Y-54314500D01*
X96274653Y-54211035D01*
X96244473Y-54111547D01*
X96195464Y-54019857D01*
X96129509Y-53939491D01*
X96049143Y-53873536D01*
X95957453Y-53824527D01*
X95857965Y-53794347D01*
X95754500Y-53784157D01*
X95409500Y-53784157D01*
X95306035Y-53794347D01*
X95206547Y-53824527D01*
X95114857Y-53873536D01*
X95034491Y-53939491D01*
X94968536Y-54019857D01*
X94919527Y-54111547D01*
X94889942Y-54209074D01*
X94666167Y-54432849D01*
X94666167Y-51810410D01*
X95868744Y-50607835D01*
X95871471Y-50611158D01*
G37*
X95871471Y-50611158D02*
X95892148Y-50636353D01*
X95909593Y-50650670D01*
X96775800Y-51516878D01*
X96775801Y-54754679D01*
X96770500Y-54754157D01*
X96425500Y-54754157D01*
X96322035Y-54764347D01*
X96252684Y-54785385D01*
X96274653Y-54712965D01*
X96284843Y-54609500D01*
X96284843Y-54594104D01*
X96290000Y-54568179D01*
X96290000Y-54453733D01*
X96284843Y-54427808D01*
X96284843Y-54314500D01*
X96274653Y-54211035D01*
X96244473Y-54111547D01*
X96195464Y-54019857D01*
X96129509Y-53939491D01*
X96049143Y-53873536D01*
X95957453Y-53824527D01*
X95857965Y-53794347D01*
X95754500Y-53784157D01*
X95409500Y-53784157D01*
X95306035Y-53794347D01*
X95206547Y-53824527D01*
X95114857Y-53873536D01*
X95034491Y-53939491D01*
X94968536Y-54019857D01*
X94919527Y-54111547D01*
X94889942Y-54209074D01*
X94666167Y-54432849D01*
X94666167Y-51810410D01*
X95868744Y-50607835D01*
X95871471Y-50611158D01*
D26*
G36*
X101456384Y-57410345D02*
G01*
X101401124Y-57473346D01*
X101400169Y-57474582D01*
X101343891Y-57557377D01*
X101343164Y-57558586D01*
X101293713Y-57652231D01*
X101293184Y-57653364D01*
X101250560Y-57757860D01*
X101250190Y-57758893D01*
X101214392Y-57874240D01*
X101214143Y-57875162D01*
X101185173Y-58001360D01*
X101185014Y-58002176D01*
X101162870Y-58139224D01*
X101162775Y-58139942D01*
X101147458Y-58287842D01*
X101147408Y-58288472D01*
X101138919Y-58447222D01*
X101138902Y-58447775D01*
X101137333Y-58607736D01*
X99476038Y-59053962D01*
X99922264Y-57392667D01*
X100082226Y-57391099D01*
X100082779Y-57391082D01*
X100241529Y-57382593D01*
X100242159Y-57382543D01*
X100390059Y-57367226D01*
X100390777Y-57367131D01*
X100527825Y-57344987D01*
X100528641Y-57344828D01*
X100654839Y-57315858D01*
X100655761Y-57315609D01*
X100771108Y-57279811D01*
X100772141Y-57279441D01*
X100876637Y-57236817D01*
X100877770Y-57236288D01*
X100971415Y-57186837D01*
X100972624Y-57186110D01*
X101055419Y-57129832D01*
X101056655Y-57128877D01*
X101119655Y-57073616D01*
X101456384Y-57410345D01*
G37*
X101456384Y-57410345D02*
X101401124Y-57473346D01*
X101400169Y-57474582D01*
X101343891Y-57557377D01*
X101343164Y-57558586D01*
X101293713Y-57652231D01*
X101293184Y-57653364D01*
X101250560Y-57757860D01*
X101250190Y-57758893D01*
X101214392Y-57874240D01*
X101214143Y-57875162D01*
X101185173Y-58001360D01*
X101185014Y-58002176D01*
X101162870Y-58139224D01*
X101162775Y-58139942D01*
X101147458Y-58287842D01*
X101147408Y-58288472D01*
X101138919Y-58447222D01*
X101138902Y-58447775D01*
X101137333Y-58607736D01*
X99476038Y-59053962D01*
X99922264Y-57392667D01*
X100082226Y-57391099D01*
X100082779Y-57391082D01*
X100241529Y-57382593D01*
X100242159Y-57382543D01*
X100390059Y-57367226D01*
X100390777Y-57367131D01*
X100527825Y-57344987D01*
X100528641Y-57344828D01*
X100654839Y-57315858D01*
X100655761Y-57315609D01*
X100771108Y-57279811D01*
X100772141Y-57279441D01*
X100876637Y-57236817D01*
X100877770Y-57236288D01*
X100971415Y-57186837D01*
X100972624Y-57186110D01*
X101055419Y-57129832D01*
X101056655Y-57128877D01*
X101119655Y-57073616D01*
X101456384Y-57410345D01*
%TO.N,/~RESET*%
G36*
X105910443Y-63179929D02*
G01*
X105911405Y-63180734D01*
X105920409Y-63187534D01*
X105921421Y-63188224D01*
X105931200Y-63194224D01*
X105932229Y-63194791D01*
X105942784Y-63199991D01*
X105943799Y-63200437D01*
X105955128Y-63204837D01*
X105956106Y-63205172D01*
X105968211Y-63208772D01*
X105969133Y-63209009D01*
X105982013Y-63211809D01*
X105982871Y-63211965D01*
X105996526Y-63213965D01*
X105997314Y-63214055D01*
X106011744Y-63215255D01*
X106012462Y-63215295D01*
X106015301Y-63215370D01*
X106015301Y-63390628D01*
X106012462Y-63390703D01*
X106011744Y-63390743D01*
X105997314Y-63391943D01*
X105996526Y-63392033D01*
X105982871Y-63394033D01*
X105982013Y-63394189D01*
X105969133Y-63396989D01*
X105968211Y-63397226D01*
X105956106Y-63400826D01*
X105955128Y-63401161D01*
X105943799Y-63405561D01*
X105942784Y-63406007D01*
X105932229Y-63411207D01*
X105931200Y-63411774D01*
X105921421Y-63417774D01*
X105920409Y-63418464D01*
X105911405Y-63425264D01*
X105910443Y-63426069D01*
X105909077Y-63427330D01*
X105693427Y-63302999D01*
X105909077Y-63178668D01*
X105910443Y-63179929D01*
G37*
X105910443Y-63179929D02*
X105911405Y-63180734D01*
X105920409Y-63187534D01*
X105921421Y-63188224D01*
X105931200Y-63194224D01*
X105932229Y-63194791D01*
X105942784Y-63199991D01*
X105943799Y-63200437D01*
X105955128Y-63204837D01*
X105956106Y-63205172D01*
X105968211Y-63208772D01*
X105969133Y-63209009D01*
X105982013Y-63211809D01*
X105982871Y-63211965D01*
X105996526Y-63213965D01*
X105997314Y-63214055D01*
X106011744Y-63215255D01*
X106012462Y-63215295D01*
X106015301Y-63215370D01*
X106015301Y-63390628D01*
X106012462Y-63390703D01*
X106011744Y-63390743D01*
X105997314Y-63391943D01*
X105996526Y-63392033D01*
X105982871Y-63394033D01*
X105982013Y-63394189D01*
X105969133Y-63396989D01*
X105968211Y-63397226D01*
X105956106Y-63400826D01*
X105955128Y-63401161D01*
X105943799Y-63405561D01*
X105942784Y-63406007D01*
X105932229Y-63411207D01*
X105931200Y-63411774D01*
X105921421Y-63417774D01*
X105920409Y-63418464D01*
X105911405Y-63425264D01*
X105910443Y-63426069D01*
X105909077Y-63427330D01*
X105693427Y-63302999D01*
X105909077Y-63178668D01*
X105910443Y-63179929D01*
G36*
X108524159Y-61611670D02*
G01*
X108522303Y-61611744D01*
X108521053Y-61611856D01*
X108509877Y-61613415D01*
X108508673Y-61613643D01*
X108497516Y-61616316D01*
X108496388Y-61616641D01*
X108485248Y-61620427D01*
X108484215Y-61620830D01*
X108473092Y-61625730D01*
X108472164Y-61626184D01*
X108461059Y-61632198D01*
X108460240Y-61632683D01*
X108449153Y-61639810D01*
X108448436Y-61640306D01*
X108437366Y-61648547D01*
X108436744Y-61649041D01*
X108425692Y-61658397D01*
X108425158Y-61658876D01*
X108423097Y-61660832D01*
X108299169Y-61536904D01*
X108301124Y-61534844D01*
X108301604Y-61534309D01*
X108310960Y-61523257D01*
X108311454Y-61522635D01*
X108319695Y-61511565D01*
X108320191Y-61510848D01*
X108327318Y-61499761D01*
X108327803Y-61498942D01*
X108333817Y-61487837D01*
X108334271Y-61486909D01*
X108339171Y-61475786D01*
X108339574Y-61474753D01*
X108343360Y-61463613D01*
X108343685Y-61462485D01*
X108346358Y-61451328D01*
X108346586Y-61450124D01*
X108348145Y-61438948D01*
X108348257Y-61437696D01*
X108348331Y-61435841D01*
X108588731Y-61371269D01*
X108524159Y-61611670D01*
G37*
X108524159Y-61611670D02*
X108522303Y-61611744D01*
X108521053Y-61611856D01*
X108509877Y-61613415D01*
X108508673Y-61613643D01*
X108497516Y-61616316D01*
X108496388Y-61616641D01*
X108485248Y-61620427D01*
X108484215Y-61620830D01*
X108473092Y-61625730D01*
X108472164Y-61626184D01*
X108461059Y-61632198D01*
X108460240Y-61632683D01*
X108449153Y-61639810D01*
X108448436Y-61640306D01*
X108437366Y-61648547D01*
X108436744Y-61649041D01*
X108425692Y-61658397D01*
X108425158Y-61658876D01*
X108423097Y-61660832D01*
X108299169Y-61536904D01*
X108301124Y-61534844D01*
X108301604Y-61534309D01*
X108310960Y-61523257D01*
X108311454Y-61522635D01*
X108319695Y-61511565D01*
X108320191Y-61510848D01*
X108327318Y-61499761D01*
X108327803Y-61498942D01*
X108333817Y-61487837D01*
X108334271Y-61486909D01*
X108339171Y-61475786D01*
X108339574Y-61474753D01*
X108343360Y-61463613D01*
X108343685Y-61462485D01*
X108346358Y-61451328D01*
X108346586Y-61450124D01*
X108348145Y-61438948D01*
X108348257Y-61437696D01*
X108348331Y-61435841D01*
X108588731Y-61371269D01*
X108524159Y-61611670D01*
%TO.N,/LED*%
G36*
X93624574Y-63456000D02*
G01*
X93409080Y-63580241D01*
X93403301Y-63574706D01*
X93402668Y-63574140D01*
X93389712Y-63563294D01*
X93388995Y-63562736D01*
X93375741Y-63553166D01*
X93374935Y-63552629D01*
X93361381Y-63544335D01*
X93360492Y-63543839D01*
X93346640Y-63536821D01*
X93345675Y-63536382D01*
X93331525Y-63530640D01*
X93330500Y-63530274D01*
X93316050Y-63525808D01*
X93314985Y-63525529D01*
X93300237Y-63522339D01*
X93299154Y-63522154D01*
X93284106Y-63520240D01*
X93283032Y-63520149D01*
X93279858Y-63520017D01*
X93279858Y-63391983D01*
X93283032Y-63391851D01*
X93284106Y-63391760D01*
X93299154Y-63389846D01*
X93300237Y-63389661D01*
X93314985Y-63386471D01*
X93316050Y-63386192D01*
X93330500Y-63381726D01*
X93331525Y-63381360D01*
X93345675Y-63375618D01*
X93346640Y-63375179D01*
X93360492Y-63368161D01*
X93361381Y-63367665D01*
X93374935Y-63359371D01*
X93375741Y-63358834D01*
X93388995Y-63349264D01*
X93389712Y-63348706D01*
X93402668Y-63337860D01*
X93403301Y-63337294D01*
X93409080Y-63331759D01*
X93624574Y-63456000D01*
G37*
X93624574Y-63456000D02*
X93409080Y-63580241D01*
X93403301Y-63574706D01*
X93402668Y-63574140D01*
X93389712Y-63563294D01*
X93388995Y-63562736D01*
X93375741Y-63553166D01*
X93374935Y-63552629D01*
X93361381Y-63544335D01*
X93360492Y-63543839D01*
X93346640Y-63536821D01*
X93345675Y-63536382D01*
X93331525Y-63530640D01*
X93330500Y-63530274D01*
X93316050Y-63525808D01*
X93314985Y-63525529D01*
X93300237Y-63522339D01*
X93299154Y-63522154D01*
X93284106Y-63520240D01*
X93283032Y-63520149D01*
X93279858Y-63520017D01*
X93279858Y-63391983D01*
X93283032Y-63391851D01*
X93284106Y-63391760D01*
X93299154Y-63389846D01*
X93300237Y-63389661D01*
X93314985Y-63386471D01*
X93316050Y-63386192D01*
X93330500Y-63381726D01*
X93331525Y-63381360D01*
X93345675Y-63375618D01*
X93346640Y-63375179D01*
X93360492Y-63368161D01*
X93361381Y-63367665D01*
X93374935Y-63359371D01*
X93375741Y-63358834D01*
X93388995Y-63349264D01*
X93389712Y-63348706D01*
X93402668Y-63337860D01*
X93403301Y-63337294D01*
X93409080Y-63331759D01*
X93624574Y-63456000D01*
G36*
X93624574Y-63456000D02*
G01*
X93408925Y-63580330D01*
X93407560Y-63579070D01*
X93406597Y-63578265D01*
X93397593Y-63571465D01*
X93396581Y-63570775D01*
X93386802Y-63564775D01*
X93385773Y-63564208D01*
X93375218Y-63559008D01*
X93374203Y-63558561D01*
X93362873Y-63554161D01*
X93361896Y-63553827D01*
X93349792Y-63550227D01*
X93348869Y-63549990D01*
X93335989Y-63547190D01*
X93335131Y-63547034D01*
X93321476Y-63545034D01*
X93320688Y-63544944D01*
X93306258Y-63543744D01*
X93305540Y-63543704D01*
X93302700Y-63543629D01*
X93302700Y-63368371D01*
X93305540Y-63368296D01*
X93306258Y-63368256D01*
X93320688Y-63367056D01*
X93321476Y-63366966D01*
X93335131Y-63364966D01*
X93335989Y-63364810D01*
X93348869Y-63362010D01*
X93349792Y-63361773D01*
X93361896Y-63358173D01*
X93362873Y-63357839D01*
X93374203Y-63353439D01*
X93375218Y-63352992D01*
X93385773Y-63347792D01*
X93386802Y-63347225D01*
X93396581Y-63341225D01*
X93397593Y-63340535D01*
X93406597Y-63333735D01*
X93407560Y-63332930D01*
X93408925Y-63331670D01*
X93624574Y-63456000D01*
G37*
X93624574Y-63456000D02*
X93408925Y-63580330D01*
X93407560Y-63579070D01*
X93406597Y-63578265D01*
X93397593Y-63571465D01*
X93396581Y-63570775D01*
X93386802Y-63564775D01*
X93385773Y-63564208D01*
X93375218Y-63559008D01*
X93374203Y-63558561D01*
X93362873Y-63554161D01*
X93361896Y-63553827D01*
X93349792Y-63550227D01*
X93348869Y-63549990D01*
X93335989Y-63547190D01*
X93335131Y-63547034D01*
X93321476Y-63545034D01*
X93320688Y-63544944D01*
X93306258Y-63543744D01*
X93305540Y-63543704D01*
X93302700Y-63543629D01*
X93302700Y-63368371D01*
X93305540Y-63368296D01*
X93306258Y-63368256D01*
X93320688Y-63367056D01*
X93321476Y-63366966D01*
X93335131Y-63364966D01*
X93335989Y-63364810D01*
X93348869Y-63362010D01*
X93349792Y-63361773D01*
X93361896Y-63358173D01*
X93362873Y-63357839D01*
X93374203Y-63353439D01*
X93375218Y-63352992D01*
X93385773Y-63347792D01*
X93386802Y-63347225D01*
X93396581Y-63341225D01*
X93397593Y-63340535D01*
X93406597Y-63333735D01*
X93407560Y-63332930D01*
X93408925Y-63331670D01*
X93624574Y-63456000D01*
G36*
X92358942Y-63332930D02*
G01*
X92359904Y-63333735D01*
X92368908Y-63340535D01*
X92369920Y-63341225D01*
X92379699Y-63347225D01*
X92380728Y-63347792D01*
X92391283Y-63352992D01*
X92392298Y-63353438D01*
X92403627Y-63357838D01*
X92404605Y-63358173D01*
X92416710Y-63361773D01*
X92417632Y-63362010D01*
X92430512Y-63364810D01*
X92431370Y-63364966D01*
X92445025Y-63366966D01*
X92445813Y-63367056D01*
X92460243Y-63368256D01*
X92460961Y-63368296D01*
X92463800Y-63368371D01*
X92463800Y-63543629D01*
X92460961Y-63543704D01*
X92460243Y-63543744D01*
X92445813Y-63544944D01*
X92445025Y-63545034D01*
X92431370Y-63547034D01*
X92430512Y-63547190D01*
X92417632Y-63549990D01*
X92416710Y-63550227D01*
X92404605Y-63553827D01*
X92403627Y-63554162D01*
X92392298Y-63558562D01*
X92391283Y-63559008D01*
X92380728Y-63564208D01*
X92379699Y-63564775D01*
X92369920Y-63570775D01*
X92368908Y-63571465D01*
X92359904Y-63578265D01*
X92358942Y-63579070D01*
X92357576Y-63580331D01*
X92141926Y-63456000D01*
X92357576Y-63331669D01*
X92358942Y-63332930D01*
G37*
X92358942Y-63332930D02*
X92359904Y-63333735D01*
X92368908Y-63340535D01*
X92369920Y-63341225D01*
X92379699Y-63347225D01*
X92380728Y-63347792D01*
X92391283Y-63352992D01*
X92392298Y-63353438D01*
X92403627Y-63357838D01*
X92404605Y-63358173D01*
X92416710Y-63361773D01*
X92417632Y-63362010D01*
X92430512Y-63364810D01*
X92431370Y-63364966D01*
X92445025Y-63366966D01*
X92445813Y-63367056D01*
X92460243Y-63368256D01*
X92460961Y-63368296D01*
X92463800Y-63368371D01*
X92463800Y-63543629D01*
X92460961Y-63543704D01*
X92460243Y-63543744D01*
X92445813Y-63544944D01*
X92445025Y-63545034D01*
X92431370Y-63547034D01*
X92430512Y-63547190D01*
X92417632Y-63549990D01*
X92416710Y-63550227D01*
X92404605Y-63553827D01*
X92403627Y-63554162D01*
X92392298Y-63558562D01*
X92391283Y-63559008D01*
X92380728Y-63564208D01*
X92379699Y-63564775D01*
X92369920Y-63570775D01*
X92368908Y-63571465D01*
X92359904Y-63578265D01*
X92358942Y-63579070D01*
X92357576Y-63580331D01*
X92141926Y-63456000D01*
X92357576Y-63331669D01*
X92358942Y-63332930D01*
%TO.N,/LCD_D7*%
G36*
X106695149Y-57728032D02*
G01*
X106695240Y-57729106D01*
X106697154Y-57744154D01*
X106697339Y-57745237D01*
X106700529Y-57759985D01*
X106700808Y-57761050D01*
X106705274Y-57775500D01*
X106705640Y-57776525D01*
X106711382Y-57790675D01*
X106711821Y-57791640D01*
X106718839Y-57805492D01*
X106719335Y-57806381D01*
X106727629Y-57819935D01*
X106728166Y-57820741D01*
X106737736Y-57833995D01*
X106738294Y-57834712D01*
X106749140Y-57847668D01*
X106749706Y-57848301D01*
X106755241Y-57854080D01*
X106631000Y-58069574D01*
X106506759Y-57854080D01*
X106512294Y-57848301D01*
X106512860Y-57847668D01*
X106523706Y-57834712D01*
X106524264Y-57833995D01*
X106533834Y-57820741D01*
X106534371Y-57819935D01*
X106542665Y-57806381D01*
X106543161Y-57805492D01*
X106550179Y-57791640D01*
X106550618Y-57790675D01*
X106556360Y-57776525D01*
X106556726Y-57775500D01*
X106561192Y-57761050D01*
X106561471Y-57759985D01*
X106564661Y-57745237D01*
X106564846Y-57744154D01*
X106566760Y-57729106D01*
X106566851Y-57728032D01*
X106566983Y-57724858D01*
X106695017Y-57724858D01*
X106695149Y-57728032D01*
G37*
X106695149Y-57728032D02*
X106695240Y-57729106D01*
X106697154Y-57744154D01*
X106697339Y-57745237D01*
X106700529Y-57759985D01*
X106700808Y-57761050D01*
X106705274Y-57775500D01*
X106705640Y-57776525D01*
X106711382Y-57790675D01*
X106711821Y-57791640D01*
X106718839Y-57805492D01*
X106719335Y-57806381D01*
X106727629Y-57819935D01*
X106728166Y-57820741D01*
X106737736Y-57833995D01*
X106738294Y-57834712D01*
X106749140Y-57847668D01*
X106749706Y-57848301D01*
X106755241Y-57854080D01*
X106631000Y-58069574D01*
X106506759Y-57854080D01*
X106512294Y-57848301D01*
X106512860Y-57847668D01*
X106523706Y-57834712D01*
X106524264Y-57833995D01*
X106533834Y-57820741D01*
X106534371Y-57819935D01*
X106542665Y-57806381D01*
X106543161Y-57805492D01*
X106550179Y-57791640D01*
X106550618Y-57790675D01*
X106556360Y-57776525D01*
X106556726Y-57775500D01*
X106561192Y-57761050D01*
X106561471Y-57759985D01*
X106564661Y-57745237D01*
X106564846Y-57744154D01*
X106566760Y-57729106D01*
X106566851Y-57728032D01*
X106566983Y-57724858D01*
X106695017Y-57724858D01*
X106695149Y-57728032D01*
%TO.N,/LCD_D6*%
G36*
X106878567Y-58472850D02*
G01*
X106874381Y-58477338D01*
X106873777Y-58478034D01*
X106862563Y-58491955D01*
X106861982Y-58492735D01*
X106852108Y-58507121D01*
X106851568Y-58507980D01*
X106843034Y-58522829D01*
X106842550Y-58523758D01*
X106835357Y-58539072D01*
X106834945Y-58540054D01*
X106829092Y-58555832D01*
X106828763Y-58556849D01*
X106824250Y-58573091D01*
X106824009Y-58574122D01*
X106820837Y-58590828D01*
X106820686Y-58591850D01*
X106818854Y-58609020D01*
X106818787Y-58610013D01*
X106818559Y-58618190D01*
X106578270Y-58682732D01*
X106642812Y-58442444D01*
X106650989Y-58442216D01*
X106651983Y-58442149D01*
X106669153Y-58440317D01*
X106670175Y-58440166D01*
X106686881Y-58436994D01*
X106687912Y-58436753D01*
X106704154Y-58432240D01*
X106705171Y-58431911D01*
X106720949Y-58426058D01*
X106721931Y-58425646D01*
X106737245Y-58418453D01*
X106738174Y-58417969D01*
X106753023Y-58409435D01*
X106753882Y-58408895D01*
X106768268Y-58399021D01*
X106769048Y-58398440D01*
X106782969Y-58387226D01*
X106783666Y-58386622D01*
X106788153Y-58382436D01*
X106878567Y-58472850D01*
G37*
X106878567Y-58472850D02*
X106874381Y-58477338D01*
X106873777Y-58478034D01*
X106862563Y-58491955D01*
X106861982Y-58492735D01*
X106852108Y-58507121D01*
X106851568Y-58507980D01*
X106843034Y-58522829D01*
X106842550Y-58523758D01*
X106835357Y-58539072D01*
X106834945Y-58540054D01*
X106829092Y-58555832D01*
X106828763Y-58556849D01*
X106824250Y-58573091D01*
X106824009Y-58574122D01*
X106820837Y-58590828D01*
X106820686Y-58591850D01*
X106818854Y-58609020D01*
X106818787Y-58610013D01*
X106818559Y-58618190D01*
X106578270Y-58682732D01*
X106642812Y-58442444D01*
X106650989Y-58442216D01*
X106651983Y-58442149D01*
X106669153Y-58440317D01*
X106670175Y-58440166D01*
X106686881Y-58436994D01*
X106687912Y-58436753D01*
X106704154Y-58432240D01*
X106705171Y-58431911D01*
X106720949Y-58426058D01*
X106721931Y-58425646D01*
X106737245Y-58418453D01*
X106738174Y-58417969D01*
X106753023Y-58409435D01*
X106753882Y-58408895D01*
X106768268Y-58399021D01*
X106769048Y-58398440D01*
X106782969Y-58387226D01*
X106783666Y-58386622D01*
X106788153Y-58382436D01*
X106878567Y-58472850D01*
%TO.N,/LCD_D5*%
G36*
X106878570Y-59107853D02*
G01*
X106874384Y-59112341D01*
X106873780Y-59113037D01*
X106862566Y-59126958D01*
X106861985Y-59127738D01*
X106852111Y-59142124D01*
X106851571Y-59142983D01*
X106843037Y-59157832D01*
X106842553Y-59158761D01*
X106835360Y-59174075D01*
X106834948Y-59175057D01*
X106829095Y-59190835D01*
X106828766Y-59191852D01*
X106824253Y-59208094D01*
X106824012Y-59209125D01*
X106820840Y-59225831D01*
X106820689Y-59226853D01*
X106818857Y-59244023D01*
X106818790Y-59245016D01*
X106818562Y-59253193D01*
X106578273Y-59317735D01*
X106642815Y-59077447D01*
X106650992Y-59077219D01*
X106651986Y-59077152D01*
X106669156Y-59075320D01*
X106670178Y-59075169D01*
X106686884Y-59071997D01*
X106687915Y-59071756D01*
X106704157Y-59067243D01*
X106705174Y-59066914D01*
X106720952Y-59061061D01*
X106721934Y-59060649D01*
X106737248Y-59053456D01*
X106738177Y-59052972D01*
X106753026Y-59044438D01*
X106753885Y-59043898D01*
X106768271Y-59034024D01*
X106769051Y-59033443D01*
X106782972Y-59022229D01*
X106783669Y-59021625D01*
X106788156Y-59017439D01*
X106878570Y-59107853D01*
G37*
X106878570Y-59107853D02*
X106874384Y-59112341D01*
X106873780Y-59113037D01*
X106862566Y-59126958D01*
X106861985Y-59127738D01*
X106852111Y-59142124D01*
X106851571Y-59142983D01*
X106843037Y-59157832D01*
X106842553Y-59158761D01*
X106835360Y-59174075D01*
X106834948Y-59175057D01*
X106829095Y-59190835D01*
X106828766Y-59191852D01*
X106824253Y-59208094D01*
X106824012Y-59209125D01*
X106820840Y-59225831D01*
X106820689Y-59226853D01*
X106818857Y-59244023D01*
X106818790Y-59245016D01*
X106818562Y-59253193D01*
X106578273Y-59317735D01*
X106642815Y-59077447D01*
X106650992Y-59077219D01*
X106651986Y-59077152D01*
X106669156Y-59075320D01*
X106670178Y-59075169D01*
X106686884Y-59071997D01*
X106687915Y-59071756D01*
X106704157Y-59067243D01*
X106705174Y-59066914D01*
X106720952Y-59061061D01*
X106721934Y-59060649D01*
X106737248Y-59053456D01*
X106738177Y-59052972D01*
X106753026Y-59044438D01*
X106753885Y-59043898D01*
X106768271Y-59034024D01*
X106769051Y-59033443D01*
X106782972Y-59022229D01*
X106783669Y-59021625D01*
X106788156Y-59017439D01*
X106878570Y-59107853D01*
%TO.N,/LCD_D4*%
G36*
X106865861Y-59730144D02*
G01*
X106861675Y-59734632D01*
X106861071Y-59735328D01*
X106849857Y-59749249D01*
X106849276Y-59750029D01*
X106839402Y-59764415D01*
X106838862Y-59765274D01*
X106830328Y-59780123D01*
X106829844Y-59781052D01*
X106822651Y-59796366D01*
X106822239Y-59797348D01*
X106816386Y-59813126D01*
X106816057Y-59814143D01*
X106811544Y-59830385D01*
X106811303Y-59831416D01*
X106808131Y-59848122D01*
X106807980Y-59849144D01*
X106806148Y-59866314D01*
X106806081Y-59867307D01*
X106805853Y-59875484D01*
X106565564Y-59940026D01*
X106630106Y-59699738D01*
X106638283Y-59699510D01*
X106639277Y-59699443D01*
X106656447Y-59697611D01*
X106657469Y-59697460D01*
X106674175Y-59694288D01*
X106675206Y-59694047D01*
X106691448Y-59689534D01*
X106692465Y-59689205D01*
X106708243Y-59683352D01*
X106709225Y-59682940D01*
X106724539Y-59675747D01*
X106725468Y-59675263D01*
X106740317Y-59666729D01*
X106741176Y-59666189D01*
X106755562Y-59656315D01*
X106756342Y-59655734D01*
X106770263Y-59644520D01*
X106770960Y-59643916D01*
X106775447Y-59639730D01*
X106865861Y-59730144D01*
G37*
X106865861Y-59730144D02*
X106861675Y-59734632D01*
X106861071Y-59735328D01*
X106849857Y-59749249D01*
X106849276Y-59750029D01*
X106839402Y-59764415D01*
X106838862Y-59765274D01*
X106830328Y-59780123D01*
X106829844Y-59781052D01*
X106822651Y-59796366D01*
X106822239Y-59797348D01*
X106816386Y-59813126D01*
X106816057Y-59814143D01*
X106811544Y-59830385D01*
X106811303Y-59831416D01*
X106808131Y-59848122D01*
X106807980Y-59849144D01*
X106806148Y-59866314D01*
X106806081Y-59867307D01*
X106805853Y-59875484D01*
X106565564Y-59940026D01*
X106630106Y-59699738D01*
X106638283Y-59699510D01*
X106639277Y-59699443D01*
X106656447Y-59697611D01*
X106657469Y-59697460D01*
X106674175Y-59694288D01*
X106675206Y-59694047D01*
X106691448Y-59689534D01*
X106692465Y-59689205D01*
X106708243Y-59683352D01*
X106709225Y-59682940D01*
X106724539Y-59675747D01*
X106725468Y-59675263D01*
X106740317Y-59666729D01*
X106741176Y-59666189D01*
X106755562Y-59656315D01*
X106756342Y-59655734D01*
X106770263Y-59644520D01*
X106770960Y-59643916D01*
X106775447Y-59639730D01*
X106865861Y-59730144D01*
%TO.N,/LCD_D3*%
G36*
X107031553Y-60250856D02*
G01*
X107008769Y-60258027D01*
X107008237Y-60258207D01*
X106969998Y-60272128D01*
X106969359Y-60272381D01*
X106935639Y-60286767D01*
X106934866Y-60287128D01*
X106905666Y-60301977D01*
X106904727Y-60302506D01*
X106880047Y-60317820D01*
X106878916Y-60318610D01*
X106858755Y-60334388D01*
X106857434Y-60335580D01*
X106841794Y-60351822D01*
X106840370Y-60353593D01*
X106829249Y-60370299D01*
X106827967Y-60372780D01*
X106821366Y-60389950D01*
X106820608Y-60393018D01*
X106819535Y-60402108D01*
X106578418Y-60466872D01*
X106642850Y-60226995D01*
X106651753Y-60226995D01*
X106656414Y-60226068D01*
X106675370Y-60224485D01*
X106675934Y-60224425D01*
X106700589Y-60221253D01*
X106701034Y-60221188D01*
X106728404Y-60216675D01*
X106728763Y-60216610D01*
X106758848Y-60210757D01*
X106759143Y-60210696D01*
X106791944Y-60203503D01*
X106792191Y-60203447D01*
X106827707Y-60194913D01*
X106827916Y-60194861D01*
X106866147Y-60184987D01*
X106866326Y-60184939D01*
X106907272Y-60173725D01*
X106907427Y-60173681D01*
X106943892Y-60163195D01*
X107031553Y-60250856D01*
G37*
X107031553Y-60250856D02*
X107008769Y-60258027D01*
X107008237Y-60258207D01*
X106969998Y-60272128D01*
X106969359Y-60272381D01*
X106935639Y-60286767D01*
X106934866Y-60287128D01*
X106905666Y-60301977D01*
X106904727Y-60302506D01*
X106880047Y-60317820D01*
X106878916Y-60318610D01*
X106858755Y-60334388D01*
X106857434Y-60335580D01*
X106841794Y-60351822D01*
X106840370Y-60353593D01*
X106829249Y-60370299D01*
X106827967Y-60372780D01*
X106821366Y-60389950D01*
X106820608Y-60393018D01*
X106819535Y-60402108D01*
X106578418Y-60466872D01*
X106642850Y-60226995D01*
X106651753Y-60226995D01*
X106656414Y-60226068D01*
X106675370Y-60224485D01*
X106675934Y-60224425D01*
X106700589Y-60221253D01*
X106701034Y-60221188D01*
X106728404Y-60216675D01*
X106728763Y-60216610D01*
X106758848Y-60210757D01*
X106759143Y-60210696D01*
X106791944Y-60203503D01*
X106792191Y-60203447D01*
X106827707Y-60194913D01*
X106827916Y-60194861D01*
X106866147Y-60184987D01*
X106866326Y-60184939D01*
X106907272Y-60173725D01*
X106907427Y-60173681D01*
X106943892Y-60163195D01*
X107031553Y-60250856D01*
%TO.N,/LCD_D2*%
G36*
X107386566Y-60504849D02*
G01*
X107382380Y-60509337D01*
X107381776Y-60510033D01*
X107370562Y-60523954D01*
X107369981Y-60524734D01*
X107360107Y-60539120D01*
X107359567Y-60539979D01*
X107351033Y-60554828D01*
X107350549Y-60555757D01*
X107343356Y-60571071D01*
X107342944Y-60572053D01*
X107337091Y-60587831D01*
X107336762Y-60588848D01*
X107332249Y-60605090D01*
X107332008Y-60606121D01*
X107328836Y-60622827D01*
X107328685Y-60623849D01*
X107326853Y-60641019D01*
X107326786Y-60642012D01*
X107326558Y-60650189D01*
X107086269Y-60714731D01*
X107150811Y-60474443D01*
X107158988Y-60474215D01*
X107159982Y-60474148D01*
X107177152Y-60472316D01*
X107178174Y-60472165D01*
X107194880Y-60468993D01*
X107195911Y-60468752D01*
X107212153Y-60464239D01*
X107213170Y-60463910D01*
X107228948Y-60458057D01*
X107229930Y-60457645D01*
X107245244Y-60450452D01*
X107246173Y-60449968D01*
X107261022Y-60441434D01*
X107261881Y-60440894D01*
X107276267Y-60431020D01*
X107277047Y-60430439D01*
X107290968Y-60419225D01*
X107291665Y-60418621D01*
X107296152Y-60414435D01*
X107386566Y-60504849D01*
G37*
X107386566Y-60504849D02*
X107382380Y-60509337D01*
X107381776Y-60510033D01*
X107370562Y-60523954D01*
X107369981Y-60524734D01*
X107360107Y-60539120D01*
X107359567Y-60539979D01*
X107351033Y-60554828D01*
X107350549Y-60555757D01*
X107343356Y-60571071D01*
X107342944Y-60572053D01*
X107337091Y-60587831D01*
X107336762Y-60588848D01*
X107332249Y-60605090D01*
X107332008Y-60606121D01*
X107328836Y-60622827D01*
X107328685Y-60623849D01*
X107326853Y-60641019D01*
X107326786Y-60642012D01*
X107326558Y-60650189D01*
X107086269Y-60714731D01*
X107150811Y-60474443D01*
X107158988Y-60474215D01*
X107159982Y-60474148D01*
X107177152Y-60472316D01*
X107178174Y-60472165D01*
X107194880Y-60468993D01*
X107195911Y-60468752D01*
X107212153Y-60464239D01*
X107213170Y-60463910D01*
X107228948Y-60458057D01*
X107229930Y-60457645D01*
X107245244Y-60450452D01*
X107246173Y-60449968D01*
X107261022Y-60441434D01*
X107261881Y-60440894D01*
X107276267Y-60431020D01*
X107277047Y-60430439D01*
X107290968Y-60419225D01*
X107291665Y-60418621D01*
X107296152Y-60414435D01*
X107386566Y-60504849D01*
%TO.N,/HPCOM*%
G36*
X106878566Y-61901849D02*
G01*
X106874380Y-61906337D01*
X106873776Y-61907033D01*
X106862562Y-61920954D01*
X106861981Y-61921734D01*
X106852107Y-61936120D01*
X106851567Y-61936979D01*
X106843033Y-61951828D01*
X106842549Y-61952757D01*
X106835356Y-61968071D01*
X106834944Y-61969053D01*
X106829091Y-61984831D01*
X106828762Y-61985848D01*
X106824249Y-62002090D01*
X106824008Y-62003121D01*
X106820836Y-62019827D01*
X106820685Y-62020849D01*
X106818853Y-62038019D01*
X106818786Y-62039012D01*
X106818558Y-62047189D01*
X106578269Y-62111731D01*
X106642811Y-61871443D01*
X106650988Y-61871215D01*
X106651982Y-61871148D01*
X106669152Y-61869316D01*
X106670174Y-61869165D01*
X106686880Y-61865993D01*
X106687911Y-61865752D01*
X106704153Y-61861239D01*
X106705170Y-61860910D01*
X106720948Y-61855057D01*
X106721930Y-61854645D01*
X106737244Y-61847452D01*
X106738173Y-61846968D01*
X106753022Y-61838434D01*
X106753881Y-61837894D01*
X106768267Y-61828020D01*
X106769047Y-61827439D01*
X106782968Y-61816225D01*
X106783665Y-61815621D01*
X106788152Y-61811435D01*
X106878566Y-61901849D01*
G37*
X106878566Y-61901849D02*
X106874380Y-61906337D01*
X106873776Y-61907033D01*
X106862562Y-61920954D01*
X106861981Y-61921734D01*
X106852107Y-61936120D01*
X106851567Y-61936979D01*
X106843033Y-61951828D01*
X106842549Y-61952757D01*
X106835356Y-61968071D01*
X106834944Y-61969053D01*
X106829091Y-61984831D01*
X106828762Y-61985848D01*
X106824249Y-62002090D01*
X106824008Y-62003121D01*
X106820836Y-62019827D01*
X106820685Y-62020849D01*
X106818853Y-62038019D01*
X106818786Y-62039012D01*
X106818558Y-62047189D01*
X106578269Y-62111731D01*
X106642811Y-61871443D01*
X106650988Y-61871215D01*
X106651982Y-61871148D01*
X106669152Y-61869316D01*
X106670174Y-61869165D01*
X106686880Y-61865993D01*
X106687911Y-61865752D01*
X106704153Y-61861239D01*
X106705170Y-61860910D01*
X106720948Y-61855057D01*
X106721930Y-61854645D01*
X106737244Y-61847452D01*
X106738173Y-61846968D01*
X106753022Y-61838434D01*
X106753881Y-61837894D01*
X106768267Y-61828020D01*
X106769047Y-61827439D01*
X106782968Y-61816225D01*
X106783665Y-61815621D01*
X106788152Y-61811435D01*
X106878566Y-61901849D01*
%TO.N,/USB_DP*%
G36*
X97991625Y-61855839D02*
G01*
X97987439Y-61860327D01*
X97986835Y-61861023D01*
X97975621Y-61874944D01*
X97975040Y-61875724D01*
X97965166Y-61890110D01*
X97964626Y-61890969D01*
X97956092Y-61905818D01*
X97955608Y-61906747D01*
X97948415Y-61922061D01*
X97948003Y-61923043D01*
X97942150Y-61938821D01*
X97941821Y-61939838D01*
X97937308Y-61956080D01*
X97937067Y-61957111D01*
X97933895Y-61973817D01*
X97933744Y-61974839D01*
X97931912Y-61992009D01*
X97931845Y-61993002D01*
X97931617Y-62001179D01*
X97691328Y-62065721D01*
X97755870Y-61825433D01*
X97764047Y-61825205D01*
X97765041Y-61825138D01*
X97782211Y-61823306D01*
X97783233Y-61823155D01*
X97799939Y-61819983D01*
X97800970Y-61819742D01*
X97817212Y-61815229D01*
X97818229Y-61814900D01*
X97834007Y-61809047D01*
X97834989Y-61808635D01*
X97850303Y-61801442D01*
X97851232Y-61800958D01*
X97866081Y-61792424D01*
X97866940Y-61791884D01*
X97881326Y-61782010D01*
X97882106Y-61781429D01*
X97896027Y-61770215D01*
X97896724Y-61769611D01*
X97901211Y-61765425D01*
X97991625Y-61855839D01*
G37*
X97991625Y-61855839D02*
X97987439Y-61860327D01*
X97986835Y-61861023D01*
X97975621Y-61874944D01*
X97975040Y-61875724D01*
X97965166Y-61890110D01*
X97964626Y-61890969D01*
X97956092Y-61905818D01*
X97955608Y-61906747D01*
X97948415Y-61922061D01*
X97948003Y-61923043D01*
X97942150Y-61938821D01*
X97941821Y-61939838D01*
X97937308Y-61956080D01*
X97937067Y-61957111D01*
X97933895Y-61973817D01*
X97933744Y-61974839D01*
X97931912Y-61992009D01*
X97931845Y-61993002D01*
X97931617Y-62001179D01*
X97691328Y-62065721D01*
X97755870Y-61825433D01*
X97764047Y-61825205D01*
X97765041Y-61825138D01*
X97782211Y-61823306D01*
X97783233Y-61823155D01*
X97799939Y-61819983D01*
X97800970Y-61819742D01*
X97817212Y-61815229D01*
X97818229Y-61814900D01*
X97834007Y-61809047D01*
X97834989Y-61808635D01*
X97850303Y-61801442D01*
X97851232Y-61800958D01*
X97866081Y-61792424D01*
X97866940Y-61791884D01*
X97881326Y-61782010D01*
X97882106Y-61781429D01*
X97896027Y-61770215D01*
X97896724Y-61769611D01*
X97901211Y-61765425D01*
X97991625Y-61855839D01*
%TO.N,/FLASH_DO*%
G36*
X93274083Y-60432953D02*
G01*
X93274908Y-60433650D01*
X93286901Y-60442936D01*
X93287797Y-60443570D01*
X93300481Y-60451743D01*
X93301433Y-60452299D01*
X93314809Y-60459358D01*
X93315791Y-60459824D01*
X93329857Y-60465770D01*
X93330849Y-60466141D01*
X93345606Y-60470974D01*
X93346587Y-60471252D01*
X93362035Y-60474970D01*
X93362983Y-60475161D01*
X93379122Y-60477767D01*
X93380025Y-60477879D01*
X93396855Y-60479370D01*
X93397702Y-60479417D01*
X93405702Y-60479590D01*
X93470228Y-60719818D01*
X93230000Y-60655292D01*
X93229827Y-60647292D01*
X93229780Y-60646445D01*
X93228289Y-60629615D01*
X93228177Y-60628712D01*
X93225571Y-60612573D01*
X93225380Y-60611625D01*
X93221662Y-60596177D01*
X93221384Y-60595196D01*
X93216551Y-60580439D01*
X93216180Y-60579447D01*
X93210234Y-60565381D01*
X93209768Y-60564399D01*
X93202709Y-60551023D01*
X93202153Y-60550071D01*
X93193980Y-60537387D01*
X93193346Y-60536491D01*
X93184060Y-60524498D01*
X93183363Y-60523673D01*
X93181212Y-60521335D01*
X93271745Y-60430802D01*
X93274083Y-60432953D01*
G37*
X93274083Y-60432953D02*
X93274908Y-60433650D01*
X93286901Y-60442936D01*
X93287797Y-60443570D01*
X93300481Y-60451743D01*
X93301433Y-60452299D01*
X93314809Y-60459358D01*
X93315791Y-60459824D01*
X93329857Y-60465770D01*
X93330849Y-60466141D01*
X93345606Y-60470974D01*
X93346587Y-60471252D01*
X93362035Y-60474970D01*
X93362983Y-60475161D01*
X93379122Y-60477767D01*
X93380025Y-60477879D01*
X93396855Y-60479370D01*
X93397702Y-60479417D01*
X93405702Y-60479590D01*
X93470228Y-60719818D01*
X93230000Y-60655292D01*
X93229827Y-60647292D01*
X93229780Y-60646445D01*
X93228289Y-60629615D01*
X93228177Y-60628712D01*
X93225571Y-60612573D01*
X93225380Y-60611625D01*
X93221662Y-60596177D01*
X93221384Y-60595196D01*
X93216551Y-60580439D01*
X93216180Y-60579447D01*
X93210234Y-60565381D01*
X93209768Y-60564399D01*
X93202709Y-60551023D01*
X93202153Y-60550071D01*
X93193980Y-60537387D01*
X93193346Y-60536491D01*
X93184060Y-60524498D01*
X93183363Y-60523673D01*
X93181212Y-60521335D01*
X93271745Y-60430802D01*
X93274083Y-60432953D01*
G36*
X93564198Y-60548381D02*
G01*
X93564830Y-60548947D01*
X93577786Y-60559793D01*
X93578503Y-60560351D01*
X93591757Y-60569921D01*
X93592563Y-60570458D01*
X93606116Y-60578752D01*
X93607005Y-60579248D01*
X93620857Y-60586266D01*
X93621822Y-60586705D01*
X93635973Y-60592447D01*
X93636998Y-60592813D01*
X93651448Y-60597279D01*
X93652513Y-60597558D01*
X93667261Y-60600748D01*
X93668343Y-60600933D01*
X93683390Y-60602847D01*
X93684465Y-60602938D01*
X93687639Y-60603070D01*
X93687639Y-60731104D01*
X93684465Y-60731236D01*
X93683390Y-60731327D01*
X93668343Y-60733241D01*
X93667261Y-60733426D01*
X93652513Y-60736616D01*
X93651448Y-60736895D01*
X93636998Y-60741361D01*
X93635973Y-60741727D01*
X93621822Y-60747469D01*
X93620857Y-60747908D01*
X93607005Y-60754926D01*
X93606116Y-60755422D01*
X93592563Y-60763716D01*
X93591757Y-60764253D01*
X93578503Y-60773823D01*
X93577786Y-60774381D01*
X93564830Y-60785227D01*
X93564198Y-60785793D01*
X93558418Y-60791329D01*
X93342923Y-60667087D01*
X93558418Y-60542845D01*
X93564198Y-60548381D01*
G37*
X93564198Y-60548381D02*
X93564830Y-60548947D01*
X93577786Y-60559793D01*
X93578503Y-60560351D01*
X93591757Y-60569921D01*
X93592563Y-60570458D01*
X93606116Y-60578752D01*
X93607005Y-60579248D01*
X93620857Y-60586266D01*
X93621822Y-60586705D01*
X93635973Y-60592447D01*
X93636998Y-60592813D01*
X93651448Y-60597279D01*
X93652513Y-60597558D01*
X93667261Y-60600748D01*
X93668343Y-60600933D01*
X93683390Y-60602847D01*
X93684465Y-60602938D01*
X93687639Y-60603070D01*
X93687639Y-60731104D01*
X93684465Y-60731236D01*
X93683390Y-60731327D01*
X93668343Y-60733241D01*
X93667261Y-60733426D01*
X93652513Y-60736616D01*
X93651448Y-60736895D01*
X93636998Y-60741361D01*
X93635973Y-60741727D01*
X93621822Y-60747469D01*
X93620857Y-60747908D01*
X93607005Y-60754926D01*
X93606116Y-60755422D01*
X93592563Y-60763716D01*
X93591757Y-60764253D01*
X93578503Y-60773823D01*
X93577786Y-60774381D01*
X93564830Y-60785227D01*
X93564198Y-60785793D01*
X93558418Y-60791329D01*
X93342923Y-60667087D01*
X93558418Y-60542845D01*
X93564198Y-60548381D01*
%TO.N,/USB_DM*%
G36*
X97362703Y-61871391D02*
G01*
X97358517Y-61875879D01*
X97357913Y-61876575D01*
X97346699Y-61890496D01*
X97346118Y-61891276D01*
X97336244Y-61905662D01*
X97335704Y-61906521D01*
X97327170Y-61921370D01*
X97326686Y-61922299D01*
X97319493Y-61937613D01*
X97319081Y-61938595D01*
X97313228Y-61954373D01*
X97312899Y-61955390D01*
X97308386Y-61971632D01*
X97308145Y-61972663D01*
X97304973Y-61989369D01*
X97304822Y-61990391D01*
X97302990Y-62007561D01*
X97302923Y-62008554D01*
X97302695Y-62016731D01*
X97062406Y-62081273D01*
X97126948Y-61840985D01*
X97135125Y-61840757D01*
X97136119Y-61840690D01*
X97153289Y-61838858D01*
X97154311Y-61838707D01*
X97171017Y-61835535D01*
X97172048Y-61835294D01*
X97188290Y-61830781D01*
X97189307Y-61830452D01*
X97205085Y-61824599D01*
X97206067Y-61824187D01*
X97221381Y-61816994D01*
X97222310Y-61816510D01*
X97237159Y-61807976D01*
X97238018Y-61807436D01*
X97252404Y-61797562D01*
X97253184Y-61796981D01*
X97267105Y-61785767D01*
X97267802Y-61785163D01*
X97272289Y-61780977D01*
X97362703Y-61871391D01*
G37*
X97362703Y-61871391D02*
X97358517Y-61875879D01*
X97357913Y-61876575D01*
X97346699Y-61890496D01*
X97346118Y-61891276D01*
X97336244Y-61905662D01*
X97335704Y-61906521D01*
X97327170Y-61921370D01*
X97326686Y-61922299D01*
X97319493Y-61937613D01*
X97319081Y-61938595D01*
X97313228Y-61954373D01*
X97312899Y-61955390D01*
X97308386Y-61971632D01*
X97308145Y-61972663D01*
X97304973Y-61989369D01*
X97304822Y-61990391D01*
X97302990Y-62007561D01*
X97302923Y-62008554D01*
X97302695Y-62016731D01*
X97062406Y-62081273D01*
X97126948Y-61840985D01*
X97135125Y-61840757D01*
X97136119Y-61840690D01*
X97153289Y-61838858D01*
X97154311Y-61838707D01*
X97171017Y-61835535D01*
X97172048Y-61835294D01*
X97188290Y-61830781D01*
X97189307Y-61830452D01*
X97205085Y-61824599D01*
X97206067Y-61824187D01*
X97221381Y-61816994D01*
X97222310Y-61816510D01*
X97237159Y-61807976D01*
X97238018Y-61807436D01*
X97252404Y-61797562D01*
X97253184Y-61796981D01*
X97267105Y-61785767D01*
X97267802Y-61785163D01*
X97272289Y-61780977D01*
X97362703Y-61871391D01*
%TO.N,/PA1*%
G36*
X93655687Y-62916887D02*
G01*
X93440193Y-63041128D01*
X93434414Y-63035593D01*
X93433781Y-63035027D01*
X93420825Y-63024181D01*
X93420108Y-63023623D01*
X93406854Y-63014053D01*
X93406048Y-63013516D01*
X93392494Y-63005222D01*
X93391605Y-63004726D01*
X93377753Y-62997708D01*
X93376788Y-62997269D01*
X93362638Y-62991527D01*
X93361613Y-62991161D01*
X93347163Y-62986695D01*
X93346098Y-62986416D01*
X93331350Y-62983226D01*
X93330267Y-62983041D01*
X93315219Y-62981127D01*
X93314145Y-62981036D01*
X93310971Y-62980904D01*
X93310971Y-62852870D01*
X93314145Y-62852738D01*
X93315219Y-62852647D01*
X93330267Y-62850733D01*
X93331350Y-62850548D01*
X93346098Y-62847358D01*
X93347163Y-62847079D01*
X93361613Y-62842613D01*
X93362638Y-62842247D01*
X93376788Y-62836505D01*
X93377753Y-62836066D01*
X93391605Y-62829048D01*
X93392494Y-62828552D01*
X93406048Y-62820258D01*
X93406854Y-62819721D01*
X93420108Y-62810151D01*
X93420825Y-62809593D01*
X93433781Y-62798747D01*
X93434414Y-62798181D01*
X93440193Y-62792646D01*
X93655687Y-62916887D01*
G37*
X93655687Y-62916887D02*
X93440193Y-63041128D01*
X93434414Y-63035593D01*
X93433781Y-63035027D01*
X93420825Y-63024181D01*
X93420108Y-63023623D01*
X93406854Y-63014053D01*
X93406048Y-63013516D01*
X93392494Y-63005222D01*
X93391605Y-63004726D01*
X93377753Y-62997708D01*
X93376788Y-62997269D01*
X93362638Y-62991527D01*
X93361613Y-62991161D01*
X93347163Y-62986695D01*
X93346098Y-62986416D01*
X93331350Y-62983226D01*
X93330267Y-62983041D01*
X93315219Y-62981127D01*
X93314145Y-62981036D01*
X93310971Y-62980904D01*
X93310971Y-62852870D01*
X93314145Y-62852738D01*
X93315219Y-62852647D01*
X93330267Y-62850733D01*
X93331350Y-62850548D01*
X93346098Y-62847358D01*
X93347163Y-62847079D01*
X93361613Y-62842613D01*
X93362638Y-62842247D01*
X93376788Y-62836505D01*
X93377753Y-62836066D01*
X93391605Y-62829048D01*
X93392494Y-62828552D01*
X93406048Y-62820258D01*
X93406854Y-62819721D01*
X93420108Y-62810151D01*
X93420825Y-62809593D01*
X93433781Y-62798747D01*
X93434414Y-62798181D01*
X93440193Y-62792646D01*
X93655687Y-62916887D01*
%TO.N,/FLASH_~CS*%
G36*
X93789445Y-59959259D02*
G01*
X93789510Y-59960179D01*
X93791424Y-59977952D01*
X93791565Y-59978914D01*
X93794755Y-59996068D01*
X93794980Y-59997058D01*
X93799446Y-60013592D01*
X93799761Y-60014590D01*
X93805503Y-60030505D01*
X93805906Y-60031491D01*
X93812924Y-60046786D01*
X93813410Y-60047738D01*
X93821704Y-60062414D01*
X93822263Y-60063313D01*
X93831833Y-60077369D01*
X93832449Y-60078199D01*
X93843295Y-60091635D01*
X93843950Y-60092385D01*
X93849571Y-60098329D01*
X93725299Y-60313877D01*
X93601027Y-60098329D01*
X93606648Y-60092385D01*
X93607303Y-60091635D01*
X93618149Y-60078199D01*
X93618765Y-60077369D01*
X93628335Y-60063313D01*
X93628894Y-60062414D01*
X93637188Y-60047738D01*
X93637674Y-60046786D01*
X93644692Y-60031491D01*
X93645095Y-60030505D01*
X93650837Y-60014590D01*
X93651152Y-60013592D01*
X93655618Y-59997058D01*
X93655843Y-59996068D01*
X93659033Y-59978914D01*
X93659174Y-59977952D01*
X93661088Y-59960179D01*
X93661153Y-59959259D01*
X93661366Y-59953126D01*
X93789232Y-59953126D01*
X93789445Y-59959259D01*
G37*
X93789445Y-59959259D02*
X93789510Y-59960179D01*
X93791424Y-59977952D01*
X93791565Y-59978914D01*
X93794755Y-59996068D01*
X93794980Y-59997058D01*
X93799446Y-60013592D01*
X93799761Y-60014590D01*
X93805503Y-60030505D01*
X93805906Y-60031491D01*
X93812924Y-60046786D01*
X93813410Y-60047738D01*
X93821704Y-60062414D01*
X93822263Y-60063313D01*
X93831833Y-60077369D01*
X93832449Y-60078199D01*
X93843295Y-60091635D01*
X93843950Y-60092385D01*
X93849571Y-60098329D01*
X93725299Y-60313877D01*
X93601027Y-60098329D01*
X93606648Y-60092385D01*
X93607303Y-60091635D01*
X93618149Y-60078199D01*
X93618765Y-60077369D01*
X93628335Y-60063313D01*
X93628894Y-60062414D01*
X93637188Y-60047738D01*
X93637674Y-60046786D01*
X93644692Y-60031491D01*
X93645095Y-60030505D01*
X93650837Y-60014590D01*
X93651152Y-60013592D01*
X93655618Y-59997058D01*
X93655843Y-59996068D01*
X93659033Y-59978914D01*
X93659174Y-59977952D01*
X93661088Y-59960179D01*
X93661153Y-59959259D01*
X93661366Y-59953126D01*
X93789232Y-59953126D01*
X93789445Y-59959259D01*
G36*
X93912857Y-60251114D02*
G01*
X93913085Y-60259292D01*
X93913152Y-60260285D01*
X93914984Y-60277455D01*
X93915135Y-60278477D01*
X93918307Y-60295183D01*
X93918548Y-60296214D01*
X93923061Y-60312456D01*
X93923390Y-60313473D01*
X93929243Y-60329251D01*
X93929655Y-60330233D01*
X93936848Y-60345547D01*
X93937332Y-60346476D01*
X93945866Y-60361325D01*
X93946406Y-60362184D01*
X93956280Y-60376570D01*
X93956861Y-60377350D01*
X93968075Y-60391271D01*
X93968679Y-60391968D01*
X93972865Y-60396454D01*
X93882450Y-60486869D01*
X93877964Y-60482683D01*
X93877267Y-60482079D01*
X93863346Y-60470865D01*
X93862566Y-60470284D01*
X93848180Y-60460410D01*
X93847321Y-60459870D01*
X93832472Y-60451336D01*
X93831543Y-60450852D01*
X93816229Y-60443659D01*
X93815247Y-60443247D01*
X93799469Y-60437394D01*
X93798452Y-60437065D01*
X93782210Y-60432552D01*
X93781179Y-60432311D01*
X93764473Y-60429139D01*
X93763451Y-60428988D01*
X93746281Y-60427156D01*
X93745288Y-60427089D01*
X93737110Y-60426861D01*
X93672568Y-60186572D01*
X93912857Y-60251114D01*
G37*
X93912857Y-60251114D02*
X93913085Y-60259292D01*
X93913152Y-60260285D01*
X93914984Y-60277455D01*
X93915135Y-60278477D01*
X93918307Y-60295183D01*
X93918548Y-60296214D01*
X93923061Y-60312456D01*
X93923390Y-60313473D01*
X93929243Y-60329251D01*
X93929655Y-60330233D01*
X93936848Y-60345547D01*
X93937332Y-60346476D01*
X93945866Y-60361325D01*
X93946406Y-60362184D01*
X93956280Y-60376570D01*
X93956861Y-60377350D01*
X93968075Y-60391271D01*
X93968679Y-60391968D01*
X93972865Y-60396454D01*
X93882450Y-60486869D01*
X93877964Y-60482683D01*
X93877267Y-60482079D01*
X93863346Y-60470865D01*
X93862566Y-60470284D01*
X93848180Y-60460410D01*
X93847321Y-60459870D01*
X93832472Y-60451336D01*
X93831543Y-60450852D01*
X93816229Y-60443659D01*
X93815247Y-60443247D01*
X93799469Y-60437394D01*
X93798452Y-60437065D01*
X93782210Y-60432552D01*
X93781179Y-60432311D01*
X93764473Y-60429139D01*
X93763451Y-60428988D01*
X93746281Y-60427156D01*
X93745288Y-60427089D01*
X93737110Y-60426861D01*
X93672568Y-60186572D01*
X93912857Y-60251114D01*
%TO.N,/FLASH_DI*%
G36*
X93751574Y-61278584D02*
G01*
X93536026Y-61402856D01*
X93530082Y-61397235D01*
X93529332Y-61396580D01*
X93515896Y-61385734D01*
X93515066Y-61385118D01*
X93501010Y-61375548D01*
X93500111Y-61374989D01*
X93485435Y-61366695D01*
X93484483Y-61366209D01*
X93469188Y-61359191D01*
X93468202Y-61358788D01*
X93452287Y-61353046D01*
X93451288Y-61352731D01*
X93434754Y-61348266D01*
X93433766Y-61348041D01*
X93416612Y-61344850D01*
X93415649Y-61344709D01*
X93397876Y-61342795D01*
X93396956Y-61342730D01*
X93390823Y-61342517D01*
X93390823Y-61214651D01*
X93396956Y-61214438D01*
X93397876Y-61214373D01*
X93415649Y-61212459D01*
X93416611Y-61212318D01*
X93433765Y-61209128D01*
X93434755Y-61208903D01*
X93451289Y-61204437D01*
X93452287Y-61204122D01*
X93468202Y-61198380D01*
X93469188Y-61197977D01*
X93484483Y-61190959D01*
X93485435Y-61190473D01*
X93500111Y-61182180D01*
X93501011Y-61181620D01*
X93515067Y-61172049D01*
X93515896Y-61171434D01*
X93529332Y-61160588D01*
X93530082Y-61159933D01*
X93536026Y-61154312D01*
X93751574Y-61278584D01*
G37*
X93751574Y-61278584D02*
X93536026Y-61402856D01*
X93530082Y-61397235D01*
X93529332Y-61396580D01*
X93515896Y-61385734D01*
X93515066Y-61385118D01*
X93501010Y-61375548D01*
X93500111Y-61374989D01*
X93485435Y-61366695D01*
X93484483Y-61366209D01*
X93469188Y-61359191D01*
X93468202Y-61358788D01*
X93452287Y-61353046D01*
X93451288Y-61352731D01*
X93434754Y-61348266D01*
X93433766Y-61348041D01*
X93416612Y-61344850D01*
X93415649Y-61344709D01*
X93397876Y-61342795D01*
X93396956Y-61342730D01*
X93390823Y-61342517D01*
X93390823Y-61214651D01*
X93396956Y-61214438D01*
X93397876Y-61214373D01*
X93415649Y-61212459D01*
X93416611Y-61212318D01*
X93433765Y-61209128D01*
X93434755Y-61208903D01*
X93451289Y-61204437D01*
X93452287Y-61204122D01*
X93468202Y-61198380D01*
X93469188Y-61197977D01*
X93484483Y-61190959D01*
X93485435Y-61190473D01*
X93500111Y-61182180D01*
X93501011Y-61181620D01*
X93515067Y-61172049D01*
X93515896Y-61171434D01*
X93529332Y-61160588D01*
X93530082Y-61159933D01*
X93536026Y-61154312D01*
X93751574Y-61278584D01*
G36*
X93864558Y-61290395D02*
G01*
X93864786Y-61298573D01*
X93864853Y-61299566D01*
X93866685Y-61316736D01*
X93866836Y-61317758D01*
X93870008Y-61334464D01*
X93870249Y-61335495D01*
X93874762Y-61351737D01*
X93875091Y-61352754D01*
X93880944Y-61368532D01*
X93881356Y-61369514D01*
X93888549Y-61384828D01*
X93889033Y-61385757D01*
X93897567Y-61400606D01*
X93898107Y-61401465D01*
X93907981Y-61415851D01*
X93908562Y-61416631D01*
X93919776Y-61430552D01*
X93920380Y-61431249D01*
X93924566Y-61435735D01*
X93834151Y-61526150D01*
X93829665Y-61521964D01*
X93828968Y-61521360D01*
X93815047Y-61510146D01*
X93814267Y-61509565D01*
X93799881Y-61499691D01*
X93799022Y-61499151D01*
X93784173Y-61490617D01*
X93783244Y-61490133D01*
X93767930Y-61482940D01*
X93766948Y-61482528D01*
X93751170Y-61476675D01*
X93750153Y-61476346D01*
X93733911Y-61471833D01*
X93732880Y-61471592D01*
X93716174Y-61468420D01*
X93715152Y-61468269D01*
X93697982Y-61466437D01*
X93696989Y-61466370D01*
X93688811Y-61466142D01*
X93624269Y-61225853D01*
X93864558Y-61290395D01*
G37*
X93864558Y-61290395D02*
X93864786Y-61298573D01*
X93864853Y-61299566D01*
X93866685Y-61316736D01*
X93866836Y-61317758D01*
X93870008Y-61334464D01*
X93870249Y-61335495D01*
X93874762Y-61351737D01*
X93875091Y-61352754D01*
X93880944Y-61368532D01*
X93881356Y-61369514D01*
X93888549Y-61384828D01*
X93889033Y-61385757D01*
X93897567Y-61400606D01*
X93898107Y-61401465D01*
X93907981Y-61415851D01*
X93908562Y-61416631D01*
X93919776Y-61430552D01*
X93920380Y-61431249D01*
X93924566Y-61435735D01*
X93834151Y-61526150D01*
X93829665Y-61521964D01*
X93828968Y-61521360D01*
X93815047Y-61510146D01*
X93814267Y-61509565D01*
X93799881Y-61499691D01*
X93799022Y-61499151D01*
X93784173Y-61490617D01*
X93783244Y-61490133D01*
X93767930Y-61482940D01*
X93766948Y-61482528D01*
X93751170Y-61476675D01*
X93750153Y-61476346D01*
X93733911Y-61471833D01*
X93732880Y-61471592D01*
X93716174Y-61468420D01*
X93715152Y-61468269D01*
X93697982Y-61466437D01*
X93696989Y-61466370D01*
X93688811Y-61466142D01*
X93624269Y-61225853D01*
X93864558Y-61290395D01*
%TO.N,/PA2*%
G36*
X93654402Y-62389877D02*
G01*
X93438908Y-62514118D01*
X93433129Y-62508583D01*
X93432496Y-62508017D01*
X93419540Y-62497171D01*
X93418823Y-62496613D01*
X93405569Y-62487043D01*
X93404763Y-62486506D01*
X93391209Y-62478212D01*
X93390320Y-62477716D01*
X93376468Y-62470698D01*
X93375503Y-62470259D01*
X93361353Y-62464518D01*
X93360328Y-62464152D01*
X93345878Y-62459686D01*
X93344814Y-62459407D01*
X93330066Y-62456216D01*
X93328982Y-62456031D01*
X93313934Y-62454117D01*
X93312860Y-62454026D01*
X93309686Y-62453894D01*
X93309686Y-62325860D01*
X93312860Y-62325728D01*
X93313934Y-62325637D01*
X93328982Y-62323723D01*
X93330065Y-62323538D01*
X93344813Y-62320348D01*
X93345878Y-62320069D01*
X93360328Y-62315603D01*
X93361353Y-62315237D01*
X93375503Y-62309495D01*
X93376467Y-62309056D01*
X93390319Y-62302039D01*
X93391209Y-62301543D01*
X93404763Y-62293249D01*
X93405569Y-62292712D01*
X93418823Y-62283141D01*
X93419540Y-62282583D01*
X93432496Y-62271737D01*
X93433129Y-62271171D01*
X93438908Y-62265636D01*
X93654402Y-62389877D01*
G37*
X93654402Y-62389877D02*
X93438908Y-62514118D01*
X93433129Y-62508583D01*
X93432496Y-62508017D01*
X93419540Y-62497171D01*
X93418823Y-62496613D01*
X93405569Y-62487043D01*
X93404763Y-62486506D01*
X93391209Y-62478212D01*
X93390320Y-62477716D01*
X93376468Y-62470698D01*
X93375503Y-62470259D01*
X93361353Y-62464518D01*
X93360328Y-62464152D01*
X93345878Y-62459686D01*
X93344814Y-62459407D01*
X93330066Y-62456216D01*
X93328982Y-62456031D01*
X93313934Y-62454117D01*
X93312860Y-62454026D01*
X93309686Y-62453894D01*
X93309686Y-62325860D01*
X93312860Y-62325728D01*
X93313934Y-62325637D01*
X93328982Y-62323723D01*
X93330065Y-62323538D01*
X93344813Y-62320348D01*
X93345878Y-62320069D01*
X93360328Y-62315603D01*
X93361353Y-62315237D01*
X93375503Y-62309495D01*
X93376467Y-62309056D01*
X93390319Y-62302039D01*
X93391209Y-62301543D01*
X93404763Y-62293249D01*
X93405569Y-62292712D01*
X93418823Y-62283141D01*
X93419540Y-62282583D01*
X93432496Y-62271737D01*
X93433129Y-62271171D01*
X93438908Y-62265636D01*
X93654402Y-62389877D01*
%TO.N,/HPL*%
G36*
X106260920Y-62711349D02*
G01*
X106261669Y-62712004D01*
X106275105Y-62722850D01*
X106275935Y-62723466D01*
X106289991Y-62733036D01*
X106290890Y-62733595D01*
X106305566Y-62741889D01*
X106306518Y-62742375D01*
X106321813Y-62749393D01*
X106322799Y-62749796D01*
X106338714Y-62755538D01*
X106339712Y-62755853D01*
X106356246Y-62760319D01*
X106357236Y-62760544D01*
X106374390Y-62763734D01*
X106375352Y-62763875D01*
X106393125Y-62765789D01*
X106394045Y-62765854D01*
X106400177Y-62766067D01*
X106400177Y-62893933D01*
X106394045Y-62894146D01*
X106393125Y-62894211D01*
X106375352Y-62896125D01*
X106374390Y-62896266D01*
X106357236Y-62899456D01*
X106356246Y-62899681D01*
X106339712Y-62904147D01*
X106338714Y-62904462D01*
X106322799Y-62910204D01*
X106321813Y-62910607D01*
X106306518Y-62917625D01*
X106305566Y-62918111D01*
X106290890Y-62926405D01*
X106289991Y-62926964D01*
X106275935Y-62936534D01*
X106275105Y-62937150D01*
X106261669Y-62947996D01*
X106260920Y-62948651D01*
X106254975Y-62954273D01*
X106039426Y-62830000D01*
X106254975Y-62705727D01*
X106260920Y-62711349D01*
G37*
X106260920Y-62711349D02*
X106261669Y-62712004D01*
X106275105Y-62722850D01*
X106275935Y-62723466D01*
X106289991Y-62733036D01*
X106290890Y-62733595D01*
X106305566Y-62741889D01*
X106306518Y-62742375D01*
X106321813Y-62749393D01*
X106322799Y-62749796D01*
X106338714Y-62755538D01*
X106339712Y-62755853D01*
X106356246Y-62760319D01*
X106357236Y-62760544D01*
X106374390Y-62763734D01*
X106375352Y-62763875D01*
X106393125Y-62765789D01*
X106394045Y-62765854D01*
X106400177Y-62766067D01*
X106400177Y-62893933D01*
X106394045Y-62894146D01*
X106393125Y-62894211D01*
X106375352Y-62896125D01*
X106374390Y-62896266D01*
X106357236Y-62899456D01*
X106356246Y-62899681D01*
X106339712Y-62904147D01*
X106338714Y-62904462D01*
X106322799Y-62910204D01*
X106321813Y-62910607D01*
X106306518Y-62917625D01*
X106305566Y-62918111D01*
X106290890Y-62926405D01*
X106289991Y-62926964D01*
X106275935Y-62936534D01*
X106275105Y-62937150D01*
X106261669Y-62947996D01*
X106260920Y-62948651D01*
X106254975Y-62954273D01*
X106039426Y-62830000D01*
X106254975Y-62705727D01*
X106260920Y-62711349D01*
%TO.N,/FLASH_CLK*%
G36*
X94273113Y-59749960D02*
G01*
X94273178Y-59750880D01*
X94275092Y-59768653D01*
X94275233Y-59769615D01*
X94278423Y-59786769D01*
X94278648Y-59787759D01*
X94283114Y-59804293D01*
X94283429Y-59805291D01*
X94289171Y-59821206D01*
X94289574Y-59822192D01*
X94296592Y-59837487D01*
X94297078Y-59838439D01*
X94305372Y-59853115D01*
X94305931Y-59854014D01*
X94315501Y-59868070D01*
X94316117Y-59868900D01*
X94326963Y-59882336D01*
X94327618Y-59883086D01*
X94333239Y-59889030D01*
X94208967Y-60104578D01*
X94084695Y-59889030D01*
X94090316Y-59883086D01*
X94090971Y-59882336D01*
X94101817Y-59868900D01*
X94102433Y-59868070D01*
X94112003Y-59854014D01*
X94112562Y-59853115D01*
X94120856Y-59838439D01*
X94121342Y-59837487D01*
X94128360Y-59822192D01*
X94128763Y-59821206D01*
X94134505Y-59805291D01*
X94134820Y-59804293D01*
X94139286Y-59787759D01*
X94139511Y-59786769D01*
X94142701Y-59769615D01*
X94142842Y-59768653D01*
X94144756Y-59750880D01*
X94144821Y-59749960D01*
X94145034Y-59743827D01*
X94272900Y-59743827D01*
X94273113Y-59749960D01*
G37*
X94273113Y-59749960D02*
X94273178Y-59750880D01*
X94275092Y-59768653D01*
X94275233Y-59769615D01*
X94278423Y-59786769D01*
X94278648Y-59787759D01*
X94283114Y-59804293D01*
X94283429Y-59805291D01*
X94289171Y-59821206D01*
X94289574Y-59822192D01*
X94296592Y-59837487D01*
X94297078Y-59838439D01*
X94305372Y-59853115D01*
X94305931Y-59854014D01*
X94315501Y-59868070D01*
X94316117Y-59868900D01*
X94326963Y-59882336D01*
X94327618Y-59883086D01*
X94333239Y-59889030D01*
X94208967Y-60104578D01*
X94084695Y-59889030D01*
X94090316Y-59883086D01*
X94090971Y-59882336D01*
X94101817Y-59868900D01*
X94102433Y-59868070D01*
X94112003Y-59854014D01*
X94112562Y-59853115D01*
X94120856Y-59838439D01*
X94121342Y-59837487D01*
X94128360Y-59822192D01*
X94128763Y-59821206D01*
X94134505Y-59805291D01*
X94134820Y-59804293D01*
X94139286Y-59787759D01*
X94139511Y-59786769D01*
X94142701Y-59769615D01*
X94142842Y-59768653D01*
X94144756Y-59750880D01*
X94144821Y-59749960D01*
X94145034Y-59743827D01*
X94272900Y-59743827D01*
X94273113Y-59749960D01*
G36*
X90880273Y-62898475D02*
G01*
X90874651Y-62904420D01*
X90873996Y-62905169D01*
X90863150Y-62918605D01*
X90862534Y-62919435D01*
X90852964Y-62933491D01*
X90852405Y-62934390D01*
X90844111Y-62949066D01*
X90843625Y-62950018D01*
X90836607Y-62965313D01*
X90836204Y-62966299D01*
X90830462Y-62982214D01*
X90830147Y-62983212D01*
X90825681Y-62999746D01*
X90825456Y-63000736D01*
X90822266Y-63017890D01*
X90822125Y-63018852D01*
X90820211Y-63036625D01*
X90820146Y-63037545D01*
X90819933Y-63043677D01*
X90692067Y-63043677D01*
X90691854Y-63037545D01*
X90691789Y-63036625D01*
X90689875Y-63018852D01*
X90689734Y-63017890D01*
X90686544Y-63000736D01*
X90686319Y-62999746D01*
X90681853Y-62983212D01*
X90681538Y-62982214D01*
X90675796Y-62966299D01*
X90675393Y-62965313D01*
X90668375Y-62950018D01*
X90667889Y-62949066D01*
X90659595Y-62934390D01*
X90659036Y-62933491D01*
X90649466Y-62919435D01*
X90648850Y-62918605D01*
X90638004Y-62905169D01*
X90637349Y-62904420D01*
X90631727Y-62898475D01*
X90756000Y-62682926D01*
X90880273Y-62898475D01*
G37*
X90880273Y-62898475D02*
X90874651Y-62904420D01*
X90873996Y-62905169D01*
X90863150Y-62918605D01*
X90862534Y-62919435D01*
X90852964Y-62933491D01*
X90852405Y-62934390D01*
X90844111Y-62949066D01*
X90843625Y-62950018D01*
X90836607Y-62965313D01*
X90836204Y-62966299D01*
X90830462Y-62982214D01*
X90830147Y-62983212D01*
X90825681Y-62999746D01*
X90825456Y-63000736D01*
X90822266Y-63017890D01*
X90822125Y-63018852D01*
X90820211Y-63036625D01*
X90820146Y-63037545D01*
X90819933Y-63043677D01*
X90692067Y-63043677D01*
X90691854Y-63037545D01*
X90691789Y-63036625D01*
X90689875Y-63018852D01*
X90689734Y-63017890D01*
X90686544Y-63000736D01*
X90686319Y-62999746D01*
X90681853Y-62983212D01*
X90681538Y-62982214D01*
X90675796Y-62966299D01*
X90675393Y-62965313D01*
X90668375Y-62950018D01*
X90667889Y-62949066D01*
X90659595Y-62934390D01*
X90659036Y-62933491D01*
X90649466Y-62919435D01*
X90648850Y-62918605D01*
X90638004Y-62905169D01*
X90637349Y-62904420D01*
X90631727Y-62898475D01*
X90756000Y-62682926D01*
X90880273Y-62898475D01*
%TO.N,/PF0*%
G36*
X96591566Y-59742849D02*
G01*
X96587380Y-59747337D01*
X96586776Y-59748033D01*
X96575562Y-59761954D01*
X96574981Y-59762734D01*
X96565107Y-59777120D01*
X96564567Y-59777979D01*
X96556033Y-59792828D01*
X96555549Y-59793757D01*
X96548356Y-59809071D01*
X96547944Y-59810053D01*
X96542091Y-59825831D01*
X96541762Y-59826848D01*
X96537249Y-59843090D01*
X96537008Y-59844121D01*
X96533836Y-59860827D01*
X96533685Y-59861849D01*
X96531853Y-59879019D01*
X96531786Y-59880012D01*
X96531558Y-59888189D01*
X96291269Y-59952731D01*
X96355811Y-59712443D01*
X96363988Y-59712215D01*
X96364982Y-59712148D01*
X96382152Y-59710316D01*
X96383174Y-59710165D01*
X96399880Y-59706993D01*
X96400911Y-59706752D01*
X96417153Y-59702239D01*
X96418170Y-59701910D01*
X96433948Y-59696057D01*
X96434930Y-59695645D01*
X96450244Y-59688452D01*
X96451173Y-59687968D01*
X96466022Y-59679434D01*
X96466881Y-59678894D01*
X96481267Y-59669020D01*
X96482047Y-59668439D01*
X96495968Y-59657225D01*
X96496665Y-59656621D01*
X96501152Y-59652435D01*
X96591566Y-59742849D01*
G37*
X96591566Y-59742849D02*
X96587380Y-59747337D01*
X96586776Y-59748033D01*
X96575562Y-59761954D01*
X96574981Y-59762734D01*
X96565107Y-59777120D01*
X96564567Y-59777979D01*
X96556033Y-59792828D01*
X96555549Y-59793757D01*
X96548356Y-59809071D01*
X96547944Y-59810053D01*
X96542091Y-59825831D01*
X96541762Y-59826848D01*
X96537249Y-59843090D01*
X96537008Y-59844121D01*
X96533836Y-59860827D01*
X96533685Y-59861849D01*
X96531853Y-59879019D01*
X96531786Y-59880012D01*
X96531558Y-59888189D01*
X96291269Y-59952731D01*
X96355811Y-59712443D01*
X96363988Y-59712215D01*
X96364982Y-59712148D01*
X96382152Y-59710316D01*
X96383174Y-59710165D01*
X96399880Y-59706993D01*
X96400911Y-59706752D01*
X96417153Y-59702239D01*
X96418170Y-59701910D01*
X96433948Y-59696057D01*
X96434930Y-59695645D01*
X96450244Y-59688452D01*
X96451173Y-59687968D01*
X96466022Y-59679434D01*
X96466881Y-59678894D01*
X96481267Y-59669020D01*
X96482047Y-59668439D01*
X96495968Y-59657225D01*
X96496665Y-59656621D01*
X96501152Y-59652435D01*
X96591566Y-59742849D01*
%TO.N,/TV_OUT*%
G36*
X98329381Y-62614297D02*
G01*
X98329218Y-62615141D01*
X98325515Y-62638531D01*
X98325399Y-62639506D01*
X98323633Y-62661616D01*
X98323593Y-62662731D01*
X98323763Y-62683560D01*
X98323836Y-62684818D01*
X98325944Y-62704367D01*
X98326171Y-62705750D01*
X98330215Y-62724019D01*
X98330636Y-62725491D01*
X98336617Y-62742480D01*
X98337255Y-62743980D01*
X98345173Y-62759688D01*
X98346027Y-62761134D01*
X98355882Y-62775562D01*
X98356914Y-62776878D01*
X98362562Y-62783175D01*
X98238160Y-62998948D01*
X98113891Y-62783406D01*
X98119833Y-62777133D01*
X98120431Y-62776454D01*
X98132268Y-62762026D01*
X98132784Y-62761354D01*
X98144006Y-62745646D01*
X98144445Y-62744989D01*
X98155052Y-62728000D01*
X98155421Y-62727368D01*
X98165413Y-62709099D01*
X98165722Y-62708497D01*
X98175098Y-62688948D01*
X98175353Y-62688380D01*
X98184115Y-62667551D01*
X98184326Y-62667018D01*
X98192472Y-62644908D01*
X98192644Y-62644409D01*
X98200175Y-62621019D01*
X98200315Y-62620555D01*
X98204631Y-62605156D01*
X98331470Y-62605156D01*
X98329381Y-62614297D01*
G37*
X98329381Y-62614297D02*
X98329218Y-62615141D01*
X98325515Y-62638531D01*
X98325399Y-62639506D01*
X98323633Y-62661616D01*
X98323593Y-62662731D01*
X98323763Y-62683560D01*
X98323836Y-62684818D01*
X98325944Y-62704367D01*
X98326171Y-62705750D01*
X98330215Y-62724019D01*
X98330636Y-62725491D01*
X98336617Y-62742480D01*
X98337255Y-62743980D01*
X98345173Y-62759688D01*
X98346027Y-62761134D01*
X98355882Y-62775562D01*
X98356914Y-62776878D01*
X98362562Y-62783175D01*
X98238160Y-62998948D01*
X98113891Y-62783406D01*
X98119833Y-62777133D01*
X98120431Y-62776454D01*
X98132268Y-62762026D01*
X98132784Y-62761354D01*
X98144006Y-62745646D01*
X98144445Y-62744989D01*
X98155052Y-62728000D01*
X98155421Y-62727368D01*
X98165413Y-62709099D01*
X98165722Y-62708497D01*
X98175098Y-62688948D01*
X98175353Y-62688380D01*
X98184115Y-62667551D01*
X98184326Y-62667018D01*
X98192472Y-62644908D01*
X98192644Y-62644409D01*
X98200175Y-62621019D01*
X98200315Y-62620555D01*
X98204631Y-62605156D01*
X98331470Y-62605156D01*
X98329381Y-62614297D01*
%TO.N,/PF1*%
G36*
X96713183Y-59102466D02*
G01*
X96695162Y-59109077D01*
X96694575Y-59109309D01*
X96661771Y-59123230D01*
X96661076Y-59123550D01*
X96632152Y-59137936D01*
X96631331Y-59138383D01*
X96606287Y-59153232D01*
X96605319Y-59153867D01*
X96584156Y-59169181D01*
X96583038Y-59170091D01*
X96565755Y-59185869D01*
X96564523Y-59187165D01*
X96551120Y-59203407D01*
X96549881Y-59205201D01*
X96540359Y-59221907D01*
X96539328Y-59224231D01*
X96533686Y-59241401D01*
X96533114Y-59244103D01*
X96532224Y-59253010D01*
X96291269Y-59317731D01*
X96355745Y-59077687D01*
X96377458Y-59077687D01*
X96394098Y-59074377D01*
X96410672Y-59072097D01*
X96411186Y-59072016D01*
X96436318Y-59067503D01*
X96436744Y-59067419D01*
X96463952Y-59061566D01*
X96464310Y-59061483D01*
X96493594Y-59054290D01*
X96493900Y-59054211D01*
X96525259Y-59045677D01*
X96525521Y-59045603D01*
X96558957Y-59035729D01*
X96559184Y-59035659D01*
X96594695Y-59024445D01*
X96594895Y-59024381D01*
X96625031Y-59014314D01*
X96713183Y-59102466D01*
G37*
X96713183Y-59102466D02*
X96695162Y-59109077D01*
X96694575Y-59109309D01*
X96661771Y-59123230D01*
X96661076Y-59123550D01*
X96632152Y-59137936D01*
X96631331Y-59138383D01*
X96606287Y-59153232D01*
X96605319Y-59153867D01*
X96584156Y-59169181D01*
X96583038Y-59170091D01*
X96565755Y-59185869D01*
X96564523Y-59187165D01*
X96551120Y-59203407D01*
X96549881Y-59205201D01*
X96540359Y-59221907D01*
X96539328Y-59224231D01*
X96533686Y-59241401D01*
X96533114Y-59244103D01*
X96532224Y-59253010D01*
X96291269Y-59317731D01*
X96355745Y-59077687D01*
X96377458Y-59077687D01*
X96394098Y-59074377D01*
X96410672Y-59072097D01*
X96411186Y-59072016D01*
X96436318Y-59067503D01*
X96436744Y-59067419D01*
X96463952Y-59061566D01*
X96464310Y-59061483D01*
X96493594Y-59054290D01*
X96493900Y-59054211D01*
X96525259Y-59045677D01*
X96525521Y-59045603D01*
X96558957Y-59035729D01*
X96559184Y-59035659D01*
X96594695Y-59024445D01*
X96594895Y-59024381D01*
X96625031Y-59014314D01*
X96713183Y-59102466D01*
%TO.N,/TV_IN1*%
G36*
X99924204Y-62386040D02*
G01*
X99924244Y-62386758D01*
X99925444Y-62401188D01*
X99925534Y-62401976D01*
X99927534Y-62415631D01*
X99927690Y-62416489D01*
X99930490Y-62429369D01*
X99930727Y-62430292D01*
X99934327Y-62442396D01*
X99934661Y-62443373D01*
X99939061Y-62454703D01*
X99939508Y-62455718D01*
X99944708Y-62466273D01*
X99945275Y-62467302D01*
X99951275Y-62477081D01*
X99951965Y-62478093D01*
X99958765Y-62487097D01*
X99959570Y-62488060D01*
X99960830Y-62489425D01*
X99836500Y-62705074D01*
X99712170Y-62489425D01*
X99713430Y-62488060D01*
X99714235Y-62487097D01*
X99721035Y-62478093D01*
X99721725Y-62477081D01*
X99727725Y-62467302D01*
X99728292Y-62466273D01*
X99733492Y-62455718D01*
X99733939Y-62454703D01*
X99738339Y-62443373D01*
X99738673Y-62442396D01*
X99742273Y-62430292D01*
X99742510Y-62429369D01*
X99745310Y-62416489D01*
X99745466Y-62415631D01*
X99747466Y-62401976D01*
X99747556Y-62401188D01*
X99748756Y-62386758D01*
X99748796Y-62386040D01*
X99748871Y-62383200D01*
X99924129Y-62383200D01*
X99924204Y-62386040D01*
G37*
X99924204Y-62386040D02*
X99924244Y-62386758D01*
X99925444Y-62401188D01*
X99925534Y-62401976D01*
X99927534Y-62415631D01*
X99927690Y-62416489D01*
X99930490Y-62429369D01*
X99930727Y-62430292D01*
X99934327Y-62442396D01*
X99934661Y-62443373D01*
X99939061Y-62454703D01*
X99939508Y-62455718D01*
X99944708Y-62466273D01*
X99945275Y-62467302D01*
X99951275Y-62477081D01*
X99951965Y-62478093D01*
X99958765Y-62487097D01*
X99959570Y-62488060D01*
X99960830Y-62489425D01*
X99836500Y-62705074D01*
X99712170Y-62489425D01*
X99713430Y-62488060D01*
X99714235Y-62487097D01*
X99721035Y-62478093D01*
X99721725Y-62477081D01*
X99727725Y-62467302D01*
X99728292Y-62466273D01*
X99733492Y-62455718D01*
X99733939Y-62454703D01*
X99738339Y-62443373D01*
X99738673Y-62442396D01*
X99742273Y-62430292D01*
X99742510Y-62429369D01*
X99745310Y-62416489D01*
X99745466Y-62415631D01*
X99747466Y-62401976D01*
X99747556Y-62401188D01*
X99748756Y-62386758D01*
X99748796Y-62386040D01*
X99748871Y-62383200D01*
X99924129Y-62383200D01*
X99924204Y-62386040D01*
%TO.N,/PF2*%
G36*
X96591566Y-58580836D02*
G01*
X96587380Y-58585324D01*
X96586776Y-58586020D01*
X96575562Y-58599941D01*
X96574981Y-58600721D01*
X96565107Y-58615107D01*
X96564567Y-58615966D01*
X96556033Y-58630815D01*
X96555549Y-58631744D01*
X96548356Y-58647058D01*
X96547944Y-58648040D01*
X96542091Y-58663818D01*
X96541762Y-58664835D01*
X96537249Y-58681077D01*
X96537008Y-58682108D01*
X96533836Y-58698814D01*
X96533685Y-58699836D01*
X96531853Y-58717006D01*
X96531786Y-58717999D01*
X96531558Y-58726176D01*
X96291269Y-58790718D01*
X96355811Y-58550430D01*
X96363988Y-58550202D01*
X96364982Y-58550135D01*
X96382152Y-58548303D01*
X96383174Y-58548152D01*
X96399880Y-58544980D01*
X96400911Y-58544739D01*
X96417153Y-58540226D01*
X96418170Y-58539897D01*
X96433948Y-58534044D01*
X96434930Y-58533632D01*
X96450244Y-58526439D01*
X96451173Y-58525955D01*
X96466022Y-58517421D01*
X96466881Y-58516881D01*
X96481267Y-58507007D01*
X96482047Y-58506426D01*
X96495968Y-58495212D01*
X96496665Y-58494608D01*
X96501152Y-58490422D01*
X96591566Y-58580836D01*
G37*
X96591566Y-58580836D02*
X96587380Y-58585324D01*
X96586776Y-58586020D01*
X96575562Y-58599941D01*
X96574981Y-58600721D01*
X96565107Y-58615107D01*
X96564567Y-58615966D01*
X96556033Y-58630815D01*
X96555549Y-58631744D01*
X96548356Y-58647058D01*
X96547944Y-58648040D01*
X96542091Y-58663818D01*
X96541762Y-58664835D01*
X96537249Y-58681077D01*
X96537008Y-58682108D01*
X96533836Y-58698814D01*
X96533685Y-58699836D01*
X96531853Y-58717006D01*
X96531786Y-58717999D01*
X96531558Y-58726176D01*
X96291269Y-58790718D01*
X96355811Y-58550430D01*
X96363988Y-58550202D01*
X96364982Y-58550135D01*
X96382152Y-58548303D01*
X96383174Y-58548152D01*
X96399880Y-58544980D01*
X96400911Y-58544739D01*
X96417153Y-58540226D01*
X96418170Y-58539897D01*
X96433948Y-58534044D01*
X96434930Y-58533632D01*
X96450244Y-58526439D01*
X96451173Y-58525955D01*
X96466022Y-58517421D01*
X96466881Y-58516881D01*
X96481267Y-58507007D01*
X96482047Y-58506426D01*
X96495968Y-58495212D01*
X96496665Y-58494608D01*
X96501152Y-58490422D01*
X96591566Y-58580836D01*
%TO.N,/TV_IN0*%
G36*
X100771832Y-62454097D02*
G01*
X100769876Y-62456158D01*
X100769397Y-62456692D01*
X100760041Y-62467744D01*
X100759547Y-62468366D01*
X100751306Y-62479436D01*
X100750810Y-62480153D01*
X100743683Y-62491240D01*
X100743198Y-62492059D01*
X100737184Y-62503164D01*
X100736730Y-62504092D01*
X100731830Y-62515215D01*
X100731427Y-62516248D01*
X100727641Y-62527388D01*
X100727316Y-62528516D01*
X100724643Y-62539673D01*
X100724415Y-62540877D01*
X100722856Y-62552053D01*
X100722744Y-62553303D01*
X100722670Y-62555159D01*
X100482269Y-62619731D01*
X100546841Y-62379331D01*
X100548696Y-62379257D01*
X100549948Y-62379145D01*
X100561124Y-62377586D01*
X100562328Y-62377358D01*
X100573485Y-62374685D01*
X100574613Y-62374360D01*
X100585753Y-62370574D01*
X100586786Y-62370171D01*
X100597909Y-62365271D01*
X100598837Y-62364817D01*
X100609942Y-62358803D01*
X100610761Y-62358318D01*
X100621848Y-62351191D01*
X100622565Y-62350695D01*
X100633635Y-62342454D01*
X100634257Y-62341960D01*
X100645309Y-62332604D01*
X100645844Y-62332124D01*
X100647904Y-62330169D01*
X100771832Y-62454097D01*
G37*
X100771832Y-62454097D02*
X100769876Y-62456158D01*
X100769397Y-62456692D01*
X100760041Y-62467744D01*
X100759547Y-62468366D01*
X100751306Y-62479436D01*
X100750810Y-62480153D01*
X100743683Y-62491240D01*
X100743198Y-62492059D01*
X100737184Y-62503164D01*
X100736730Y-62504092D01*
X100731830Y-62515215D01*
X100731427Y-62516248D01*
X100727641Y-62527388D01*
X100727316Y-62528516D01*
X100724643Y-62539673D01*
X100724415Y-62540877D01*
X100722856Y-62552053D01*
X100722744Y-62553303D01*
X100722670Y-62555159D01*
X100482269Y-62619731D01*
X100546841Y-62379331D01*
X100548696Y-62379257D01*
X100549948Y-62379145D01*
X100561124Y-62377586D01*
X100562328Y-62377358D01*
X100573485Y-62374685D01*
X100574613Y-62374360D01*
X100585753Y-62370574D01*
X100586786Y-62370171D01*
X100597909Y-62365271D01*
X100598837Y-62364817D01*
X100609942Y-62358803D01*
X100610761Y-62358318D01*
X100621848Y-62351191D01*
X100622565Y-62350695D01*
X100633635Y-62342454D01*
X100634257Y-62341960D01*
X100645309Y-62332604D01*
X100645844Y-62332124D01*
X100647904Y-62330169D01*
X100771832Y-62454097D01*
%TO.N,/PF3*%
G36*
X96592387Y-57968117D02*
G01*
X96588201Y-57972605D01*
X96587597Y-57973301D01*
X96576383Y-57987222D01*
X96575802Y-57988002D01*
X96565928Y-58002388D01*
X96565388Y-58003247D01*
X96556854Y-58018096D01*
X96556370Y-58019025D01*
X96549177Y-58034339D01*
X96548765Y-58035321D01*
X96542912Y-58051099D01*
X96542583Y-58052116D01*
X96538070Y-58068358D01*
X96537829Y-58069389D01*
X96534657Y-58086095D01*
X96534506Y-58087117D01*
X96532674Y-58104287D01*
X96532607Y-58105280D01*
X96532379Y-58113457D01*
X96292090Y-58177999D01*
X96356632Y-57937711D01*
X96364809Y-57937483D01*
X96365803Y-57937416D01*
X96382973Y-57935584D01*
X96383995Y-57935433D01*
X96400701Y-57932261D01*
X96401732Y-57932020D01*
X96417974Y-57927507D01*
X96418991Y-57927178D01*
X96434769Y-57921325D01*
X96435751Y-57920913D01*
X96451065Y-57913720D01*
X96451994Y-57913236D01*
X96466843Y-57904702D01*
X96467702Y-57904162D01*
X96482088Y-57894288D01*
X96482868Y-57893707D01*
X96496789Y-57882493D01*
X96497486Y-57881889D01*
X96501973Y-57877703D01*
X96592387Y-57968117D01*
G37*
X96592387Y-57968117D02*
X96588201Y-57972605D01*
X96587597Y-57973301D01*
X96576383Y-57987222D01*
X96575802Y-57988002D01*
X96565928Y-58002388D01*
X96565388Y-58003247D01*
X96556854Y-58018096D01*
X96556370Y-58019025D01*
X96549177Y-58034339D01*
X96548765Y-58035321D01*
X96542912Y-58051099D01*
X96542583Y-58052116D01*
X96538070Y-58068358D01*
X96537829Y-58069389D01*
X96534657Y-58086095D01*
X96534506Y-58087117D01*
X96532674Y-58104287D01*
X96532607Y-58105280D01*
X96532379Y-58113457D01*
X96292090Y-58177999D01*
X96356632Y-57937711D01*
X96364809Y-57937483D01*
X96365803Y-57937416D01*
X96382973Y-57935584D01*
X96383995Y-57935433D01*
X96400701Y-57932261D01*
X96401732Y-57932020D01*
X96417974Y-57927507D01*
X96418991Y-57927178D01*
X96434769Y-57921325D01*
X96435751Y-57920913D01*
X96451065Y-57913720D01*
X96451994Y-57913236D01*
X96466843Y-57904702D01*
X96467702Y-57904162D01*
X96482088Y-57894288D01*
X96482868Y-57893707D01*
X96496789Y-57882493D01*
X96497486Y-57881889D01*
X96501973Y-57877703D01*
X96592387Y-57968117D01*
%TO.N,/LRADC*%
G36*
X103069351Y-62650416D02*
G01*
X103063675Y-62657719D01*
X103063232Y-62658324D01*
X103052018Y-62674656D01*
X103051588Y-62675327D01*
X103041714Y-62691840D01*
X103041306Y-62692577D01*
X103032772Y-62709270D01*
X103032397Y-62710071D01*
X103025204Y-62726944D01*
X103024875Y-62727801D01*
X103019022Y-62744855D01*
X103018748Y-62745761D01*
X103014235Y-62762996D01*
X103014027Y-62763937D01*
X103010855Y-62781352D01*
X103010717Y-62782313D01*
X103008885Y-62799909D01*
X103008822Y-62800873D01*
X103008592Y-62809190D01*
X102768305Y-62873731D01*
X102832867Y-62633366D01*
X102841127Y-62633070D01*
X102842326Y-62632970D01*
X102859496Y-62630713D01*
X102860716Y-62630491D01*
X102877422Y-62626609D01*
X102878624Y-62626267D01*
X102894866Y-62620762D01*
X102896018Y-62620307D01*
X102911796Y-62613178D01*
X102912870Y-62612631D01*
X102928184Y-62603877D01*
X102929156Y-62603261D01*
X102944005Y-62592884D01*
X102944865Y-62592226D01*
X102959251Y-62580225D01*
X102959999Y-62579549D01*
X102973920Y-62565924D01*
X102974560Y-62565251D01*
X102979072Y-62560137D01*
X103069351Y-62650416D01*
G37*
X103069351Y-62650416D02*
X103063675Y-62657719D01*
X103063232Y-62658324D01*
X103052018Y-62674656D01*
X103051588Y-62675327D01*
X103041714Y-62691840D01*
X103041306Y-62692577D01*
X103032772Y-62709270D01*
X103032397Y-62710071D01*
X103025204Y-62726944D01*
X103024875Y-62727801D01*
X103019022Y-62744855D01*
X103018748Y-62745761D01*
X103014235Y-62762996D01*
X103014027Y-62763937D01*
X103010855Y-62781352D01*
X103010717Y-62782313D01*
X103008885Y-62799909D01*
X103008822Y-62800873D01*
X103008592Y-62809190D01*
X102768305Y-62873731D01*
X102832867Y-62633366D01*
X102841127Y-62633070D01*
X102842326Y-62632970D01*
X102859496Y-62630713D01*
X102860716Y-62630491D01*
X102877422Y-62626609D01*
X102878624Y-62626267D01*
X102894866Y-62620762D01*
X102896018Y-62620307D01*
X102911796Y-62613178D01*
X102912870Y-62612631D01*
X102928184Y-62603877D01*
X102929156Y-62603261D01*
X102944005Y-62592884D01*
X102944865Y-62592226D01*
X102959251Y-62580225D01*
X102959999Y-62579549D01*
X102973920Y-62565924D01*
X102974560Y-62565251D01*
X102979072Y-62560137D01*
X103069351Y-62650416D01*
%TO.N,/PF4*%
G36*
X96591566Y-57329849D02*
G01*
X96587380Y-57334337D01*
X96586776Y-57335033D01*
X96575562Y-57348954D01*
X96574981Y-57349734D01*
X96565107Y-57364120D01*
X96564567Y-57364979D01*
X96556033Y-57379828D01*
X96555549Y-57380757D01*
X96548356Y-57396071D01*
X96547944Y-57397053D01*
X96542091Y-57412831D01*
X96541762Y-57413848D01*
X96537249Y-57430090D01*
X96537008Y-57431121D01*
X96533836Y-57447827D01*
X96533685Y-57448849D01*
X96531853Y-57466019D01*
X96531786Y-57467012D01*
X96531558Y-57475189D01*
X96291269Y-57539731D01*
X96355811Y-57299443D01*
X96363988Y-57299215D01*
X96364982Y-57299148D01*
X96382152Y-57297316D01*
X96383174Y-57297165D01*
X96399880Y-57293993D01*
X96400911Y-57293752D01*
X96417153Y-57289239D01*
X96418170Y-57288910D01*
X96433948Y-57283057D01*
X96434930Y-57282645D01*
X96450244Y-57275452D01*
X96451173Y-57274968D01*
X96466022Y-57266434D01*
X96466881Y-57265894D01*
X96481267Y-57256020D01*
X96482047Y-57255439D01*
X96495968Y-57244225D01*
X96496665Y-57243621D01*
X96501152Y-57239435D01*
X96591566Y-57329849D01*
G37*
X96591566Y-57329849D02*
X96587380Y-57334337D01*
X96586776Y-57335033D01*
X96575562Y-57348954D01*
X96574981Y-57349734D01*
X96565107Y-57364120D01*
X96564567Y-57364979D01*
X96556033Y-57379828D01*
X96555549Y-57380757D01*
X96548356Y-57396071D01*
X96547944Y-57397053D01*
X96542091Y-57412831D01*
X96541762Y-57413848D01*
X96537249Y-57430090D01*
X96537008Y-57431121D01*
X96533836Y-57447827D01*
X96533685Y-57448849D01*
X96531853Y-57466019D01*
X96531786Y-57467012D01*
X96531558Y-57475189D01*
X96291269Y-57539731D01*
X96355811Y-57299443D01*
X96363988Y-57299215D01*
X96364982Y-57299148D01*
X96382152Y-57297316D01*
X96383174Y-57297165D01*
X96399880Y-57293993D01*
X96400911Y-57293752D01*
X96417153Y-57289239D01*
X96418170Y-57288910D01*
X96433948Y-57283057D01*
X96434930Y-57282645D01*
X96450244Y-57275452D01*
X96451173Y-57274968D01*
X96466022Y-57266434D01*
X96466881Y-57265894D01*
X96481267Y-57256020D01*
X96482047Y-57255439D01*
X96495968Y-57244225D01*
X96496665Y-57243621D01*
X96501152Y-57239435D01*
X96591566Y-57329849D01*
%TO.N,/PF5*%
G36*
X96337566Y-56694849D02*
G01*
X96333380Y-56699337D01*
X96332776Y-56700033D01*
X96321562Y-56713954D01*
X96320981Y-56714734D01*
X96311107Y-56729120D01*
X96310567Y-56729979D01*
X96302033Y-56744828D01*
X96301549Y-56745757D01*
X96294356Y-56761071D01*
X96293944Y-56762053D01*
X96288091Y-56777831D01*
X96287762Y-56778848D01*
X96283249Y-56795090D01*
X96283008Y-56796121D01*
X96279836Y-56812827D01*
X96279685Y-56813849D01*
X96277853Y-56831019D01*
X96277786Y-56832012D01*
X96277558Y-56840189D01*
X96037269Y-56904731D01*
X96101811Y-56664443D01*
X96109988Y-56664215D01*
X96110982Y-56664148D01*
X96128152Y-56662316D01*
X96129174Y-56662165D01*
X96145880Y-56658993D01*
X96146911Y-56658752D01*
X96163153Y-56654239D01*
X96164170Y-56653910D01*
X96179948Y-56648057D01*
X96180930Y-56647645D01*
X96196244Y-56640452D01*
X96197173Y-56639968D01*
X96212022Y-56631434D01*
X96212881Y-56630894D01*
X96227267Y-56621020D01*
X96228047Y-56620439D01*
X96241968Y-56609225D01*
X96242665Y-56608621D01*
X96247152Y-56604435D01*
X96337566Y-56694849D01*
G37*
X96337566Y-56694849D02*
X96333380Y-56699337D01*
X96332776Y-56700033D01*
X96321562Y-56713954D01*
X96320981Y-56714734D01*
X96311107Y-56729120D01*
X96310567Y-56729979D01*
X96302033Y-56744828D01*
X96301549Y-56745757D01*
X96294356Y-56761071D01*
X96293944Y-56762053D01*
X96288091Y-56777831D01*
X96287762Y-56778848D01*
X96283249Y-56795090D01*
X96283008Y-56796121D01*
X96279836Y-56812827D01*
X96279685Y-56813849D01*
X96277853Y-56831019D01*
X96277786Y-56832012D01*
X96277558Y-56840189D01*
X96037269Y-56904731D01*
X96101811Y-56664443D01*
X96109988Y-56664215D01*
X96110982Y-56664148D01*
X96128152Y-56662316D01*
X96129174Y-56662165D01*
X96145880Y-56658993D01*
X96146911Y-56658752D01*
X96163153Y-56654239D01*
X96164170Y-56653910D01*
X96179948Y-56648057D01*
X96180930Y-56647645D01*
X96196244Y-56640452D01*
X96197173Y-56639968D01*
X96212022Y-56631434D01*
X96212881Y-56630894D01*
X96227267Y-56621020D01*
X96228047Y-56620439D01*
X96241968Y-56609225D01*
X96242665Y-56608621D01*
X96247152Y-56604435D01*
X96337566Y-56694849D01*
%TO.N,/MICIN*%
G36*
X103774146Y-62667956D02*
G01*
X103774211Y-62668876D01*
X103776125Y-62686649D01*
X103776266Y-62687611D01*
X103779456Y-62704765D01*
X103779681Y-62705755D01*
X103784147Y-62722289D01*
X103784462Y-62723287D01*
X103790204Y-62739202D01*
X103790607Y-62740188D01*
X103797625Y-62755483D01*
X103798111Y-62756435D01*
X103806405Y-62771111D01*
X103806964Y-62772010D01*
X103816534Y-62786066D01*
X103817150Y-62786896D01*
X103827996Y-62800332D01*
X103828651Y-62801082D01*
X103834272Y-62807026D01*
X103710000Y-63022574D01*
X103585728Y-62807026D01*
X103591349Y-62801082D01*
X103592004Y-62800332D01*
X103602850Y-62786896D01*
X103603466Y-62786066D01*
X103613036Y-62772010D01*
X103613595Y-62771111D01*
X103621889Y-62756435D01*
X103622375Y-62755483D01*
X103629393Y-62740188D01*
X103629796Y-62739202D01*
X103635538Y-62723287D01*
X103635853Y-62722289D01*
X103640319Y-62705755D01*
X103640544Y-62704765D01*
X103643734Y-62687611D01*
X103643875Y-62686649D01*
X103645789Y-62668876D01*
X103645854Y-62667956D01*
X103646067Y-62661823D01*
X103773933Y-62661823D01*
X103774146Y-62667956D01*
G37*
X103774146Y-62667956D02*
X103774211Y-62668876D01*
X103776125Y-62686649D01*
X103776266Y-62687611D01*
X103779456Y-62704765D01*
X103779681Y-62705755D01*
X103784147Y-62722289D01*
X103784462Y-62723287D01*
X103790204Y-62739202D01*
X103790607Y-62740188D01*
X103797625Y-62755483D01*
X103798111Y-62756435D01*
X103806405Y-62771111D01*
X103806964Y-62772010D01*
X103816534Y-62786066D01*
X103817150Y-62786896D01*
X103827996Y-62800332D01*
X103828651Y-62801082D01*
X103834272Y-62807026D01*
X103710000Y-63022574D01*
X103585728Y-62807026D01*
X103591349Y-62801082D01*
X103592004Y-62800332D01*
X103602850Y-62786896D01*
X103603466Y-62786066D01*
X103613036Y-62772010D01*
X103613595Y-62771111D01*
X103621889Y-62756435D01*
X103622375Y-62755483D01*
X103629393Y-62740188D01*
X103629796Y-62739202D01*
X103635538Y-62723287D01*
X103635853Y-62722289D01*
X103640319Y-62705755D01*
X103640544Y-62704765D01*
X103643734Y-62687611D01*
X103643875Y-62686649D01*
X103645789Y-62668876D01*
X103645854Y-62667956D01*
X103646067Y-62661823D01*
X103773933Y-62661823D01*
X103774146Y-62667956D01*
%TO.N,/HPR*%
G36*
X104738670Y-63572840D02*
G01*
X104734484Y-63577328D01*
X104733880Y-63578024D01*
X104722666Y-63591945D01*
X104722085Y-63592725D01*
X104712211Y-63607111D01*
X104711671Y-63607970D01*
X104703137Y-63622819D01*
X104702653Y-63623748D01*
X104695460Y-63639062D01*
X104695048Y-63640044D01*
X104689195Y-63655822D01*
X104688866Y-63656839D01*
X104684353Y-63673081D01*
X104684112Y-63674112D01*
X104680940Y-63690818D01*
X104680789Y-63691840D01*
X104678957Y-63709010D01*
X104678890Y-63710003D01*
X104678662Y-63718180D01*
X104438373Y-63782722D01*
X104502915Y-63542434D01*
X104511092Y-63542206D01*
X104512086Y-63542139D01*
X104529256Y-63540307D01*
X104530278Y-63540156D01*
X104546984Y-63536984D01*
X104548015Y-63536743D01*
X104564257Y-63532230D01*
X104565274Y-63531901D01*
X104581052Y-63526048D01*
X104582034Y-63525636D01*
X104597348Y-63518443D01*
X104598277Y-63517959D01*
X104613126Y-63509425D01*
X104613985Y-63508885D01*
X104628371Y-63499011D01*
X104629151Y-63498430D01*
X104643072Y-63487216D01*
X104643769Y-63486612D01*
X104648256Y-63482426D01*
X104738670Y-63572840D01*
G37*
X104738670Y-63572840D02*
X104734484Y-63577328D01*
X104733880Y-63578024D01*
X104722666Y-63591945D01*
X104722085Y-63592725D01*
X104712211Y-63607111D01*
X104711671Y-63607970D01*
X104703137Y-63622819D01*
X104702653Y-63623748D01*
X104695460Y-63639062D01*
X104695048Y-63640044D01*
X104689195Y-63655822D01*
X104688866Y-63656839D01*
X104684353Y-63673081D01*
X104684112Y-63674112D01*
X104680940Y-63690818D01*
X104680789Y-63691840D01*
X104678957Y-63709010D01*
X104678890Y-63710003D01*
X104678662Y-63718180D01*
X104438373Y-63782722D01*
X104502915Y-63542434D01*
X104511092Y-63542206D01*
X104512086Y-63542139D01*
X104529256Y-63540307D01*
X104530278Y-63540156D01*
X104546984Y-63536984D01*
X104548015Y-63536743D01*
X104564257Y-63532230D01*
X104565274Y-63531901D01*
X104581052Y-63526048D01*
X104582034Y-63525636D01*
X104597348Y-63518443D01*
X104598277Y-63517959D01*
X104613126Y-63509425D01*
X104613985Y-63508885D01*
X104628371Y-63499011D01*
X104629151Y-63498430D01*
X104643072Y-63487216D01*
X104643769Y-63486612D01*
X104648256Y-63482426D01*
X104738670Y-63572840D01*
%TD*%
D27*
X102186000Y-57360000D03*
X98122000Y-59392000D03*
X97106000Y-60154000D03*
X99138000Y-56852000D03*
X101932000Y-59138000D03*
X111307000Y-72092000D03*
X111307000Y-71480000D03*
X107037500Y-76029000D03*
X99138000Y-69298000D03*
X104218000Y-71076000D03*
X99138000Y-71076000D03*
X93550000Y-64472000D03*
X91327500Y-68282000D03*
X92534000Y-65488000D03*
X91327500Y-69107500D03*
X91010000Y-53105500D03*
X91010000Y-52153000D03*
X91010000Y-59836500D03*
X91010000Y-57931500D03*
X102948000Y-71266500D03*
X96344000Y-60662000D03*
X95836000Y-61932000D03*
X95836000Y-62694000D03*
X95836000Y-61170000D03*
X101170000Y-57360000D03*
X104472000Y-69044000D03*
X100408000Y-73362000D03*
X100408000Y-72346000D03*
X99392000Y-72346000D03*
X99392000Y-73362000D03*
X98376000Y-73362000D03*
X98376000Y-72346000D03*
X97360000Y-72346000D03*
X109679000Y-68409000D03*
X109679000Y-65742000D03*
X109806000Y-61424000D03*
X109044000Y-62186000D03*
X109806000Y-62948000D03*
X109806000Y-57868000D03*
X109806000Y-56344000D03*
X109806000Y-54820000D03*
X109298000Y-55582000D03*
X109298000Y-57106000D03*
X109298000Y-54058000D03*
X109298000Y-58630000D03*
X106250000Y-67520000D03*
X105488000Y-67520000D03*
X107774000Y-68282000D03*
X105234000Y-73108000D03*
X104218000Y-73108000D03*
X105234000Y-74124000D03*
X104218000Y-74124000D03*
X105234000Y-75140000D03*
X107012000Y-75140000D03*
X105742000Y-74632000D03*
X101424000Y-73362000D03*
X97360000Y-73362000D03*
X96344000Y-72346000D03*
X94058000Y-72346000D03*
X93042000Y-72346000D03*
X92026000Y-72346000D03*
X92026000Y-73362000D03*
X93042000Y-73362000D03*
X94058000Y-73362000D03*
X95074000Y-73362000D03*
X94058000Y-75648000D03*
X92534000Y-75648000D03*
X92534000Y-76918000D03*
X98376000Y-74886000D03*
X99392000Y-74886000D03*
X100408000Y-74886000D03*
X101424000Y-74886000D03*
X97360000Y-74886000D03*
X97360000Y-75902000D03*
X98376000Y-75902000D03*
X99392000Y-75902000D03*
X98376000Y-76918000D03*
X97360000Y-76918000D03*
X96344000Y-76410000D03*
X91327500Y-70568000D03*
X91327500Y-71584000D03*
X108790000Y-64472000D03*
X100916000Y-69933000D03*
X92534000Y-67520000D03*
X103456000Y-56725000D03*
X106885000Y-64495044D03*
X101424000Y-69933000D03*
X100408000Y-69933000D03*
X103456000Y-69933000D03*
X107921320Y-64499940D03*
X96466497Y-55450523D03*
D28*
X101106491Y-54248509D03*
D27*
X108790000Y-63202000D03*
X110881000Y-75648000D03*
X99447000Y-54511000D03*
X94565993Y-65107031D03*
X97106000Y-65129210D03*
X95105106Y-63932894D03*
X95709000Y-54510956D03*
X100152010Y-54318472D03*
X106758000Y-69298000D03*
X106377004Y-73997004D03*
X107139042Y-73996958D03*
X107190000Y-73311000D03*
X107284990Y-69730000D03*
X106326000Y-69730000D03*
X105768001Y-63302999D03*
X108536000Y-61424000D03*
X106885000Y-66504000D03*
X100914735Y-64345807D03*
X93550000Y-63456000D03*
X92216500Y-63456000D03*
X106631000Y-57995000D03*
X106631001Y-58630001D03*
X106631004Y-59265004D03*
X106618295Y-59887295D03*
X106631149Y-60414141D03*
X107139000Y-60662000D03*
X106631000Y-62059000D03*
X97744059Y-62012990D03*
X93417497Y-60667087D03*
X97115137Y-62028542D03*
X93581113Y-62916887D03*
X93725299Y-60239303D03*
X93677000Y-61278584D03*
X93579828Y-62389877D03*
X93685120Y-61873491D03*
X106114000Y-62830000D03*
X94208967Y-60030004D03*
X90756000Y-62757500D03*
X96344000Y-59900000D03*
X98238160Y-62924374D03*
X96344000Y-59265000D03*
X99836500Y-62630500D03*
X96344000Y-58737987D03*
X100535000Y-62567000D03*
X96344821Y-58125268D03*
X102821036Y-62821000D03*
X96344000Y-57487000D03*
X96090000Y-56852000D03*
X103710000Y-62948000D03*
X104491104Y-63729991D03*
D29*
X93423000Y-74621000D03*
X93423000Y-76421000D03*
X99900000Y-58630000D03*
X107012000Y-71330000D03*
M02*
