M48
; DRILL file {KiCad (5.1.6)-1} date 09/21/20 21:17:43
; FORMAT={-:-/ absolute / metric / decimal}
; #@! TF.CreationDate,2020-09-21T21:17:43+08:00
; #@! TF.GenerationSoftware,Kicad,Pcbnew,(5.1.6)-1
; #@! TF.FileFunction,Plated,1,2,PTH
FMAT,2
METRIC
T1C0.200
T2C0.300
T3C0.800
T4C1.500
%
G90
G05
T1
X90.756Y-62.758
X91.01Y-52.153
X91.01Y-53.105
X91.01Y-57.931
X91.01Y-59.836
X91.328Y-68.282
X91.328Y-69.108
X91.328Y-70.568
X91.328Y-71.584
X92.026Y-72.346
X92.026Y-73.362
X92.216Y-63.456
X92.534Y-65.488
X92.534Y-67.52
X92.534Y-75.648
X92.534Y-76.918
X93.042Y-72.346
X93.042Y-73.362
X93.417Y-60.667
X93.55Y-63.456
X93.55Y-64.472
X93.58Y-62.39
X93.581Y-62.917
X93.677Y-61.279
X93.685Y-61.873
X93.725Y-60.239
X94.058Y-72.346
X94.058Y-73.362
X94.058Y-75.648
X94.209Y-60.03
X94.566Y-65.107
X95.074Y-73.362
X95.105Y-63.933
X95.709Y-54.511
X95.836Y-61.17
X95.836Y-61.932
X95.836Y-62.694
X96.09Y-56.852
X96.344Y-57.487
X96.344Y-58.738
X96.344Y-59.265
X96.344Y-59.9
X96.344Y-60.662
X96.344Y-72.346
X96.344Y-76.41
X96.345Y-58.125
X96.466Y-55.451
X97.106Y-60.154
X97.106Y-65.129
X97.115Y-62.029
X97.36Y-72.346
X97.36Y-73.362
X97.36Y-74.886
X97.36Y-75.902
X97.36Y-76.918
X97.744Y-62.013
X98.122Y-59.392
X98.238Y-62.924
X98.376Y-72.346
X98.376Y-73.362
X98.376Y-74.886
X98.376Y-75.902
X98.376Y-76.918
X99.138Y-56.852
X99.138Y-69.298
X99.138Y-71.076
X99.392Y-72.346
X99.392Y-73.362
X99.392Y-74.886
X99.392Y-75.902
X99.447Y-54.511
X99.837Y-62.63
X100.152Y-54.318
X100.408Y-69.933
X100.408Y-72.346
X100.408Y-73.362
X100.408Y-74.886
X100.535Y-62.567
X100.915Y-64.346
X100.916Y-69.933
X101.17Y-57.36
X101.424Y-69.933
X101.424Y-73.362
X101.424Y-74.886
X101.932Y-59.138
X102.186Y-57.36
X102.821Y-62.821
X102.948Y-71.266
X103.456Y-56.725
X103.456Y-69.933
X103.71Y-62.948
X104.218Y-71.076
X104.218Y-73.108
X104.218Y-74.124
X104.472Y-69.044
X104.491Y-63.73
X105.234Y-73.108
X105.234Y-74.124
X105.234Y-75.14
X105.488Y-67.52
X105.742Y-74.632
X105.768Y-63.303
X106.114Y-62.83
X106.25Y-67.52
X106.326Y-69.73
X106.377Y-73.997
X106.618Y-59.887
X106.631Y-57.995
X106.631Y-62.059
X106.631Y-58.63
X106.631Y-59.265
X106.631Y-60.414
X106.758Y-69.298
X106.885Y-64.495
X106.885Y-66.504
X107.012Y-75.14
X107.037Y-76.029
X107.139Y-60.662
X107.139Y-73.997
X107.19Y-73.311
X107.285Y-69.73
X107.774Y-68.282
X107.921Y-64.5
X108.536Y-61.424
X108.79Y-63.202
X108.79Y-64.472
X109.044Y-62.186
X109.298Y-54.058
X109.298Y-55.582
X109.298Y-57.106
X109.298Y-58.63
X109.679Y-65.742
X109.679Y-68.409
X109.806Y-54.82
X109.806Y-56.344
X109.806Y-57.868
X109.806Y-61.424
X109.806Y-62.948
X110.881Y-75.648
X111.307Y-71.48
X111.307Y-72.092
T2
X101.106Y-54.249
T3
X107.012Y-71.33
T4
X99.9Y-58.63
T0
M30
