%TF.GenerationSoftware,KiCad,Pcbnew,(5.1.6)-1*%
%TF.CreationDate,2020-09-21T21:17:43+08:00*%
%TF.ProjectId,f1c200s_core,66316332-3030-4735-9f63-6f72652e6b69,rev?*%
%TF.SameCoordinates,Original*%
%TF.FileFunction,Paste,Bot*%
%TF.FilePolarity,Positive*%
%FSLAX46Y46*%
G04 Gerber Fmt 4.6, Leading zero omitted, Abs format (unit mm)*
G04 Created by KiCad (PCBNEW (5.1.6)-1) date 2020-09-21 21:17:43*
%MOMM*%
%LPD*%
G01*
G04 APERTURE LIST*
%ADD10R,0.350000X1.600000*%
%ADD11R,0.800000X0.900000*%
%ADD12R,2.000000X3.000000*%
%ADD13R,3.000000X5.000000*%
%ADD14R,1.800000X0.700000*%
G04 APERTURE END LIST*
D10*
%TO.C,NGFF*%
X102170000Y-48470000D03*
X101670000Y-48470000D03*
X102670000Y-48470000D03*
X103170000Y-48470000D03*
X103670000Y-48470000D03*
X104170000Y-48470000D03*
X104670000Y-48470000D03*
X105170000Y-48470000D03*
X105670000Y-48470000D03*
X106170000Y-48470000D03*
X110170000Y-48470000D03*
X109670000Y-48470000D03*
X108670000Y-48470000D03*
X109170000Y-48470000D03*
X101170000Y-48470000D03*
X100670000Y-48470000D03*
X100170000Y-48470000D03*
X99670000Y-48470000D03*
X99170000Y-48470000D03*
X98670000Y-48470000D03*
X98170000Y-48470000D03*
X97670000Y-48470000D03*
X97170000Y-48470000D03*
X96670000Y-48470000D03*
X96170000Y-48470000D03*
X95670000Y-48470000D03*
X95170000Y-48470000D03*
X94670000Y-48470000D03*
X94170000Y-48470000D03*
X93670000Y-48470000D03*
X93170000Y-48470000D03*
X92670000Y-48470000D03*
X92170000Y-48470000D03*
%TD*%
%TO.C,R17*%
G36*
G01*
X102712000Y-62013500D02*
X102712000Y-62358500D01*
G75*
G02*
X102564500Y-62506000I-147500J0D01*
G01*
X102269500Y-62506000D01*
G75*
G02*
X102122000Y-62358500I0J147500D01*
G01*
X102122000Y-62013500D01*
G75*
G02*
X102269500Y-61866000I147500J0D01*
G01*
X102564500Y-61866000D01*
G75*
G02*
X102712000Y-62013500I0J-147500D01*
G01*
G37*
G36*
G01*
X101742000Y-62013500D02*
X101742000Y-62358500D01*
G75*
G02*
X101594500Y-62506000I-147500J0D01*
G01*
X101299500Y-62506000D01*
G75*
G02*
X101152000Y-62358500I0J147500D01*
G01*
X101152000Y-62013500D01*
G75*
G02*
X101299500Y-61866000I147500J0D01*
G01*
X101594500Y-61866000D01*
G75*
G02*
X101742000Y-62013500I0J-147500D01*
G01*
G37*
%TD*%
%TO.C,R16*%
G36*
G01*
X100172000Y-62013500D02*
X100172000Y-62358500D01*
G75*
G02*
X100024500Y-62506000I-147500J0D01*
G01*
X99729500Y-62506000D01*
G75*
G02*
X99582000Y-62358500I0J147500D01*
G01*
X99582000Y-62013500D01*
G75*
G02*
X99729500Y-61866000I147500J0D01*
G01*
X100024500Y-61866000D01*
G75*
G02*
X100172000Y-62013500I0J-147500D01*
G01*
G37*
G36*
G01*
X99202000Y-62013500D02*
X99202000Y-62358500D01*
G75*
G02*
X99054500Y-62506000I-147500J0D01*
G01*
X98759500Y-62506000D01*
G75*
G02*
X98612000Y-62358500I0J147500D01*
G01*
X98612000Y-62013500D01*
G75*
G02*
X98759500Y-61866000I147500J0D01*
G01*
X99054500Y-61866000D01*
G75*
G02*
X99202000Y-62013500I0J-147500D01*
G01*
G37*
%TD*%
D11*
%TO.C,U4*%
X106819000Y-66615000D03*
X104919000Y-66615000D03*
X105869000Y-64615000D03*
%TD*%
D12*
%TO.C,U1*%
X96852000Y-67393000D03*
D13*
X96852000Y-69298000D03*
D14*
X100952000Y-71203000D03*
X92752000Y-71203000D03*
X100952000Y-69933000D03*
X92752000Y-69933000D03*
X100952000Y-68663000D03*
X92752000Y-68663000D03*
X100952000Y-67393000D03*
X92752000Y-67393000D03*
%TD*%
%TO.C,R9*%
G36*
G01*
X101469500Y-56997000D02*
X101124500Y-56997000D01*
G75*
G02*
X100977000Y-56849500I0J147500D01*
G01*
X100977000Y-56554500D01*
G75*
G02*
X101124500Y-56407000I147500J0D01*
G01*
X101469500Y-56407000D01*
G75*
G02*
X101617000Y-56554500I0J-147500D01*
G01*
X101617000Y-56849500D01*
G75*
G02*
X101469500Y-56997000I-147500J0D01*
G01*
G37*
G36*
G01*
X101469500Y-56027000D02*
X101124500Y-56027000D01*
G75*
G02*
X100977000Y-55879500I0J147500D01*
G01*
X100977000Y-55584500D01*
G75*
G02*
X101124500Y-55437000I147500J0D01*
G01*
X101469500Y-55437000D01*
G75*
G02*
X101617000Y-55584500I0J-147500D01*
G01*
X101617000Y-55879500D01*
G75*
G02*
X101469500Y-56027000I-147500J0D01*
G01*
G37*
%TD*%
%TO.C,R8*%
G36*
G01*
X100009000Y-54865500D02*
X100009000Y-54520500D01*
G75*
G02*
X100156500Y-54373000I147500J0D01*
G01*
X100451500Y-54373000D01*
G75*
G02*
X100599000Y-54520500I0J-147500D01*
G01*
X100599000Y-54865500D01*
G75*
G02*
X100451500Y-55013000I-147500J0D01*
G01*
X100156500Y-55013000D01*
G75*
G02*
X100009000Y-54865500I0J147500D01*
G01*
G37*
G36*
G01*
X100979000Y-54865500D02*
X100979000Y-54520500D01*
G75*
G02*
X101126500Y-54373000I147500J0D01*
G01*
X101421500Y-54373000D01*
G75*
G02*
X101569000Y-54520500I0J-147500D01*
G01*
X101569000Y-54865500D01*
G75*
G02*
X101421500Y-55013000I-147500J0D01*
G01*
X101126500Y-55013000D01*
G75*
G02*
X100979000Y-54865500I0J147500D01*
G01*
G37*
%TD*%
%TO.C,R4*%
G36*
G01*
X103283500Y-68645000D02*
X103628500Y-68645000D01*
G75*
G02*
X103776000Y-68792500I0J-147500D01*
G01*
X103776000Y-69087500D01*
G75*
G02*
X103628500Y-69235000I-147500J0D01*
G01*
X103283500Y-69235000D01*
G75*
G02*
X103136000Y-69087500I0J147500D01*
G01*
X103136000Y-68792500D01*
G75*
G02*
X103283500Y-68645000I147500J0D01*
G01*
G37*
G36*
G01*
X103283500Y-69615000D02*
X103628500Y-69615000D01*
G75*
G02*
X103776000Y-69762500I0J-147500D01*
G01*
X103776000Y-70057500D01*
G75*
G02*
X103628500Y-70205000I-147500J0D01*
G01*
X103283500Y-70205000D01*
G75*
G02*
X103136000Y-70057500I0J147500D01*
G01*
X103136000Y-69762500D01*
G75*
G02*
X103283500Y-69615000I147500J0D01*
G01*
G37*
%TD*%
%TO.C,C34*%
G36*
G01*
X103728000Y-64934500D02*
X103728000Y-65279500D01*
G75*
G02*
X103580500Y-65427000I-147500J0D01*
G01*
X103285500Y-65427000D01*
G75*
G02*
X103138000Y-65279500I0J147500D01*
G01*
X103138000Y-64934500D01*
G75*
G02*
X103285500Y-64787000I147500J0D01*
G01*
X103580500Y-64787000D01*
G75*
G02*
X103728000Y-64934500I0J-147500D01*
G01*
G37*
G36*
G01*
X102758000Y-64934500D02*
X102758000Y-65279500D01*
G75*
G02*
X102610500Y-65427000I-147500J0D01*
G01*
X102315500Y-65427000D01*
G75*
G02*
X102168000Y-65279500I0J147500D01*
G01*
X102168000Y-64934500D01*
G75*
G02*
X102315500Y-64787000I147500J0D01*
G01*
X102610500Y-64787000D01*
G75*
G02*
X102758000Y-64934500I0J-147500D01*
G01*
G37*
%TD*%
%TO.C,C22*%
G36*
G01*
X110967000Y-67347500D02*
X110967000Y-67692500D01*
G75*
G02*
X110819500Y-67840000I-147500J0D01*
G01*
X110524500Y-67840000D01*
G75*
G02*
X110377000Y-67692500I0J147500D01*
G01*
X110377000Y-67347500D01*
G75*
G02*
X110524500Y-67200000I147500J0D01*
G01*
X110819500Y-67200000D01*
G75*
G02*
X110967000Y-67347500I0J-147500D01*
G01*
G37*
G36*
G01*
X109997000Y-67347500D02*
X109997000Y-67692500D01*
G75*
G02*
X109849500Y-67840000I-147500J0D01*
G01*
X109554500Y-67840000D01*
G75*
G02*
X109407000Y-67692500I0J147500D01*
G01*
X109407000Y-67347500D01*
G75*
G02*
X109554500Y-67200000I147500J0D01*
G01*
X109849500Y-67200000D01*
G75*
G02*
X109997000Y-67347500I0J-147500D01*
G01*
G37*
%TD*%
%TO.C,C20*%
G36*
G01*
X110967000Y-66331500D02*
X110967000Y-66676500D01*
G75*
G02*
X110819500Y-66824000I-147500J0D01*
G01*
X110524500Y-66824000D01*
G75*
G02*
X110377000Y-66676500I0J147500D01*
G01*
X110377000Y-66331500D01*
G75*
G02*
X110524500Y-66184000I147500J0D01*
G01*
X110819500Y-66184000D01*
G75*
G02*
X110967000Y-66331500I0J-147500D01*
G01*
G37*
G36*
G01*
X109997000Y-66331500D02*
X109997000Y-66676500D01*
G75*
G02*
X109849500Y-66824000I-147500J0D01*
G01*
X109554500Y-66824000D01*
G75*
G02*
X109407000Y-66676500I0J147500D01*
G01*
X109407000Y-66331500D01*
G75*
G02*
X109554500Y-66184000I147500J0D01*
G01*
X109849500Y-66184000D01*
G75*
G02*
X109997000Y-66331500I0J-147500D01*
G01*
G37*
%TD*%
%TO.C,C19*%
G36*
G01*
X100108500Y-55437000D02*
X100453500Y-55437000D01*
G75*
G02*
X100601000Y-55584500I0J-147500D01*
G01*
X100601000Y-55879500D01*
G75*
G02*
X100453500Y-56027000I-147500J0D01*
G01*
X100108500Y-56027000D01*
G75*
G02*
X99961000Y-55879500I0J147500D01*
G01*
X99961000Y-55584500D01*
G75*
G02*
X100108500Y-55437000I147500J0D01*
G01*
G37*
G36*
G01*
X100108500Y-56407000D02*
X100453500Y-56407000D01*
G75*
G02*
X100601000Y-56554500I0J-147500D01*
G01*
X100601000Y-56849500D01*
G75*
G02*
X100453500Y-56997000I-147500J0D01*
G01*
X100108500Y-56997000D01*
G75*
G02*
X99961000Y-56849500I0J147500D01*
G01*
X99961000Y-56554500D01*
G75*
G02*
X100108500Y-56407000I147500J0D01*
G01*
G37*
%TD*%
%TO.C,C18*%
G36*
G01*
X101569000Y-53504500D02*
X101569000Y-53849500D01*
G75*
G02*
X101421500Y-53997000I-147500J0D01*
G01*
X101126500Y-53997000D01*
G75*
G02*
X100979000Y-53849500I0J147500D01*
G01*
X100979000Y-53504500D01*
G75*
G02*
X101126500Y-53357000I147500J0D01*
G01*
X101421500Y-53357000D01*
G75*
G02*
X101569000Y-53504500I0J-147500D01*
G01*
G37*
G36*
G01*
X100599000Y-53504500D02*
X100599000Y-53849500D01*
G75*
G02*
X100451500Y-53997000I-147500J0D01*
G01*
X100156500Y-53997000D01*
G75*
G02*
X100009000Y-53849500I0J147500D01*
G01*
X100009000Y-53504500D01*
G75*
G02*
X100156500Y-53357000I147500J0D01*
G01*
X100451500Y-53357000D01*
G75*
G02*
X100599000Y-53504500I0J-147500D01*
G01*
G37*
%TD*%
%TO.C,C17*%
G36*
G01*
X103156500Y-54421000D02*
X103501500Y-54421000D01*
G75*
G02*
X103649000Y-54568500I0J-147500D01*
G01*
X103649000Y-54863500D01*
G75*
G02*
X103501500Y-55011000I-147500J0D01*
G01*
X103156500Y-55011000D01*
G75*
G02*
X103009000Y-54863500I0J147500D01*
G01*
X103009000Y-54568500D01*
G75*
G02*
X103156500Y-54421000I147500J0D01*
G01*
G37*
G36*
G01*
X103156500Y-55391000D02*
X103501500Y-55391000D01*
G75*
G02*
X103649000Y-55538500I0J-147500D01*
G01*
X103649000Y-55833500D01*
G75*
G02*
X103501500Y-55981000I-147500J0D01*
G01*
X103156500Y-55981000D01*
G75*
G02*
X103009000Y-55833500I0J147500D01*
G01*
X103009000Y-55538500D01*
G75*
G02*
X103156500Y-55391000I147500J0D01*
G01*
G37*
%TD*%
%TO.C,C16*%
G36*
G01*
X102140500Y-54421000D02*
X102485500Y-54421000D01*
G75*
G02*
X102633000Y-54568500I0J-147500D01*
G01*
X102633000Y-54863500D01*
G75*
G02*
X102485500Y-55011000I-147500J0D01*
G01*
X102140500Y-55011000D01*
G75*
G02*
X101993000Y-54863500I0J147500D01*
G01*
X101993000Y-54568500D01*
G75*
G02*
X102140500Y-54421000I147500J0D01*
G01*
G37*
G36*
G01*
X102140500Y-55391000D02*
X102485500Y-55391000D01*
G75*
G02*
X102633000Y-55538500I0J-147500D01*
G01*
X102633000Y-55833500D01*
G75*
G02*
X102485500Y-55981000I-147500J0D01*
G01*
X102140500Y-55981000D01*
G75*
G02*
X101993000Y-55833500I0J147500D01*
G01*
X101993000Y-55538500D01*
G75*
G02*
X102140500Y-55391000I147500J0D01*
G01*
G37*
%TD*%
%TO.C,C14*%
G36*
G01*
X95409500Y-54167000D02*
X95754500Y-54167000D01*
G75*
G02*
X95902000Y-54314500I0J-147500D01*
G01*
X95902000Y-54609500D01*
G75*
G02*
X95754500Y-54757000I-147500J0D01*
G01*
X95409500Y-54757000D01*
G75*
G02*
X95262000Y-54609500I0J147500D01*
G01*
X95262000Y-54314500D01*
G75*
G02*
X95409500Y-54167000I147500J0D01*
G01*
G37*
G36*
G01*
X95409500Y-55137000D02*
X95754500Y-55137000D01*
G75*
G02*
X95902000Y-55284500I0J-147500D01*
G01*
X95902000Y-55579500D01*
G75*
G02*
X95754500Y-55727000I-147500J0D01*
G01*
X95409500Y-55727000D01*
G75*
G02*
X95262000Y-55579500I0J147500D01*
G01*
X95262000Y-55284500D01*
G75*
G02*
X95409500Y-55137000I147500J0D01*
G01*
G37*
%TD*%
%TO.C,C11*%
G36*
G01*
X106295500Y-76936000D02*
X105950500Y-76936000D01*
G75*
G02*
X105803000Y-76788500I0J147500D01*
G01*
X105803000Y-76493500D01*
G75*
G02*
X105950500Y-76346000I147500J0D01*
G01*
X106295500Y-76346000D01*
G75*
G02*
X106443000Y-76493500I0J-147500D01*
G01*
X106443000Y-76788500D01*
G75*
G02*
X106295500Y-76936000I-147500J0D01*
G01*
G37*
G36*
G01*
X106295500Y-75966000D02*
X105950500Y-75966000D01*
G75*
G02*
X105803000Y-75818500I0J147500D01*
G01*
X105803000Y-75523500D01*
G75*
G02*
X105950500Y-75376000I147500J0D01*
G01*
X106295500Y-75376000D01*
G75*
G02*
X106443000Y-75523500I0J-147500D01*
G01*
X106443000Y-75818500D01*
G75*
G02*
X106295500Y-75966000I-147500J0D01*
G01*
G37*
%TD*%
%TO.C,C9*%
G36*
G01*
X103601000Y-56552500D02*
X103601000Y-56897500D01*
G75*
G02*
X103453500Y-57045000I-147500J0D01*
G01*
X103158500Y-57045000D01*
G75*
G02*
X103011000Y-56897500I0J147500D01*
G01*
X103011000Y-56552500D01*
G75*
G02*
X103158500Y-56405000I147500J0D01*
G01*
X103453500Y-56405000D01*
G75*
G02*
X103601000Y-56552500I0J-147500D01*
G01*
G37*
G36*
G01*
X102631000Y-56552500D02*
X102631000Y-56897500D01*
G75*
G02*
X102483500Y-57045000I-147500J0D01*
G01*
X102188500Y-57045000D01*
G75*
G02*
X102041000Y-56897500I0J147500D01*
G01*
X102041000Y-56552500D01*
G75*
G02*
X102188500Y-56405000I147500J0D01*
G01*
X102483500Y-56405000D01*
G75*
G02*
X102631000Y-56552500I0J-147500D01*
G01*
G37*
%TD*%
%TO.C,C5*%
G36*
G01*
X99092500Y-54421000D02*
X99437500Y-54421000D01*
G75*
G02*
X99585000Y-54568500I0J-147500D01*
G01*
X99585000Y-54863500D01*
G75*
G02*
X99437500Y-55011000I-147500J0D01*
G01*
X99092500Y-55011000D01*
G75*
G02*
X98945000Y-54863500I0J147500D01*
G01*
X98945000Y-54568500D01*
G75*
G02*
X99092500Y-54421000I147500J0D01*
G01*
G37*
G36*
G01*
X99092500Y-55391000D02*
X99437500Y-55391000D01*
G75*
G02*
X99585000Y-55538500I0J-147500D01*
G01*
X99585000Y-55833500D01*
G75*
G02*
X99437500Y-55981000I-147500J0D01*
G01*
X99092500Y-55981000D01*
G75*
G02*
X98945000Y-55833500I0J147500D01*
G01*
X98945000Y-55538500D01*
G75*
G02*
X99092500Y-55391000I147500J0D01*
G01*
G37*
%TD*%
%TO.C,C3*%
G36*
G01*
X110863000Y-75475500D02*
X110863000Y-75820500D01*
G75*
G02*
X110715500Y-75968000I-147500J0D01*
G01*
X110420500Y-75968000D01*
G75*
G02*
X110273000Y-75820500I0J147500D01*
G01*
X110273000Y-75475500D01*
G75*
G02*
X110420500Y-75328000I147500J0D01*
G01*
X110715500Y-75328000D01*
G75*
G02*
X110863000Y-75475500I0J-147500D01*
G01*
G37*
G36*
G01*
X109893000Y-75475500D02*
X109893000Y-75820500D01*
G75*
G02*
X109745500Y-75968000I-147500J0D01*
G01*
X109450500Y-75968000D01*
G75*
G02*
X109303000Y-75820500I0J147500D01*
G01*
X109303000Y-75475500D01*
G75*
G02*
X109450500Y-75328000I147500J0D01*
G01*
X109745500Y-75328000D01*
G75*
G02*
X109893000Y-75475500I0J-147500D01*
G01*
G37*
%TD*%
%TO.C,C1*%
G36*
G01*
X96770500Y-55727000D02*
X96425500Y-55727000D01*
G75*
G02*
X96278000Y-55579500I0J147500D01*
G01*
X96278000Y-55284500D01*
G75*
G02*
X96425500Y-55137000I147500J0D01*
G01*
X96770500Y-55137000D01*
G75*
G02*
X96918000Y-55284500I0J-147500D01*
G01*
X96918000Y-55579500D01*
G75*
G02*
X96770500Y-55727000I-147500J0D01*
G01*
G37*
G36*
G01*
X96770500Y-54757000D02*
X96425500Y-54757000D01*
G75*
G02*
X96278000Y-54609500I0J147500D01*
G01*
X96278000Y-54314500D01*
G75*
G02*
X96425500Y-54167000I147500J0D01*
G01*
X96770500Y-54167000D01*
G75*
G02*
X96918000Y-54314500I0J-147500D01*
G01*
X96918000Y-54609500D01*
G75*
G02*
X96770500Y-54757000I-147500J0D01*
G01*
G37*
%TD*%
M02*
